G04 DipTrace 3.2.0.1*
G04 BottomMask.gbr*
%MOMM*%
G04 #@! TF.FileFunction,Soldermask,Bot*
G04 #@! TF.Part,Single*
%AMOUTLINE1*
4,1,8,
-0.6,-0.79142,
-0.29142,-1.1,
0.29142,-1.1,
0.6,-0.79142,
0.6,0.79142,
0.29142,1.1,
-0.29142,1.1,
-0.6,0.79142,
-0.6,-0.79142,
0*%
%ADD24C,1.5*%
%ADD25R,1.7X1.7*%
%ADD26C,1.7*%
%ADD31C,3.2*%
%ADD39O,1.2X2.2*%
%ADD42C,1.9*%
%ADD43R,1.9X1.9*%
%ADD44C,1.7*%
%ADD45R,1.82X1.82*%
%ADD47C,1.82*%
%ADD49O,4.7X2.2*%
%ADD51O,2.2X5.2*%
%ADD53O,2.2X4.7*%
%ADD57C,1.8*%
%ADD59R,1.8X1.8*%
%ADD65OUTLINE1*%
%FSLAX35Y35*%
G04*
G71*
G90*
G75*
G01*
G04 BotMask*
%LPD*%
D59*
X-4445000Y18923000D3*
D57*
X-4191000D3*
X2413000Y13081000D3*
D59*
Y12827000D3*
D57*
X5207000D3*
D59*
Y12573000D3*
D57*
X1270000Y16637000D3*
D59*
Y16383000D3*
D57*
X-5334000Y11938000D3*
D59*
X-5588000D3*
D57*
X-1524000Y17272000D3*
D59*
X-1778000D3*
D57*
X-1143000Y12319000D3*
D59*
X-1397000D3*
D57*
X-2413000Y10541000D3*
D59*
X-2667000D3*
X-2413000Y9906000D3*
D57*
X-2667000D3*
D26*
X6985000Y16510000D3*
D25*
X7239000D3*
D26*
X6985000Y15875000D3*
D25*
X7239000D3*
D26*
X6985000Y15240000D3*
D25*
X7239000D3*
D26*
X6985000Y14605000D3*
D25*
X7239000D3*
D26*
X6985000Y13970000D3*
D25*
X7239000D3*
D26*
X6985000Y13335000D3*
D25*
X7239000D3*
D26*
X6985000Y12700000D3*
D25*
X7239000D3*
D26*
X6985000Y12065000D3*
D25*
X7239000D3*
D31*
X-6900000Y19900000D3*
X7100000D3*
X-6900000Y8900000D3*
X7100000D3*
D25*
X-1397000Y9398000D3*
D26*
Y9144000D3*
X-1143000Y9398000D3*
Y9144000D3*
X-889000Y9398000D3*
Y9144000D3*
X-635000Y9398000D3*
Y9144000D3*
X-381000Y9398000D3*
Y9144000D3*
D53*
X-6600000Y18900000D3*
D51*
X-6000000D3*
D49*
X-6300000Y18430000D3*
D25*
X-4572000Y11430000D3*
D26*
Y11684000D3*
X-4318000Y11430000D3*
Y11684000D3*
X-4064000Y11430000D3*
Y11684000D3*
D25*
X-2159000Y12573000D3*
D26*
X-2413000D3*
X-2667000D3*
X-2921000D3*
D47*
X-6350000Y11303000D3*
Y11557000D3*
Y11811000D3*
Y12065000D3*
Y12319000D3*
Y12573000D3*
Y12827000D3*
Y13081000D3*
Y13335000D3*
Y13589000D3*
Y13843000D3*
Y14097000D3*
Y14351000D3*
Y14605000D3*
Y14859000D3*
Y15113000D3*
Y15367000D3*
Y15621000D3*
Y15875000D3*
Y16129000D3*
Y16383000D3*
Y16637000D3*
Y16891000D3*
Y17145000D3*
Y17399000D3*
X-6604000D3*
Y17145000D3*
Y16891000D3*
Y16637000D3*
Y16383000D3*
Y16129000D3*
Y15875000D3*
Y15621000D3*
Y15367000D3*
Y15113000D3*
Y14859000D3*
Y14605000D3*
Y14351000D3*
Y14097000D3*
Y13843000D3*
Y13589000D3*
Y13335000D3*
Y13081000D3*
Y12827000D3*
Y12573000D3*
Y12319000D3*
Y12065000D3*
Y11811000D3*
Y11557000D3*
D45*
Y11303000D3*
D25*
X3810000Y13462000D3*
D44*
Y13208000D3*
Y12954000D3*
Y12700000D3*
Y12446000D3*
Y12192000D3*
Y11938000D3*
Y11684000D3*
Y11430000D3*
D25*
X6477000Y15240000D3*
D44*
Y14986000D3*
Y14732000D3*
Y14478000D3*
Y14224000D3*
Y13970000D3*
Y13716000D3*
Y13462000D3*
Y13208000D3*
D43*
X-127000Y18161000D3*
D42*
Y17711000D3*
X523000D3*
Y18161000D3*
D43*
X381000Y10668000D3*
D42*
Y10218000D3*
X1031000D3*
Y10668000D3*
D43*
X1270000D3*
D42*
Y10218000D3*
X1920000D3*
Y10668000D3*
D43*
X2159000D3*
D42*
Y10218000D3*
X2809000D3*
Y10668000D3*
D43*
X3048000D3*
D42*
Y10218000D3*
X3698000D3*
Y10668000D3*
D43*
X3937000D3*
D42*
Y10218000D3*
X4587000D3*
Y10668000D3*
D43*
X4826000D3*
D42*
Y10218000D3*
X5476000D3*
Y10668000D3*
D43*
X5715000D3*
D42*
Y10218000D3*
X6365000D3*
Y10668000D3*
D43*
X6604000D3*
D42*
Y10218000D3*
X7254000D3*
Y10668000D3*
D25*
X1778000Y16764000D3*
D26*
Y16510000D3*
Y16256000D3*
Y16002000D3*
Y15748000D3*
Y15494000D3*
Y15240000D3*
Y14986000D3*
Y14732000D3*
Y14478000D3*
Y14224000D3*
Y13970000D3*
Y13716000D3*
Y13462000D3*
Y13208000D3*
Y12954000D3*
Y12700000D3*
Y12446000D3*
Y12192000D3*
Y11938000D3*
X3302000D3*
Y12192000D3*
Y12446000D3*
Y12700000D3*
Y12954000D3*
Y13208000D3*
Y13462000D3*
Y13716000D3*
Y13970000D3*
Y14224000D3*
Y14478000D3*
Y14732000D3*
Y14986000D3*
Y15240000D3*
Y15494000D3*
Y15748000D3*
Y16002000D3*
Y16256000D3*
Y16510000D3*
Y16764000D3*
D25*
X4445000D3*
D26*
Y16510000D3*
Y16256000D3*
Y16002000D3*
Y15748000D3*
Y15494000D3*
Y15240000D3*
Y14986000D3*
Y14732000D3*
Y14478000D3*
Y14224000D3*
Y13970000D3*
Y13716000D3*
Y13462000D3*
Y13208000D3*
Y12954000D3*
Y12700000D3*
Y12446000D3*
Y12192000D3*
Y11938000D3*
X5969000D3*
Y12192000D3*
Y12446000D3*
Y12700000D3*
Y12954000D3*
Y13208000D3*
Y13462000D3*
Y13716000D3*
Y13970000D3*
Y14224000D3*
Y14478000D3*
Y14732000D3*
Y14986000D3*
Y15240000D3*
Y15494000D3*
Y15748000D3*
Y16002000D3*
Y16256000D3*
Y16510000D3*
Y16764000D3*
D24*
X-1524000Y11557000D3*
Y11303000D3*
Y11049000D3*
Y10795000D3*
Y10541000D3*
Y10287000D3*
X-1270000D3*
X-1016000D3*
X-762000D3*
X-508000D3*
X-254000D3*
Y10541000D3*
Y10795000D3*
Y11049000D3*
Y11303000D3*
Y11557000D3*
X-508000D3*
X-762000D3*
X-1016000D3*
X-1270000D3*
X-1778000D3*
Y11303000D3*
Y11049000D3*
Y10795000D3*
Y10541000D3*
Y10287000D3*
X-1524000Y10033000D3*
X-1270000D3*
X-1016000D3*
X-762000D3*
X-508000D3*
X-254000D3*
X0Y10287000D3*
Y10541000D3*
Y10795000D3*
Y11049000D3*
Y11303000D3*
Y11557000D3*
X-1524000Y11811000D3*
X-1270000D3*
X-1016000D3*
X-762000D3*
X-508000D3*
X-254000D3*
D25*
X-3048000Y16637000D3*
D26*
Y16383000D3*
Y16129000D3*
Y15875000D3*
Y15621000D3*
Y15367000D3*
Y15113000D3*
Y14859000D3*
Y14605000D3*
Y14351000D3*
Y14097000D3*
Y13843000D3*
Y13589000D3*
Y13335000D3*
X-1528000D3*
Y13589000D3*
Y13843000D3*
Y14097000D3*
Y14351000D3*
Y14605000D3*
Y14859000D3*
Y15113000D3*
Y15367000D3*
Y15621000D3*
Y15875000D3*
Y16129000D3*
Y16383000D3*
Y16637000D3*
D25*
X-889000D3*
D26*
Y16383000D3*
Y16129000D3*
Y15875000D3*
Y15621000D3*
Y15367000D3*
Y15113000D3*
Y14859000D3*
Y14605000D3*
Y14351000D3*
Y14097000D3*
Y13843000D3*
Y13589000D3*
Y13335000D3*
X635000D3*
Y13589000D3*
Y13843000D3*
Y14097000D3*
Y14351000D3*
Y14605000D3*
Y14859000D3*
Y15113000D3*
Y15367000D3*
Y15621000D3*
Y15875000D3*
Y16129000D3*
Y16383000D3*
Y16637000D3*
D65*
X-2667000Y9144000D3*
D39*
X-2540000D3*
X-2413000D3*
D25*
X-3683000Y12446000D3*
D26*
Y12700000D3*
Y12954000D3*
Y13208000D3*
Y13462000D3*
Y13716000D3*
Y13970000D3*
Y14224000D3*
Y14478000D3*
Y14732000D3*
Y14986000D3*
Y15240000D3*
Y15494000D3*
Y15748000D3*
Y16002000D3*
Y16256000D3*
Y16510000D3*
Y16764000D3*
Y17018000D3*
Y17272000D3*
X-5207000D3*
Y17018000D3*
Y16764000D3*
Y16510000D3*
Y16256000D3*
Y16002000D3*
Y15748000D3*
Y15494000D3*
Y15240000D3*
Y14986000D3*
Y14732000D3*
Y14478000D3*
Y14224000D3*
Y13970000D3*
Y13716000D3*
Y13462000D3*
Y13208000D3*
Y12954000D3*
Y12700000D3*
Y12446000D3*
D25*
X2921000Y18415000D3*
D26*
X2159000D3*
Y17653000D3*
X2921000D3*
M02*
