G04 DipTrace 3.2.0.1*
G04 BottomSilk.gbr*
%MOMM*%
G04 #@! TF.FileFunction,Legend,Bot*
G04 #@! TF.Part,Single*
%ADD87C,0.39216*%
%FSLAX35Y35*%
G04*
G71*
G90*
G75*
G01*
G04 BotSilk*
%LPD*%
X11808181Y7188207D2*
D87*
Y6932987D1*
X11729750Y7188207D2*
X11717677Y7176133D1*
X11705323Y7188207D1*
X11717677Y7200560D1*
X11729750Y7188207D1*
X11717677Y7103133D2*
Y6932987D1*
X11481172Y7091060D2*
Y6896487D1*
X11493245Y6860268D1*
X11505318Y6847914D1*
X11529745Y6835841D1*
X11566245D1*
X11590391Y6847914D1*
X11481172Y7054560D2*
X11505318Y7078707D1*
X11529745Y7091060D1*
X11566245D1*
X11590391Y7078707D1*
X11614818Y7054560D1*
X11626891Y7018060D1*
Y6993633D1*
X11614818Y6957414D1*
X11590391Y6932987D1*
X11566245Y6920914D1*
X11529745D1*
X11505318Y6932987D1*
X11481172Y6957414D1*
X11402741Y7188207D2*
Y6932987D1*
Y7054560D2*
X11366241Y7091060D1*
X11341814Y7103133D1*
X11305314D1*
X11281168Y7091060D1*
X11269095Y7054560D1*
Y6932987D1*
X11154163Y7188207D2*
Y6981560D1*
X11142090Y6945341D1*
X11117663Y6932987D1*
X11093517D1*
X11190663Y7103133D2*
X11105590D1*
X11015086Y7030133D2*
X10869366D1*
Y7054560D1*
X10881440Y7078987D1*
X10893513Y7091060D1*
X10917940Y7103133D1*
X10954440D1*
X10978586Y7091060D1*
X11003013Y7066633D1*
X11015086Y7030133D1*
Y7005987D1*
X11003013Y6969487D1*
X10978586Y6945341D1*
X10954440Y6932987D1*
X10917940D1*
X10893513Y6945341D1*
X10869366Y6969487D1*
X10790935Y7103133D2*
Y6932987D1*
Y7054560D2*
X10754435Y7091060D1*
X10730008Y7103133D1*
X10693789D1*
X10669362Y7091060D1*
X10657289Y7054560D1*
Y6932987D1*
Y7054560D2*
X10620789Y7091060D1*
X10596362Y7103133D1*
X10560143D1*
X10535716Y7091060D1*
X10523362Y7054560D1*
Y6932987D1*
X10444931Y7188207D2*
X10432858Y7176133D1*
X10420504Y7188207D1*
X10432858Y7200560D1*
X10444931Y7188207D1*
X10432858Y7103133D2*
Y6932987D1*
X10305572Y7188207D2*
Y6981560D1*
X10293499Y6945341D1*
X10269072Y6932987D1*
X10244926D1*
X10342072Y7103133D2*
X10256999D1*
X10129995Y7188207D2*
Y6981560D1*
X10117922Y6945341D1*
X10093495Y6932987D1*
X10069349D1*
X10166495Y7103133D2*
X10081422D1*
X9990917Y7188207D2*
X9978844Y7176133D1*
X9966490Y7188207D1*
X9978844Y7200560D1*
X9990917Y7188207D1*
X9978844Y7103133D2*
Y6932987D1*
X9888059Y7103133D2*
Y6932987D1*
Y7054560D2*
X9851559Y7091060D1*
X9827132Y7103133D1*
X9790913D1*
X9766486Y7091060D1*
X9754413Y7054560D1*
Y6932987D1*
X9530262Y7091060D2*
Y6896487D1*
X9542335Y6860268D1*
X9554408Y6847914D1*
X9578835Y6835841D1*
X9615335D1*
X9639482Y6847914D1*
X9530262Y7054560D2*
X9554408Y7078707D1*
X9578835Y7091060D1*
X9615335D1*
X9639482Y7078707D1*
X9663908Y7054560D1*
X9675982Y7018060D1*
Y6993633D1*
X9663908Y6957414D1*
X9639482Y6932987D1*
X9615335Y6920914D1*
X9578835D1*
X9554408Y6932987D1*
X9530262Y6957414D1*
X9451831Y7103133D2*
Y6932987D1*
Y7030133D2*
X9439477Y7066633D1*
X9415331Y7091060D1*
X9390904Y7103133D1*
X9354404D1*
X9275973Y7030133D2*
X9130253D1*
Y7054560D1*
X9142326Y7078987D1*
X9154400Y7091060D1*
X9178826Y7103133D1*
X9215326D1*
X9239473Y7091060D1*
X9263900Y7066633D1*
X9275973Y7030133D1*
Y7005987D1*
X9263900Y6969487D1*
X9239473Y6945341D1*
X9215326Y6932987D1*
X9178826D1*
X9154400Y6945341D1*
X9130253Y6969487D1*
X8918176Y7066633D2*
X8930249Y7091060D1*
X8966749Y7103133D1*
X9003249D1*
X9039749Y7091060D1*
X9051822Y7066633D1*
X9039749Y7042487D1*
X9015322Y7030133D1*
X8954676Y7018060D1*
X8930249Y7005987D1*
X8918176Y6981560D1*
Y6969487D1*
X8930249Y6945341D1*
X8966749Y6932987D1*
X9003249D1*
X9039749Y6945341D1*
X9051822Y6969487D1*
X8839744Y7188207D2*
X8827671Y7176133D1*
X8815318Y7188207D1*
X8827671Y7200560D1*
X8839744Y7188207D1*
X8827671Y7103133D2*
Y6932987D1*
X8603240Y7066633D2*
X8615313Y7091060D1*
X8651813Y7103133D1*
X8688313D1*
X8724813Y7091060D1*
X8736886Y7066633D1*
X8724813Y7042487D1*
X8700386Y7030133D1*
X8639740Y7018060D1*
X8615313Y7005987D1*
X8603240Y6981560D1*
Y6969487D1*
X8615313Y6945341D1*
X8651813Y6932987D1*
X8688313D1*
X8724813Y6945341D1*
X8736886Y6969487D1*
X8488309Y7188207D2*
Y6981560D1*
X8476236Y6945341D1*
X8451809Y6932987D1*
X8427663D1*
X8524809Y7103133D2*
X8439736D1*
X8288585D2*
X8312731Y7091060D1*
X8337158Y7066633D1*
X8349231Y7030133D1*
Y7005987D1*
X8337158Y6969487D1*
X8312731Y6945341D1*
X8288585Y6932987D1*
X8252085D1*
X8227658Y6945341D1*
X8203512Y6969487D1*
X8191158Y7005987D1*
Y7030133D1*
X8203512Y7066633D1*
X8227658Y7091060D1*
X8252085Y7103133D1*
X8288585D1*
X8112727D2*
Y6932987D1*
Y7030133D2*
X8100373Y7066633D1*
X8076227Y7091060D1*
X8051800Y7103133D1*
X8015300D1*
X7924795Y6957414D2*
X7936868Y6945060D1*
X7924795Y6932987D1*
X7912441Y6945060D1*
X7924795Y6957414D1*
X7688010Y7066633D2*
X7712437Y7091060D1*
X7736864Y7103133D1*
X7773083D1*
X7797510Y7091060D1*
X7821656Y7066633D1*
X7834010Y7030133D1*
Y7005987D1*
X7821656Y6969487D1*
X7797510Y6945341D1*
X7773083Y6932987D1*
X7736864D1*
X7712437Y6945341D1*
X7688010Y6969487D1*
X7548933Y7103133D2*
X7573079Y7091060D1*
X7597506Y7066633D1*
X7609579Y7030133D1*
Y7005987D1*
X7597506Y6969487D1*
X7573079Y6945341D1*
X7548933Y6932987D1*
X7512433D1*
X7488006Y6945341D1*
X7463859Y6969487D1*
X7451506Y7005987D1*
Y7030133D1*
X7463859Y7066633D1*
X7488006Y7091060D1*
X7512433Y7103133D1*
X7548933D1*
X7373074D2*
Y6932987D1*
Y7054560D2*
X7336574Y7091060D1*
X7312147Y7103133D1*
X7275928D1*
X7251501Y7091060D1*
X7239428Y7054560D1*
Y6932987D1*
Y7054560D2*
X7202928Y7091060D1*
X7178501Y7103133D1*
X7142282D1*
X7117855Y7091060D1*
X7105501Y7054560D1*
Y6932987D1*
X10430645Y6651030D2*
Y6663103D1*
X10418572Y6687530D1*
X10406499Y6699603D1*
X10382072Y6711676D1*
X10333499D1*
X10309353Y6699603D1*
X10297280Y6687530D1*
X10284926Y6663103D1*
Y6638957D1*
X10297280Y6614530D1*
X10321426Y6578310D1*
X10442999Y6456737D1*
X10272853D1*
X10121421Y6711676D2*
X10157921Y6699603D1*
X10182348Y6663103D1*
X10194421Y6602457D1*
Y6565957D1*
X10182348Y6505310D1*
X10157921Y6468810D1*
X10121421Y6456737D1*
X10097275D1*
X10060775Y6468810D1*
X10036629Y6505310D1*
X10024275Y6565957D1*
Y6602457D1*
X10036629Y6663103D1*
X10060775Y6699603D1*
X10097275Y6711676D1*
X10121421D1*
X10036629Y6663103D2*
X10182348Y6505310D1*
X9945844Y6663103D2*
X9921417Y6675457D1*
X9884917Y6711676D1*
Y6456737D1*
X9745839Y6711676D2*
X9782059Y6699603D1*
X9794413Y6675457D1*
Y6651030D1*
X9782059Y6626883D1*
X9757913Y6614530D1*
X9709339Y6602457D1*
X9672839Y6590383D1*
X9648693Y6565957D1*
X9636620Y6541810D1*
Y6505310D1*
X9648693Y6481164D1*
X9660766Y6468810D1*
X9697266Y6456737D1*
X9745839D1*
X9782059Y6468810D1*
X9794413Y6481164D1*
X9806486Y6505310D1*
Y6541810D1*
X9794413Y6565957D1*
X9769986Y6590383D1*
X9733766Y6602457D1*
X9685193Y6614530D1*
X9660766Y6626883D1*
X9648693Y6651030D1*
Y6675457D1*
X9660766Y6699603D1*
X9697266Y6711676D1*
X9745839D1*
X9558189Y6584207D2*
X9417804D1*
X9266373Y6711676D2*
X9302873Y6699603D1*
X9327300Y6663103D1*
X9339373Y6602457D1*
Y6565957D1*
X9327300Y6505310D1*
X9302873Y6468810D1*
X9266373Y6456737D1*
X9242227D1*
X9205727Y6468810D1*
X9181581Y6505310D1*
X9169227Y6565957D1*
Y6602457D1*
X9181581Y6663103D1*
X9205727Y6699603D1*
X9242227Y6711676D1*
X9266373D1*
X9181581Y6663103D2*
X9327300Y6505310D1*
X8932722Y6626883D2*
X8945076Y6590383D1*
X8969222Y6565957D1*
X9005722Y6553883D1*
X9017795D1*
X9054295Y6565957D1*
X9078441Y6590383D1*
X9090795Y6626883D1*
Y6638957D1*
X9078441Y6675457D1*
X9054295Y6699603D1*
X9017795Y6711676D1*
X9005722D1*
X8969222Y6699603D1*
X8945076Y6675457D1*
X8932722Y6626883D1*
Y6565957D1*
X8945076Y6505310D1*
X8969222Y6468810D1*
X9005722Y6456737D1*
X9029868D1*
X9066368Y6468810D1*
X9078441Y6493237D1*
X8854291Y6584207D2*
X8713906D1*
X8623121Y6651030D2*
Y6663103D1*
X8611048Y6687530D1*
X8598975Y6699603D1*
X8574548Y6711676D1*
X8525975D1*
X8501829Y6699603D1*
X8489756Y6687530D1*
X8477402Y6663103D1*
Y6638957D1*
X8489756Y6614530D1*
X8513902Y6578310D1*
X8635475Y6456737D1*
X8465329D1*
X8338324D2*
X8216751Y6711676D1*
X8386897D1*
M02*
