G04 DipTrace 3.2.0.1*
G04 BottomSilk.gbr*
%MOMM*%
G04 #@! TF.FileFunction,Legend,Bot*
G04 #@! TF.Part,Single*
%ADD62C,0.39216*%
%FSLAX35Y35*%
G04*
G71*
G90*
G75*
G01*
G04 BotSilk*
%LPD*%
X5602681Y19633457D2*
D62*
Y19378237D1*
X5524250Y19633457D2*
X5512177Y19621383D1*
X5499823Y19633457D1*
X5512177Y19645810D1*
X5524250Y19633457D1*
X5512177Y19548383D2*
Y19378237D1*
X5275672Y19536310D2*
Y19341737D1*
X5287745Y19305518D1*
X5299818Y19293164D1*
X5324245Y19281091D1*
X5360745D1*
X5384891Y19293164D1*
X5275672Y19499810D2*
X5299818Y19523957D1*
X5324245Y19536310D1*
X5360745D1*
X5384891Y19523957D1*
X5409318Y19499810D1*
X5421391Y19463310D1*
Y19438883D1*
X5409318Y19402664D1*
X5384891Y19378237D1*
X5360745Y19366164D1*
X5324245D1*
X5299818Y19378237D1*
X5275672Y19402664D1*
X5197241Y19633457D2*
Y19378237D1*
Y19499810D2*
X5160741Y19536310D1*
X5136314Y19548383D1*
X5099814D1*
X5075668Y19536310D1*
X5063595Y19499810D1*
Y19378237D1*
X4948663Y19633457D2*
Y19426810D1*
X4936590Y19390591D1*
X4912163Y19378237D1*
X4888017D1*
X4985163Y19548383D2*
X4900090D1*
X4809586Y19475383D2*
X4663866D1*
Y19499810D1*
X4675940Y19524237D1*
X4688013Y19536310D1*
X4712440Y19548383D1*
X4748940D1*
X4773086Y19536310D1*
X4797513Y19511883D1*
X4809586Y19475383D1*
Y19451237D1*
X4797513Y19414737D1*
X4773086Y19390591D1*
X4748940Y19378237D1*
X4712440D1*
X4688013Y19390591D1*
X4663866Y19414737D1*
X4585435Y19548383D2*
Y19378237D1*
Y19499810D2*
X4548935Y19536310D1*
X4524508Y19548383D1*
X4488289D1*
X4463862Y19536310D1*
X4451789Y19499810D1*
Y19378237D1*
Y19499810D2*
X4415289Y19536310D1*
X4390862Y19548383D1*
X4354643D1*
X4330216Y19536310D1*
X4317862Y19499810D1*
Y19378237D1*
X4239431Y19633457D2*
X4227358Y19621383D1*
X4215004Y19633457D1*
X4227358Y19645810D1*
X4239431Y19633457D1*
X4227358Y19548383D2*
Y19378237D1*
X4100072Y19633457D2*
Y19426810D1*
X4087999Y19390591D1*
X4063572Y19378237D1*
X4039426D1*
X4136572Y19548383D2*
X4051499D1*
X3924495Y19633457D2*
Y19426810D1*
X3912422Y19390591D1*
X3887995Y19378237D1*
X3863849D1*
X3960995Y19548383D2*
X3875922D1*
X3785417Y19633457D2*
X3773344Y19621383D1*
X3760990Y19633457D1*
X3773344Y19645810D1*
X3785417Y19633457D1*
X3773344Y19548383D2*
Y19378237D1*
X3682559Y19548383D2*
Y19378237D1*
Y19499810D2*
X3646059Y19536310D1*
X3621632Y19548383D1*
X3585413D1*
X3560986Y19536310D1*
X3548913Y19499810D1*
Y19378237D1*
X3324762Y19536310D2*
Y19341737D1*
X3336835Y19305518D1*
X3348908Y19293164D1*
X3373335Y19281091D1*
X3409835D1*
X3433981Y19293164D1*
X3324762Y19499810D2*
X3348908Y19523957D1*
X3373335Y19536310D1*
X3409835D1*
X3433981Y19523957D1*
X3458408Y19499810D1*
X3470481Y19463310D1*
Y19438883D1*
X3458408Y19402664D1*
X3433981Y19378237D1*
X3409835Y19366164D1*
X3373335D1*
X3348908Y19378237D1*
X3324762Y19402664D1*
X3246331Y19548383D2*
Y19378237D1*
Y19475383D2*
X3233977Y19511883D1*
X3209831Y19536310D1*
X3185404Y19548383D1*
X3148904D1*
X3070473Y19475383D2*
X2924753D1*
Y19499810D1*
X2936826Y19524237D1*
X2948900Y19536310D1*
X2973326Y19548383D1*
X3009826D1*
X3033973Y19536310D1*
X3058400Y19511883D1*
X3070473Y19475383D1*
Y19451237D1*
X3058400Y19414737D1*
X3033973Y19390591D1*
X3009826Y19378237D1*
X2973326D1*
X2948900Y19390591D1*
X2924753Y19414737D1*
X2712676Y19511883D2*
X2724749Y19536310D1*
X2761249Y19548383D1*
X2797749D1*
X2834249Y19536310D1*
X2846322Y19511883D1*
X2834249Y19487737D1*
X2809822Y19475383D1*
X2749176Y19463310D1*
X2724749Y19451237D1*
X2712676Y19426810D1*
Y19414737D1*
X2724749Y19390591D1*
X2761249Y19378237D1*
X2797749D1*
X2834249Y19390591D1*
X2846322Y19414737D1*
X2634244Y19633457D2*
X2622171Y19621383D1*
X2609818Y19633457D1*
X2622171Y19645810D1*
X2634244Y19633457D1*
X2622171Y19548383D2*
Y19378237D1*
X2397740Y19511883D2*
X2409813Y19536310D1*
X2446313Y19548383D1*
X2482813D1*
X2519313Y19536310D1*
X2531386Y19511883D1*
X2519313Y19487737D1*
X2494886Y19475383D1*
X2434240Y19463310D1*
X2409813Y19451237D1*
X2397740Y19426810D1*
Y19414737D1*
X2409813Y19390591D1*
X2446313Y19378237D1*
X2482813D1*
X2519313Y19390591D1*
X2531386Y19414737D1*
X2282809Y19633457D2*
Y19426810D1*
X2270736Y19390591D1*
X2246309Y19378237D1*
X2222162D1*
X2319309Y19548383D2*
X2234236D1*
X2083085D2*
X2107231Y19536310D1*
X2131658Y19511883D1*
X2143731Y19475383D1*
Y19451237D1*
X2131658Y19414737D1*
X2107231Y19390591D1*
X2083085Y19378237D1*
X2046585D1*
X2022158Y19390591D1*
X1998012Y19414737D1*
X1985658Y19451237D1*
Y19475383D1*
X1998012Y19511883D1*
X2022158Y19536310D1*
X2046585Y19548383D1*
X2083085D1*
X1907227D2*
Y19378237D1*
Y19475383D2*
X1894873Y19511883D1*
X1870727Y19536310D1*
X1846300Y19548383D1*
X1809800D1*
X1719295Y19402664D2*
X1731368Y19390310D1*
X1719295Y19378237D1*
X1706941Y19390310D1*
X1719295Y19402664D1*
X1482510Y19511883D2*
X1506937Y19536310D1*
X1531364Y19548383D1*
X1567583D1*
X1592010Y19536310D1*
X1616156Y19511883D1*
X1628510Y19475383D1*
Y19451237D1*
X1616156Y19414737D1*
X1592010Y19390591D1*
X1567583Y19378237D1*
X1531364D1*
X1506937Y19390591D1*
X1482510Y19414737D1*
X1343433Y19548383D2*
X1367579Y19536310D1*
X1392006Y19511883D1*
X1404079Y19475383D1*
Y19451237D1*
X1392006Y19414737D1*
X1367579Y19390591D1*
X1343433Y19378237D1*
X1306933D1*
X1282506Y19390591D1*
X1258359Y19414737D1*
X1246006Y19451237D1*
Y19475383D1*
X1258359Y19511883D1*
X1282506Y19536310D1*
X1306933Y19548383D1*
X1343433D1*
X1167574D2*
Y19378237D1*
Y19499810D2*
X1131074Y19536310D1*
X1106647Y19548383D1*
X1070428D1*
X1046001Y19536310D1*
X1033928Y19499810D1*
Y19378237D1*
Y19499810D2*
X997428Y19536310D1*
X973001Y19548383D1*
X936782D1*
X912355Y19536310D1*
X900001Y19499810D1*
Y19378237D1*
M02*
