M48
METRIC,0000.00
T01C0.5
T02C0.7
T03C0.889
T04C0.9
T05C1.0
T06C1.02
T07C3.2
%
T01
X-001016Y+011151
X-001270Y+011271
X-000914Y+010795
X-000889Y+010476
X-000406Y+010389
X-000508Y+010897
X-000657Y+011271
X-000570Y+012000
X-000310Y+012223
X-000187Y+012137
X-000223Y+012446
X-000483Y+012827
X-000769Y+012827
X-000744Y+013360
X-000483Y+013589
X-000483Y+013970
X-000100Y+013701
X+000834Y+013756
X+001254Y+013843
X+001467Y+014097
X+000954Y+014336
X+001007Y+014971
X+001007Y+015280
X+000974Y+015748
X+000974Y+016241
X+001420Y+016398
X+001633Y+015748
X+002030Y+016002
X+002159Y+015494
X+002386Y+015098
X+002386Y+014844
X+002920Y+014478
X+002878Y+015374
X+003861Y+015860
X+004697Y+015098
X+005464Y+014931
X+005675Y+015011
X+005633Y+015494
X+005804Y+015860
X+006985Y+014844
X+004644Y+014137
X+003024Y+013066
X+002791Y+013320
X+002439Y+013549
X+002246Y+013828
X+002159Y+013915
X+001220Y+013227
X+001307Y+013054
X+000797Y+012533
X+000590Y+011913
X+000417Y+011743
X+000711Y+011405
X+000590Y+011303
X+000208Y+010643
X+000135Y+010476
X-000065Y+009972
X+000102Y+009798
X-001422Y+010643
X-002209Y+010352
X-002123Y+010120
X-002435Y+011303
X-002834Y+011557
X-003048Y+011684
X-002555Y+011779
X-002435Y+011966
X-002123Y+012169
X-002073Y+012301
X-001793Y+012169
X-001422Y+012142
X-001397Y+012827
X-001615Y+013141
X-002326Y+013054
X-002818Y+012685
X-003786Y+013320
X-004148Y+013066
X-004513Y+012558
X-004201Y+011968
X-004350Y+011883
X-003865Y+011968
X-003865Y+011285
X-003378Y+013828
X-003431Y+014209
X-003151Y+014209
X-002858Y+014262
X-002945Y+014478
X-002720Y+014819
X-002447Y+014819
X-002667Y+015113
X-003184Y+015240
X-003271Y+015113
X-004043Y+014692
X-004255Y+014336
X-004513Y+014336
X-004148Y+013881
X-005812Y+014336
X-006005Y+014082
X-006232Y+013696
X-006232Y+013453
X-005860Y+013589
X-005812Y+015621
X-006039Y+015860
X-006039Y+016129
X-006039Y+016383
X-006497Y+016755
X-006711Y+017263
X-004687Y+016256
X-004287Y+016963
X-004238Y+018026
X-004358Y+018366
X-003044Y+017476
X-002381Y+017130
X-002133Y+017476
X-001928Y+017389
X-001793Y+016715
X-001900Y+016628
X-002073Y+016582
X-002547Y+016582
X-003238Y+016622
X-001193Y+015987
X-001329Y+015566
X-001329Y+015367
X-001673Y+015113
X-001329Y+014463
X-001000Y+014717
X-000744Y+014859
X-000657Y+014971
X-000786Y+015225
X-000483Y+014717
X-000310Y+015588
X-000483Y+016074
X-000397Y+016162
X+000011Y+016241
X+000383Y+016074
X+000295Y+016770
X+000189Y+016855
X+000011Y+016769
X-000103Y+016637
X-000103Y+017116
X-000223Y+017105
X-000310Y+017798
X+000800Y+017556
X+001061Y+018026
X+000887Y+016909
X+000800Y+016754
X+002030Y+017116
X+003023Y+016909
X+003163Y+016909
X+003033Y+017323
X-000744Y+016637
X-001074Y+016637
X-002220Y+014478
X-001416Y+013955
X+002559Y+011557
X+004011Y+011709
X+004445Y+011709
X+005324Y+011557
X+006168Y+010910
X+006081Y+010790
X-006775Y+011151
X-006895Y+010897
X-006982Y+009789
T02
X-002667Y+009144
X-002540Y+009144
X-002413Y+009144
T03
X+006985Y+016510
X+007239Y+016510
X+007239Y+015875
X+006985Y+015875
X+006985Y+015240
X+007239Y+015240
X+007239Y+014605
X+006985Y+014605
X+006985Y+013970
X+007239Y+013970
X+007239Y+013335
X+006985Y+013335
X+006985Y+012700
X+007239Y+012700
X+007239Y+012065
X+006985Y+012065
T04
X-004445Y+018923
X-004191Y+018923
X-003683Y+017272
X-003683Y+017018
X-003683Y+016764
X-003683Y+016510
X-003683Y+016256
X-003683Y+016002
X-003683Y+015748
X-003683Y+015494
X-003683Y+015240
X-003683Y+014986
X-003683Y+014732
X-003683Y+014478
X-003683Y+014224
X-003683Y+013970
X-003683Y+013716
X-003683Y+013462
X-003683Y+013208
X-003683Y+012954
X-003683Y+012700
X-003683Y+012446
X-002921Y+012573
X-002667Y+012573
X-002413Y+012573
X-002159Y+012573
X-001528Y+013335
X-001528Y+013589
X-001528Y+013843
X-001528Y+014097
X-001528Y+014351
X-001528Y+014605
X-001528Y+014859
X-001528Y+015113
X-001528Y+015367
X-001528Y+015621
X-001528Y+015875
X-001528Y+016129
X-001528Y+016383
X-001528Y+016637
X-000889Y+016637
X-000889Y+016383
X-000889Y+016129
X-000889Y+015875
X-000889Y+015621
X-000889Y+015367
X-000889Y+015113
X-000889Y+014859
X-000889Y+014605
X-000889Y+014351
X-000889Y+014097
X-000889Y+013843
X-000889Y+013589
X-000889Y+013335
X+000635Y+013335
X+000635Y+013589
X+000635Y+013843
X+000635Y+014097
X+000635Y+014351
X+000635Y+014605
X+000635Y+014859
X+000635Y+015113
X+000635Y+015367
X+000635Y+015621
X+000635Y+015875
X+000635Y+016129
X+000635Y+016383
X+000635Y+016637
X+001778Y+016764
X+001778Y+016510
X+001778Y+016256
X+001778Y+016002
X+001778Y+015748
X+001778Y+015494
X+001778Y+015240
X+001778Y+014986
X+001778Y+014732
X+001778Y+014478
X+001778Y+014224
X+001778Y+013970
X+001778Y+013716
X+001778Y+013462
X+001778Y+013208
X+001778Y+012954
X+001778Y+012700
X+001778Y+012446
X+001778Y+012192
X+001778Y+011938
X+003302Y+011938
X+003302Y+012192
X+003302Y+012446
X+003302Y+012700
X+003302Y+012954
X+003302Y+013208
X+003302Y+013462
X+003302Y+013716
X+003302Y+013970
X+003302Y+014224
X+003302Y+014478
X+003302Y+014732
X+003302Y+014986
X+003302Y+015240
X+003302Y+015494
X+003302Y+015748
X+003302Y+016002
X+003302Y+016256
X+003302Y+016510
X+003302Y+016764
X+002921Y+017653
X+002921Y+018415
X+002159Y+018415
X+002159Y+017653
X+004445Y+016764
X+004445Y+016510
X+004445Y+016256
X+004445Y+016002
X+004445Y+015748
X+004445Y+015494
X+004445Y+015240
X+004445Y+014986
X+004445Y+014732
X+004445Y+014478
X+004445Y+014224
X+004445Y+013970
X+004445Y+013716
X+004445Y+013462
X+004445Y+013208
X+004445Y+012954
X+004445Y+012700
X+004445Y+012446
X+004445Y+012192
X+004445Y+011938
X+003810Y+011938
X+003810Y+011684
X+003810Y+011430
X+003810Y+012192
X+003810Y+012446
X+003810Y+012700
X+003810Y+012954
X+003810Y+013208
X+003810Y+013462
X+005969Y+013462
X+005969Y+013208
X+005969Y+012954
X+005969Y+012700
X+005969Y+012446
X+005969Y+012192
X+005969Y+011938
X+006477Y+013208
X+006477Y+013462
X+006477Y+013716
X+006477Y+013970
X+006477Y+014224
X+006477Y+014478
X+006477Y+014732
X+006477Y+014986
X+006477Y+015240
X+005969Y+015240
X+005969Y+015494
X+005969Y+015748
X+005969Y+016002
X+005969Y+016256
X+005969Y+016510
X+005969Y+016764
X+005969Y+014986
X+005969Y+014732
X+005969Y+014478
X+005969Y+014224
X+005969Y+013970
X+005969Y+013716
X+000000Y+011557
X-000254Y+011557
X-000254Y+011811
X-000508Y+011811
X-000508Y+011557
X-000762Y+011557
X-000762Y+011811
X-001016Y+011811
X-001270Y+011811
X-001270Y+011557
X-001016Y+011557
X-001524Y+011557
X-001778Y+011557
X-001778Y+011303
X-001778Y+011049
X-001524Y+011049
X-001524Y+010795
X-001524Y+010541
X-001778Y+010541
X-001778Y+010795
X-001778Y+010287
X-001524Y+010287
X-001524Y+010033
X-001270Y+010033
X-001016Y+010033
X-000762Y+010033
X-000508Y+010033
X-000508Y+010287
X-000762Y+010287
X-001016Y+010287
X-001270Y+010287
X-001143Y+009398
X-000889Y+009398
X-000635Y+009398
X-000635Y+009144
X-000889Y+009144
X-001143Y+009144
X-001397Y+009144
X-001397Y+009398
X-000381Y+009398
X-000381Y+009144
X-000254Y+010033
X-000254Y+010287
X+000000Y+010287
X+000000Y+010541
X+000000Y+010795
X-000254Y+010795
X-000254Y+010541
X-000254Y+011049
X-000254Y+011303
X+000000Y+011303
X+000000Y+011049
X-001524Y+011303
X-001524Y+011811
X-002413Y+009906
X-002667Y+009906
X-004064Y+011430
X-004318Y+011430
X-004572Y+011430
X-004572Y+011684
X-004318Y+011684
X-004064Y+011684
X-005207Y+012446
X-005207Y+012700
X-005207Y+012954
X-005207Y+013208
X-005207Y+013462
X-005207Y+013716
X-005207Y+013970
X-005207Y+014224
X-005207Y+014478
X-005207Y+014732
X-005207Y+014986
X-005207Y+015240
X-005207Y+015494
X-005207Y+015748
X-005207Y+016002
X-005207Y+016256
X-005207Y+016510
X-005207Y+016764
X-005207Y+017018
X-005207Y+017272
X-003048Y+016637
X-003048Y+016383
X-003048Y+016129
X-003048Y+015875
X-003048Y+015621
X-003048Y+015367
X-003048Y+015113
X-003048Y+014859
X-003048Y+014605
X-003048Y+014351
X-003048Y+014097
X-003048Y+013843
X-003048Y+013589
X-003048Y+013335
T05
X+002413Y+013081
X+002413Y+012827
X+002159Y+010668
X+001920Y+010668
X+001920Y+010218
X+002159Y+010218
X+002809Y+010218
X+003048Y+010218
X+003048Y+010668
X+002809Y+010668
X+003698Y+010668
X+003937Y+010668
X+003937Y+010218
X+003698Y+010218
X+004587Y+010218
X+004826Y+010218
X+004826Y+010668
X+004587Y+010668
X+005476Y+010668
X+005715Y+010668
X+005715Y+010218
X+005476Y+010218
X+006365Y+010218
X+006604Y+010218
X+006604Y+010668
X+006365Y+010668
X+007254Y+010668
X+007254Y+010218
X+005207Y+012573
X+005207Y+012827
X+001270Y+010668
X+001031Y+010668
X+001031Y+010218
X+001270Y+010218
X+000381Y+010218
X+000381Y+010668
X-001143Y+012319
X-001397Y+012319
X-002413Y+010541
X-002667Y+010541
X-005334Y+011938
X-005588Y+011938
X-006175Y+018430G85X-006425Y+018430
X-006600Y+018775G85X-006600Y+019025
X-006000Y+018750G85X-006000Y+019050
X-001778Y+017272
X-001524Y+017272
X-000127Y+017711
X-000127Y+018161
X+000523Y+018161
X+000523Y+017711
X+001270Y+016637
X+001270Y+016383
T06
X-006350Y+011303
X-006350Y+011557
X-006604Y+011557
X-006604Y+011303
X-006604Y+011811
X-006604Y+012065
X-006604Y+012319
X-006350Y+012319
X-006350Y+012065
X-006350Y+011811
X-006350Y+012573
X-006604Y+012573
X-006604Y+012827
X-006604Y+013081
X-006350Y+013081
X-006350Y+012827
X-006350Y+013335
X-006604Y+013335
X-006604Y+013589
X-006604Y+013843
X-006350Y+013843
X-006350Y+013589
X-006350Y+014097
X-006604Y+014097
X-006604Y+014351
X-006604Y+014605
X-006350Y+014605
X-006350Y+014351
X-006350Y+014859
X-006604Y+014859
X-006604Y+015113
X-006604Y+015367
X-006350Y+015367
X-006350Y+015113
X-006350Y+015621
X-006350Y+015875
X-006350Y+016129
X-006604Y+016129
X-006604Y+015875
X-006604Y+015621
X-006604Y+016383
X-006350Y+016383
X-006350Y+016637
X-006350Y+016891
X-006604Y+016891
X-006604Y+016637
X-006604Y+017145
X-006350Y+017145
X-006350Y+017399
X-006604Y+017399
T07
X-006900Y+019900
X-006900Y+008900
X+007100Y+008900
X+007100Y+019900
T00
M30
