M48
METRIC,0000.00
T01C0.5
T02C0.559
T03C0.7
T04C0.813
T05C0.889
T06C0.9
T07C0.92
T08C0.965
T09C1.0
T10C1.1
T11C2.3
T12C3.0
%
T01
X+004978Y+007890
X+005232Y+007890
X+005423Y+007985
X+005518Y+007731
X+005137Y+008620
X+005042Y+008874
X+005074Y+009033
X+005455Y+009033
X+005423Y+009192
X+005328Y+009382
X+005582Y+009763
X+005550Y+009922
X+005486Y+008874
X+003931Y+008747
X+003867Y+008874
X+003804Y+009033
X+003677Y+009192
X+003296Y+009255
X+003216Y+008604
X+003613Y+008430
X+003645Y+008303
X+003835Y+008239
X+003740Y+008525
X+002470Y+009382
X+002248Y+009636
X+002724Y+010779
X+002946Y+010970
X+003169Y+010557
X+003423Y+010144
X+002724Y+011763
X+001200Y+011795
X+005518Y+011255
X+007931Y+011160
X+008058Y+010779
X+007772Y+009890
X+007550Y+008652
X+007836Y+008080
X+007836Y+007572
X+007645Y+007572
X+007296Y+007477
X+007201Y+007382
X+007106Y+007287
X+007010Y+007191
X+006915Y+007096
X+006820Y+007001
X+006725Y+006906
X+006629Y+006810
X+006534Y+006715
X+006439Y+006620
X+006344Y+006525
X+006248Y+006429
X+006153Y+006334
X+006058Y+006239
X+005772Y+006048
X+005677Y+006207
X+005582Y+006017
X+005423Y+005604
X+005296Y+005477
X+005645Y+005350
X+005867Y+005445
X+005963Y+005572
X+006058Y+005318
X+006153Y+004905
X+005645Y+004937
X+005423Y+005064
X+005105Y+004937
X+005137Y+004810
X+005042Y+004556
X+005232Y+004429
X+004693Y+004270
X+004439Y+004366
X+003835Y+004461
X+003740Y+004778
X+003931Y+005064
X+003994Y+005191
X+004121Y+005032
X+003740Y+005286
X+003581Y+005413
X+003740Y+005572
X+004026Y+005572
X+003931Y+005826
X+004375Y+005572
X+004724Y+005572
X+004788Y+005953
X+005042Y+005921
X+006757Y+006239
X+006852Y+005794
X+006852Y+005318
X+007582Y+006048
X+007836Y+006334
X+008090Y+006144
X+008376Y+005826
X+008725Y+005572
X+008598Y+005445
X+008249Y+005350
X+008312Y+004651
X+008598Y+004270
X+008884Y+004366
X+009201Y+004143
X+009074Y+004016
X+009074Y+003858
X+008884Y+003889
X+009138Y+003635
X+009042Y+003223
X+008947Y+003127
X+008725Y+003413
X+008598Y+003508
X+008312Y+003731
X+008185Y+003826
X+007963Y+004016
X+007709Y+004016
X+008185Y+004143
X+007709Y+004524
X+007360Y+003223
X+007741Y+002969
X+008249Y+002746
X+008439Y+002873
X+008693Y+002746
X+008979Y+002016
X+008884Y+001540
X+009233Y+001540
X+009074Y+001159
X+007677Y+001572
X+007360Y+001540
X+007550Y+002080
X+007106Y+002207
X+006598Y+002651
X+006852Y+002905
X+006248Y+002778
X+005867Y+003794
X+006058Y+004016
X+006153Y+003921
X+004597Y+002810
X+003931Y+002905
X+003613Y+002778
X+003931Y+002397
X+003391Y+001730
X+001772Y+001794
X+001772Y+001254
X+001772Y+003381
X+001645Y+003985
X+001581Y+004207
X+001327Y+003858
X+002121Y+004302
X+002121Y+004588
X+002311Y+005128
X+002788Y+005318
X+003105Y+004778
X+002788Y+004239
X+003200Y+004080
X+003486Y+004112
X+001994Y+005572
X+002153Y+005826
X+005219Y+002251
X+005169Y+001699
X+005867Y+001508
X+009582Y+002588
X+009900Y+002429
X+010058Y+002429
X+010217Y+002429
X+011138Y+002810
X+011582Y+002937
X+011741Y+003318
X+011360Y+003604
X+011487Y+003826
X+010884Y+004016
X+010757Y+003731
X+010757Y+004524
X+010281Y+004683
X+010154Y+004524
X+009995Y+005413
X+010122Y+005731
X+010185Y+005921
X+010408Y+005763
X+010630Y+005921
X+010725Y+006048
X+010820Y+006144
X+010916Y+006239
X+011011Y+006334
X+011106Y+006429
X+011201Y+006525
X+011265Y+006017
X+012281Y+006017
X+012535Y+006048
X+012852Y+006334
X+013075Y+006525
X+012979Y+006715
X+012789Y+006810
X+012694Y+006906
X+012598Y+007001
X+012502Y+007096
X+012313Y+007191
X+012217Y+007287
X+012122Y+007382
X+012024Y+007477
X+011868Y+007636
X+011297Y+007604
X+011424Y+008144
X+011678Y+008874
X+012408Y+009033
X+012408Y+008366
X+013202Y+007953
X+013297Y+007668
X+013868Y+008049
X+014059Y+008176
X+013964Y+008303
X+014154Y+007477
X+014249Y+007382
X+014345Y+007287
X+014440Y+007191
X+014535Y+007096
X+014630Y+007001
X+014726Y+006906
X+014821Y+006810
X+014916Y+006715
X+015011Y+006620
X+015107Y+006525
X+015202Y+006429
X+015742Y+006239
X+015710Y+005794
X+015170Y+005699
X+014884Y+005921
X+014567Y+006112
X+014440Y+006017
X+014249Y+005890
X+014122Y+006144
X+013868Y+006334
X+013773Y+006144
X+013519Y+006429
X+013614Y+006620
X+013424Y+005064
X+013297Y+004810
X+013201Y+004302
X+013202Y+004048
X+013519Y+003572
X+013964Y+003540
X+013741Y+002937
X+013868Y+002810
X+013964Y+002588
X+013424Y+002683
X+013297Y+002588
X+013519Y+002969
X+014535Y+003159
X+015138Y+003635
X+015710Y+003794
X+015710Y+003191
X+015678Y+002873
X+015710Y+002302
X+015329Y+002207
X+015202Y+002111
X+015075Y+002016
X+014948Y+001921
X+015710Y+004397
X+012440Y+005159
X+012249Y+004842
X+012249Y+004429
X+012154Y+005413
X+011265Y+004874
X+009995Y+003477
X+009868Y+003477
X+009582Y+003223
X+009169Y+004778
X+009138Y+005540
X+009265Y+005731
X+009074Y+005921
X+009995Y+006715
X+010091Y+006620
X+010217Y+007604
X+010471Y+007763
X+010598Y+007604
X+009709Y+007826
X+009582Y+007953
X+009138Y+007604
X+008725Y+007699
X+008788Y+007890
X+008471Y+007985
X+008407Y+008207
X+008725Y+008906
X+008979Y+008747
X+009519Y+008747
X+009804Y+008620
X+009900Y+008874
X+010217Y+009128
X+010344Y+009001
X+010312Y+008747
X+009614Y+009255
X+009519Y+009128
X+009677Y+009414
X+008979Y+009477
X+009074Y+010303
X+009233Y+010398
X+009233Y+011033
X+009074Y+011287
X+008979Y+011541
X+008852Y+011890
X+008661Y+011795
X+008058Y+012017
X+007899Y+012494
X+007741Y+012684
X+008185Y+012811
X+008852Y+012748
X+008820Y+012430
X+010249Y+012462
X+010281Y+012811
X+010217Y+012017
X+010852Y+012017
X+011741Y+012462
X+011741Y+012779
X+013265Y+012811
X+013265Y+012430
X+012821Y+011414
X+013011Y+011160
X+012821Y+010843
X+013011Y+010112
X+015202Y+009985
X+015202Y+009604
X+015773Y+008366
X+015646Y+007858
X+015297Y+008049
X+014789Y+011795
X+012376Y+003064
T02
X+004756Y+012430
X+005518Y+012430
T03
X+008058Y+009890
X+008185Y+009890
X+008312Y+009890
X+009519Y+005382
X+009646Y+005382
X+009773Y+005382
X+003486Y+012303
X+003359Y+012303
X+003232Y+012303
T04
X+005518Y+001762
X+005518Y+002245
T05
X+007677Y+002397
X+007423Y+002397
X+008439Y+002397
X+008693Y+002397
X+009455Y+002397
X+009709Y+002397
X+010471Y+002397
X+010725Y+002397
X+011487Y+002397
X+011741Y+002397
X+012503Y+002397
X+012757Y+002397
X+013519Y+002397
X+013773Y+002397
X+014535Y+002397
X+014789Y+002397
X+004216Y+012430
X+003962Y+012430
T06
X+003359Y+011668
X+003359Y+011922
X+004121Y+011922
X+004121Y+011668
X+004375Y+011128
X+004375Y+010366
X+005137Y+010366
X+005137Y+011128
X+005899Y+011033
X+005899Y+011287
X+005899Y+011541
X+005899Y+011795
X+005899Y+012049
X+005899Y+012303
X+005899Y+012557
X+007423Y+012557
X+007423Y+012303
X+007423Y+012049
X+007423Y+011795
X+007423Y+011541
X+007423Y+011287
X+007423Y+011033
X+007423Y+010779
X+007423Y+010525
X+007423Y+010271
X+007423Y+010017
X+007423Y+009763
X+007423Y+009509
X+007423Y+009255
X+007423Y+009001
X+007423Y+008747
X+007423Y+008493
X+007423Y+008239
X+007423Y+007985
X+007423Y+007731
X+007772Y+008334
X+008026Y+008334
X+008280Y+008334
X+008534Y+008334
X+008788Y+008334
X+009042Y+008334
X+009296Y+008334
X+009550Y+008334
X+009804Y+008334
X+010598Y+008366
X+010598Y+008620
X+010598Y+008874
X+010598Y+009128
X+010598Y+009382
X+010598Y+009636
X+010598Y+009890
X+010598Y+010144
X+010598Y+010398
X+010598Y+010652
X+010598Y+010906
X+010598Y+011160
X+010598Y+011414
X+010598Y+011668
X+010217Y+011668
X+010217Y+011414
X+010217Y+011160
X+010217Y+010906
X+010217Y+010652
X+010217Y+010398
X+010217Y+010144
X+010217Y+009890
X+010217Y+009636
X+009455Y+009636
X+009455Y+009890
X+009455Y+010144
X+009455Y+010398
X+009455Y+010652
X+009455Y+010906
X+009455Y+011160
X+009455Y+011414
X+009455Y+011668
X+011360Y+011668
X+011360Y+011414
X+011360Y+011160
X+011360Y+010906
X+011360Y+010652
X+011360Y+010398
X+011360Y+010144
X+011360Y+009890
X+011360Y+009636
X+011360Y+009382
X+011360Y+009128
X+011360Y+008874
X+011360Y+008620
X+011360Y+008366
X+013900Y+008493
X+013900Y+008747
X+013900Y+009001
X+013900Y+009255
X+013900Y+009509
X+013900Y+009763
X+013900Y+010017
X+013900Y+010271
X+013900Y+010525
X+013900Y+010779
X+013900Y+011033
X+013900Y+011287
X+013900Y+011541
X+013900Y+011795
X+015424Y+011795
X+015424Y+011541
X+015424Y+011287
X+015424Y+011033
X+015424Y+010779
X+015424Y+010525
X+015424Y+010271
X+015424Y+010017
X+015424Y+009763
X+015424Y+009509
X+015424Y+009255
X+015424Y+009001
X+015424Y+008747
X+015424Y+008493
X+014884Y+005572
X+014884Y+005318
X+014884Y+005064
X+014884Y+004810
X+014884Y+004556
X+014884Y+004302
X+014884Y+004048
X+014884Y+003794
X+014884Y+003540
X+014884Y+003286
X+014122Y+003286
X+014122Y+003540
X+014122Y+003794
X+014122Y+004048
X+014122Y+004302
X+014122Y+004556
X+014122Y+004810
X+014122Y+005064
X+014122Y+005318
X+014122Y+005572
X+013741Y+005572
X+013741Y+005318
X+013741Y+005064
X+013741Y+004810
X+013741Y+004556
X+013741Y+004302
X+013741Y+004048
X+013741Y+003794
X+013741Y+003540
X+013741Y+003286
X+012979Y+003286
X+012979Y+003540
X+012979Y+003794
X+012979Y+004048
X+012979Y+004302
X+012979Y+004556
X+012979Y+004810
X+012979Y+005064
X+012979Y+005318
X+012979Y+005572
X+012662Y+005413
X+012662Y+005159
X+012662Y+004905
X+012662Y+004651
X+012662Y+004397
X+012662Y+004143
X+012662Y+003889
X+011900Y+003889
X+011900Y+004143
X+011900Y+004397
X+011900Y+004651
X+011900Y+004905
X+011900Y+005159
X+011900Y+005413
X+009995Y+004937
X+009995Y+004683
X+009995Y+003985
X+009995Y+003731
X+009741Y+003731
X+009741Y+003985
X+009487Y+003985
X+009487Y+003731
X+010249Y+003731
X+010249Y+003985
X+010503Y+003985
X+010503Y+003731
X+010439Y+003159
X+010693Y+003159
X+010947Y+003159
X+011201Y+003159
X+011455Y+003159
X+011709Y+003159
X+011963Y+003159
X+012217Y+003159
X+010185Y+003159
X+008725Y+003635
X+008471Y+003635
X+008471Y+003381
X+008217Y+003381
X+008217Y+003635
X+007963Y+003635
X+007709Y+003635
X+007709Y+003381
X+007455Y+003381
X+007455Y+003635
X+007201Y+003635
X+006947Y+003635
X+006947Y+003889
X+007201Y+003889
X+007201Y+004143
X+007201Y+004397
X+007201Y+004651
X+006947Y+004651
X+006947Y+004397
X+006947Y+004143
X+006947Y+004905
X+007201Y+004905
X+007201Y+005159
X+007455Y+005159
X+007709Y+005159
X+007709Y+004905
X+007963Y+004905
X+008217Y+004905
X+008217Y+005159
X+007963Y+005159
X+008471Y+005159
X+008471Y+004905
X+008725Y+004905
X+008725Y+004651
X+008725Y+004397
X+008725Y+004143
X+008725Y+003889
X+008471Y+003889
X+008471Y+004143
X+008471Y+004397
X+008471Y+004651
X+007455Y+004905
X+007201Y+003381
X+007963Y+003381
X+005772Y+004302
X+005772Y+004556
X+005772Y+004810
X+005518Y+004810
X+005518Y+004556
X+005518Y+004302
X+004883Y+004302
X+004883Y+004048
X+004883Y+003794
X+004883Y+003540
X+004883Y+003286
X+004883Y+003032
X+004883Y+002778
X+004883Y+002524
X+004883Y+002270
X+004883Y+002016
X+004883Y+001762
X+004883Y+001508
X+004121Y+001508
X+004121Y+001762
X+004121Y+002016
X+004121Y+002270
X+004121Y+002524
X+004121Y+002778
X+004121Y+003032
X+004121Y+003286
X+004121Y+003540
X+004121Y+003794
X+004121Y+004048
X+004121Y+004302
X+004121Y+004556
X+004121Y+004810
X+004343Y+005318
X+004597Y+005318
X+004851Y+005318
X+005105Y+005318
X+005169Y+005794
X+004915Y+005794
X+004661Y+005794
X+004407Y+005794
X+004153Y+005794
X+004883Y+004810
X+004883Y+004556
X+005423Y+005794
X+005677Y+005794
X+005931Y+005794
X+006185Y+005794
X+005899Y+007731
X+005899Y+007985
X+005899Y+008239
X+005899Y+008493
X+005899Y+008747
X+005899Y+009001
X+005899Y+009255
X+005899Y+009509
X+005899Y+009763
X+005899Y+010017
X+005899Y+010271
X+005899Y+010525
X+005899Y+010779
X+003613Y+003032
X+003105Y+003032
X+003105Y+002022
X+003613Y+002022
T07
X+002473Y+002426
X+002273Y+002426
X+002273Y+002676
X+002473Y+002676
T08
X+002470Y+001508
X+003486Y+001508
X+003780Y+003519
X+003780Y+004027
X+002764Y+004027
X+002764Y+003519
T09
X+005296Y+009858
X+005042Y+009858
X+007931Y+009255
X+007931Y+008805
X+008581Y+008805
X+008581Y+009255
X+010852Y+012430
X+011106Y+012430
X+013710Y+012557
X+013710Y+012303
X+014535Y+012430
X+014789Y+012430
X+009328Y+004905
X+009328Y+004651
X+006598Y+004207
X+006598Y+003953
X+006549Y+003540
X+006549Y+003090
X+005899Y+003090
X+005518Y+003032
X+005518Y+003286
X+005899Y+003540
X+006072Y+002332
X+006326Y+002332
X+006326Y+001697
X+006072Y+001697
X+007169Y+001762
X+007169Y+001312
X+007819Y+001312
X+008185Y+001312
X+008185Y+001762
X+007819Y+001762
X+008835Y+001762
X+009201Y+001762
X+009201Y+001312
X+008835Y+001312
X+009851Y+001312
X+010217Y+001312
X+010217Y+001762
X+009851Y+001762
X+010867Y+001762
X+011233Y+001762
X+011233Y+001312
X+010867Y+001312
X+011883Y+001312
X+012249Y+001312
X+012249Y+001762
X+011883Y+001762
X+012899Y+001762
X+013265Y+001762
X+013265Y+001312
X+012899Y+001312
X+013915Y+001312
X+014281Y+001312
X+014281Y+001762
X+013915Y+001762
X+014931Y+001762
X+014931Y+001312
X+002523Y+011626G85X+002223Y+011626
X+001903Y+011801G85X+001903Y+012051
X+002498Y+012226G85X+002248Y+012226
T10
X+001454Y+010525
X+001708Y+010525
X+001708Y+010271
X+001454Y+010271
X+001454Y+010017
X+001708Y+010017
X+001708Y+009763
X+001454Y+009763
X+001454Y+009509
X+001708Y+009509
X+001708Y+009255
X+001454Y+009255
X+001454Y+009001
X+001708Y+009001
X+001708Y+008747
X+001454Y+008747
X+001454Y+008493
X+001708Y+008493
X+001708Y+008239
X+001454Y+008239
X+001454Y+007985
X+001708Y+007985
X+001708Y+007731
X+001454Y+007731
X+001454Y+007477
X+001708Y+007477
X+001708Y+007223
X+001454Y+007223
X+001454Y+006969
X+001708Y+006969
X+001708Y+006715
X+001454Y+006715
X+001454Y+006461
X+001708Y+006461
X+001708Y+006207
X+001454Y+006207
X+001454Y+005953
X+001708Y+005953
X+001708Y+005699
X+001454Y+005699
X+001454Y+005445
X+001708Y+005445
X+001708Y+005191
X+001454Y+005191
X+001454Y+004937
X+001708Y+004937
X+001708Y+004683
X+001454Y+004683
X+001454Y+004429
X+001708Y+004429
X+011868Y+008493
X+011868Y+008747
X+011868Y+009001
X+011868Y+009255
X+011868Y+009509
X+011868Y+009763
X+011868Y+010017
X+011868Y+010271
X+011868Y+010525
X+011868Y+010779
X+011868Y+011033
X+011868Y+011287
X+011868Y+011541
X+011868Y+011795
X+013388Y+011795
X+013388Y+011541
X+013388Y+011287
X+013388Y+011033
X+013388Y+010779
X+013388Y+010525
X+013388Y+010271
X+013388Y+010017
X+013388Y+009763
X+013388Y+009509
X+013388Y+009255
X+013388Y+009001
X+013388Y+008747
X+013388Y+008493
T11
X+002002Y+003153
X+002002Y+001949
T12
X+001373Y+012626
X+001373Y+001426
X+015573Y+001426
X+015573Y+012626
T00
M30
