G04 DipTrace 3.2.0.1*
G04 Top.gbr*
%MOMM*%
G04 #@! TF.FileFunction,Copper,L1,Top*
G04 #@! TF.Part,Single*
%AMOUTLINE0*
4,1,8,
-0.5,-0.75,
-0.25,-1.0,
0.25,-1.0,
0.5,-0.75,
0.5,0.75,
0.25,1.0,
-0.25,1.0,
-0.5,0.75,
-0.5,-0.75,
0*%
G04 #@! TA.AperFunction,Conductor*
%ADD14C,0.33*%
G04 #@! TA.AperFunction,ComponentPad*
%ADD15R,1.6X1.6*%
%ADD16C,1.6*%
%ADD17C,1.5*%
%ADD18R,1.5X1.5*%
%ADD19O,2.0X4.5*%
%ADD20O,2.0X5.0*%
%ADD21O,4.5X2.0*%
%ADD22C,1.62*%
%ADD23R,1.62X1.62*%
%ADD24C,1.5*%
%ADD25R,1.7X1.7*%
%ADD26C,1.7*%
%ADD27C,1.3*%
%ADD28O,1.0X2.0*%
G04 #@! TA.AperFunction,ViaPad*
%ADD29C,1.0*%
%ADD62C,0.39216*%
G04 #@! TA.AperFunction,ComponentPad*
%ADD64OUTLINE0*%
%FSLAX35Y35*%
G04*
G71*
G90*
G75*
G01*
G04 Top*
%LPD*%
X-1778000Y10541000D2*
D14*
X-2413000D1*
X-1016000Y11150800D2*
X-101800D1*
X0Y11049000D1*
X-2413000Y10541000D2*
X-2529800Y10657800D1*
X-6982157D1*
X-7035460Y10711100D1*
Y11125540D1*
X-6604000Y11557000D1*
X-2540000Y9144000D2*
Y9280810D1*
X327700D1*
X381000Y9334110D1*
Y10218000D1*
X-6000000Y18900000D2*
Y19213803D1*
X-5950703Y19263100D1*
X-4785100D1*
X-4445000Y18923000D1*
Y17939400D1*
X-4390200Y17884600D1*
X-1470700D1*
X2689400D1*
X2921000Y17653000D1*
X5969000Y12700000D2*
X5334000D1*
X5207000Y12827000D1*
X4826000Y10218000D2*
X5476000D1*
X6604000D2*
X7254000D1*
X2159000D2*
X2809000D1*
X3048000D2*
X3698000D1*
X1270000Y16637000D2*
X635000D1*
X1270000Y10218000D2*
X1920000D1*
X1031000D2*
X1270000D1*
X381000D2*
X1031000D1*
X-1524000Y17272000D2*
Y17831300D1*
X-1470700Y17884600D1*
X5207000Y12827000D2*
X4333200D1*
X4279900Y12880300D1*
Y13408700D1*
X4226600Y13462000D1*
X3810000D1*
X3937000Y10218000D2*
X4587000D1*
X3698000D2*
X3937000D1*
X3302000Y14224000D2*
X3159810Y14081810D1*
X1617170D1*
X1490180Y14208800D1*
X-213800D1*
X-356000Y14351000D1*
X-889000D1*
X-5207000Y12700000D2*
X-5095200Y12811800D1*
Y13266500D1*
X-5041900Y13319800D1*
X-3785750D1*
X-889000Y14351000D2*
X-1360290D1*
X-1472090Y14462800D1*
X-1975640D1*
X-2087440Y14351000D1*
X-3048000D1*
X3302000Y14478000D2*
X3841210D1*
X3894520Y14531310D1*
Y15197520D1*
X4445000Y15748000D1*
X-3048000Y14605000D2*
X-1749000D1*
X-1637200Y14716800D1*
X-1239320D1*
X-1127520Y14605000D1*
X-889000D1*
X160840D1*
X303040Y14462800D1*
X1274880D1*
X1401890Y14589810D1*
X2808280D1*
X2920090Y14478000D1*
X-3048000Y14859000D2*
X-2936200Y14970800D1*
X-1183410D1*
X-1071610Y14859000D1*
X-889000D1*
X-743700D2*
X104260D1*
X246460Y14716800D1*
X817280D1*
X944280Y14843800D1*
X2385900D1*
X-5207000Y13462000D2*
X-5372100Y13296900D1*
Y12744100D1*
X-5425400Y12690800D1*
X-6486200D1*
X-6604000Y12573000D1*
X-786250Y15224800D2*
X683300D1*
X810300Y15097800D1*
X2385900D1*
X-3048000Y15113000D2*
X-2936200Y15224800D1*
X-1000800D1*
X-889000Y15113000D1*
X-4043190Y14691800D2*
Y15059700D1*
X-3989890Y15113000D1*
X-3271200D1*
X-5207000Y13716000D2*
X-5584990D1*
X-5638300Y13662690D1*
Y12998100D1*
X-5691600Y12944800D1*
X-6486200D1*
X-6604000Y12827000D1*
X-3048000Y15367000D2*
X-2936200Y15478800D1*
X-1298490D1*
X-1186690Y15367000D1*
X-889000D1*
X-656900Y14970800D2*
X1007200D1*
X2877840Y15373720D2*
X1100720D1*
X1007200Y15280200D1*
X-1270000Y11271100D2*
X-656900D1*
X-5207000Y13970000D2*
X-6038780D1*
X-6092090Y13916690D1*
Y13252100D1*
X-6145390Y13198800D1*
X-6486200D1*
X-6604000Y13081000D1*
X-3048000Y15621000D2*
X-2936200Y15732800D1*
X-1000800D1*
X-889000Y15621000D1*
X-617570D1*
X-475370Y15478800D1*
X943680D1*
X1070690Y15605810D1*
X3190190D1*
X3302000Y15494000D1*
X-5207000Y14224000D2*
X-6432890D1*
X-6486200Y14170690D1*
Y13452800D1*
X-6604000Y13335000D1*
X-889000Y15875000D2*
X-746800Y15732800D1*
X683290D1*
X810300Y15859810D1*
X3190190D1*
X3302000Y15748000D1*
X-3048000Y15875000D2*
X-2936200Y15986800D1*
X-1193400D1*
X-5207000Y14478000D2*
X-6668490D1*
X-6721800Y14424690D1*
Y13706800D1*
X-6604000Y13589000D1*
X-3048000Y16129000D2*
X-1966530D1*
X-1854730Y16240800D1*
X-1037600D1*
X-925800Y16129000D1*
X-889000D1*
X-2434900Y11303000D2*
X-1778000D1*
X-889000Y16129000D2*
X-741700D1*
X-599500Y15986800D1*
X1496890D1*
X1623900Y16113810D1*
X3190190D1*
X3302000Y16002000D1*
X-570100Y11999600D2*
X-603600Y11966100D1*
X-2434900D1*
X3032800Y17323360D2*
Y18526800D1*
X2979500Y18580100D1*
X-4144300D1*
X-4358200Y18366200D1*
X886900Y16909310D2*
X3022740D1*
X-1528000Y15875000D2*
X-1146790D1*
X-1034990Y15986800D1*
X-779800D1*
X-668000Y15875000D1*
X635000D1*
X3022740Y16909310D2*
X3162840D1*
X1420300Y16398200D2*
X3190200D1*
X3302000Y16510000D1*
X635000Y15621000D2*
X-131250D1*
X-164750Y15587500D1*
X-309700D1*
X-4237900Y18026200D2*
X1060500D1*
X-309700Y12223410D2*
X-391510Y12141600D1*
X-1422200D1*
X-483300Y14716800D2*
X-1000000D1*
X-4287320Y16962600D2*
X-4120120Y17129800D1*
X-2380810D1*
X800100Y17555700D2*
X-256390D1*
X-309690Y17609000D1*
Y17797800D1*
X800100Y16753800D2*
X1434200D1*
X1566190Y16621810D1*
X3159810D1*
X3302000Y16764000D1*
X383110Y16073600D2*
X-483300D1*
X-914200Y10795000D2*
X-1524000D1*
X-1000000Y14716800D2*
X-1086800Y14803600D1*
X-1304310D1*
X-1359710Y14859000D1*
X-1528000D1*
X-3237690Y16621800D2*
Y16748800D1*
X-2019900D1*
X-1899600Y16628500D1*
X635000Y15367000D2*
X-613650D1*
X-725450Y15478800D1*
X-1010700D1*
X-1097500Y15565600D1*
X-1329390D1*
X-1528000Y15367000D2*
X-1329390D1*
X-3048000Y16383000D2*
X-2936200Y16494800D1*
X-1163300D1*
X-1051500Y16383000D1*
X-889000D1*
X-5207000Y16256000D2*
X-4686700D1*
X-889000Y16383000D2*
X-762000Y16510000D1*
X1778000D1*
X-6038800Y15859790D2*
X-5896590Y16002000D1*
X-5207000D1*
X635000Y16129000D2*
X1390303D1*
X1517303Y16256000D1*
X1778000D1*
X208400Y10642800D2*
X-1422200D1*
X-5207000Y16002000D2*
X-3947040D1*
X-3835240Y16113800D1*
X-3571200D1*
X-3517900Y16167100D1*
Y16802100D1*
X-3464600Y16855400D1*
X188600D1*
X-5207000Y15748000D2*
X-6668490D1*
X-6721800Y15694690D1*
Y15484800D1*
X-6604000Y15367000D1*
X-3044050Y17475600D2*
X-2132800D1*
X1778000Y16002000D2*
X2029900Y16002010D1*
X-102600Y17115800D2*
X2029900D1*
X-743700Y16637000D2*
X-102600D1*
X-1073900D2*
X-1185700Y16748800D1*
X-1759500D1*
X-1793000Y16715300D1*
X-6604000Y15621000D2*
X-6477000Y15494000D1*
X-5207000D1*
X-406200Y10388800D2*
X-1168200D1*
X-1270000Y10287000D1*
X973700Y16240800D2*
X11210D1*
X1632700Y15748000D2*
X973700D1*
X-5207000Y15494000D2*
X-4841200Y15859800D1*
X-3517900D1*
X-3464600Y15913100D1*
Y16748800D1*
X-3411300Y16802100D1*
X-22290D1*
X11210Y16768600D1*
X2159000Y17653000D2*
Y17071300D1*
X2105700Y17018000D1*
X-3683000D1*
X2159000Y13914610D2*
X2491730D1*
X2545030Y13861310D1*
Y13763910D1*
X2491730Y13710610D1*
X2328540D1*
X2191740Y13573810D1*
X810300D1*
X683310Y13700800D1*
X-100200D1*
X-508000Y11557000D2*
X-660200Y11404800D1*
X-3495420D1*
X-3647620Y11557000D1*
X-6350000D1*
X2491730Y13710610D2*
X2628530Y13573810D1*
X4664120D1*
X5283930Y12954000D1*
X5969000D1*
X2159000Y15494010D2*
X1996410D1*
X1996403Y15494000D1*
X1778000D1*
X-2122590Y10119800D2*
X-1933990Y9931200D1*
X-863800D1*
X-762000Y10033000D1*
X-1792990Y12168710D2*
X-2122590D1*
X-508000Y10896800D2*
X-6895360Y10896810D1*
X-6982180Y9789210D2*
Y9779000D1*
X-2794000D1*
X-2667000Y9652000D1*
X-2422023D1*
X-2295023Y9779000D1*
X-508000D1*
X-254000Y10033000D1*
X-6497010Y16754800D2*
X-6292700D1*
X-6171700Y16875800D1*
X-3604397D1*
X-3538000Y16942200D1*
X241900D1*
X295200Y16888900D1*
Y16770330D1*
X135300Y10475600D2*
X101800Y10442100D1*
Y9798020D1*
X-6710990Y17262800D2*
X-5581420D1*
X-5455420Y17388800D1*
X-1928300D1*
X-743700Y13360000D2*
X-76530D1*
X25470Y13462000D1*
X1778000D1*
X-3683000Y12446000D2*
X-4020900Y12108100D1*
X-5865810D1*
X-6162910Y11811000D1*
X-6350000D1*
X-3048000Y14097000D2*
X-2559750D1*
X-2447950Y14208800D1*
X-1000800D1*
X-889000Y14097000D1*
X1778000Y13462000D2*
X3057260D1*
X3110560Y13408700D1*
Y13119110D1*
X3163860Y13065810D1*
X4084033D1*
X4137333Y13012510D1*
Y12499667D1*
X4445000Y12192000D1*
X-3683000Y12700000D2*
X-4712097D1*
X-4765407Y12646690D1*
Y12214703D1*
X-4818710Y12161400D1*
X-5924210D1*
X-6020610Y12065000D1*
X-6350000D1*
X-3048000Y13843000D2*
X-1908890D1*
X-1797090Y13954800D1*
X-1416190D1*
X1778000Y13208000D2*
X2881570D1*
X3023760Y13065810D1*
X4445000Y11709000D2*
X4010860D1*
X-1614800Y13140700D2*
X1133600D1*
X1220400Y13227500D1*
X-1416190Y13954800D2*
X-1269900D1*
X-1158100Y13843000D1*
X-889000D1*
X-3683000Y12954000D2*
X-4901790D1*
X-4955100Y12900690D1*
Y12372300D1*
X-5008400Y12319000D1*
X-6350000D1*
X1778000Y13970000D2*
X-483300D1*
X-3048000Y13589000D2*
X-2720940D1*
X-2609140Y13700800D1*
X-1344230D1*
X-1232430Y13589000D1*
X-889000D1*
X-483300D1*
X1778000Y14986000D2*
X3012160D1*
X3123970Y15097810D1*
X3413800D1*
X3467100Y15151110D1*
Y16568510D1*
X3520400Y16621810D1*
X5826810D1*
X5969000Y16764000D1*
X635000Y13335000D2*
X494000Y13194000D1*
X-1387000D1*
X-1528000Y13335000D1*
X-3683000Y13208000D2*
X-4988590D1*
X-5041900Y13154690D1*
Y12626300D1*
X-5095200Y12573000D1*
X-6350000D1*
X-1528000Y13335000D2*
X-1691400D1*
X-1818400Y13208000D1*
X-3683000D1*
X1778000Y15240000D2*
X2908730D1*
X3020540Y15351810D1*
X3360500D1*
X3413800Y15405110D1*
Y16822510D1*
X3467100Y16875810D1*
X6080800D1*
X6134100Y16822510D1*
Y16675100D1*
X5969000Y16510000D1*
X635000Y13589000D2*
X-156610D1*
X-298810Y13446800D1*
X-1238490D1*
X-1380690Y13589000D1*
X-1528000D1*
X-3683000Y13462000D2*
X-3794800Y13573800D1*
X-5531700D1*
X-5585000Y13520500D1*
Y12880300D1*
X-5638300Y12827000D1*
X-6350000D1*
X-1528000Y13589000D2*
X-1655000Y13462000D1*
X-3683000D1*
X1778000Y14732000D2*
X3118760D1*
X3230570Y14843810D1*
X3467100D1*
X3520400Y14897110D1*
Y16314510D1*
X3573700Y16367810D1*
X5857190D1*
X5969000Y16256000D1*
X1253900Y13843000D2*
X635000D1*
X-1528000D2*
X-1755240D1*
X-1844140Y13754100D1*
X-2800890D1*
X-2854190Y13700800D1*
X-3100500D1*
X-3481500Y14081800D1*
X-4373390D1*
X-4426690Y14135100D1*
Y14678700D1*
X-4479990Y14732000D1*
X-5207000D1*
X635000Y13843000D2*
X-325400D1*
X-467600Y13700800D1*
X-1152480D1*
X-1205780Y13754100D1*
X-1327290D1*
X-1416190Y13843000D1*
X-1528000D1*
X1778000Y14478000D2*
X2150460D1*
X2239350Y14389110D1*
X3018070D1*
X3218770Y14589810D1*
X3573700D1*
X3627000Y14643110D1*
Y16202700D1*
X3680300Y16256000D1*
X4445000D1*
X1466870Y14097000D2*
X635000D1*
X-1528000D2*
X-1936880D1*
X-2079080Y13954800D1*
X-3184400D1*
X-3237700Y14008100D1*
Y14536500D1*
X-3291000Y14589800D1*
X-4114500D1*
X-4167800Y14643100D1*
Y14932700D1*
X-4221100Y14986000D1*
X-5207000D1*
X635000Y14097000D2*
X-552300D1*
X-694500Y13954800D1*
X-1036300D1*
X-1178500Y14097000D1*
X-1528000D1*
X-3377800Y13827800D2*
X-3908850D1*
X-3995650Y13741000D1*
X-4366760D1*
X-4453560Y13827800D1*
X-5621290D1*
X-5860090Y13589000D1*
X-1528000Y14351000D2*
X-1663150D1*
X-1752050Y14262100D1*
X-2858450D1*
X635000Y14351000D2*
X-122390D1*
X-234190Y14462800D1*
X-1329390D1*
X2245800Y13827810D2*
X1454470D1*
X1382860Y13756200D1*
X833600D1*
X2159000Y18415000D2*
X1905000Y18161000D1*
X523000D1*
X-5588000Y11938000D2*
X-5445800Y11795800D1*
X-4175800D1*
X-4064000Y11684000D1*
X-254000Y11049000D2*
X-1315600D1*
X-1368900Y11102300D1*
Y11249700D1*
X-1422200Y11303000D1*
X-1524000D1*
X3302000Y13970000D2*
X3692030D1*
X3946030Y14224000D1*
X4445000D1*
X4696900Y15097810D2*
X6334810D1*
X6477000Y15240000D1*
X-2667000Y10541000D2*
X-2478010Y10352010D1*
X-2209390D1*
X-2818250Y12684800D2*
X-2270800D1*
X-2159000Y12573000D1*
X-3683000Y17272000D2*
X-1778000D1*
X-1397000Y9144000D2*
X-1231900Y8978900D1*
X-546100D1*
X-381000Y9144000D1*
X-6038800Y16129000D2*
X-6350000D1*
Y16383000D2*
X-6038800D1*
X523000Y18161000D2*
X-127000D1*
X-4064000Y11684000D2*
X-3048000D1*
X-1016000Y10033000D2*
X-914200Y10134800D1*
X-406200D1*
X-254000Y10287000D1*
X-1778000D2*
X-1625800Y10134800D1*
X-1117800D1*
X-1016000Y10033000D1*
X-2209390Y10352010D2*
X-2060190D1*
X-1995180Y10287000D1*
X-1778000D1*
X-483300Y12827000D2*
X2413000D1*
X-768700D2*
X-483300D1*
X-1397000D2*
X-768700D1*
X-2159000Y12573000D2*
Y12773700D1*
X-2105700Y12827000D1*
X-1397000D1*
X1778000Y12446000D2*
X-222900Y12446010D1*
Y17104800D2*
X-1607900D1*
X-1661200Y17158100D1*
Y17562400D1*
X-1714500Y17615700D1*
X-6387300D1*
X-6604000Y17399000D1*
X5969000Y12192000D2*
X5521880D1*
X5125690Y11795810D1*
X3613140D1*
X3359140Y12049810D1*
X-465010D1*
X-501600Y12086400D1*
X-1031660D1*
X-1063260Y12054800D1*
X-5812510D1*
X-6192510Y11674800D1*
X-6828400D1*
X-6881700Y11728100D1*
Y15821700D1*
X-6828400Y15875000D1*
X-6604000D1*
X5969000Y12446000D2*
X5468580D1*
X5072390Y12049810D1*
X3975100D1*
X3921800Y12103110D1*
Y12588200D1*
X3810000Y12700000D1*
X1778000Y12954000D2*
X1633000D1*
X1592800Y12913800D1*
X-2248170D1*
X-2350170Y12811800D1*
X-4848500D1*
X-4901800Y12758500D1*
Y12268000D1*
X-4955100Y12214700D1*
X-6076580D1*
X-6108480Y12182800D1*
X-6721800D1*
X-6775100Y12236100D1*
Y15177500D1*
X-6721800Y15230800D1*
X-6486200D1*
X-6350000Y15367000D1*
X3810000Y12700000D2*
X3698190Y12811810D1*
X2793517D1*
X2651327Y12954000D1*
X1778000D1*
X-6775080Y11150800D2*
X-1475500D1*
X-1422200Y11097500D1*
Y11036900D1*
X-1368900Y10983600D1*
X-442600D1*
X-254000Y10795000D1*
X-6232200Y13695990D2*
Y13452800D1*
X2559380Y11557000D2*
X5323800D1*
X-254000Y10795000D2*
X-152200Y10896800D1*
X522450D1*
X1182650Y11557000D1*
X2559380D1*
X5803900Y15859810D2*
X3861030D1*
X-4148000Y13065800D2*
X-2744420D1*
X-2645720Y12967100D1*
X1343200D1*
X1396500Y13020400D1*
Y13266510D1*
X1449800Y13319810D1*
X2791040D1*
X-6005300Y14081800D2*
X-4958080D1*
X-4757380Y13881100D1*
X-4148000D1*
X-3431100Y14208800D2*
X-3558100Y14335800D1*
X-4254600D1*
X590200Y11303000D2*
X0D1*
X-3184400Y15240000D2*
Y14242300D1*
X-3150900Y14208800D1*
X-4254600Y14335800D2*
Y14790500D1*
X-4307900Y14843800D1*
X-5372100D1*
X-5610900Y14605000D1*
X-6350000D1*
X-4350500Y11882600D2*
X-4333800Y11865900D1*
X-2028230D1*
X-1981330Y11912800D1*
X590200D1*
X6985000Y14843810D2*
X5350220D1*
X4643610Y14137200D1*
X4445000Y13970000D2*
X4997620D1*
X5632620Y14605000D1*
X6985000D1*
X4445000Y14478000D2*
X4556800Y14366200D1*
Y14135110D1*
X4503500Y14081810D1*
X4333200D1*
X4279900Y14028510D1*
Y13881110D1*
X4333200Y13827810D1*
X6842810D1*
X6985000Y13970000D1*
X5463900Y14930610D2*
X4643610D1*
X4445000Y14732000D1*
X5675410Y15011010D2*
X5669010Y15017410D1*
X5377420D1*
X5346010Y14986000D1*
X4445000D1*
Y15240000D2*
X5663400D1*
X5775210Y15351810D1*
X7350800D1*
X7404100Y15298510D1*
Y12484100D1*
X6985000Y12065000D1*
X6477000Y14224000D2*
X6858000D1*
X7239000Y14605000D1*
X6477000Y13970000D2*
X6588800Y14081800D1*
X7127200D1*
X7239000Y13970000D1*
X6477000Y13716000D2*
X6858000D1*
X7239000Y13335000D1*
X381000Y10668000D2*
X1031000D1*
X1413210Y11050210D1*
X6027500D1*
X6080800Y11103510D1*
Y13350200D1*
X5969000Y13462000D1*
X1920000Y10668000D2*
X2248910Y10996910D1*
X6134100D1*
X6187400Y11050210D1*
Y13497600D1*
X5969000Y13716000D1*
X1270000Y10668000D2*
X1571170D1*
X1920000D1*
X6167600Y10910110D2*
X3051110D1*
X2809000Y10668000D1*
X2159000D1*
X6080800Y10789810D2*
X3819810D1*
X3698000Y10668000D1*
X3048000D1*
X4587000D2*
X3937000D1*
X4826000D2*
X5476000D1*
X5715000D2*
X6365000D1*
X6604000D2*
X7254000D1*
X-1397000Y9398000D2*
X-1143000Y9652000D1*
X-236097D1*
X-152200Y9735900D1*
Y10439200D1*
X-254000Y10541000D1*
X-65400Y9971620D2*
Y9563100D1*
X-118700Y9509800D1*
X-1031200D1*
X-1143000Y9398000D1*
X710500Y11404800D2*
X-152200D1*
X-254000Y11303000D1*
X-889000Y10475600D2*
X-1292000D1*
X-1378800Y10388800D1*
X-1622900D1*
X-1676200Y10442100D1*
Y10693200D1*
X-1778000Y10795000D1*
X-2834200Y11557000D2*
X-1778000D1*
X-3865400Y11284710D2*
X-4172710D1*
X-4318000Y11430000D1*
X-4201300Y11967670D2*
X-3865400D1*
X-2446500Y14818800D2*
X-2720290D1*
X-4513490Y12557800D2*
X-3528500D1*
X-3431900Y12461200D1*
X-2047200D1*
Y12646700D1*
X-1993900Y12700000D1*
X1778000D1*
X-5811900Y15621000D2*
X-6350000D1*
X-4513490Y14335800D2*
X-5811900D1*
X1778000Y12700000D2*
X1920190Y12557810D1*
X3698190D1*
X3810000Y12446000D1*
X-3683000Y15748000D2*
X-4594850D1*
X-4991050Y15351800D1*
X-5857200D1*
X-6350000Y14859000D1*
X0Y11557000D2*
X185510Y11742510D1*
X416600D1*
X5632500Y15494000D2*
X5490310Y15351810D1*
X4333200D1*
X4279900Y15298510D1*
Y14389110D1*
X4226600Y14335810D1*
X953900D1*
X-1528000Y15113000D2*
X-1145310D1*
X-1003110Y14970800D1*
X-848300D1*
X-706100Y15113000D1*
X635000D1*
X-1673300D2*
X-2666990D1*
X416600Y11742510D2*
X3106510D1*
X3302000Y11938000D1*
X-1528000Y16383000D2*
X-2641190D1*
X-2783390Y16240800D1*
X-3358000D1*
X-3411300Y16187500D1*
Y15765700D1*
X-3683000Y15494000D1*
X-396500Y16161820D2*
X-175320Y16383000D1*
X635000D1*
X-187000Y12136610D2*
X-19800Y12303810D1*
X3190190D1*
X3302000Y12192000D1*
X-3683000Y15494000D2*
X-3951687D1*
X-4347887Y15097800D1*
X-5740710D1*
X-6115710Y14722800D1*
X-6432900D1*
X-6486200Y14776100D1*
Y14976800D1*
X-6350000Y15113000D1*
X-2555200Y11779100D2*
X-2434900Y11658800D1*
X-355800D1*
X-254000Y11557000D1*
X-3683000Y16510000D2*
X-3794800Y16621800D1*
X-6171700D1*
X-6292700Y16500800D1*
X-6668500D1*
X-6721800Y16447500D1*
Y16046100D1*
X-6668500Y15992800D1*
X-6467800D1*
X-6350000Y15875000D1*
X-2073200Y12300700D2*
X-1993900Y12380000D1*
Y12479510D1*
X-1940600Y12532810D1*
X797300D1*
X-2546820Y16581600D2*
X-2073200D1*
X-3683000Y16256000D2*
X-4106430D1*
X-4248630Y16113800D1*
X-5316630D1*
X-5449630Y16246800D1*
X-6486200D1*
X-6604000Y16129000D1*
X-2326200Y13053900D2*
X1307200D1*
X3302000Y12954000D2*
X3591600D1*
X3810000D1*
Y13208000D2*
X3591600D1*
X3302000D1*
X-2945250Y14478000D2*
X-2219600D1*
X3302000Y13208000D2*
X3190200Y13319800D1*
Y13462010D1*
X3136900Y13515310D1*
X2472700D1*
X2439200Y13548810D1*
D29*
X-1016000Y11150800D3*
X-3785750Y13319800D3*
X2920090Y14478000D3*
X2385900Y14843800D3*
X-743700Y14859000D3*
X2385900Y15097800D3*
X-786250Y15224800D3*
X-3271200Y15113000D3*
X-4043190Y14691800D3*
X1007200Y14970800D3*
Y15280200D3*
X2877840Y15373720D3*
X-656900Y11271100D3*
X-1270000D3*
X-656900Y14970800D3*
X-1193400Y15986800D3*
X-2434900Y11303000D3*
Y11966100D3*
X-570100Y11999600D3*
X-4358200Y18366200D3*
X3032800Y17323360D3*
X3162840Y16909310D3*
X886900D3*
X3022740D3*
X1060500Y18026200D3*
X-4237900D3*
X-1422200Y12141600D3*
X-309700Y12223410D3*
X1420300Y16398200D3*
X-309700Y15587500D3*
X-2380810Y17129800D3*
X-309690Y17797800D3*
X800100Y17555700D3*
X-4287320Y16962600D3*
X-483300Y14716800D3*
Y16073600D3*
X383110D3*
X-914200Y10795000D3*
X-1000000Y14716800D3*
X800100Y16753800D3*
X-1899600Y16628500D3*
X-3237690Y16621800D3*
X-1329390Y15565600D3*
Y15367000D3*
X-4686700Y16256000D3*
X-1422200Y10642800D3*
X208400D3*
X-6038800Y15859790D3*
X188600Y16855400D3*
X-2132800Y17475600D3*
X-3044050D3*
X2029900Y16002010D3*
Y17115800D3*
X-102600D3*
Y16637000D3*
X-743700D3*
X-1793000Y16715300D3*
X-1073900Y16637000D3*
X11210Y16768600D3*
X-406200Y10388800D3*
X11210Y16240800D3*
X973700D3*
Y15748000D3*
X1632700D3*
X-100200Y13700800D3*
X2159000Y13914610D3*
Y15494010D3*
X-2122590Y10119800D3*
Y12168710D3*
X-1792990D3*
X-508000Y10896800D3*
X-6895360Y10896810D3*
X-6982180Y9789210D3*
X295200Y16770330D3*
X-6497010Y16754800D3*
X101800Y9798020D3*
X135300Y10475600D3*
X-1928300Y17388800D3*
X-6710990Y17262800D3*
X-743700Y13360000D3*
X3023760Y13065810D3*
X4010860Y11709000D3*
X4445000D3*
X1220400Y13227500D3*
X-1614800Y13140700D3*
X-1416190Y13954800D3*
X-483300Y13970000D3*
Y13589000D3*
X1253900Y13843000D3*
X1466870Y14097000D3*
X-5860090Y13589000D3*
X-3377800Y13827800D3*
X-2858450Y14262100D3*
X-1329390Y14462800D3*
X833600Y13756200D3*
X2245800Y13827810D3*
X-1397000Y12827000D3*
X-2818250Y12684800D3*
X-768700Y12827000D3*
X-6038800Y16129000D3*
Y16383000D3*
X-3048000Y11684000D3*
X-2209390Y10352010D3*
X4696900Y15097810D3*
X-483300Y12827000D3*
X-222900Y12446010D3*
Y17104800D3*
X5323800Y11557000D3*
X-6775080Y11150800D3*
X-6232200Y13452800D3*
Y13695990D3*
X2559380Y11557000D3*
X3861030Y15859810D3*
X5803900D3*
X2791040Y13319810D3*
X-4148000Y13065800D3*
Y13881100D3*
X-6005300Y14081800D3*
X590200Y11912800D3*
X-4350500Y11882600D3*
X590200Y11303000D3*
X-3431100Y14208800D3*
X-3150900D3*
X-3184400Y15240000D3*
X-4254600Y14335800D3*
X4643610Y14137200D3*
X6985000Y14843810D3*
X5463900Y14930610D3*
X5675410Y15011010D3*
X6167600Y10910110D3*
X6080800Y10789810D3*
X-65400Y9971620D3*
X710500Y11404800D3*
X-889000Y10475600D3*
X-2834200Y11557000D3*
X-3865400Y11284710D3*
Y11967670D3*
X-4201300D3*
X-2720290Y14818800D3*
X-2446500D3*
X-5811900Y15621000D3*
Y14335800D3*
X-4513490D3*
Y12557800D3*
X953900Y14335810D3*
X5632500Y15494000D3*
X-2666990Y15113000D3*
X-1673300D3*
X416600Y11742510D3*
X-396500Y16161820D3*
X-187000Y12136610D3*
X-2555200Y11779100D3*
X797300Y12532810D3*
X-2073200Y12300700D3*
Y16581600D3*
X-2546820D3*
X1307200Y13053900D3*
X-2326200D3*
X2439200Y13548810D3*
X-2219600Y14478000D3*
X-2945250D3*
D15*
X-4445000Y18923000D3*
D16*
X-4191000D3*
X2413000Y13081000D3*
D15*
Y12827000D3*
D16*
X5207000D3*
D15*
Y12573000D3*
D16*
X1270000Y16637000D3*
D15*
Y16383000D3*
D16*
X-5334000Y11938000D3*
D15*
X-5588000D3*
D16*
X-1524000Y17272000D3*
D15*
X-1778000D3*
D16*
X-1143000Y12319000D3*
D15*
X-1397000D3*
D16*
X-2413000Y10541000D3*
D15*
X-2667000D3*
X-2413000Y9906000D3*
D16*
X-2667000D3*
D17*
X6985000Y16510000D3*
D18*
X7239000D3*
D17*
X6985000Y15875000D3*
D18*
X7239000D3*
D17*
X6985000Y15240000D3*
D18*
X7239000D3*
D17*
X6985000Y14605000D3*
D18*
X7239000D3*
D17*
X6985000Y13970000D3*
D18*
X7239000D3*
D17*
X6985000Y13335000D3*
D18*
X7239000D3*
D17*
X6985000Y12700000D3*
D18*
X7239000D3*
D17*
X6985000Y12065000D3*
D18*
X7239000D3*
X-1397000Y9398000D3*
D17*
Y9144000D3*
X-1143000Y9398000D3*
Y9144000D3*
X-889000Y9398000D3*
Y9144000D3*
X-635000Y9398000D3*
Y9144000D3*
X-381000Y9398000D3*
Y9144000D3*
D19*
X-6600000Y18900000D3*
D20*
X-6000000D3*
D21*
X-6300000Y18430000D3*
D18*
X-4572000Y11430000D3*
D17*
Y11684000D3*
X-4318000Y11430000D3*
Y11684000D3*
X-4064000Y11430000D3*
Y11684000D3*
D18*
X-2159000Y12573000D3*
D17*
X-2413000D3*
X-2667000D3*
X-2921000D3*
D22*
X-6350000Y11303000D3*
Y11557000D3*
Y11811000D3*
Y12065000D3*
Y12319000D3*
Y12573000D3*
Y12827000D3*
Y13081000D3*
Y13335000D3*
Y13589000D3*
Y13843000D3*
Y14097000D3*
Y14351000D3*
Y14605000D3*
Y14859000D3*
Y15113000D3*
Y15367000D3*
Y15621000D3*
Y15875000D3*
Y16129000D3*
Y16383000D3*
Y16637000D3*
Y16891000D3*
Y17145000D3*
Y17399000D3*
X-6604000D3*
Y17145000D3*
Y16891000D3*
Y16637000D3*
Y16383000D3*
Y16129000D3*
Y15875000D3*
Y15621000D3*
Y15367000D3*
Y15113000D3*
Y14859000D3*
Y14605000D3*
Y14351000D3*
Y14097000D3*
Y13843000D3*
Y13589000D3*
Y13335000D3*
Y13081000D3*
Y12827000D3*
Y12573000D3*
Y12319000D3*
Y12065000D3*
Y11811000D3*
Y11557000D3*
D23*
Y11303000D3*
D18*
X3810000Y13462000D3*
D24*
Y13208000D3*
Y12954000D3*
Y12700000D3*
Y12446000D3*
Y12192000D3*
Y11938000D3*
Y11684000D3*
Y11430000D3*
D18*
X6477000Y15240000D3*
D24*
Y14986000D3*
Y14732000D3*
Y14478000D3*
Y14224000D3*
Y13970000D3*
Y13716000D3*
Y13462000D3*
Y13208000D3*
D25*
X-127000Y18161000D3*
D26*
Y17711000D3*
X523000D3*
Y18161000D3*
D25*
X381000Y10668000D3*
D26*
Y10218000D3*
X1031000D3*
Y10668000D3*
D25*
X1270000D3*
D26*
Y10218000D3*
X1920000D3*
Y10668000D3*
D25*
X2159000D3*
D26*
Y10218000D3*
X2809000D3*
Y10668000D3*
D25*
X3048000D3*
D26*
Y10218000D3*
X3698000D3*
Y10668000D3*
D25*
X3937000D3*
D26*
Y10218000D3*
X4587000D3*
Y10668000D3*
D25*
X4826000D3*
D26*
Y10218000D3*
X5476000D3*
Y10668000D3*
D25*
X5715000D3*
D26*
Y10218000D3*
X6365000D3*
Y10668000D3*
D25*
X6604000D3*
D26*
Y10218000D3*
X7254000D3*
Y10668000D3*
D18*
X1778000Y16764000D3*
D17*
Y16510000D3*
Y16256000D3*
Y16002000D3*
Y15748000D3*
Y15494000D3*
Y15240000D3*
Y14986000D3*
Y14732000D3*
Y14478000D3*
Y14224000D3*
Y13970000D3*
Y13716000D3*
Y13462000D3*
Y13208000D3*
Y12954000D3*
Y12700000D3*
Y12446000D3*
Y12192000D3*
Y11938000D3*
X3302000D3*
Y12192000D3*
Y12446000D3*
Y12700000D3*
Y12954000D3*
Y13208000D3*
Y13462000D3*
Y13716000D3*
Y13970000D3*
Y14224000D3*
Y14478000D3*
Y14732000D3*
Y14986000D3*
Y15240000D3*
Y15494000D3*
Y15748000D3*
Y16002000D3*
Y16256000D3*
Y16510000D3*
Y16764000D3*
D18*
X4445000D3*
D17*
Y16510000D3*
Y16256000D3*
Y16002000D3*
Y15748000D3*
Y15494000D3*
Y15240000D3*
Y14986000D3*
Y14732000D3*
Y14478000D3*
Y14224000D3*
Y13970000D3*
Y13716000D3*
Y13462000D3*
Y13208000D3*
Y12954000D3*
Y12700000D3*
Y12446000D3*
Y12192000D3*
Y11938000D3*
X5969000D3*
Y12192000D3*
Y12446000D3*
Y12700000D3*
Y12954000D3*
Y13208000D3*
Y13462000D3*
Y13716000D3*
Y13970000D3*
Y14224000D3*
Y14478000D3*
Y14732000D3*
Y14986000D3*
Y15240000D3*
Y15494000D3*
Y15748000D3*
Y16002000D3*
Y16256000D3*
Y16510000D3*
Y16764000D3*
D27*
X-1524000Y11557000D3*
Y11303000D3*
Y11049000D3*
Y10795000D3*
Y10541000D3*
Y10287000D3*
X-1270000D3*
X-1016000D3*
X-762000D3*
X-508000D3*
X-254000D3*
Y10541000D3*
Y10795000D3*
Y11049000D3*
Y11303000D3*
Y11557000D3*
X-508000D3*
X-762000D3*
X-1016000D3*
X-1270000D3*
X-1778000D3*
Y11303000D3*
Y11049000D3*
Y10795000D3*
Y10541000D3*
Y10287000D3*
X-1524000Y10033000D3*
X-1270000D3*
X-1016000D3*
X-762000D3*
X-508000D3*
X-254000D3*
X0Y10287000D3*
Y10541000D3*
Y10795000D3*
Y11049000D3*
Y11303000D3*
Y11557000D3*
X-1524000Y11811000D3*
X-1270000D3*
X-1016000D3*
X-762000D3*
X-508000D3*
X-254000D3*
D18*
X-3048000Y16637000D3*
D17*
Y16383000D3*
Y16129000D3*
Y15875000D3*
Y15621000D3*
Y15367000D3*
Y15113000D3*
Y14859000D3*
Y14605000D3*
Y14351000D3*
Y14097000D3*
Y13843000D3*
Y13589000D3*
Y13335000D3*
X-1528000D3*
Y13589000D3*
Y13843000D3*
Y14097000D3*
Y14351000D3*
Y14605000D3*
Y14859000D3*
Y15113000D3*
Y15367000D3*
Y15621000D3*
Y15875000D3*
Y16129000D3*
Y16383000D3*
Y16637000D3*
D18*
X-889000D3*
D17*
Y16383000D3*
Y16129000D3*
Y15875000D3*
Y15621000D3*
Y15367000D3*
Y15113000D3*
Y14859000D3*
Y14605000D3*
Y14351000D3*
Y14097000D3*
Y13843000D3*
Y13589000D3*
Y13335000D3*
X635000D3*
Y13589000D3*
Y13843000D3*
Y14097000D3*
Y14351000D3*
Y14605000D3*
Y14859000D3*
Y15113000D3*
Y15367000D3*
Y15621000D3*
Y15875000D3*
Y16129000D3*
Y16383000D3*
Y16637000D3*
D64*
X-2667000Y9144000D3*
D28*
X-2540000D3*
X-2413000D3*
D18*
X-3683000Y12446000D3*
D17*
Y12700000D3*
Y12954000D3*
Y13208000D3*
Y13462000D3*
Y13716000D3*
Y13970000D3*
Y14224000D3*
Y14478000D3*
Y14732000D3*
Y14986000D3*
Y15240000D3*
Y15494000D3*
Y15748000D3*
Y16002000D3*
Y16256000D3*
Y16510000D3*
Y16764000D3*
Y17018000D3*
Y17272000D3*
X-5207000D3*
Y17018000D3*
Y16764000D3*
Y16510000D3*
Y16256000D3*
Y16002000D3*
Y15748000D3*
Y15494000D3*
Y15240000D3*
Y14986000D3*
Y14732000D3*
Y14478000D3*
Y14224000D3*
Y13970000D3*
Y13716000D3*
Y13462000D3*
Y13208000D3*
Y12954000D3*
Y12700000D3*
Y12446000D3*
D18*
X2921000Y18415000D3*
D17*
X2159000D3*
Y17653000D3*
X2921000D3*
X1612355Y9372530D2*
D62*
Y9384603D1*
X1624428Y9409030D1*
X1636501Y9421103D1*
X1660928Y9433176D1*
X1709501D1*
X1733647Y9421103D1*
X1745720Y9409030D1*
X1758074Y9384603D1*
Y9360457D1*
X1745720Y9336030D1*
X1721574Y9299810D1*
X1600001Y9178237D1*
X1770147D1*
X1921579Y9433176D2*
X1885079Y9421103D1*
X1860652Y9384603D1*
X1848579Y9323957D1*
Y9287457D1*
X1860652Y9226810D1*
X1885079Y9190310D1*
X1921579Y9178237D1*
X1945725D1*
X1982225Y9190310D1*
X2006371Y9226810D1*
X2018725Y9287457D1*
Y9323957D1*
X2006371Y9384603D1*
X1982225Y9421103D1*
X1945725Y9433176D1*
X1921579D1*
X2006371Y9384603D2*
X1860652Y9226810D1*
X2097156Y9384603D2*
X2121583Y9396957D1*
X2158083Y9433176D1*
Y9178237D1*
X2297161Y9433176D2*
X2260941Y9421103D1*
X2248588Y9396957D1*
Y9372530D1*
X2260941Y9348383D1*
X2285088Y9336030D1*
X2333661Y9323957D1*
X2370161Y9311883D1*
X2394307Y9287457D1*
X2406380Y9263310D1*
Y9226810D1*
X2394307Y9202664D1*
X2382234Y9190310D1*
X2345734Y9178237D1*
X2297161D1*
X2260941Y9190310D1*
X2248588Y9202664D1*
X2236515Y9226810D1*
Y9263310D1*
X2248588Y9287457D1*
X2273015Y9311883D1*
X2309234Y9323957D1*
X2357807Y9336030D1*
X2382234Y9348383D1*
X2394307Y9372530D1*
Y9396957D1*
X2382234Y9421103D1*
X2345734Y9433176D1*
X2297161D1*
X2484811Y9305707D2*
X2625196D1*
X2776627Y9433176D2*
X2740127Y9421103D1*
X2715700Y9384603D1*
X2703627Y9323957D1*
Y9287457D1*
X2715700Y9226810D1*
X2740127Y9190310D1*
X2776627Y9178237D1*
X2800773D1*
X2837273Y9190310D1*
X2861420Y9226810D1*
X2873773Y9287457D1*
Y9323957D1*
X2861420Y9384603D1*
X2837273Y9421103D1*
X2800773Y9433176D1*
X2776627D1*
X2861420Y9384603D2*
X2715700Y9226810D1*
X2964559Y9372530D2*
Y9384603D1*
X2976632Y9409030D1*
X2988705Y9421103D1*
X3013132Y9433176D1*
X3061705D1*
X3085851Y9421103D1*
X3097924Y9409030D1*
X3110278Y9384603D1*
Y9360457D1*
X3097924Y9336030D1*
X3073778Y9299810D1*
X2952205Y9178237D1*
X3122351D1*
X3200782Y9305707D2*
X3341167D1*
X3431952Y9372530D2*
Y9384603D1*
X3444025Y9409030D1*
X3456098Y9421103D1*
X3480525Y9433176D1*
X3529098D1*
X3553244Y9421103D1*
X3565318Y9409030D1*
X3577671Y9384603D1*
Y9360457D1*
X3565318Y9336030D1*
X3541171Y9299810D1*
X3419598Y9178237D1*
X3589744D1*
X3813895Y9396957D2*
X3801822Y9421103D1*
X3765322Y9433176D1*
X3741176D1*
X3704676Y9421103D1*
X3680249Y9384603D1*
X3668176Y9323957D1*
Y9263310D1*
X3680249Y9214737D1*
X3704676Y9190310D1*
X3741176Y9178237D1*
X3753249D1*
X3789468Y9190310D1*
X3813895Y9214737D1*
X3825968Y9251237D1*
Y9263310D1*
X3813895Y9299810D1*
X3789468Y9323957D1*
X3753249Y9336030D1*
X3741176D1*
X3704676Y9323957D1*
X3680249Y9299810D1*
X3668176Y9263310D1*
M02*
