G04 DipTrace 3.2.0.1*
G04 TopMask.gbr*
%MOMM*%
G04 #@! TF.FileFunction,Soldermask,Top*
G04 #@! TF.Part,Single*
%AMOUTLINE1*
4,1,8,
-0.6,-0.79142,
-0.29142,-1.1,
0.29142,-1.1,
0.6,-0.79142,
0.6,0.79142,
0.29142,1.1,
-0.29142,1.1,
-0.6,0.79142,
-0.6,-0.79142,
0*%
%ADD26R,1.7X1.7*%
%ADD27C,1.7*%
%ADD28C,1.5*%
%ADD38C,3.0*%
%ADD53C,1.4192*%
%ADD55O,1.8X1.7*%
%ADD57O,1.2X2.2*%
%ADD59C,1.724*%
%ADD61C,1.724*%
%ADD63C,1.47*%
%ADD65C,1.47*%
%ADD67C,1.7*%
%ADD68C,1.9*%
%ADD69R,1.9X1.9*%
%ADD70C,3.7*%
%ADD72C,1.8*%
%ADD74O,2.2X4.7*%
%ADD76O,5.2X2.2*%
%ADD78O,4.7X2.2*%
%ADD82C,1.8*%
%ADD84R,1.8X1.8*%
%ADD91OUTLINE1*%
%FSLAX35Y35*%
G04*
G71*
G90*
G75*
G01*
G04 TopMask*
%LPD*%
D84*
X3359000Y11668000D3*
D82*
Y11922000D3*
D84*
X4121000Y11668000D3*
D82*
Y11922000D3*
D84*
X9994750Y4683000D3*
D82*
Y4937000D3*
X5295750Y9858250D3*
D84*
X5041750D3*
D82*
X14789000Y12430000D3*
D84*
X14535000D3*
D82*
X13709500Y12303000D3*
D84*
Y12557000D3*
D82*
X10852000Y12430000D3*
D84*
X11106000D3*
D82*
X5518000Y3032000D3*
D84*
Y3286000D3*
D82*
X9328000Y4651250D3*
D84*
Y4905250D3*
D82*
X6597500Y3952750D3*
D84*
Y4206750D3*
D82*
X6326000Y2332000D3*
D84*
X6072000D3*
D82*
X6326000Y1697000D3*
D84*
X6072000D3*
D27*
X7677000Y2397000D3*
D26*
X7423000D3*
D27*
X8693000D3*
D26*
X8439000D3*
D27*
X9709000D3*
D26*
X9455000D3*
D27*
X10725000D3*
D26*
X10471000D3*
D27*
X11741000D3*
D26*
X11487000D3*
D27*
X12757000D3*
D26*
X12503000D3*
D27*
X13773000D3*
D26*
X13519000D3*
D27*
X14789000D3*
D26*
X14535000D3*
D27*
X3962250Y12430000D3*
D26*
X4216250D3*
X3613000Y3032000D3*
D27*
Y2022000D3*
D26*
X3105000Y3032000D3*
D27*
Y2022000D3*
D38*
X1373000Y12626000D3*
X15573000D3*
X1373000Y1426000D3*
X15573000D3*
D26*
X10502750Y3984500D3*
D27*
Y3730500D3*
X10248750Y3984500D3*
Y3730500D3*
X9994750Y3984500D3*
Y3730500D3*
X9740750Y3984500D3*
Y3730500D3*
X9486750Y3984500D3*
Y3730500D3*
D78*
X2373000Y12226000D3*
D76*
Y11626000D3*
D74*
X1903000Y11926000D3*
D26*
X5105250Y5318000D3*
D27*
X4851250D3*
X4597250D3*
X4343250D3*
D26*
X5518000Y4810000D3*
D27*
X5772000D3*
X5518000Y4556000D3*
X5772000D3*
X5518000Y4302000D3*
X5772000D3*
D84*
X2473000Y2426000D3*
D72*
Y2676000D3*
X2273000D3*
Y2426000D3*
D70*
X2002000Y3153000D3*
Y1949000D3*
D69*
X1454000Y10525000D3*
D68*
X1708000D3*
X1454000Y10271000D3*
X1708000D3*
X1454000Y10017000D3*
X1708000D3*
X1454000Y9763000D3*
X1708000D3*
X1454000Y9509000D3*
X1708000D3*
X1454000Y9255000D3*
X1708000D3*
X1454000Y9001000D3*
X1708000D3*
X1454000Y8747000D3*
X1708000D3*
X1454000Y8493000D3*
X1708000D3*
X1454000Y8239000D3*
X1708000D3*
X1454000Y7985000D3*
X1708000D3*
X1454000Y7731000D3*
X1708000D3*
X1454000Y7477000D3*
X1708000D3*
X1454000Y7223000D3*
X1708000D3*
X1454000Y6969000D3*
X1708000D3*
X1454000Y6715000D3*
X1708000D3*
X1454000Y6461000D3*
X1708000D3*
X1454000Y6207000D3*
X1708000D3*
X1454000Y5953000D3*
X1708000D3*
X1454000Y5699000D3*
X1708000D3*
X1454000Y5445000D3*
X1708000D3*
X1454000Y5191000D3*
X1708000D3*
X1454000Y4937000D3*
X1708000D3*
X1454000Y4683000D3*
X1708000D3*
X1454000Y4429000D3*
X1708000D3*
D26*
X7772250Y8334250D3*
D67*
X8026250D3*
X8280250D3*
X8534250D3*
X8788250D3*
X9042250D3*
X9296250D3*
X9550250D3*
X9804250D3*
D26*
X10185250Y3159000D3*
D67*
X10439250D3*
X10693250D3*
X10947250D3*
X11201250D3*
X11455250D3*
X11709250D3*
X11963250D3*
X12217250D3*
D65*
X4756000Y12430000D3*
D63*
X5518000D3*
D26*
X4152750Y5794250D3*
D67*
X4406750D3*
X4660750D3*
X4914750D3*
X5168750D3*
X5422750D3*
X5676750D3*
X5930750D3*
X6184750D3*
D61*
X2470000Y1508000D3*
D59*
X3486000D3*
D61*
X3780000Y4027000D3*
D59*
X2764000D3*
D61*
X3780000Y3519000D3*
D59*
X2764000D3*
D69*
X7931000Y9255000D3*
D68*
Y8805000D3*
X8581000D3*
Y9255000D3*
D69*
X7169000Y1762000D3*
D68*
Y1312000D3*
X7819000D3*
Y1762000D3*
D69*
X8185000D3*
D68*
Y1312000D3*
X8835000D3*
Y1762000D3*
D69*
X9201000D3*
D68*
Y1312000D3*
X9851000D3*
Y1762000D3*
D69*
X10217000D3*
D68*
Y1312000D3*
X10867000D3*
Y1762000D3*
D69*
X11233000D3*
D68*
Y1312000D3*
X11883000D3*
Y1762000D3*
D69*
X12249000D3*
D68*
Y1312000D3*
X12899000D3*
Y1762000D3*
D69*
X13265000D3*
D68*
Y1312000D3*
X13915000D3*
Y1762000D3*
D69*
X14281000D3*
D68*
Y1312000D3*
X14931000D3*
Y1762000D3*
D69*
X5899000Y3540000D3*
D68*
Y3090000D3*
X6549000D3*
Y3540000D3*
D26*
X5899000Y12557000D3*
D27*
Y12303000D3*
Y12049000D3*
Y11795000D3*
Y11541000D3*
Y11287000D3*
Y11033000D3*
Y10779000D3*
Y10525000D3*
Y10271000D3*
Y10017000D3*
Y9763000D3*
Y9509000D3*
Y9255000D3*
Y9001000D3*
Y8747000D3*
Y8493000D3*
Y8239000D3*
Y7985000D3*
Y7731000D3*
X7423000D3*
Y7985000D3*
Y8239000D3*
Y8493000D3*
Y8747000D3*
Y9001000D3*
Y9255000D3*
Y9509000D3*
Y9763000D3*
Y10017000D3*
Y10271000D3*
Y10525000D3*
Y10779000D3*
Y11033000D3*
Y11287000D3*
Y11541000D3*
Y11795000D3*
Y12049000D3*
Y12303000D3*
Y12557000D3*
D91*
X8058000Y9890000D3*
D57*
X8185000D3*
X8312000D3*
D26*
X11899750Y5413250D3*
D27*
Y5159250D3*
Y4905250D3*
Y4651250D3*
Y4397250D3*
Y4143250D3*
Y3889250D3*
X12661750D3*
Y4143250D3*
Y4397250D3*
Y4651250D3*
Y4905250D3*
Y5159250D3*
Y5413250D3*
D26*
X12979250Y5572000D3*
D27*
Y5318000D3*
Y5064000D3*
Y4810000D3*
Y4555997D3*
Y4301997D3*
Y4048000D3*
Y3793997D3*
Y3539997D3*
Y3286000D3*
X13741250Y5571997D3*
Y5317997D3*
Y5063997D3*
Y4810000D3*
Y4555997D3*
Y4301997D3*
Y4048000D3*
Y3793997D3*
Y3539997D3*
Y3286000D3*
D26*
X14122250Y5572000D3*
D27*
Y5318000D3*
Y5064000D3*
Y4810000D3*
Y4555997D3*
Y4301997D3*
Y4048000D3*
Y3793997D3*
Y3539997D3*
Y3286000D3*
X14884250Y5571997D3*
Y5317997D3*
Y5063997D3*
Y4810000D3*
Y4555997D3*
Y4301997D3*
Y4048000D3*
Y3793997D3*
Y3539997D3*
Y3286000D3*
D28*
X7200750Y4905250D3*
Y4651250D3*
Y4397250D3*
Y4143250D3*
Y3889250D3*
Y3635250D3*
X7454750D3*
X7708750D3*
X7962750D3*
X8216750D3*
X8470750D3*
Y3889250D3*
Y4143250D3*
Y4397250D3*
Y4651250D3*
Y4905250D3*
X8216750D3*
X7962750D3*
X7708750D3*
X7454750D3*
X6946750D3*
Y4651250D3*
Y4397250D3*
Y4143250D3*
Y3889250D3*
Y3635250D3*
X7200750Y3381250D3*
X7454750D3*
X7708750D3*
X7962750D3*
X8216750D3*
X8470750D3*
X8724750Y3635250D3*
Y3889250D3*
Y4143250D3*
Y4397250D3*
Y4651250D3*
Y4905250D3*
X7200750Y5159250D3*
X7454750D3*
X7708750D3*
X7962750D3*
X8216750D3*
X8470750D3*
D69*
X11868000Y11795000D3*
D68*
Y11541000D3*
Y11287000D3*
Y11033000D3*
Y10779000D3*
Y10525000D3*
Y10271000D3*
Y10017000D3*
Y9763000D3*
Y9509000D3*
Y9255000D3*
Y9001000D3*
Y8747000D3*
Y8493000D3*
X13388000D3*
Y8747000D3*
Y9001000D3*
Y9255000D3*
Y9509000D3*
Y9763000D3*
Y10017000D3*
Y10271000D3*
Y10525000D3*
Y10779000D3*
Y11033000D3*
Y11287000D3*
Y11541000D3*
Y11795000D3*
D26*
X13900000D3*
D27*
Y11541000D3*
Y11287000D3*
Y11033000D3*
Y10779000D3*
Y10525000D3*
Y10271000D3*
Y10017000D3*
Y9763000D3*
Y9509000D3*
Y9255000D3*
Y9001000D3*
Y8747000D3*
Y8493000D3*
X15424000D3*
Y8747000D3*
Y9001000D3*
Y9255000D3*
Y9509000D3*
Y9763000D3*
Y10017000D3*
Y10271000D3*
Y10525000D3*
Y10779000D3*
Y11033000D3*
Y11287000D3*
Y11541000D3*
Y11795000D3*
D91*
X3232000Y12303000D3*
D57*
X3359000D3*
X3486000D3*
D91*
X9518500Y5381500D3*
D57*
X9645500D3*
X9772500D3*
D26*
X10598000Y11668000D3*
D55*
Y11414000D3*
Y11160000D3*
Y10906000D3*
Y10652000D3*
Y10398000D3*
Y10144000D3*
Y9890000D3*
Y9636000D3*
Y9382000D3*
Y9128000D3*
Y8874000D3*
Y8620000D3*
Y8366000D3*
X11360000D3*
Y8620000D3*
Y8874000D3*
Y9128000D3*
Y9382000D3*
Y9636000D3*
Y9890000D3*
Y10144000D3*
Y10398000D3*
Y10652000D3*
Y10906000D3*
Y11160000D3*
Y11414000D3*
Y11668000D3*
D84*
X4121000Y4810000D3*
D82*
Y4556000D3*
Y4302000D3*
Y4048000D3*
Y3794000D3*
Y3540000D3*
Y3286000D3*
Y3032000D3*
Y2778000D3*
Y2524000D3*
Y2270000D3*
Y2016000D3*
Y1762000D3*
Y1508000D3*
X4883000D3*
Y1762000D3*
Y2016000D3*
Y2270000D3*
Y2524000D3*
Y2778000D3*
Y3032000D3*
Y3286000D3*
Y3540000D3*
Y3794000D3*
Y4048000D3*
Y4302000D3*
Y4556000D3*
Y4810000D3*
D26*
X9455000Y11668000D3*
D27*
Y11414000D3*
Y11160000D3*
Y10906000D3*
Y10652000D3*
Y10398000D3*
Y10144000D3*
Y9890000D3*
Y9636000D3*
X10217000D3*
Y9890000D3*
Y10144000D3*
Y10398000D3*
Y10652000D3*
Y10906000D3*
Y11160000D3*
Y11414000D3*
Y11668000D3*
D26*
X4375000Y11128250D3*
D27*
Y10366250D3*
X5137000D3*
Y11128250D3*
D53*
X5518000Y1762000D3*
Y2244600D3*
M02*
