M48
METRIC,0000.00
T01C0.5
T02C0.889
T03C0.9
T04C0.965
T05C1.0
T06C1.02
%
T01
X-001651Y-005135
X-001651Y-005309
X-002324Y-004460
X-001399Y-003698
X-001031Y-003698
X-000998Y-003556
X-000771Y-003497
X+000120Y-003147
X-001308Y-002413
X-000653Y-001143
T02
X-000508Y-005461
X-000508Y-005715
X-000508Y-004953
X-000508Y-004699
X-000508Y-004064
X-000508Y-003810
X-000508Y-003175
X-000508Y-002921
X-000508Y-002286
X-000508Y-002032
X-000508Y-001397
X-000508Y-001143
X-000508Y-000508
X-000508Y-000254
X-000508Y+000381
X-000508Y+000635
T03
X-001651Y-002794
X-001651Y-002540
X-001651Y-002286
X-001651Y-002032
X-001651Y-001778
X-001651Y-001524
X-001651Y-001270
X-001651Y-001016
X-001651Y-000762
X-001143Y-000762
X-001143Y-001016
X-001143Y-001270
X-001143Y-001524
X-001143Y-001778
X-001143Y-002032
X-001143Y-002286
X-001143Y-002540
X-001143Y-002794
X-001143Y-003302
X-001143Y-003556
X-001143Y-003810
X-001143Y-004064
X-001143Y-004318
X-001143Y-004572
X-001143Y-004826
X-001143Y-005080
X-001143Y-005334
X-001143Y-005588
X-001905Y-005588
X-001905Y-005334
X-001905Y-005080
X-001905Y-004826
X-002159Y-004826
X-002159Y-005080
X-002159Y-005334
X-002159Y-005588
X-002921Y-005588
X-002921Y-005334
X-002921Y-005080
X-002921Y-004826
X-002921Y-004572
X-002921Y-004318
X-002921Y-004064
X-002921Y-003810
X-002921Y-003556
X-002921Y-003302
X-002921Y-002667
X-002921Y-002413
X-002921Y-002159
X-002921Y-001905
X-002921Y-001651
X-002921Y-001397
X-002921Y-001143
X-002159Y-001143
X-002159Y-001397
X-002159Y-001651
X-002159Y-001905
X-002159Y-002159
X-002159Y-002413
X-002159Y-002667
X-002159Y-003302
X-002159Y-003556
X-002159Y-003810
X-001905Y-003810
X-001905Y-003556
X-001905Y-003302
X-001905Y-004064
X-001905Y-004318
X-001905Y-004572
X-002159Y-004572
X-002159Y-004318
X-002159Y-004064
T04
X-002286Y-000635
X-002286Y+000381
T05
X+000508Y-005969
X+000508Y-005519
X+000508Y-005080
X+000508Y-004630
X+000508Y-004191
X+000508Y-003741
X+000508Y-003302
X+000508Y-002852
X+000508Y-002413
X+000508Y-001963
X+000508Y-001524
X+000508Y-001074
X+000508Y-000635
X+000508Y-000185
X+000508Y+000254
X+000508Y+000704
X-000142Y+000704
X-000142Y+000254
X-000142Y-000185
X-000142Y-000635
X-000142Y-001074
X-000142Y-001524
X-000142Y-001963
X-000142Y-002413
X-000142Y-002852
X-000142Y-003302
X-000142Y-003741
X-000142Y-004191
X-000142Y-004630
X-000142Y-005080
X-000142Y-005519
X-000142Y-005969
T06
X-003302Y-005842
X-003302Y-005588
X-003556Y-005588
X-003556Y-005842
X-003556Y-005334
X-003556Y-005080
X-003556Y-004826
X-003302Y-004826
X-003302Y-005080
X-003302Y-005334
X-003302Y-004572
X-003556Y-004572
X-003556Y-004318
X-003556Y-004064
X-003302Y-004064
X-003302Y-004318
X-003302Y-003810
X-003556Y-003810
X-003556Y-003556
X-003556Y-003302
X-003302Y-003302
X-003302Y-003556
X-003302Y-003048
X-003556Y-003048
X-003556Y-002794
X-003556Y-002540
X-003302Y-002540
X-003302Y-002794
X-003302Y-002286
X-003556Y-002286
X-003556Y-002032
X-003556Y-001778
X-003302Y-001778
X-003302Y-002032
X-003302Y-001524
X-003302Y-001270
X-003302Y-001016
X-003556Y-001016
X-003556Y-001270
X-003556Y-001524
X-003556Y-000762
X-003302Y-000762
X-003302Y-000508
X-003302Y-000254
X-003556Y-000254
X-003556Y-000508
X-003556Y+000000
X-003302Y+000000
X-003302Y+000254
X-003556Y+000254
T00
M30
