G04 DipTrace 3.2.0.1*
G04 Top.gbr*
%MOMM*%
G04 #@! TF.FileFunction,Copper,L1,Top*
G04 #@! TF.Part,Single*
G04 #@! TA.AperFunction,Conductor*
%ADD13C,0.33*%
G04 #@! TA.AperFunction,ComponentPad*
%ADD14C,1.5*%
%ADD15R,1.5X1.5*%
%ADD16C,1.5*%
%ADD17C,1.524*%
%ADD18C,1.524*%
%ADD19R,1.7X1.7*%
%ADD20C,1.7*%
%ADD21C,1.62*%
%ADD22R,1.62X1.62*%
G04 #@! TA.AperFunction,ViaPad*
%ADD23C,1.0*%
%FSLAX35Y35*%
G04*
G71*
G90*
G75*
G01*
G04 Top*
%LPD*%
X-2286000Y-635000D2*
D13*
X-2047200Y-396200D1*
X-353200D1*
X-142000Y-185000D1*
X-3556000Y-5842000D2*
X-3438200Y-5959800D1*
X-2276803D1*
X-1905000Y-5587997D1*
X-142000Y-4630000D2*
X508000D1*
X-142000Y-3741000D2*
X508000D1*
X-142000Y-2852000D2*
X508000D1*
X-142000Y-1963000D2*
X508000D1*
X-142000Y-1074000D2*
X508000D1*
X-142000Y704000D2*
X508000D1*
X-142000Y-185000D2*
X508000D1*
X-142000Y-5519000D2*
X508000D1*
X-1905000Y-5587997D2*
X-1503260D1*
X-1244067Y-5847190D1*
X-195307D1*
X-142000Y-5793880D1*
Y-5519000D1*
X-3302000Y-5334000D2*
X-3184200Y-5216200D1*
X-2276800D1*
X-2159000Y-5334000D1*
X-1905000Y-5333997D1*
X-2159000Y-5080000D2*
X-1905000Y-5079997D1*
X-2159000Y-4826000D2*
X-1905000D1*
Y-4571997D2*
X-2159000D1*
X-2405300D1*
X-2523097Y-4454200D1*
X-3184200D1*
X-3302000Y-4572000D1*
X-2159000Y-4317997D2*
X-1905000D1*
Y-4064000D2*
X-2159000D1*
X-2276800Y-3946200D1*
X-3184200D1*
X-3302000Y-4064000D1*
X-1905000Y-3809997D2*
X-2159000D1*
X-2276797Y-3692200D1*
X-3184200D1*
X-3302000Y-3810000D1*
X-1905000Y-3555997D2*
X-2159000D1*
X-2276797Y-3438200D1*
X-3184200D1*
X-3302000Y-3556000D1*
X-2159000Y-5588000D2*
X-2413000Y-5842000D1*
X-3302000D1*
Y-1016000D2*
X-2286000D1*
X-2159000Y-1143000D1*
X-1651000Y-5309000D2*
Y-5135400D1*
Y-2794000D2*
X-1308100D1*
X-1143000D1*
X-1905000Y-3302000D2*
Y-1846500D1*
X-1958300Y-1793200D1*
X-2778800D1*
X-2921000Y-1651000D1*
X-2159000Y-2667000D2*
X-2794000Y-3302000D1*
X-2921000D1*
X-508000Y-5461000D2*
X-2793997D1*
X-2921000Y-5333997D1*
X-508000Y-4699000D2*
X-642650D1*
X-911840Y-4968190D1*
X-2809193D1*
X-2921000Y-5079997D1*
Y-4826000D2*
X-2809200Y-4714200D1*
X-1371470D1*
X-1318170Y-4660897D1*
Y-4005500D1*
X-1264870Y-3952200D1*
X-1102300D1*
X-960100Y-3810000D1*
X-508000D1*
X-2324100Y-4460190D2*
X-1706740D1*
X-1653433Y-4406883D1*
Y-2974300D1*
X-1600133Y-2921000D1*
X-508000D1*
X-2921000Y-4317997D2*
X-2809193Y-4206190D1*
X-1846500D1*
X-1793200Y-4152890D1*
Y-1465500D1*
X-1739900Y-1412200D1*
X-1485903D1*
X-1432600Y-1465500D1*
Y-1866897D1*
X-1379300Y-1920200D1*
X-619800D1*
X-508000Y-2032000D1*
X-653300Y-1143000D2*
X-1724090D1*
X-1968890Y-898200D1*
X-3384900D1*
X-3438200Y-951500D1*
Y-4146900D1*
X-3384900Y-4200200D1*
X-3252300D1*
X-3116100Y-4064000D1*
X-2921000D1*
X-1651000Y-1778000D2*
X-1539200Y-1889800D1*
Y-2628900D1*
X-1485900Y-2682200D1*
X-449500D1*
X-396200Y-2735500D1*
Y-3063200D1*
X-508000Y-3175000D1*
X-1651000Y-1524000D2*
X-1485900Y-1689100D1*
Y-2120900D1*
X-1432600Y-2174200D1*
X-619800D1*
X-508000Y-2286000D1*
X-1651000Y-1270000D2*
X-1442800D1*
X-1315800Y-1397000D1*
X-508000D1*
X-1651000Y-1016000D2*
X-1143000Y-508000D1*
X-508000D1*
X-2921000Y-2159000D2*
X-2809200Y-2047200D1*
X-2301200D1*
X-2159000Y-1905000D1*
X-142000Y-5969000D2*
X332890D1*
X508000D1*
X-142000Y-5080000D2*
X-924600D1*
X-1143000D1*
X508000D2*
X191360D1*
X-142000D1*
Y-4191000D2*
X-508000D1*
X-1143000Y-4826000D1*
X508000Y-4191000D2*
X332890D1*
X-142000D1*
Y-3302000D2*
X-289600Y-3449600D1*
Y-3898900D1*
X-342900Y-3952200D1*
X-924597D1*
X-977900Y-4005500D1*
Y-4406897D1*
X-1143000Y-4571997D1*
X508000Y-3302000D2*
X332890D1*
X-142000D1*
Y-2413000D2*
X-1308100D1*
X508000D2*
X282000D1*
X-142000D1*
X-1031200Y-3698190D2*
X-1399090D1*
X-142000Y-1524000D2*
X-396000Y-1270000D1*
X-1143000D1*
X508000Y-1524000D2*
X231157D1*
X-142000D1*
X119900Y-3146690D2*
X-238600D1*
X-447200Y-3355290D1*
X-866450D1*
X-955350Y-3444190D1*
X-1432587D1*
X-1485890Y-3497490D1*
Y-3756690D1*
X-1432583Y-3809997D1*
X-1143000D1*
X-142000Y-635000D2*
X-360830D1*
X-741830Y-1016000D1*
X-1143000D1*
X508000Y-635000D2*
X-142000D1*
X-997700Y-3556000D2*
X-939190Y-3497490D1*
X-770800D1*
X-142000Y254000D2*
X508000D1*
X-2159000Y-2413000D2*
X-2301200Y-2555200D1*
X-2555200D1*
X-3302000Y-3302000D1*
X-2921000Y-1143000D2*
X-2667000D1*
X-2159000Y-1651000D1*
Y-2159000D2*
X-2301200Y-2301200D1*
X-3032800D1*
X-3302000Y-2032000D1*
D23*
X-1651000Y-5135400D3*
Y-5309000D3*
X-2324100Y-4460190D3*
X-653300Y-1143000D3*
X-1308100Y-2413000D3*
X-1399090Y-3698190D3*
X-1031200D3*
X119900Y-3146690D3*
X-770800Y-3497490D3*
X-997700Y-3556000D3*
D14*
X-508000Y-5461000D3*
D15*
Y-5715000D3*
D14*
Y-4699000D3*
D15*
Y-4953000D3*
D14*
Y-3810000D3*
D15*
Y-4064000D3*
D14*
Y-2921000D3*
D15*
Y-3175000D3*
D14*
Y-2032000D3*
D15*
Y-2286000D3*
D14*
Y-1143000D3*
D15*
Y-1397000D3*
D14*
Y-254000D3*
D15*
Y-508000D3*
D14*
Y635000D3*
D15*
Y381000D3*
X-1651000Y-2794000D3*
D16*
Y-2540000D3*
Y-2286000D3*
Y-2032000D3*
Y-1778000D3*
Y-1524000D3*
Y-1270000D3*
Y-1016000D3*
Y-762000D3*
D17*
X-2286000Y-635000D3*
D18*
Y381000D3*
D15*
X-1143000Y-2794000D3*
D16*
Y-2540000D3*
Y-2286000D3*
Y-2032000D3*
Y-1778000D3*
Y-1524000D3*
Y-1270000D3*
Y-1016000D3*
Y-762000D3*
D19*
X508000Y-5969000D3*
D20*
Y-5519000D3*
X-142000D3*
Y-5969000D3*
D19*
X508000Y-5080000D3*
D20*
Y-4630000D3*
X-142000D3*
Y-5080000D3*
D19*
X508000Y-4191000D3*
D20*
Y-3741000D3*
X-142000D3*
Y-4191000D3*
D19*
X508000Y-3302000D3*
D20*
Y-2852000D3*
X-142000D3*
Y-3302000D3*
D19*
X508000Y-2413000D3*
D20*
Y-1963000D3*
X-142000D3*
Y-2413000D3*
D19*
X508000Y-1524000D3*
D20*
Y-1074000D3*
X-142000D3*
Y-1524000D3*
D19*
X508000Y-635000D3*
D20*
Y-185000D3*
X-142000D3*
Y-635000D3*
D19*
X508000Y254000D3*
D20*
Y704000D3*
X-142000D3*
Y254000D3*
D15*
X-2159000Y-2667000D3*
D14*
Y-2413000D3*
Y-2159000D3*
Y-1905000D3*
Y-1651000D3*
Y-1397000D3*
Y-1143000D3*
X-2921000D3*
Y-1397000D3*
Y-1651000D3*
Y-1905000D3*
Y-2159000D3*
Y-2413000D3*
Y-2667000D3*
D15*
X-2159000Y-5588000D3*
D14*
Y-5334000D3*
Y-5080000D3*
Y-4826000D3*
Y-4571997D3*
Y-4317997D3*
Y-4064000D3*
Y-3809997D3*
Y-3555997D3*
Y-3302000D3*
X-2921000Y-5587997D3*
Y-5333997D3*
Y-5079997D3*
Y-4826000D3*
Y-4571997D3*
Y-4317997D3*
Y-4064000D3*
Y-3809997D3*
Y-3555997D3*
Y-3302000D3*
D21*
X-3302000Y-5842000D3*
Y-5588000D3*
Y-5334000D3*
Y-5080000D3*
Y-4826000D3*
Y-4572000D3*
Y-4318000D3*
Y-4064000D3*
Y-3810000D3*
Y-3556000D3*
Y-3302000D3*
Y-3048000D3*
Y-2794000D3*
Y-2540000D3*
Y-2286000D3*
Y-2032000D3*
Y-1778000D3*
Y-1524000D3*
Y-1270000D3*
Y-1016000D3*
Y-762000D3*
Y-508000D3*
Y-254000D3*
Y0D3*
Y254000D3*
X-3556000D3*
Y0D3*
Y-254000D3*
Y-508000D3*
Y-762000D3*
Y-1016000D3*
Y-1270000D3*
Y-1524000D3*
Y-1778000D3*
Y-2032000D3*
Y-2286000D3*
Y-2540000D3*
Y-2794000D3*
Y-3048000D3*
Y-3302000D3*
Y-3556000D3*
Y-3810000D3*
Y-4064000D3*
Y-4318000D3*
Y-4572000D3*
Y-4826000D3*
Y-5080000D3*
Y-5334000D3*
Y-5588000D3*
D22*
Y-5842000D3*
D15*
X-1143000Y-5588000D3*
D14*
Y-5334000D3*
Y-5080000D3*
Y-4826000D3*
Y-4571997D3*
Y-4317997D3*
Y-4064000D3*
Y-3809997D3*
Y-3555997D3*
Y-3302000D3*
X-1905000Y-5587997D3*
Y-5333997D3*
Y-5079997D3*
Y-4826000D3*
Y-4571997D3*
Y-4317997D3*
Y-4064000D3*
Y-3809997D3*
Y-3555997D3*
Y-3302000D3*
M02*
