G04 DipTrace 3.2.0.1*
G04 TopSilk.gbr*
%MOMM*%
G04 #@! TF.FileFunction,Legend,Top*
G04 #@! TF.Part,Single*
%ADD10C,0.25*%
%ADD12C,0.0762*%
%ADD47C,0.19608*%
%FSLAX35Y35*%
G04*
G71*
G90*
G75*
G01*
G04 TopSilk*
%LPD*%
X-629920Y-5691020D2*
D10*
G02X-627040Y-5482152I119726J102803D01*
G01*
X-386080Y-5691020D2*
G03X-388960Y-5482152I-119726J102803D01*
G01*
X-629920Y-4929020D2*
G02X-627040Y-4720152I119726J102803D01*
G01*
X-386080Y-4929020D2*
G03X-388960Y-4720152I-119726J102803D01*
G01*
X-629920Y-4040020D2*
G02X-627040Y-3831152I119726J102803D01*
G01*
X-386080Y-4040020D2*
G03X-388960Y-3831152I-119726J102803D01*
G01*
X-629920Y-3151020D2*
G02X-627040Y-2942152I119726J102803D01*
G01*
X-386080Y-3151020D2*
G03X-388960Y-2942152I-119726J102803D01*
G01*
X-629920Y-2262020D2*
G02X-627040Y-2053152I119726J102803D01*
G01*
X-386080Y-2262020D2*
G03X-388960Y-2053152I-119726J102803D01*
G01*
X-629920Y-1373020D2*
G02X-627040Y-1164152I119726J102803D01*
G01*
X-386080Y-1373020D2*
G03X-388960Y-1164152I-119726J102803D01*
G01*
X-629920Y-484020D2*
G02X-627040Y-275152I119726J102803D01*
G01*
X-386080Y-484020D2*
G03X-388960Y-275152I-119726J102803D01*
G01*
X-629920Y404980D2*
G02X-627040Y613848I119726J102803D01*
G01*
X-386080Y404980D2*
G03X-388960Y613848I-119726J102803D01*
G01*
X-1776000Y-2921000D2*
X-1526000D1*
Y-635000D1*
X-1776000D1*
Y-2921000D1*
X-2159000Y126543D2*
Y-380543D1*
X-2413000D2*
X-2159000D1*
X-2413000Y126543D2*
Y-380543D1*
Y126543D2*
X-2159000D1*
X-1268000Y-2921000D2*
X-1018000D1*
Y-635000D1*
X-1268000D1*
Y-2921000D1*
X3010Y-5744000D2*
G02X3010Y-5744000I179990J0D01*
G01*
X413010Y-5443982D2*
X-47010D1*
X-117038Y-5643932D2*
Y-5844006D1*
X-47010Y-6044018D2*
X372994D1*
X483038Y-5844006D2*
Y-5643932D1*
X33022Y-5743969D2*
X33387Y-5733505D1*
X34482Y-5723092D1*
X36299Y-5712780D1*
X38832Y-5702621D1*
X42067Y-5692663D1*
X45988Y-5682955D1*
X50577Y-5673544D1*
X55811Y-5664476D1*
X61665Y-5655796D1*
X68110Y-5647545D1*
X75115Y-5639764D1*
X82645Y-5632491D1*
X90664Y-5625760D1*
X99133Y-5619606D1*
X108011Y-5614057D1*
X117254Y-5609142D1*
X126817Y-5604883D1*
X136654Y-5601302D1*
X146717Y-5598416D1*
X156957Y-5596239D1*
X167323Y-5594782D1*
X177766Y-5594051D1*
X188234D1*
X198677Y-5594782D1*
X209043Y-5596239D1*
X219283Y-5598416D1*
X229346Y-5601302D1*
X239183Y-5604883D1*
X248746Y-5609142D1*
X257989Y-5614057D1*
X266867Y-5619606D1*
X275336Y-5625760D1*
X283355Y-5632491D1*
X290885Y-5639764D1*
X297890Y-5647545D1*
X304335Y-5655796D1*
X310189Y-5664476D1*
X315423Y-5673544D1*
X320012Y-5682955D1*
X323933Y-5692663D1*
X327168Y-5702621D1*
X329701Y-5712780D1*
X331518Y-5723092D1*
X332613Y-5733505D1*
X332978Y-5743969D1*
X332613Y-5754433D1*
X331518Y-5764846D1*
X329701Y-5775158D1*
X327168Y-5785317D1*
X323933Y-5795275D1*
X320012Y-5804983D1*
X315423Y-5814394D1*
X310189Y-5823462D1*
X304335Y-5832142D1*
X297890Y-5840393D1*
X290885Y-5848174D1*
X283355Y-5855447D1*
X275336Y-5862178D1*
X266867Y-5868332D1*
X257989Y-5873881D1*
X248746Y-5878796D1*
X239183Y-5883055D1*
X229346Y-5886636D1*
X219283Y-5889522D1*
X209043Y-5891699D1*
X198677Y-5893156D1*
X188234Y-5893887D1*
X177766D1*
X167323Y-5893156D1*
X156957Y-5891699D1*
X146717Y-5889522D1*
X136654Y-5886636D1*
X126817Y-5883055D1*
X117254Y-5878796D1*
X108011Y-5873881D1*
X99133Y-5868332D1*
X90664Y-5862178D1*
X82645Y-5855447D1*
X75115Y-5848174D1*
X68110Y-5840393D1*
X61665Y-5832142D1*
X55811Y-5823462D1*
X50577Y-5814394D1*
X45988Y-5804983D1*
X42067Y-5795275D1*
X38832Y-5785317D1*
X36299Y-5775158D1*
X34482Y-5764846D1*
X33387Y-5754433D1*
X33022Y-5743969D1*
X3010Y-4855000D2*
G02X3010Y-4855000I179990J0D01*
G01*
X413010Y-4554982D2*
X-47010D1*
X-117038Y-4754932D2*
Y-4955006D1*
X-47010Y-5155018D2*
X372994D1*
X483038Y-4955006D2*
Y-4754932D1*
X33022Y-4854969D2*
X33387Y-4844505D1*
X34482Y-4834092D1*
X36299Y-4823780D1*
X38832Y-4813621D1*
X42067Y-4803663D1*
X45988Y-4793955D1*
X50577Y-4784544D1*
X55811Y-4775476D1*
X61665Y-4766796D1*
X68110Y-4758545D1*
X75115Y-4750764D1*
X82645Y-4743491D1*
X90664Y-4736760D1*
X99133Y-4730606D1*
X108011Y-4725057D1*
X117254Y-4720142D1*
X126817Y-4715883D1*
X136654Y-4712302D1*
X146717Y-4709416D1*
X156957Y-4707239D1*
X167323Y-4705782D1*
X177766Y-4705051D1*
X188234D1*
X198677Y-4705782D1*
X209043Y-4707239D1*
X219283Y-4709416D1*
X229346Y-4712302D1*
X239183Y-4715883D1*
X248746Y-4720142D1*
X257989Y-4725057D1*
X266867Y-4730606D1*
X275336Y-4736760D1*
X283355Y-4743491D1*
X290885Y-4750764D1*
X297890Y-4758545D1*
X304335Y-4766796D1*
X310189Y-4775476D1*
X315423Y-4784544D1*
X320012Y-4793955D1*
X323933Y-4803663D1*
X327168Y-4813621D1*
X329701Y-4823780D1*
X331518Y-4834092D1*
X332613Y-4844505D1*
X332978Y-4854969D1*
X332613Y-4865433D1*
X331518Y-4875846D1*
X329701Y-4886158D1*
X327168Y-4896317D1*
X323933Y-4906275D1*
X320012Y-4915983D1*
X315423Y-4925394D1*
X310189Y-4934462D1*
X304335Y-4943142D1*
X297890Y-4951393D1*
X290885Y-4959174D1*
X283355Y-4966447D1*
X275336Y-4973178D1*
X266867Y-4979332D1*
X257989Y-4984881D1*
X248746Y-4989796D1*
X239183Y-4994055D1*
X229346Y-4997636D1*
X219283Y-5000522D1*
X209043Y-5002699D1*
X198677Y-5004156D1*
X188234Y-5004887D1*
X177766D1*
X167323Y-5004156D1*
X156957Y-5002699D1*
X146717Y-5000522D1*
X136654Y-4997636D1*
X126817Y-4994055D1*
X117254Y-4989796D1*
X108011Y-4984881D1*
X99133Y-4979332D1*
X90664Y-4973178D1*
X82645Y-4966447D1*
X75115Y-4959174D1*
X68110Y-4951393D1*
X61665Y-4943142D1*
X55811Y-4934462D1*
X50577Y-4925394D1*
X45988Y-4915983D1*
X42067Y-4906275D1*
X38832Y-4896317D1*
X36299Y-4886158D1*
X34482Y-4875846D1*
X33387Y-4865433D1*
X33022Y-4854969D1*
X3010Y-3966000D2*
G02X3010Y-3966000I179990J0D01*
G01*
X413010Y-3665982D2*
X-47010D1*
X-117038Y-3865932D2*
Y-4066006D1*
X-47010Y-4266018D2*
X372994D1*
X483038Y-4066006D2*
Y-3865932D1*
X33022Y-3965969D2*
X33387Y-3955505D1*
X34482Y-3945092D1*
X36299Y-3934780D1*
X38832Y-3924621D1*
X42067Y-3914663D1*
X45988Y-3904955D1*
X50577Y-3895544D1*
X55811Y-3886476D1*
X61665Y-3877796D1*
X68110Y-3869545D1*
X75115Y-3861764D1*
X82645Y-3854491D1*
X90664Y-3847760D1*
X99133Y-3841606D1*
X108011Y-3836057D1*
X117254Y-3831142D1*
X126817Y-3826883D1*
X136654Y-3823302D1*
X146717Y-3820416D1*
X156957Y-3818239D1*
X167323Y-3816782D1*
X177766Y-3816051D1*
X188234D1*
X198677Y-3816782D1*
X209043Y-3818239D1*
X219283Y-3820416D1*
X229346Y-3823302D1*
X239183Y-3826883D1*
X248746Y-3831142D1*
X257989Y-3836057D1*
X266867Y-3841606D1*
X275336Y-3847760D1*
X283355Y-3854491D1*
X290885Y-3861764D1*
X297890Y-3869545D1*
X304335Y-3877796D1*
X310189Y-3886476D1*
X315423Y-3895544D1*
X320012Y-3904955D1*
X323933Y-3914663D1*
X327168Y-3924621D1*
X329701Y-3934780D1*
X331518Y-3945092D1*
X332613Y-3955505D1*
X332978Y-3965969D1*
X332613Y-3976433D1*
X331518Y-3986846D1*
X329701Y-3997158D1*
X327168Y-4007317D1*
X323933Y-4017275D1*
X320012Y-4026983D1*
X315423Y-4036394D1*
X310189Y-4045462D1*
X304335Y-4054142D1*
X297890Y-4062393D1*
X290885Y-4070174D1*
X283355Y-4077447D1*
X275336Y-4084178D1*
X266867Y-4090332D1*
X257989Y-4095881D1*
X248746Y-4100796D1*
X239183Y-4105055D1*
X229346Y-4108636D1*
X219283Y-4111522D1*
X209043Y-4113699D1*
X198677Y-4115156D1*
X188234Y-4115887D1*
X177766D1*
X167323Y-4115156D1*
X156957Y-4113699D1*
X146717Y-4111522D1*
X136654Y-4108636D1*
X126817Y-4105055D1*
X117254Y-4100796D1*
X108011Y-4095881D1*
X99133Y-4090332D1*
X90664Y-4084178D1*
X82645Y-4077447D1*
X75115Y-4070174D1*
X68110Y-4062393D1*
X61665Y-4054142D1*
X55811Y-4045462D1*
X50577Y-4036394D1*
X45988Y-4026983D1*
X42067Y-4017275D1*
X38832Y-4007317D1*
X36299Y-3997158D1*
X34482Y-3986846D1*
X33387Y-3976433D1*
X33022Y-3965969D1*
X3010Y-3077000D2*
G02X3010Y-3077000I179990J0D01*
G01*
X413010Y-2776982D2*
X-47010D1*
X-117038Y-2976932D2*
Y-3177006D1*
X-47010Y-3377018D2*
X372994D1*
X483038Y-3177006D2*
Y-2976932D1*
X33022Y-3076969D2*
X33387Y-3066505D1*
X34482Y-3056092D1*
X36299Y-3045780D1*
X38832Y-3035621D1*
X42067Y-3025663D1*
X45988Y-3015955D1*
X50577Y-3006544D1*
X55811Y-2997476D1*
X61665Y-2988796D1*
X68110Y-2980545D1*
X75115Y-2972764D1*
X82645Y-2965491D1*
X90664Y-2958760D1*
X99133Y-2952606D1*
X108011Y-2947057D1*
X117254Y-2942142D1*
X126817Y-2937883D1*
X136654Y-2934302D1*
X146717Y-2931416D1*
X156957Y-2929239D1*
X167323Y-2927782D1*
X177766Y-2927051D1*
X188234D1*
X198677Y-2927782D1*
X209043Y-2929239D1*
X219283Y-2931416D1*
X229346Y-2934302D1*
X239183Y-2937883D1*
X248746Y-2942142D1*
X257989Y-2947057D1*
X266867Y-2952606D1*
X275336Y-2958760D1*
X283355Y-2965491D1*
X290885Y-2972764D1*
X297890Y-2980545D1*
X304335Y-2988796D1*
X310189Y-2997476D1*
X315423Y-3006544D1*
X320012Y-3015955D1*
X323933Y-3025663D1*
X327168Y-3035621D1*
X329701Y-3045780D1*
X331518Y-3056092D1*
X332613Y-3066505D1*
X332978Y-3076969D1*
X332613Y-3087433D1*
X331518Y-3097846D1*
X329701Y-3108158D1*
X327168Y-3118317D1*
X323933Y-3128275D1*
X320012Y-3137983D1*
X315423Y-3147394D1*
X310189Y-3156462D1*
X304335Y-3165142D1*
X297890Y-3173393D1*
X290885Y-3181174D1*
X283355Y-3188447D1*
X275336Y-3195178D1*
X266867Y-3201332D1*
X257989Y-3206881D1*
X248746Y-3211796D1*
X239183Y-3216055D1*
X229346Y-3219636D1*
X219283Y-3222522D1*
X209043Y-3224699D1*
X198677Y-3226156D1*
X188234Y-3226887D1*
X177766D1*
X167323Y-3226156D1*
X156957Y-3224699D1*
X146717Y-3222522D1*
X136654Y-3219636D1*
X126817Y-3216055D1*
X117254Y-3211796D1*
X108011Y-3206881D1*
X99133Y-3201332D1*
X90664Y-3195178D1*
X82645Y-3188447D1*
X75115Y-3181174D1*
X68110Y-3173393D1*
X61665Y-3165142D1*
X55811Y-3156462D1*
X50577Y-3147394D1*
X45988Y-3137983D1*
X42067Y-3128275D1*
X38832Y-3118317D1*
X36299Y-3108158D1*
X34482Y-3097846D1*
X33387Y-3087433D1*
X33022Y-3076969D1*
X3010Y-2188000D2*
G02X3010Y-2188000I179990J0D01*
G01*
X413010Y-1887982D2*
X-47010D1*
X-117038Y-2087932D2*
Y-2288006D1*
X-47010Y-2488018D2*
X372994D1*
X483038Y-2288006D2*
Y-2087932D1*
X33022Y-2187969D2*
X33387Y-2177505D1*
X34482Y-2167092D1*
X36299Y-2156780D1*
X38832Y-2146621D1*
X42067Y-2136663D1*
X45988Y-2126955D1*
X50577Y-2117544D1*
X55811Y-2108476D1*
X61665Y-2099796D1*
X68110Y-2091545D1*
X75115Y-2083764D1*
X82645Y-2076491D1*
X90664Y-2069760D1*
X99133Y-2063606D1*
X108011Y-2058057D1*
X117254Y-2053142D1*
X126817Y-2048883D1*
X136654Y-2045302D1*
X146717Y-2042416D1*
X156957Y-2040239D1*
X167323Y-2038782D1*
X177766Y-2038051D1*
X188234D1*
X198677Y-2038782D1*
X209043Y-2040239D1*
X219283Y-2042416D1*
X229346Y-2045302D1*
X239183Y-2048883D1*
X248746Y-2053142D1*
X257989Y-2058057D1*
X266867Y-2063606D1*
X275336Y-2069760D1*
X283355Y-2076491D1*
X290885Y-2083764D1*
X297890Y-2091545D1*
X304335Y-2099796D1*
X310189Y-2108476D1*
X315423Y-2117544D1*
X320012Y-2126955D1*
X323933Y-2136663D1*
X327168Y-2146621D1*
X329701Y-2156780D1*
X331518Y-2167092D1*
X332613Y-2177505D1*
X332978Y-2187969D1*
X332613Y-2198433D1*
X331518Y-2208846D1*
X329701Y-2219158D1*
X327168Y-2229317D1*
X323933Y-2239275D1*
X320012Y-2248983D1*
X315423Y-2258394D1*
X310189Y-2267462D1*
X304335Y-2276142D1*
X297890Y-2284393D1*
X290885Y-2292174D1*
X283355Y-2299447D1*
X275336Y-2306178D1*
X266867Y-2312332D1*
X257989Y-2317881D1*
X248746Y-2322796D1*
X239183Y-2327055D1*
X229346Y-2330636D1*
X219283Y-2333522D1*
X209043Y-2335699D1*
X198677Y-2337156D1*
X188234Y-2337887D1*
X177766D1*
X167323Y-2337156D1*
X156957Y-2335699D1*
X146717Y-2333522D1*
X136654Y-2330636D1*
X126817Y-2327055D1*
X117254Y-2322796D1*
X108011Y-2317881D1*
X99133Y-2312332D1*
X90664Y-2306178D1*
X82645Y-2299447D1*
X75115Y-2292174D1*
X68110Y-2284393D1*
X61665Y-2276142D1*
X55811Y-2267462D1*
X50577Y-2258394D1*
X45988Y-2248983D1*
X42067Y-2239275D1*
X38832Y-2229317D1*
X36299Y-2219158D1*
X34482Y-2208846D1*
X33387Y-2198433D1*
X33022Y-2187969D1*
X3010Y-1299000D2*
G02X3010Y-1299000I179990J0D01*
G01*
X413010Y-998982D2*
X-47010D1*
X-117038Y-1198932D2*
Y-1399006D1*
X-47010Y-1599018D2*
X372994D1*
X483038Y-1399006D2*
Y-1198932D1*
X33022Y-1298969D2*
X33387Y-1288505D1*
X34482Y-1278092D1*
X36299Y-1267780D1*
X38832Y-1257621D1*
X42067Y-1247663D1*
X45988Y-1237955D1*
X50577Y-1228544D1*
X55811Y-1219476D1*
X61665Y-1210796D1*
X68110Y-1202545D1*
X75115Y-1194764D1*
X82645Y-1187491D1*
X90664Y-1180760D1*
X99133Y-1174606D1*
X108011Y-1169057D1*
X117254Y-1164142D1*
X126817Y-1159883D1*
X136654Y-1156302D1*
X146717Y-1153416D1*
X156957Y-1151239D1*
X167323Y-1149782D1*
X177766Y-1149051D1*
X188234D1*
X198677Y-1149782D1*
X209043Y-1151239D1*
X219283Y-1153416D1*
X229346Y-1156302D1*
X239183Y-1159883D1*
X248746Y-1164142D1*
X257989Y-1169057D1*
X266867Y-1174606D1*
X275336Y-1180760D1*
X283355Y-1187491D1*
X290885Y-1194764D1*
X297890Y-1202545D1*
X304335Y-1210796D1*
X310189Y-1219476D1*
X315423Y-1228544D1*
X320012Y-1237955D1*
X323933Y-1247663D1*
X327168Y-1257621D1*
X329701Y-1267780D1*
X331518Y-1278092D1*
X332613Y-1288505D1*
X332978Y-1298969D1*
X332613Y-1309433D1*
X331518Y-1319846D1*
X329701Y-1330158D1*
X327168Y-1340317D1*
X323933Y-1350275D1*
X320012Y-1359983D1*
X315423Y-1369394D1*
X310189Y-1378462D1*
X304335Y-1387142D1*
X297890Y-1395393D1*
X290885Y-1403174D1*
X283355Y-1410447D1*
X275336Y-1417178D1*
X266867Y-1423332D1*
X257989Y-1428881D1*
X248746Y-1433796D1*
X239183Y-1438055D1*
X229346Y-1441636D1*
X219283Y-1444522D1*
X209043Y-1446699D1*
X198677Y-1448156D1*
X188234Y-1448887D1*
X177766D1*
X167323Y-1448156D1*
X156957Y-1446699D1*
X146717Y-1444522D1*
X136654Y-1441636D1*
X126817Y-1438055D1*
X117254Y-1433796D1*
X108011Y-1428881D1*
X99133Y-1423332D1*
X90664Y-1417178D1*
X82645Y-1410447D1*
X75115Y-1403174D1*
X68110Y-1395393D1*
X61665Y-1387142D1*
X55811Y-1378462D1*
X50577Y-1369394D1*
X45988Y-1359983D1*
X42067Y-1350275D1*
X38832Y-1340317D1*
X36299Y-1330158D1*
X34482Y-1319846D1*
X33387Y-1309433D1*
X33022Y-1298969D1*
X3010Y-410000D2*
G02X3010Y-410000I179990J0D01*
G01*
X413010Y-109982D2*
X-47010D1*
X-117038Y-309932D2*
Y-510006D1*
X-47010Y-710018D2*
X372994D1*
X483038Y-510006D2*
Y-309932D1*
X33022Y-409969D2*
X33387Y-399505D1*
X34482Y-389092D1*
X36299Y-378780D1*
X38832Y-368621D1*
X42067Y-358663D1*
X45988Y-348955D1*
X50577Y-339544D1*
X55811Y-330476D1*
X61665Y-321796D1*
X68110Y-313545D1*
X75115Y-305764D1*
X82645Y-298491D1*
X90664Y-291760D1*
X99133Y-285606D1*
X108011Y-280057D1*
X117254Y-275142D1*
X126817Y-270883D1*
X136654Y-267302D1*
X146717Y-264416D1*
X156957Y-262239D1*
X167323Y-260782D1*
X177766Y-260051D1*
X188234D1*
X198677Y-260782D1*
X209043Y-262239D1*
X219283Y-264416D1*
X229346Y-267302D1*
X239183Y-270883D1*
X248746Y-275142D1*
X257989Y-280057D1*
X266867Y-285606D1*
X275336Y-291760D1*
X283355Y-298491D1*
X290885Y-305764D1*
X297890Y-313545D1*
X304335Y-321796D1*
X310189Y-330476D1*
X315423Y-339544D1*
X320012Y-348955D1*
X323933Y-358663D1*
X327168Y-368621D1*
X329701Y-378780D1*
X331518Y-389092D1*
X332613Y-399505D1*
X332978Y-409969D1*
X332613Y-420433D1*
X331518Y-430846D1*
X329701Y-441158D1*
X327168Y-451317D1*
X323933Y-461275D1*
X320012Y-470983D1*
X315423Y-480394D1*
X310189Y-489462D1*
X304335Y-498142D1*
X297890Y-506393D1*
X290885Y-514174D1*
X283355Y-521447D1*
X275336Y-528178D1*
X266867Y-534332D1*
X257989Y-539881D1*
X248746Y-544796D1*
X239183Y-549055D1*
X229346Y-552636D1*
X219283Y-555522D1*
X209043Y-557699D1*
X198677Y-559156D1*
X188234Y-559887D1*
X177766D1*
X167323Y-559156D1*
X156957Y-557699D1*
X146717Y-555522D1*
X136654Y-552636D1*
X126817Y-549055D1*
X117254Y-544796D1*
X108011Y-539881D1*
X99133Y-534332D1*
X90664Y-528178D1*
X82645Y-521447D1*
X75115Y-514174D1*
X68110Y-506393D1*
X61665Y-498142D1*
X55811Y-489462D1*
X50577Y-480394D1*
X45988Y-470983D1*
X42067Y-461275D1*
X38832Y-451317D1*
X36299Y-441158D1*
X34482Y-430846D1*
X33387Y-420433D1*
X33022Y-409969D1*
X3010Y479000D2*
G02X3010Y479000I179990J0D01*
G01*
X413010Y779018D2*
X-47010D1*
X-117038Y579068D2*
Y378994D1*
X-47010Y178982D2*
X372994D1*
X483038Y378994D2*
Y579068D1*
X33022Y479031D2*
X33387Y489495D1*
X34482Y499908D1*
X36299Y510220D1*
X38832Y520379D1*
X42067Y530337D1*
X45988Y540045D1*
X50577Y549456D1*
X55811Y558524D1*
X61665Y567204D1*
X68110Y575455D1*
X75115Y583236D1*
X82645Y590509D1*
X90664Y597240D1*
X99133Y603394D1*
X108011Y608943D1*
X117254Y613858D1*
X126817Y618117D1*
X136654Y621698D1*
X146717Y624584D1*
X156957Y626761D1*
X167323Y628218D1*
X177766Y628949D1*
X188234D1*
X198677Y628218D1*
X209043Y626761D1*
X219283Y624584D1*
X229346Y621698D1*
X239183Y618117D1*
X248746Y613858D1*
X257989Y608943D1*
X266867Y603394D1*
X275336Y597240D1*
X283355Y590509D1*
X290885Y583236D1*
X297890Y575455D1*
X304335Y567204D1*
X310189Y558524D1*
X315423Y549456D1*
X320012Y540045D1*
X323933Y530337D1*
X327168Y520379D1*
X329701Y510220D1*
X331518Y499908D1*
X332613Y489495D1*
X332978Y479031D1*
X332613Y468567D1*
X331518Y458154D1*
X329701Y447842D1*
X327168Y437683D1*
X323933Y427725D1*
X320012Y418017D1*
X315423Y408606D1*
X310189Y399538D1*
X304335Y390858D1*
X297890Y382607D1*
X290885Y374826D1*
X283355Y367553D1*
X275336Y360822D1*
X266867Y354668D1*
X257989Y349119D1*
X248746Y344204D1*
X239183Y339945D1*
X229346Y336364D1*
X219283Y333478D1*
X209043Y331301D1*
X198677Y329844D1*
X188234Y329113D1*
X177766D1*
X167323Y329844D1*
X156957Y331301D1*
X146717Y333478D1*
X136654Y336364D1*
X126817Y339945D1*
X117254Y344204D1*
X108011Y349119D1*
X99133Y354668D1*
X90664Y360822D1*
X82645Y367553D1*
X75115Y374826D1*
X68110Y382607D1*
X61665Y390858D1*
X55811Y399538D1*
X50577Y408606D1*
X45988Y418017D1*
X42067Y427725D1*
X38832Y437683D1*
X36299Y447842D1*
X34482Y458154D1*
X33387Y468567D1*
X33022Y479031D1*
X-2800011Y-2885000D2*
Y-925000D1*
X-2279989D2*
X-2800011D1*
X-2279989Y-2885000D2*
Y-925000D1*
Y-2885000D2*
X-2479990D1*
X-2800011D2*
X-2600010D1*
X-2479990D2*
G03X-2600010Y-2885000I-60010J-34D01*
G01*
X-2800011Y-5745000D2*
Y-3145000D1*
X-2279989D2*
X-2800011D1*
X-2279989Y-5745000D2*
Y-3145000D1*
Y-5745000D2*
X-2479990D1*
X-2800011D2*
X-2600010D1*
X-2479990D2*
G03X-2600010Y-5745000I-60010J-210D01*
G01*
X-3683000Y-5994000D2*
X-3175000D1*
Y406000D1*
X-3683000D1*
Y-5994000D1*
X-1784011Y-5745000D2*
Y-3145000D1*
X-1263989D2*
X-1784011D1*
X-1263989Y-5745000D2*
Y-3145000D1*
Y-5745000D2*
X-1463990D1*
X-1784011D2*
X-1584010D1*
X-1463990D2*
G03X-1584010Y-5745000I-60010J-210D01*
G01*
X-1256030Y1074420D2*
D12*
X-1233170D1*
X-1256030Y1070610D2*
X-1233170D1*
X-2315210Y1066800D2*
X-2277110D1*
X-2151380D2*
X-2120900D1*
X-1256030D2*
X-1233170D1*
X-924560D2*
X-886460D1*
X-2524760Y1062990D2*
X-2387600D1*
X-2323840D2*
X-2268480D1*
X-2160010D2*
X-2112270D1*
X-1941830D2*
X-1850390D1*
X-1256030D2*
X-1233170D1*
X-1103630D2*
X-1023620D1*
X-935552D2*
X-875939D1*
X-2524760Y1059180D2*
X-2387600D1*
X-2330972D2*
X-2261348D1*
X-2167142D2*
X-2105138D1*
X-1941830D2*
X-1841760D1*
X-1256030D2*
X-1233170D1*
X-1103630D2*
X-1023620D1*
X-944858D2*
X-866728D1*
X-2524760Y1055370D2*
X-2387600D1*
X-2336612D2*
X-2255708D1*
X-2172782D2*
X-2099513D1*
X-1941830D2*
X-1834628D1*
X-1256030D2*
X-1233170D1*
X-1103630D2*
X-1023620D1*
X-952523D2*
X-859379D1*
X-2524760Y1051560D2*
X-2387615D1*
X-2341272D2*
X-2251048D1*
X-2177442D2*
X-2094972D1*
X-1941830D2*
X-1829003D1*
X-1256030D2*
X-1233170D1*
X-1103630D2*
X-1023620D1*
X-959008D2*
X-853664D1*
X-2524760Y1047750D2*
X-2387764D1*
X-2345315D2*
X-2310651D1*
X-2281669D2*
X-2247005D1*
X-2181485D2*
X-2091296D1*
X-1941830D2*
X-1824462D1*
X-1256030D2*
X-1233170D1*
X-1103630D2*
X-1023620D1*
X-964481D2*
X-848965D1*
X-2524760Y1043940D2*
X-2388383D1*
X-2348769D2*
X-2316675D1*
X-2275645D2*
X-2243551D1*
X-2184939D2*
X-2150616D1*
X-2125015D2*
X-2088388D1*
X-1941830D2*
X-1820786D1*
X-1256030D2*
X-1233170D1*
X-1103630D2*
X-1023620D1*
X-968814D2*
X-923208D1*
X-891179D2*
X-844795D1*
X-2418829Y1040130D2*
X-2389796D1*
X-2351571D2*
X-2321627D1*
X-2270708D2*
X-2240749D1*
X-2187741D2*
X-2156521D1*
X-2118535D2*
X-2086002D1*
X-1941830D2*
X-1918970D1*
X-1858315D2*
X-1817893D1*
X-1256030D2*
X-1233170D1*
X-1076960D2*
X-1050290D1*
X-972184D2*
X-931962D1*
X-881968D2*
X-840972D1*
X-2420396Y1036320D2*
X-2391834D1*
X-2353788D2*
X-2325555D1*
X-2266899D2*
X-2238532D1*
X-2189973D2*
X-2161106D1*
X-2113510D2*
X-2083898D1*
X-1941830D2*
X-1918970D1*
X-1851835D2*
X-1815640D1*
X-1256030D2*
X-1233170D1*
X-1076960D2*
X-1050290D1*
X-975094D2*
X-939223D1*
X-874619D2*
X-837593D1*
X-2422796Y1032510D2*
X-2394095D1*
X-2355408D2*
X-2328571D1*
X-2264234D2*
X-2236926D1*
X-2191712D2*
X-2164474D1*
X-2109892D2*
X-2082032D1*
X-1941830D2*
X-1918970D1*
X-1846825D2*
X-1814023D1*
X-1256030D2*
X-1233170D1*
X-1076960D2*
X-1050290D1*
X-977824D2*
X-945113D1*
X-868904D2*
X-834692D1*
X-2425501Y1028700D2*
X-2396526D1*
X-2356478D2*
X-2330877D1*
X-2262356D2*
X-2235991D1*
X-2193133D2*
X-2166955D1*
X-2107186D2*
X-2080459D1*
X-1941830D2*
X-1918970D1*
X-1843340D2*
X-1813083D1*
X-1256030D2*
X-1233170D1*
X-1076960D2*
X-1050290D1*
X-980266D2*
X-949623D1*
X-864220D2*
X-832001D1*
X-2428116Y1024890D2*
X-2399079D1*
X-2357424D2*
X-2332515D1*
X-2260782D2*
X-2235530D1*
X-2194506D2*
X-2168794D1*
X-2105057D2*
X-2079106D1*
X-1941830D2*
X-1918970D1*
X-1840736D2*
X-1812621D1*
X-1256030D2*
X-1233170D1*
X-1076960D2*
X-1050290D1*
X-982448D2*
X-952953D1*
X-860169D2*
X-829472D1*
X-2430709Y1021080D2*
X-2401568D1*
X-2358523D2*
X-2333448D1*
X-2259522D2*
X-2235329D1*
X-2195700D2*
X-2170253D1*
X-2103379D2*
X-2077759D1*
X-1941830D2*
X-1918970D1*
X-1839823D2*
X-1812419D1*
X-1256030D2*
X-1233170D1*
X-1076960D2*
X-1050290D1*
X-984484D2*
X-955527D1*
X-856713D2*
X-827428D1*
X-2433329Y1017270D2*
X-2404092D1*
X-2359448D2*
X-2333779D1*
X-2258761D2*
X-2235247D1*
X-2196580D2*
X-2171639D1*
X-2101988D2*
X-2076590D1*
X-1941830D2*
X-1918970D1*
X-1839328D2*
X-1812337D1*
X-1256045D2*
X-1233170D1*
X-1076960D2*
X-1050290D1*
X-986439D2*
X-957721D1*
X-853910D2*
X-825803D1*
X-2435844Y1013460D2*
X-2406680D1*
X-2359657D2*
X-2333481D1*
X-2258500D2*
X-2235217D1*
X-2197449D2*
X-2172823D1*
X-2100626D2*
X-2075833D1*
X-1941830D2*
X-1918970D1*
X-1839104D2*
X-1812322D1*
X-1732280D2*
X-1697990D1*
X-1587500D2*
X-1541780D1*
X-1313180D2*
X-1278890D1*
X-1256190D2*
X-1233170D1*
X-1076960D2*
X-1050290D1*
X-988353D2*
X-959736D1*
X-851677D2*
X-824201D1*
X-2438377Y1009650D2*
X-2409197D1*
X-2359109D2*
X-2332502D1*
X-2258809D2*
X-2235221D1*
X-2198534D2*
X-2173570D1*
X-2099452D2*
X-2075316D1*
X-1941830D2*
X-1918970D1*
X-1839028D2*
X-1812445D1*
X-1739740D2*
X-1688771D1*
X-1597596D2*
X-1532576D1*
X-1461770D2*
X-1435100D1*
X-1397000D2*
X-1377950D1*
X-1320640D2*
X-1270570D1*
X-1256779D2*
X-1233170D1*
X-1076960D2*
X-1050290D1*
X-990128D2*
X-961672D1*
X-849938D2*
X-822496D1*
X-2440968Y1005840D2*
X-2411843D1*
X-2358283D2*
X-2330921D1*
X-2259664D2*
X-2235351D1*
X-2199582D2*
X-2173969D1*
X-2098708D2*
X-2074658D1*
X-1941830D2*
X-1918970D1*
X-1839128D2*
X-1812941D1*
X-1746723D2*
X-1680694D1*
X-1605382D2*
X-1524633D1*
X-1461770D2*
X-1435070D1*
X-1405660D2*
X-1377950D1*
X-1327623D2*
X-1261613D1*
X-1258081D2*
X-1233170D1*
X-1076960D2*
X-1050290D1*
X-991553D2*
X-963469D1*
X-848517D2*
X-820822D1*
X-2443471Y1002030D2*
X-2414785D1*
X-2357552D2*
X-2328721D1*
X-2260748D2*
X-2235850D1*
X-2200273D2*
X-2174276D1*
X-2098325D2*
X-2073675D1*
X-1941830D2*
X-1918970D1*
X-1839616D2*
X-1813986D1*
X-1752795D2*
X-1674083D1*
X-1608446D2*
X-1518492D1*
X-1461770D2*
X-1434780D1*
X-1413083D2*
X-1377950D1*
X-1333680D2*
X-1233170D1*
X-1076960D2*
X-1050290D1*
X-992544D2*
X-965016D1*
X-847144D2*
X-819455D1*
X-2445999Y998220D2*
X-2417729D1*
X-2356725D2*
X-2325833D1*
X-2261903D2*
X-2236911D1*
X-2200636D2*
X-2174832D1*
X-2098152D2*
X-2072671D1*
X-1941830D2*
X-1918970D1*
X-1840673D2*
X-1815463D1*
X-1757876D2*
X-1668875D1*
X-1609482D2*
X-1514078D1*
X-1461770D2*
X-1434088D1*
X-1419905D2*
X-1377950D1*
X-1338643D2*
X-1233170D1*
X-1076960D2*
X-1050290D1*
X-993460D2*
X-966359D1*
X-845950D2*
X-818601D1*
X-2448589Y994410D2*
X-2420440D1*
X-2355511D2*
X-2322336D1*
X-2263314D2*
X-2238507D1*
X-2200801D2*
X-2175772D1*
X-2098082D2*
X-2071997D1*
X-1941830D2*
X-1918970D1*
X-1842312D2*
X-1817189D1*
X-1762174D2*
X-1664830D1*
X-1610006D2*
X-1510673D1*
X-1461770D2*
X-1431119D1*
X-1427223D2*
X-1377950D1*
X-1342589D2*
X-1233170D1*
X-1076960D2*
X-1050290D1*
X-994564D2*
X-967703D1*
X-845070D2*
X-818042D1*
X-2451092Y990600D2*
X-2423069D1*
X-2353837D2*
X-2318093D1*
X-2265086D2*
X-2240584D1*
X-2200884D2*
X-2176759D1*
X-2098055D2*
X-2071640D1*
X-1941830D2*
X-1918970D1*
X-1844821D2*
X-1819153D1*
X-1765752D2*
X-1728295D1*
X-1698739D2*
X-1661641D1*
X-1610228D2*
X-1582289D1*
X-1547102D2*
X-1507855D1*
X-1461770D2*
X-1377950D1*
X-1345740D2*
X-1308621D1*
X-1276149D2*
X-1233170D1*
X-1076960D2*
X-1050290D1*
X-995618D2*
X-968871D1*
X-844201D2*
X-817367D1*
X-2453619Y986790D2*
X-2425702D1*
X-2351601D2*
X-2312773D1*
X-2267408D2*
X-2242976D1*
X-2201044D2*
X-2177427D1*
X-2098045D2*
X-2071477D1*
X-1941830D2*
X-1918970D1*
X-1848965D2*
X-1821541D1*
X-1768623D2*
X-1735144D1*
X-1692701D2*
X-1658821D1*
X-1610315D2*
X-1594855D1*
X-1538985D2*
X-1505810D1*
X-1461770D2*
X-1377950D1*
X-1348546D2*
X-1314659D1*
X-1267575D2*
X-1233170D1*
X-1076960D2*
X-1050290D1*
X-996312D2*
X-969613D1*
X-843116D2*
X-816378D1*
X-2456209Y982980D2*
X-2428222D1*
X-2348700D2*
X-2306035D1*
X-2270746D2*
X-2245428D1*
X-2201539D2*
X-2177781D1*
X-2098027D2*
X-2071410D1*
X-1941830D2*
X-1918970D1*
X-1855380D2*
X-1824630D1*
X-1770995D2*
X-1740731D1*
X-1687629D2*
X-1656131D1*
X-1610360D2*
X-1606550D1*
X-1532465D2*
X-1504507D1*
X-1461770D2*
X-1396107D1*
X-1351231D2*
X-1319731D1*
X-1260801D2*
X-1233170D1*
X-1076960D2*
X-1050290D1*
X-996676D2*
X-969995D1*
X-842068D2*
X-815372D1*
X-2458726Y979170D2*
X-2430756D1*
X-2345228D2*
X-2297282D1*
X-2275871D2*
X-2248194D1*
X-2202455D2*
X-2177943D1*
X-2097892D2*
X-2071384D1*
X-1941830D2*
X-1918970D1*
X-1863854D2*
X-1828594D1*
X-1773109D2*
X-1744900D1*
X-1683335D2*
X-1653720D1*
X-1529114D2*
X-1503451D1*
X-1461770D2*
X-1410129D1*
X-1353641D2*
X-1324025D1*
X-1257920D2*
X-1233170D1*
X-1076960D2*
X-1050290D1*
X-996841D2*
X-970168D1*
X-841377D2*
X-814697D1*
X-2461373Y975360D2*
X-2433348D1*
X-2341275D2*
X-2286037D1*
X-2283382D2*
X-2251746D1*
X-2203433D2*
X-2178010D1*
X-2097406D2*
X-2071375D1*
X-1941830D2*
X-1833507D1*
X-1775093D2*
X-1748206D1*
X-1679757D2*
X-1651678D1*
X-1527774D2*
X-1502290D1*
X-1461770D2*
X-1420288D1*
X-1355697D2*
X-1327603D1*
X-1256906D2*
X-1233170D1*
X-1076960D2*
X-1050290D1*
X-996909D2*
X-970238D1*
X-841014D2*
X-814340D1*
X-2464315Y971550D2*
X-2435851D1*
X-2337190D2*
X-2256116D1*
X-2204098D2*
X-2178036D1*
X-2096493D2*
X-2071372D1*
X-1941830D2*
X-1838960D1*
X-1777017D2*
X-1750985D1*
X-1676902D2*
X-1650129D1*
X-1527060D2*
X-1501214D1*
X-1461770D2*
X-1428197D1*
X-1357365D2*
X-1330458D1*
X-1256387D2*
X-1233170D1*
X-1076960D2*
X-1050290D1*
X-996936D2*
X-970265D1*
X-840849D2*
X-814177D1*
X-2467259Y967740D2*
X-2438379D1*
X-2333580D2*
X-2260881D1*
X-2204451D2*
X-2178045D1*
X-2095516D2*
X-2071371D1*
X-1941830D2*
X-1833259D1*
X-1778796D2*
X-1753017D1*
X-1674663D2*
X-1649087D1*
X-1526741D2*
X-1500512D1*
X-1461770D2*
X-1432120D1*
X-1358758D2*
X-1332711D1*
X-1256165D2*
X-1233170D1*
X-1076960D2*
X-1050290D1*
X-996945D2*
X-970275D1*
X-840781D2*
X-814110D1*
X-2469970Y963930D2*
X-2440969D1*
X-2330450D2*
X-2265680D1*
X-2204613D2*
X-2178048D1*
X-2094852D2*
X-2071370D1*
X-1941830D2*
X-1827385D1*
X-1780208D2*
X-1754315D1*
X-1673036D2*
X-1648151D1*
X-1526610D2*
X-1500145D1*
X-1461770D2*
X-1433674D1*
X-1360122D2*
X-1334458D1*
X-1256078D2*
X-1233170D1*
X-1076960D2*
X-1050290D1*
X-996948D2*
X-970278D1*
X-840754D2*
X-814084D1*
X-2472599Y960120D2*
X-2443486D1*
X-2336019D2*
X-2259522D1*
X-2204680D2*
X-2178049D1*
X-2094513D2*
X-2071370D1*
X-1941830D2*
X-1822000D1*
X-1781065D2*
X-1755370D1*
X-1671964D2*
X-1647040D1*
X-1526540D2*
X-1499979D1*
X-1461770D2*
X-1434501D1*
X-1361297D2*
X-1335882D1*
X-1256046D2*
X-1233170D1*
X-1076960D2*
X-1050290D1*
X-996949D2*
X-970279D1*
X-840745D2*
X-814075D1*
X-2475232Y956310D2*
X-2446133D1*
X-2340923D2*
X-2314446D1*
X-2308339D2*
X-2253674D1*
X-2204706D2*
X-2178050D1*
X-2094486D2*
X-2071370D1*
X-1941830D2*
X-1817635D1*
X-1781511D2*
X-1756530D1*
X-1671017D2*
X-1645983D1*
X-1548426D2*
X-1499911D1*
X-1461770D2*
X-1434868D1*
X-1362041D2*
X-1337256D1*
X-1256035D2*
X-1233170D1*
X-1076960D2*
X-1050290D1*
X-996950D2*
X-970280D1*
X-840742D2*
X-814072D1*
X-2477752Y952500D2*
X-2449075D1*
X-2345272D2*
X-2320351D1*
X-2298491D2*
X-2248338D1*
X-2204700D2*
X-2178050D1*
X-2094904D2*
X-2071370D1*
X-1941830D2*
X-1918970D1*
X-1854360D2*
X-1814230D1*
X-1781836D2*
X-1757606D1*
X-1669902D2*
X-1645288D1*
X-1567392D2*
X-1499885D1*
X-1461770D2*
X-1435015D1*
X-1362440D2*
X-1338435D1*
X-1256032D2*
X-1233170D1*
X-1076960D2*
X-1050290D1*
X-996950D2*
X-970280D1*
X-840741D2*
X-814071D1*
X-2480286Y948690D2*
X-2452019D1*
X-2349193D2*
X-2324936D1*
X-2289609D2*
X-2243749D1*
X-2204570D2*
X-2178050D1*
X-2095791D2*
X-2071370D1*
X-1941830D2*
X-1918970D1*
X-1847392D2*
X-1811315D1*
X-1782399D2*
X-1758308D1*
X-1668844D2*
X-1644924D1*
X-1582238D2*
X-1499875D1*
X-1461770D2*
X-1435070D1*
X-1362746D2*
X-1339181D1*
X-1256031D2*
X-1233170D1*
X-1076960D2*
X-1050290D1*
X-996950D2*
X-970280D1*
X-840740D2*
X-814070D1*
X-2482878Y944880D2*
X-2454730D1*
X-2352602D2*
X-2328319D1*
X-2281519D2*
X-2239986D1*
X-2204085D2*
X-2178050D1*
X-2096759D2*
X-2071370D1*
X-1941830D2*
X-1918970D1*
X-1841468D2*
X-1808711D1*
X-1783341D2*
X-1758675D1*
X-1668149D2*
X-1644759D1*
X-1593274D2*
X-1499872D1*
X-1461770D2*
X-1435090D1*
X-1363302D2*
X-1339565D1*
X-1256030D2*
X-1233170D1*
X-1076960D2*
X-1050290D1*
X-996950D2*
X-970280D1*
X-840755D2*
X-814085D1*
X-2485381Y941070D2*
X-2457359D1*
X-2355389D2*
X-2330919D1*
X-2274281D2*
X-2237038D1*
X-2203173D2*
X-2178050D1*
X-2097420D2*
X-2071370D1*
X-1941830D2*
X-1918970D1*
X-1836992D2*
X-1806751D1*
X-1784328D2*
X-1758841D1*
X-1667784D2*
X-1644691D1*
X-1601406D2*
X-1499871D1*
X-1461770D2*
X-1435097D1*
X-1364242D2*
X-1339737D1*
X-1256030D2*
X-1233170D1*
X-1076960D2*
X-1050290D1*
X-996950D2*
X-970280D1*
X-840889D2*
X-814219D1*
X-2487909Y937260D2*
X-2459992D1*
X-2357616D2*
X-2333110D1*
X-2268250D2*
X-2234759D1*
X-2202196D2*
X-2178050D1*
X-2097772D2*
X-2071370D1*
X-1941830D2*
X-1918970D1*
X-1833973D2*
X-1805480D1*
X-1784996D2*
X-1758909D1*
X-1667619D2*
X-1644664D1*
X-1607340D2*
X-1499870D1*
X-1461770D2*
X-1435099D1*
X-1365229D2*
X-1339808D1*
X-1256030D2*
X-1233170D1*
X-1076960D2*
X-1050290D1*
X-996935D2*
X-970265D1*
X-841374D2*
X-814704D1*
X-2490499Y933450D2*
X-2462512D1*
X-2359353D2*
X-2334995D1*
X-2263734D2*
X-2233115D1*
X-2201532D2*
X-2178035D1*
X-2097933D2*
X-2071370D1*
X-1941830D2*
X-1918970D1*
X-1831933D2*
X-1804435D1*
X-1785336D2*
X-1758935D1*
X-1667551D2*
X-1644655D1*
X-1611570D2*
X-1542275D1*
X-1526540D2*
X-1499870D1*
X-1461770D2*
X-1435100D1*
X-1365882D2*
X-1339835D1*
X-1256030D2*
X-1233170D1*
X-1076960D2*
X-1050290D1*
X-996801D2*
X-970131D1*
X-842287D2*
X-815617D1*
X-2493002Y929640D2*
X-2465046D1*
X-2360773D2*
X-2336446D1*
X-2260700D2*
X-2232037D1*
X-2201178D2*
X-2177901D1*
X-2098000D2*
X-2071385D1*
X-1941830D2*
X-1918970D1*
X-1830292D2*
X-1803278D1*
X-1785364D2*
X-1758945D1*
X-1667524D2*
X-1644652D1*
X-1614874D2*
X-1561343D1*
X-1526540D2*
X-1499870D1*
X-1461770D2*
X-1435100D1*
X-1366102D2*
X-1339845D1*
X-1256030D2*
X-1233170D1*
X-1076960D2*
X-1050290D1*
X-996316D2*
X-969646D1*
X-843279D2*
X-816594D1*
X-2495529Y925830D2*
X-2467638D1*
X-2362147D2*
X-2337317D1*
X-2258655D2*
X-2231088D1*
X-2201017D2*
X-2177416D1*
X-2098026D2*
X-2071519D1*
X-1941830D2*
X-1918970D1*
X-1829006D2*
X-1802203D1*
X-1784946D2*
X-1758948D1*
X-1667530D2*
X-1644651D1*
X-1617645D2*
X-1574782D1*
X-1526540D2*
X-1499870D1*
X-1461770D2*
X-1435100D1*
X-1365779D2*
X-1339848D1*
X-1256030D2*
X-1233170D1*
X-1076960D2*
X-1050290D1*
X-995403D2*
X-968718D1*
X-844077D2*
X-817273D1*
X-2498119Y922020D2*
X-2470141D1*
X-2363325D2*
X-2337753D1*
X-2257012D2*
X-2229972D1*
X-2200935D2*
X-2176503D1*
X-2098035D2*
X-2072004D1*
X-1941830D2*
X-1918970D1*
X-1828221D2*
X-1801502D1*
X-1784059D2*
X-1758935D1*
X-1667660D2*
X-1644650D1*
X-1619671D2*
X-1583625D1*
X-1526540D2*
X-1499870D1*
X-1461770D2*
X-1435100D1*
X-1364933D2*
X-1339849D1*
X-1256030D2*
X-1233170D1*
X-1076960D2*
X-1050290D1*
X-994411D2*
X-967607D1*
X-844916D2*
X-817760D1*
X-2500636Y918210D2*
X-2472669D1*
X-2364071D2*
X-2337946D1*
X-2255727D2*
X-2228914D1*
X-2200775D2*
X-2175526D1*
X-2098053D2*
X-2072917D1*
X-1941830D2*
X-1918970D1*
X-1827823D2*
X-1801150D1*
X-1783091D2*
X-1758801D1*
X-1668145D2*
X-1644665D1*
X-1620967D2*
X-1589600D1*
X-1526540D2*
X-1499870D1*
X-1461770D2*
X-1435100D1*
X-1363982D2*
X-1339835D1*
X-1256030D2*
X-1233170D1*
X-1076960D2*
X-1050290D1*
X-993613D2*
X-966443D1*
X-846005D2*
X-818422D1*
X-2503283Y914400D2*
X-2475259D1*
X-2364455D2*
X-2338024D1*
X-2254941D2*
X-2228233D1*
X-2200281D2*
X-2174847D1*
X-2098188D2*
X-2073894D1*
X-1941830D2*
X-1918970D1*
X-1827660D2*
X-1801118D1*
X-1782430D2*
X-1758316D1*
X-1669057D2*
X-1644799D1*
X-1622021D2*
X-1593739D1*
X-1526540D2*
X-1499870D1*
X-1461770D2*
X-1435100D1*
X-1363327D2*
X-1339701D1*
X-1256030D2*
X-1233170D1*
X-1076960D2*
X-1050290D1*
X-992759D2*
X-965043D1*
X-847183D2*
X-819536D1*
X-2506225Y910590D2*
X-2477776D1*
X-2364613D2*
X-2338039D1*
X-2254557D2*
X-2228003D1*
X-2199365D2*
X-2174360D1*
X-2098674D2*
X-2074573D1*
X-1941830D2*
X-1918970D1*
X-1827722D2*
X-1801535D1*
X-1782063D2*
X-1757388D1*
X-1670049D2*
X-1645284D1*
X-1623180D2*
X-1596833D1*
X-1526540D2*
X-1499870D1*
X-1461770D2*
X-1435100D1*
X-1362962D2*
X-1339216D1*
X-1256030D2*
X-1233170D1*
X-1076960D2*
X-1050290D1*
X-991551D2*
X-963404D1*
X-848373D2*
X-821024D1*
X-2509169Y906780D2*
X-2480423D1*
X-2364549D2*
X-2337916D1*
X-2254514D2*
X-2228323D1*
X-2198372D2*
X-2173712D1*
X-2099602D2*
X-2075060D1*
X-1941830D2*
X-1918970D1*
X-1828194D2*
X-1802421D1*
X-1781768D2*
X-1756277D1*
X-1670847D2*
X-1646197D1*
X-1624256D2*
X-1597913D1*
X-1526540D2*
X-1499870D1*
X-1461770D2*
X-1435100D1*
X-1362667D2*
X-1338288D1*
X-1256030D2*
X-1233170D1*
X-1076960D2*
X-1050290D1*
X-990007D2*
X-961611D1*
X-849797D2*
X-822625D1*
X-2511880Y902970D2*
X-2483365D1*
X-2364091D2*
X-2337419D1*
X-2254942D2*
X-2229168D1*
X-2197573D2*
X-2172718D1*
X-2100713D2*
X-2075708D1*
X-1941830D2*
X-1918970D1*
X-1829246D2*
X-1803404D1*
X-1781201D2*
X-1755113D1*
X-1671701D2*
X-1647189D1*
X-1624943D2*
X-1598497D1*
X-1526555D2*
X-1499870D1*
X-1461770D2*
X-1435100D1*
X-1362115D2*
X-1337177D1*
X-1256045D2*
X-1233170D1*
X-1076960D2*
X-1050290D1*
X-988270D2*
X-959636D1*
X-851573D2*
X-824107D1*
X-2514509Y899160D2*
X-2486309D1*
X-2363173D2*
X-2336359D1*
X-2255961D2*
X-2230133D1*
X-2196734D2*
X-2171582D1*
X-2101877D2*
X-2076702D1*
X-1941830D2*
X-1918970D1*
X-1830854D2*
X-1804199D1*
X-1780129D2*
X-1753713D1*
X-1672924D2*
X-1647987D1*
X-1625176D2*
X-1598746D1*
X-1526704D2*
X-1499870D1*
X-1461770D2*
X-1435100D1*
X-1361162D2*
X-1336013D1*
X-1256194D2*
X-1233170D1*
X-1076960D2*
X-1050290D1*
X-986430D2*
X-957387D1*
X-853853D2*
X-825554D1*
X-2517142Y895350D2*
X-2489020D1*
X-2362066D2*
X-2334748D1*
X-2257428D2*
X-2230922D1*
X-2195645D2*
X-2170407D1*
X-2103277D2*
X-2077838D1*
X-1941830D2*
X-1918970D1*
X-1833079D2*
X-1805051D1*
X-1778642D2*
X-1752074D1*
X-1674602D2*
X-1648841D1*
X-1624856D2*
X-1598719D1*
X-1527338D2*
X-1499870D1*
X-1461770D2*
X-1435100D1*
X-1360042D2*
X-1334613D1*
X-1256843D2*
X-1233170D1*
X-1076960D2*
X-1050290D1*
X-984540D2*
X-954911D1*
X-856756D2*
X-827388D1*
X-2519662Y891540D2*
X-2491649D1*
X-2360902D2*
X-2332537D1*
X-2259165D2*
X-2231772D1*
X-2194467D2*
X-2168990D1*
X-2104931D2*
X-2079013D1*
X-1941830D2*
X-1918970D1*
X-1836119D2*
X-1806274D1*
X-1776928D2*
X-1750266D1*
X-1676839D2*
X-1650049D1*
X-1623997D2*
X-1598259D1*
X-1528900D2*
X-1499870D1*
X-1461770D2*
X-1435100D1*
X-1358874D2*
X-1332959D1*
X-1258076D2*
X-1233170D1*
X-1076960D2*
X-1050290D1*
X-982522D2*
X-952313D1*
X-860130D2*
X-829613D1*
X-2522196Y887730D2*
X-2494282D1*
X-2359503D2*
X-2329645D1*
X-2261278D2*
X-2232994D1*
X-2193277D2*
X-2167201D1*
X-2106873D2*
X-2080416D1*
X-1941830D2*
X-1918970D1*
X-1840252D2*
X-1807952D1*
X-1775096D2*
X-1748127D1*
X-1679740D2*
X-1651593D1*
X-1622913D2*
X-1597197D1*
X-1531572D2*
X-1499870D1*
X-1461770D2*
X-1435100D1*
X-1357473D2*
X-1331017D1*
X-1261451D2*
X-1233170D1*
X-1076960D2*
X-1050290D1*
X-980257D2*
X-949156D1*
X-863905D2*
X-831965D1*
X-2524773Y883920D2*
X-2496816D1*
X-2357864D2*
X-2326042D1*
X-2263805D2*
X-2234672D1*
X-2191853D2*
X-2164684D1*
X-2109586D2*
X-2082056D1*
X-1941830D2*
X-1918970D1*
X-1846040D2*
X-1810189D1*
X-1773208D2*
X-1745587D1*
X-1683346D2*
X-1653345D1*
X-1621758D2*
X-1595338D1*
X-1535499D2*
X-1499870D1*
X-1461770D2*
X-1435100D1*
X-1355834D2*
X-1328304D1*
X-1266023D2*
X-1233170D1*
X-1076960D2*
X-1050290D1*
X-977789D2*
X-944759D1*
X-868538D2*
X-834559D1*
X-2527142Y880110D2*
X-2499474D1*
X-2356071D2*
X-2320784D1*
X-2269749D2*
X-2236909D1*
X-2190077D2*
X-2161333D1*
X-2113226D2*
X-2083849D1*
X-1941830D2*
X-1918970D1*
X-1853822D2*
X-1813075D1*
X-1771177D2*
X-1739642D1*
X-1688605D2*
X-1655318D1*
X-1620361D2*
X-1592700D1*
X-1541603D2*
X-1499870D1*
X-1461770D2*
X-1435100D1*
X-1354041D2*
X-1324664D1*
X-1272700D2*
X-1233170D1*
X-1076960D2*
X-1050290D1*
X-975308D2*
X-937927D1*
X-875658D2*
X-837608D1*
X-2529170Y876300D2*
X-2502492D1*
X-2354081D2*
X-2311401D1*
X-2279875D2*
X-2239795D1*
X-2187797D2*
X-2152117D1*
X-2123093D2*
X-2085839D1*
X-1941830D2*
X-1918970D1*
X-1863196D2*
X-1816443D1*
X-1768778D2*
X-1729516D1*
X-1697989D2*
X-1657695D1*
X-1618723D2*
X-1583256D1*
X-1551948D2*
X-1499870D1*
X-1461770D2*
X-1435100D1*
X-1352051D2*
X-1314797D1*
X-1283675D2*
X-1233170D1*
X-1076960D2*
X-1050290D1*
X-972532D2*
X-925845D1*
X-888221D2*
X-841028D1*
X-2530698Y872490D2*
X-2383790D1*
X-2351684D2*
X-2296068D1*
X-2295788D2*
X-2243163D1*
X-2184894D2*
X-2138063D1*
X-2137638D2*
X-2088221D1*
X-1941830D2*
X-1820202D1*
X-1765825D2*
X-1713602D1*
X-1713322D2*
X-1660655D1*
X-1616931D2*
X-1568146D1*
X-1567993D2*
X-1499870D1*
X-1461770D2*
X-1435100D1*
X-1349669D2*
X-1300252D1*
X-1300506D2*
X-1233170D1*
X-1103630D2*
X-1023620D1*
X-968963D2*
X-906442D1*
X-908042D2*
X-844678D1*
X-2531605Y868680D2*
X-2383790D1*
X-2348588D2*
X-2246922D1*
X-2181520D2*
X-2091183D1*
X-1941830D2*
X-1824595D1*
X-1762431D2*
X-1664179D1*
X-1614926D2*
X-1499870D1*
X-1461770D2*
X-1435100D1*
X-1346707D2*
X-1233170D1*
X-1103630D2*
X-1023620D1*
X-964475D2*
X-848581D1*
X-2532055Y864870D2*
X-2383790D1*
X-2344562D2*
X-2251300D1*
X-2177745D2*
X-2094724D1*
X-1941830D2*
X-1830211D1*
X-1758648D2*
X-1668446D1*
X-1612395D2*
X-1534779D1*
X-1526540D2*
X-1499870D1*
X-1461770D2*
X-1435100D1*
X-1343181D2*
X-1264399D1*
X-1256030D2*
X-1233170D1*
X-1103630D2*
X-1023620D1*
X-959196D2*
X-853147D1*
X-2532253Y861060D2*
X-2383790D1*
X-2339252D2*
X-2256771D1*
X-2173236D2*
X-2099121D1*
X-1941830D2*
X-1837708D1*
X-1754137D2*
X-1673870D1*
X-1608814D2*
X-1539824D1*
X-1526540D2*
X-1499870D1*
X-1461770D2*
X-1435100D1*
X-1338929D2*
X-1269790D1*
X-1256030D2*
X-1233170D1*
X-1103630D2*
X-1023620D1*
X-952955D2*
X-859127D1*
X-2532336Y857250D2*
X-2383790D1*
X-2332411D2*
X-2263679D1*
X-2167334D2*
X-2104975D1*
X-1941830D2*
X-1847278D1*
X-1748235D2*
X-1680760D1*
X-1603905D2*
X-1545808D1*
X-1526540D2*
X-1499870D1*
X-1461770D2*
X-1435100D1*
X-1333664D2*
X-1276130D1*
X-1256030D2*
X-1233170D1*
X-1103630D2*
X-1023620D1*
X-945121D2*
X-866987D1*
X-2532380Y853440D2*
X-2383790D1*
X-2324170D2*
X-2271946D1*
X-2159796D2*
X-2112494D1*
X-1941830D2*
X-1858010D1*
X-1740696D2*
X-1689020D1*
X-1597858D2*
X-1552948D1*
X-1526540D2*
X-1499870D1*
X-1461770D2*
X-1435100D1*
X-1327448D2*
X-1283102D1*
X-1256030D2*
X-1233170D1*
X-1103630D2*
X-1023620D1*
X-935389D2*
X-876391D1*
X-2315210Y849630D2*
X-2280920D1*
X-2151380D2*
X-2120900D1*
X-1732280D2*
X-1697990D1*
X-1591310D2*
X-1560830D1*
X-1320800D2*
X-1290320D1*
X-924560D2*
X-886460D1*
X-2905760Y-5895340D2*
X-2886710D1*
X-2680970D2*
X-2661920D1*
X-2905760Y-5899150D2*
X-2886710D1*
X-2680970D2*
X-2661920D1*
X-2905760Y-5902960D2*
X-2886710D1*
X-2856230D2*
X-2837180D1*
X-2680970D2*
X-2661920D1*
X-2170430D2*
X-2151380D1*
X-1968500D2*
X-1949450D1*
X-1370330D2*
X-1351280D1*
X-2905760Y-5906770D2*
X-2886710D1*
X-2856230D2*
X-2837180D1*
X-2680970D2*
X-2661920D1*
X-2170430D2*
X-2151380D1*
X-1968500D2*
X-1949450D1*
X-1370330D2*
X-1351280D1*
X-2905760Y-5910580D2*
X-2886710D1*
X-2856230D2*
X-2837180D1*
X-2680970D2*
X-2661920D1*
X-2551430D2*
X-2536190D1*
X-2170430D2*
X-2151380D1*
X-2117090D2*
X-2101850D1*
X-2040890D2*
X-2025650D1*
X-1968500D2*
X-1949450D1*
X-1370330D2*
X-1351280D1*
X-1217930D2*
X-1202690D1*
X-2905760Y-5914390D2*
X-2886710D1*
X-2856230D2*
X-2837180D1*
X-2680970D2*
X-2661920D1*
X-2551430D2*
X-2536190D1*
X-2170430D2*
X-2151380D1*
X-2117090D2*
X-2101850D1*
X-2040890D2*
X-2025650D1*
X-1968500D2*
X-1949450D1*
X-1370330D2*
X-1351280D1*
X-1217930D2*
X-1202690D1*
X-2905760Y-5918200D2*
X-2886710D1*
X-2856230D2*
X-2837180D1*
X-2680970D2*
X-2661920D1*
X-2551430D2*
X-2536190D1*
X-2170430D2*
X-2151380D1*
X-2117090D2*
X-2101850D1*
X-2040890D2*
X-2025650D1*
X-1968500D2*
X-1949450D1*
X-1370330D2*
X-1351280D1*
X-1217930D2*
X-1202690D1*
X-2905760Y-5922010D2*
X-2886710D1*
X-2856230D2*
X-2837180D1*
X-2680970D2*
X-2661920D1*
X-2551430D2*
X-2536190D1*
X-2170430D2*
X-2151380D1*
X-2117090D2*
X-2101850D1*
X-2040890D2*
X-2025650D1*
X-1968500D2*
X-1949450D1*
X-1370330D2*
X-1351280D1*
X-1217930D2*
X-1202690D1*
X-2905760Y-5925820D2*
X-2886710D1*
X-2680970D2*
X-2661920D1*
X-2551430D2*
X-2536190D1*
X-2117090D2*
X-2101850D1*
X-2040890D2*
X-2025650D1*
X-1217930D2*
X-1202690D1*
X-2905760Y-5929630D2*
X-2886710D1*
X-2680970D2*
X-2661920D1*
X-2551430D2*
X-2536190D1*
X-2117090D2*
X-2101850D1*
X-2040890D2*
X-2025650D1*
X-1217930D2*
X-1202690D1*
X-2905760Y-5933440D2*
X-2886710D1*
X-2680970D2*
X-2661920D1*
X-2551430D2*
X-2536190D1*
X-2117090D2*
X-2101850D1*
X-2040890D2*
X-2025650D1*
X-1217930D2*
X-1202690D1*
X-2905760Y-5937250D2*
X-2886710D1*
X-2680970D2*
X-2661920D1*
X-2551430D2*
X-2536190D1*
X-2117090D2*
X-2101850D1*
X-2040890D2*
X-2025650D1*
X-1217930D2*
X-1202690D1*
X-2905760Y-5941060D2*
X-2886710D1*
X-2776220D2*
X-2749550D1*
X-2680970D2*
X-2661905D1*
X-2635250D2*
X-2612390D1*
X-2551430D2*
X-2536190D1*
X-2444750D2*
X-2418080D1*
X-2319020D2*
X-2296160D1*
X-2246630D2*
X-2223770D1*
X-2117090D2*
X-2101850D1*
X-2040890D2*
X-2025650D1*
X-1873250D2*
X-1850390D1*
X-1762760D2*
X-1736090D1*
X-1553210D2*
X-1526540D1*
X-1446530D2*
X-1416050D1*
X-1297940D2*
X-1267460D1*
X-1217930D2*
X-1202690D1*
X-1115060D2*
X-1084580D1*
X-840740D2*
X-814070D1*
X-741680D2*
X-711200D1*
X-608330D2*
X-585470D1*
X-535940D2*
X-513080D1*
X-2905760Y-5944870D2*
X-2886710D1*
X-2856230D2*
X-2837180D1*
X-2783091D2*
X-2736334D1*
X-2730500D2*
X-2715260D1*
X-2680970D2*
X-2661760D1*
X-2642278D2*
X-2606821D1*
X-2566670D2*
X-2498090D1*
X-2453380D2*
X-2410753D1*
X-2360930D2*
X-2341880D1*
X-2324745D2*
X-2290576D1*
X-2253516D2*
X-2218346D1*
X-2170430D2*
X-2151380D1*
X-2132330D2*
X-2063750D1*
X-2056130D2*
X-1987550D1*
X-1968500D2*
X-1949450D1*
X-1918970D2*
X-1899920D1*
X-1880278D2*
X-1844821D1*
X-1769631D2*
X-1722874D1*
X-1717040D2*
X-1701800D1*
X-1667510D2*
X-1648460D1*
X-1621790D2*
X-1606550D1*
X-1561840D2*
X-1519213D1*
X-1453857D2*
X-1408169D1*
X-1370330D2*
X-1351280D1*
X-1305267D2*
X-1259579D1*
X-1233170D2*
X-1164590D1*
X-1121931D2*
X-1077709D1*
X-1023620D2*
X-1004570D1*
X-977900D2*
X-962660D1*
X-849370D2*
X-806189D1*
X-748551D2*
X-704329D1*
X-650240D2*
X-631190D1*
X-614055D2*
X-579886D1*
X-542826D2*
X-507656D1*
X-2905760Y-5948680D2*
X-2886710D1*
X-2856230D2*
X-2837180D1*
X-2789115D2*
X-2715260D1*
X-2680970D2*
X-2661171D1*
X-2648922D2*
X-2601932D1*
X-2566670D2*
X-2498090D1*
X-2460498D2*
X-2404769D1*
X-2360930D2*
X-2341180D1*
X-2330245D2*
X-2285527D1*
X-2259700D2*
X-2213945D1*
X-2170430D2*
X-2151380D1*
X-2132330D2*
X-2063750D1*
X-2056130D2*
X-1987550D1*
X-1968500D2*
X-1949450D1*
X-1918970D2*
X-1899220D1*
X-1886922D2*
X-1839932D1*
X-1775655D2*
X-1701800D1*
X-1667510D2*
X-1648304D1*
X-1628818D2*
X-1606550D1*
X-1568958D2*
X-1513229D1*
X-1459841D2*
X-1401715D1*
X-1370330D2*
X-1351280D1*
X-1311251D2*
X-1253125D1*
X-1233170D2*
X-1164590D1*
X-1127969D2*
X-1071685D1*
X-1023620D2*
X-1004414D1*
X-984928D2*
X-962660D1*
X-856502D2*
X-799735D1*
X-754589D2*
X-698305D1*
X-650240D2*
X-630490D1*
X-619555D2*
X-574837D1*
X-549010D2*
X-503255D1*
X-2905760Y-5952490D2*
X-2886710D1*
X-2856230D2*
X-2837180D1*
X-2794067D2*
X-2715260D1*
X-2680970D2*
X-2659869D1*
X-2655398D2*
X-2597717D1*
X-2566670D2*
X-2498090D1*
X-2466003D2*
X-2399985D1*
X-2360930D2*
X-2339843D1*
X-2335940D2*
X-2280573D1*
X-2265378D2*
X-2210644D1*
X-2170430D2*
X-2151380D1*
X-2132330D2*
X-2063750D1*
X-2056130D2*
X-1987550D1*
X-1968500D2*
X-1949450D1*
X-1918970D2*
X-1897883D1*
X-1893398D2*
X-1835717D1*
X-1780607D2*
X-1701800D1*
X-1667510D2*
X-1647712D1*
X-1635462D2*
X-1606550D1*
X-1574463D2*
X-1508445D1*
X-1464610D2*
X-1398874D1*
X-1370330D2*
X-1351280D1*
X-1316020D2*
X-1250284D1*
X-1233170D2*
X-1164590D1*
X-1133041D2*
X-1066733D1*
X-1023620D2*
X-1003822D1*
X-991572D2*
X-962660D1*
X-862127D2*
X-796894D1*
X-759661D2*
X-693353D1*
X-650240D2*
X-629153D1*
X-625250D2*
X-569883D1*
X-554688D2*
X-499954D1*
X-2905760Y-5956300D2*
X-2886710D1*
X-2856230D2*
X-2837180D1*
X-2797995D2*
X-2715260D1*
X-2680970D2*
X-2594296D1*
X-2566670D2*
X-2498090D1*
X-2470177D2*
X-2396185D1*
X-2360930D2*
X-2275206D1*
X-2271139D2*
X-2208199D1*
X-2170430D2*
X-2151380D1*
X-2132330D2*
X-2063750D1*
X-2056130D2*
X-1987550D1*
X-1968500D2*
X-1949450D1*
X-1918970D2*
X-1832296D1*
X-1784535D2*
X-1701800D1*
X-1667510D2*
X-1646409D1*
X-1641938D2*
X-1606550D1*
X-1578637D2*
X-1504645D1*
X-1468291D2*
X-1397867D1*
X-1370330D2*
X-1351280D1*
X-1319701D2*
X-1249280D1*
X-1233170D2*
X-1164590D1*
X-1137335D2*
X-1062805D1*
X-1023620D2*
X-1002519D1*
X-998048D2*
X-962660D1*
X-866668D2*
X-795890D1*
X-763955D2*
X-689425D1*
X-650240D2*
X-564516D1*
X-560449D2*
X-497509D1*
X-2905760Y-5960110D2*
X-2886710D1*
X-2856230D2*
X-2837180D1*
X-2801026D2*
X-2771661D1*
X-2747398D2*
X-2715260D1*
X-2680970D2*
X-2637693D1*
X-2616215D2*
X-2591918D1*
X-2566670D2*
X-2498090D1*
X-2473308D2*
X-2447796D1*
X-2418974D2*
X-2393237D1*
X-2360930D2*
X-2322211D1*
X-2300130D2*
X-2253501D1*
X-2232742D2*
X-2206487D1*
X-2170430D2*
X-2151380D1*
X-2132330D2*
X-2063750D1*
X-2056130D2*
X-1987550D1*
X-1968500D2*
X-1949450D1*
X-1918970D2*
X-1875693D1*
X-1854215D2*
X-1829918D1*
X-1787566D2*
X-1758201D1*
X-1733938D2*
X-1701800D1*
X-1667510D2*
X-1606550D1*
X-1581768D2*
X-1556256D1*
X-1527434D2*
X-1501697D1*
X-1470887D2*
X-1445621D1*
X-1416050D2*
X-1397330D1*
X-1370330D2*
X-1351280D1*
X-1322297D2*
X-1297031D1*
X-1268160D2*
X-1248764D1*
X-1233170D2*
X-1164590D1*
X-1140913D2*
X-1114166D1*
X-1089139D2*
X-1059774D1*
X-1023620D2*
X-962660D1*
X-870344D2*
X-839991D1*
X-814070D2*
X-795374D1*
X-767533D2*
X-740786D1*
X-715759D2*
X-686394D1*
X-650240D2*
X-611521D1*
X-589440D2*
X-542811D1*
X-522052D2*
X-495797D1*
X-2905760Y-5963920D2*
X-2886710D1*
X-2856230D2*
X-2837180D1*
X-2803465D2*
X-2777685D1*
X-2739768D2*
X-2715260D1*
X-2680970D2*
X-2646299D1*
X-2612554D2*
X-2590460D1*
X-2551430D2*
X-2536190D1*
X-2475785D2*
X-2453701D1*
X-2413439D2*
X-2390963D1*
X-2360930D2*
X-2328589D1*
X-2296957D2*
X-2259525D1*
X-2227798D2*
X-2205382D1*
X-2170430D2*
X-2151380D1*
X-2117090D2*
X-2101850D1*
X-2040890D2*
X-2025650D1*
X-1968500D2*
X-1949450D1*
X-1918970D2*
X-1884299D1*
X-1850554D2*
X-1828460D1*
X-1790005D2*
X-1764225D1*
X-1726308D2*
X-1701800D1*
X-1667510D2*
X-1606550D1*
X-1584245D2*
X-1562161D1*
X-1521899D2*
X-1499423D1*
X-1472734D2*
X-1451022D1*
X-1404620D2*
X-1397000D1*
X-1370330D2*
X-1351280D1*
X-1324144D2*
X-1302432D1*
X-1258067D2*
X-1248536D1*
X-1217930D2*
X-1202690D1*
X-1143768D2*
X-1119701D1*
X-1083115D2*
X-1057335D1*
X-1023620D2*
X-962660D1*
X-873237D2*
X-846015D1*
X-806450D2*
X-795146D1*
X-770388D2*
X-746321D1*
X-709735D2*
X-683955D1*
X-650240D2*
X-617899D1*
X-586267D2*
X-548835D1*
X-517108D2*
X-494692D1*
X-2905760Y-5967730D2*
X-2886710D1*
X-2856230D2*
X-2837180D1*
X-2805590D2*
X-2782637D1*
X-2734081D2*
X-2715260D1*
X-2680970D2*
X-2652939D1*
X-2609378D2*
X-2589340D1*
X-2551430D2*
X-2536190D1*
X-2477923D2*
X-2458286D1*
X-2409415D2*
X-2389322D1*
X-2360930D2*
X-2333954D1*
X-2294680D2*
X-2264462D1*
X-2224333D2*
X-2204423D1*
X-2170430D2*
X-2151380D1*
X-2117090D2*
X-2101850D1*
X-2040890D2*
X-2025650D1*
X-1968500D2*
X-1949450D1*
X-1918970D2*
X-1890939D1*
X-1847378D2*
X-1827340D1*
X-1792130D2*
X-1769177D1*
X-1720621D2*
X-1701800D1*
X-1667510D2*
X-1621030D1*
X-1586383D2*
X-1566746D1*
X-1517875D2*
X-1497782D1*
X-1474296D2*
X-1455176D1*
X-1370330D2*
X-1351280D1*
X-1325706D2*
X-1306586D1*
X-1248410D2*
D3*
X-1217930D2*
X-1202690D1*
X-1146021D2*
X-1123740D1*
X-1078178D2*
X-1055210D1*
X-1023620D2*
X-977140D1*
X-875504D2*
X-850967D1*
X-798830D2*
X-795020D1*
X-772641D2*
X-750360D1*
X-704798D2*
X-681830D1*
X-650240D2*
X-623264D1*
X-583990D2*
X-553772D1*
X-513643D2*
X-493733D1*
X-2905760Y-5971540D2*
X-2886710D1*
X-2856230D2*
X-2837180D1*
X-2807464D2*
X-2786565D1*
X-2732212D2*
X-2715260D1*
X-2680970D2*
X-2658157D1*
X-2607115D2*
X-2588154D1*
X-2551430D2*
X-2536190D1*
X-2479802D2*
X-2461654D1*
X-2406598D2*
X-2388246D1*
X-2360930D2*
X-2338411D1*
X-2293260D2*
X-2268256D1*
X-2221736D2*
X-2203304D1*
X-2170430D2*
X-2151380D1*
X-2117090D2*
X-2101850D1*
X-2040890D2*
X-2025650D1*
X-1968500D2*
X-1949450D1*
X-1918970D2*
X-1896157D1*
X-1845115D2*
X-1826154D1*
X-1794004D2*
X-1773105D1*
X-1718752D2*
X-1701800D1*
X-1667510D2*
X-1632241D1*
X-1588262D2*
X-1570114D1*
X-1515058D2*
X-1496706D1*
X-1475536D2*
X-1456605D1*
X-1370330D2*
X-1351280D1*
X-1326946D2*
X-1308015D1*
X-1217930D2*
X-1202690D1*
X-1147768D2*
X-1126691D1*
X-1074369D2*
X-1053351D1*
X-1023620D2*
X-988351D1*
X-877256D2*
X-854895D1*
X-774388D2*
X-753311D1*
X-700989D2*
X-679971D1*
X-650240D2*
X-627721D1*
X-582570D2*
X-557566D1*
X-511046D2*
X-492614D1*
X-2905760Y-5975350D2*
X-2886710D1*
X-2856230D2*
X-2837180D1*
X-2809040D2*
X-2789581D1*
X-2731219D2*
X-2715260D1*
X-2680970D2*
X-2660088D1*
X-2605829D2*
X-2587069D1*
X-2551430D2*
X-2536190D1*
X-2481379D2*
X-2464120D1*
X-2404731D2*
X-2387297D1*
X-2360930D2*
X-2340181D1*
X-2292153D2*
X-2271212D1*
X-2220823D2*
X-2202244D1*
X-2170430D2*
X-2151380D1*
X-2117090D2*
X-2101850D1*
X-2040890D2*
X-2025650D1*
X-1968500D2*
X-1949450D1*
X-1918970D2*
X-1898088D1*
X-1843829D2*
X-1825069D1*
X-1795580D2*
X-1776121D1*
X-1717759D2*
X-1701800D1*
X-1667510D2*
X-1641025D1*
X-1589839D2*
X-1572580D1*
X-1513191D2*
X-1495757D1*
X-1476176D2*
X-1457215D1*
X-1370330D2*
X-1351280D1*
X-1327586D2*
X-1308625D1*
X-1217930D2*
X-1202690D1*
X-1149192D2*
X-1129043D1*
X-1071704D2*
X-1051894D1*
X-1023620D2*
X-997135D1*
X-878681D2*
X-857911D1*
X-775812D2*
X-755663D1*
X-698324D2*
X-678514D1*
X-650240D2*
X-629491D1*
X-581463D2*
X-560522D1*
X-510133D2*
X-491554D1*
X-2905760Y-5979160D2*
X-2886710D1*
X-2856230D2*
X-2837180D1*
X-2810393D2*
X-2791887D1*
X-2730778D2*
X-2715260D1*
X-2680970D2*
X-2661138D1*
X-2605207D2*
X-2586364D1*
X-2551430D2*
X-2536190D1*
X-2482733D2*
X-2465825D1*
X-2403692D2*
X-2386182D1*
X-2360930D2*
X-2341150D1*
X-2290972D2*
X-2272286D1*
X-2220328D2*
X-2201549D1*
X-2170430D2*
X-2151380D1*
X-2117090D2*
X-2101850D1*
X-2040890D2*
X-2025650D1*
X-1968500D2*
X-1949450D1*
X-1918970D2*
X-1899138D1*
X-1843207D2*
X-1824364D1*
X-1796933D2*
X-1778427D1*
X-1717318D2*
X-1701800D1*
X-1667510D2*
X-1645285D1*
X-1591193D2*
X-1574285D1*
X-1512152D2*
X-1494642D1*
X-1476085D2*
X-1457244D1*
X-1370330D2*
X-1351280D1*
X-1327495D2*
X-1308654D1*
X-1217930D2*
X-1202690D1*
X-1150566D2*
X-1130995D1*
X-1069826D2*
X-1050892D1*
X-1023620D2*
X-1001395D1*
X-880056D2*
X-860217D1*
X-777186D2*
X-757615D1*
X-696446D2*
X-677512D1*
X-650240D2*
X-630460D1*
X-580282D2*
X-561596D1*
X-509638D2*
X-490859D1*
X-2905760Y-5982970D2*
X-2886710D1*
X-2856230D2*
X-2837180D1*
X-2811741D2*
X-2793525D1*
X-2730601D2*
X-2715260D1*
X-2680970D2*
X-2661613D1*
X-2604938D2*
X-2585996D1*
X-2551430D2*
X-2536190D1*
X-2484081D2*
X-2466798D1*
X-2403192D2*
X-2385124D1*
X-2360930D2*
X-2341592D1*
X-2289888D2*
X-2272868D1*
X-2220104D2*
X-2201184D1*
X-2170430D2*
X-2151380D1*
X-2117090D2*
X-2101850D1*
X-2040890D2*
X-2025650D1*
X-1968500D2*
X-1949450D1*
X-1918970D2*
X-1899613D1*
X-1842938D2*
X-1823996D1*
X-1798281D2*
X-1780065D1*
X-1717141D2*
X-1701800D1*
X-1667510D2*
X-1646946D1*
X-1592541D2*
X-1575258D1*
X-1511652D2*
X-1493584D1*
X-1475334D2*
X-1455289D1*
X-1370330D2*
X-1351280D1*
X-1326744D2*
X-1306699D1*
X-1217930D2*
X-1202690D1*
X-1151745D2*
X-1132472D1*
X-1068252D2*
X-1049972D1*
X-1023620D2*
X-1003056D1*
X-881235D2*
X-861855D1*
X-778365D2*
X-759092D1*
X-694872D2*
X-676592D1*
X-650240D2*
X-630902D1*
X-579198D2*
X-562178D1*
X-509414D2*
X-490494D1*
X-2905760Y-5986780D2*
X-2886710D1*
X-2856230D2*
X-2837180D1*
X-2812910D2*
X-2794472D1*
X-2730535D2*
X-2715260D1*
X-2680970D2*
X-2661807D1*
X-2604832D2*
X-2585829D1*
X-2551430D2*
X-2536190D1*
X-2485250D2*
X-2467273D1*
X-2402976D2*
X-2384429D1*
X-2360930D2*
X-2341773D1*
X-2289183D2*
X-2273131D1*
X-2220013D2*
X-2201019D1*
X-2170430D2*
X-2151380D1*
X-2117090D2*
X-2101850D1*
X-2040890D2*
X-2025650D1*
X-1968500D2*
X-1949450D1*
X-1918970D2*
X-1899807D1*
X-1842832D2*
X-1823829D1*
X-1799450D2*
X-1781012D1*
X-1717075D2*
X-1701800D1*
X-1667510D2*
X-1647826D1*
X-1593710D2*
X-1575733D1*
X-1511436D2*
X-1492889D1*
X-1474280D2*
X-1449357D1*
X-1370330D2*
X-1351280D1*
X-1325690D2*
X-1300767D1*
X-1217930D2*
X-1202690D1*
X-1152491D2*
X-1133352D1*
X-1066992D2*
X-1048867D1*
X-1023620D2*
X-1003936D1*
X-881981D2*
X-862802D1*
X-779111D2*
X-759972D1*
X-693612D2*
X-675487D1*
X-650240D2*
X-631083D1*
X-578493D2*
X-562441D1*
X-509323D2*
X-490329D1*
X-2905760Y-5990590D2*
X-2886710D1*
X-2856230D2*
X-2837180D1*
X-2813653D2*
X-2794937D1*
X-2730512D2*
X-2715260D1*
X-2680970D2*
X-2661880D1*
X-2604792D2*
X-2585761D1*
X-2551430D2*
X-2536190D1*
X-2485992D2*
X-2467488D1*
X-2402887D2*
X-2384064D1*
X-2360930D2*
X-2341842D1*
X-2288816D2*
X-2273238D1*
X-2219979D2*
X-2200951D1*
X-2170430D2*
X-2151380D1*
X-2117090D2*
X-2101850D1*
X-2040890D2*
X-2025650D1*
X-1968500D2*
X-1949450D1*
X-1918970D2*
X-1899880D1*
X-1842792D2*
X-1823761D1*
X-1800193D2*
X-1781477D1*
X-1717052D2*
X-1701800D1*
X-1667510D2*
X-1648215D1*
X-1594452D2*
X-1575948D1*
X-1511347D2*
X-1492524D1*
X-1472994D2*
X-1440583D1*
X-1370330D2*
X-1351280D1*
X-1324404D2*
X-1291993D1*
X-1217930D2*
X-1202690D1*
X-1152875D2*
X-1133792D1*
X-1066216D2*
X-1047812D1*
X-1023620D2*
X-1004325D1*
X-882365D2*
X-863267D1*
X-779495D2*
X-760412D1*
X-692836D2*
X-674432D1*
X-650240D2*
X-631152D1*
X-578126D2*
X-562548D1*
X-509289D2*
X-490261D1*
X-2905760Y-5994400D2*
X-2886710D1*
X-2856230D2*
X-2837180D1*
X-2814035D2*
X-2795141D1*
X-2730504D2*
X-2715260D1*
X-2680970D2*
X-2661906D1*
X-2604777D2*
X-2585735D1*
X-2551430D2*
X-2536190D1*
X-2486375D2*
X-2383899D1*
X-2360930D2*
X-2341867D1*
X-2288649D2*
X-2273278D1*
X-2219966D2*
X-2200924D1*
X-2170430D2*
X-2151380D1*
X-2117090D2*
X-2101850D1*
X-2040890D2*
X-2025650D1*
X-1968500D2*
X-1949450D1*
X-1918970D2*
X-1899906D1*
X-1842777D2*
X-1823735D1*
X-1800575D2*
X-1781681D1*
X-1717044D2*
X-1701800D1*
X-1667510D2*
X-1648371D1*
X-1594835D2*
X-1492359D1*
X-1470955D2*
X-1429703D1*
X-1370330D2*
X-1351280D1*
X-1322365D2*
X-1281113D1*
X-1217930D2*
X-1202690D1*
X-1153047D2*
X-1133986D1*
X-1065821D2*
X-1047118D1*
X-1023620D2*
X-1004481D1*
X-882537D2*
X-863471D1*
X-779667D2*
X-760606D1*
X-692441D2*
X-673738D1*
X-650240D2*
X-631177D1*
X-577959D2*
X-562588D1*
X-509276D2*
X-490234D1*
X-2905760Y-5998210D2*
X-2886710D1*
X-2856230D2*
X-2837180D1*
X-2814208D2*
X-2795222D1*
X-2730501D2*
X-2715260D1*
X-2680970D2*
X-2661915D1*
X-2604772D2*
X-2585725D1*
X-2551430D2*
X-2536190D1*
X-2486548D2*
X-2383831D1*
X-2360930D2*
X-2341876D1*
X-2288581D2*
X-2273293D1*
X-2219962D2*
X-2200915D1*
X-2170430D2*
X-2151380D1*
X-2117090D2*
X-2101850D1*
X-2040890D2*
X-2025650D1*
X-1968500D2*
X-1949450D1*
X-1918970D2*
X-1899915D1*
X-1842772D2*
X-1823725D1*
X-1800748D2*
X-1781762D1*
X-1717041D2*
X-1701800D1*
X-1667510D2*
X-1648429D1*
X-1595008D2*
X-1492291D1*
X-1467609D2*
X-1418904D1*
X-1370330D2*
X-1351280D1*
X-1319019D2*
X-1270314D1*
X-1217930D2*
X-1202690D1*
X-1153118D2*
X-1134064D1*
X-1065644D2*
X-1046754D1*
X-1023620D2*
X-1004539D1*
X-882608D2*
X-863552D1*
X-779738D2*
X-760684D1*
X-692264D2*
X-673374D1*
X-650240D2*
X-631186D1*
X-577891D2*
X-562603D1*
X-509272D2*
X-490225D1*
X-2905760Y-6002020D2*
X-2886710D1*
X-2856230D2*
X-2837180D1*
X-2814278D2*
X-2795253D1*
X-2730500D2*
X-2715260D1*
X-2680970D2*
X-2661919D1*
X-2604771D2*
X-2585722D1*
X-2551430D2*
X-2536190D1*
X-2486618D2*
X-2383804D1*
X-2360930D2*
X-2341879D1*
X-2288555D2*
X-2273298D1*
X-2219961D2*
X-2200912D1*
X-2170430D2*
X-2151380D1*
X-2117090D2*
X-2101850D1*
X-2040890D2*
X-2025650D1*
X-1968500D2*
X-1949450D1*
X-1918970D2*
X-1899919D1*
X-1842771D2*
X-1823722D1*
X-1800818D2*
X-1781793D1*
X-1717040D2*
X-1701800D1*
X-1667510D2*
X-1648449D1*
X-1595078D2*
X-1492264D1*
X-1462510D2*
X-1410098D1*
X-1370330D2*
X-1351280D1*
X-1313920D2*
X-1261508D1*
X-1217930D2*
X-1202690D1*
X-1153145D2*
X-1134094D1*
X-1065573D2*
X-1046589D1*
X-1023620D2*
X-1004559D1*
X-882635D2*
X-863583D1*
X-779765D2*
X-760714D1*
X-692193D2*
X-673209D1*
X-650240D2*
X-631189D1*
X-577865D2*
X-562608D1*
X-509271D2*
X-490222D1*
X-2905760Y-6005830D2*
X-2886710D1*
X-2856230D2*
X-2837180D1*
X-2814305D2*
X-2795264D1*
X-2730500D2*
X-2715260D1*
X-2680970D2*
X-2661920D1*
X-2604770D2*
X-2585721D1*
X-2551430D2*
X-2536190D1*
X-2486645D2*
X-2383790D1*
X-2360930D2*
X-2341880D1*
X-2288545D2*
X-2273299D1*
X-2219960D2*
X-2200911D1*
X-2170430D2*
X-2151380D1*
X-2117090D2*
X-2101850D1*
X-2040890D2*
X-2025650D1*
X-1968500D2*
X-1949450D1*
X-1918970D2*
X-1899920D1*
X-1842770D2*
X-1823721D1*
X-1800845D2*
X-1781804D1*
X-1717040D2*
X-1701800D1*
X-1667510D2*
X-1648457D1*
X-1595105D2*
X-1492250D1*
X-1455180D2*
X-1403861D1*
X-1370330D2*
X-1351280D1*
X-1306590D2*
X-1255271D1*
X-1217930D2*
X-1202690D1*
X-1153155D2*
X-1134104D1*
X-1065545D2*
X-1046535D1*
X-1023620D2*
X-1004567D1*
X-882645D2*
X-863594D1*
X-779775D2*
X-760724D1*
X-692165D2*
X-673155D1*
X-650240D2*
X-631190D1*
X-577855D2*
X-562609D1*
X-509270D2*
X-490221D1*
X-2905760Y-6009640D2*
X-2886710D1*
X-2856230D2*
X-2837180D1*
X-2814315D2*
X-2795268D1*
X-2730500D2*
X-2715260D1*
X-2680970D2*
X-2661920D1*
X-2604770D2*
X-2585720D1*
X-2551430D2*
X-2536190D1*
X-2486655D2*
X-2472169D1*
X-2360930D2*
X-2341880D1*
X-2288542D2*
X-2273300D1*
X-2219960D2*
X-2200910D1*
X-2170430D2*
X-2151380D1*
X-2117090D2*
X-2101850D1*
X-2040890D2*
X-2025650D1*
X-1968500D2*
X-1949450D1*
X-1918970D2*
X-1899920D1*
X-1842770D2*
X-1823720D1*
X-1800855D2*
X-1781808D1*
X-1717040D2*
X-1701800D1*
X-1667510D2*
X-1648459D1*
X-1595115D2*
X-1580629D1*
X-1445514D2*
X-1399700D1*
X-1370330D2*
X-1351280D1*
X-1296924D2*
X-1251110D1*
X-1217930D2*
X-1202690D1*
X-1153158D2*
X-1134108D1*
X-1065550D2*
X-1046643D1*
X-1023620D2*
X-1004569D1*
X-882648D2*
X-863598D1*
X-779778D2*
X-760728D1*
X-692170D2*
X-673263D1*
X-650240D2*
X-631190D1*
X-577852D2*
X-562610D1*
X-509270D2*
X-490220D1*
X-2905760Y-6013450D2*
X-2886710D1*
X-2856230D2*
X-2837180D1*
X-2814303D2*
X-2795255D1*
X-2730500D2*
X-2715260D1*
X-2680970D2*
X-2661920D1*
X-2604770D2*
X-2585720D1*
X-2551430D2*
X-2536190D1*
X-2486643D2*
X-2469941D1*
X-2360930D2*
X-2341880D1*
X-2288541D2*
X-2273300D1*
X-2219960D2*
X-2200910D1*
X-2170430D2*
X-2151380D1*
X-2117090D2*
X-2101850D1*
X-2040890D2*
X-2025650D1*
X-1968500D2*
X-1949450D1*
X-1918970D2*
X-1899920D1*
X-1842770D2*
X-1823720D1*
X-1800843D2*
X-1781795D1*
X-1717040D2*
X-1701800D1*
X-1667510D2*
X-1648460D1*
X-1595103D2*
X-1578401D1*
X-1434703D2*
X-1396893D1*
X-1370330D2*
X-1351280D1*
X-1286113D2*
X-1248303D1*
X-1217930D2*
X-1202690D1*
X-1153145D2*
X-1134095D1*
X-1065681D2*
X-1047119D1*
X-1023620D2*
X-1004570D1*
X-882635D2*
X-863585D1*
X-779765D2*
X-760715D1*
X-692301D2*
X-673739D1*
X-650240D2*
X-631190D1*
X-577851D2*
X-562610D1*
X-509270D2*
X-490220D1*
X-2905760Y-6017260D2*
X-2886710D1*
X-2856230D2*
X-2837180D1*
X-2814171D2*
X-2795121D1*
X-2730500D2*
X-2715260D1*
X-2680970D2*
X-2661920D1*
X-2604770D2*
X-2585720D1*
X-2551430D2*
X-2536190D1*
X-2486511D2*
X-2468650D1*
X-2360930D2*
X-2341880D1*
X-2288540D2*
X-2273300D1*
X-2219960D2*
X-2200910D1*
X-2170430D2*
X-2151380D1*
X-2117090D2*
X-2101850D1*
X-2040890D2*
X-2025650D1*
X-1968500D2*
X-1949450D1*
X-1918970D2*
X-1899920D1*
X-1842770D2*
X-1823720D1*
X-1800711D2*
X-1781661D1*
X-1717040D2*
X-1701800D1*
X-1667510D2*
X-1648460D1*
X-1594971D2*
X-1577110D1*
X-1425055D2*
X-1395052D1*
X-1370330D2*
X-1351280D1*
X-1276465D2*
X-1246462D1*
X-1217930D2*
X-1202690D1*
X-1153011D2*
X-1133961D1*
X-1066165D2*
X-1048029D1*
X-1023620D2*
X-1004570D1*
X-882501D2*
X-863451D1*
X-779631D2*
X-760581D1*
X-692785D2*
X-674649D1*
X-650240D2*
X-631190D1*
X-577850D2*
X-562610D1*
X-509270D2*
X-490220D1*
X-2905760Y-6021070D2*
X-2886710D1*
X-2856230D2*
X-2837180D1*
X-2813685D2*
X-2794621D1*
X-2730515D2*
X-2715260D1*
X-2680970D2*
X-2661920D1*
X-2604770D2*
X-2585720D1*
X-2551430D2*
X-2536190D1*
X-2486025D2*
X-2467882D1*
X-2360930D2*
X-2341880D1*
X-2288540D2*
X-2273300D1*
X-2219960D2*
X-2200910D1*
X-2170430D2*
X-2151380D1*
X-2117090D2*
X-2101850D1*
X-2040890D2*
X-2025650D1*
X-1968500D2*
X-1949450D1*
X-1918970D2*
X-1899920D1*
X-1842770D2*
X-1823720D1*
X-1800225D2*
X-1781161D1*
X-1717055D2*
X-1701800D1*
X-1667510D2*
X-1648460D1*
X-1594485D2*
X-1576342D1*
X-1418052D2*
X-1394029D1*
X-1370330D2*
X-1351280D1*
X-1269462D2*
X-1245439D1*
X-1217930D2*
X-1202690D1*
X-1152526D2*
X-1133461D1*
X-1067092D2*
X-1049019D1*
X-1023620D2*
X-1004570D1*
X-882016D2*
X-862951D1*
X-779146D2*
X-760081D1*
X-693712D2*
X-675639D1*
X-650240D2*
X-631190D1*
X-577850D2*
X-562610D1*
X-509270D2*
X-490220D1*
X-2905760Y-6024880D2*
X-2886710D1*
X-2856230D2*
X-2837180D1*
X-2812758D2*
X-2793559D1*
X-2730679D2*
X-2715260D1*
X-2680970D2*
X-2661920D1*
X-2604770D2*
X-2585720D1*
X-2551430D2*
X-2536175D1*
X-2485098D2*
X-2466980D1*
X-2360930D2*
X-2341880D1*
X-2288540D2*
X-2273300D1*
X-2219960D2*
X-2200910D1*
X-2170430D2*
X-2151380D1*
X-2117090D2*
X-2101835D1*
X-2040890D2*
X-2025635D1*
X-1968500D2*
X-1949450D1*
X-1918970D2*
X-1899920D1*
X-1842770D2*
X-1823720D1*
X-1799298D2*
X-1780099D1*
X-1717219D2*
X-1701800D1*
X-1667510D2*
X-1648460D1*
X-1593558D2*
X-1575440D1*
X-1412887D2*
X-1393537D1*
X-1370330D2*
X-1351280D1*
X-1264297D2*
X-1244947D1*
X-1217930D2*
X-1202675D1*
X-1151598D2*
X-1132414D1*
X-1068218D2*
X-1049817D1*
X-1023620D2*
X-1004570D1*
X-881088D2*
X-861889D1*
X-778218D2*
X-759034D1*
X-694838D2*
X-676437D1*
X-650240D2*
X-631190D1*
X-577850D2*
X-562610D1*
X-509270D2*
X-490220D1*
X-2905760Y-6028690D2*
X-2886710D1*
X-2856230D2*
X-2837180D1*
X-2811647D2*
X-2791933D1*
X-2731080D2*
X-2715260D1*
X-2680970D2*
X-2661920D1*
X-2604770D2*
X-2585720D1*
X-2551430D2*
X-2536041D1*
X-2483987D2*
X-2465327D1*
X-2360930D2*
X-2341880D1*
X-2288540D2*
X-2273300D1*
X-2219960D2*
X-2200910D1*
X-2170430D2*
X-2151380D1*
X-2117090D2*
X-2101701D1*
X-2040890D2*
X-2025501D1*
X-1968500D2*
X-1949450D1*
X-1918970D2*
X-1899920D1*
X-1842770D2*
X-1823720D1*
X-1798187D2*
X-1778473D1*
X-1717620D2*
X-1701800D1*
X-1667510D2*
X-1648460D1*
X-1592447D2*
X-1573787D1*
X-1410446D2*
X-1393324D1*
X-1370330D2*
X-1351280D1*
X-1261856D2*
X-1244734D1*
X-1217930D2*
X-1202541D1*
X-1150487D2*
X-1130937D1*
X-1069516D2*
X-1050671D1*
X-1023620D2*
X-1004570D1*
X-879977D2*
X-860278D1*
X-777107D2*
X-757557D1*
X-696136D2*
X-677291D1*
X-650240D2*
X-631190D1*
X-577850D2*
X-562610D1*
X-509270D2*
X-490220D1*
X-2905760Y-6032500D2*
X-2886710D1*
X-2856230D2*
X-2837180D1*
X-2810482D2*
X-2789499D1*
X-2733067D2*
X-2715260D1*
X-2680970D2*
X-2661920D1*
X-2604770D2*
X-2585720D1*
X-2551430D2*
X-2535526D1*
X-2482822D2*
X-2462748D1*
X-2360930D2*
X-2341880D1*
X-2288540D2*
X-2273300D1*
X-2219960D2*
X-2200910D1*
X-2170430D2*
X-2151380D1*
X-2117090D2*
X-2101186D1*
X-2040890D2*
X-2024986D1*
X-1968500D2*
X-1949450D1*
X-1918970D2*
X-1899920D1*
X-1842770D2*
X-1823720D1*
X-1797022D2*
X-1776039D1*
X-1719607D2*
X-1701800D1*
X-1667510D2*
X-1648460D1*
X-1591282D2*
X-1571208D1*
X-1409719D2*
X-1393254D1*
X-1370330D2*
X-1351280D1*
X-1261129D2*
X-1244664D1*
X-1217930D2*
X-1202026D1*
X-1149323D2*
X-1129181D1*
X-1071431D2*
X-1051879D1*
X-1023620D2*
X-1004570D1*
X-878813D2*
X-858052D1*
X-775943D2*
X-755801D1*
X-698051D2*
X-678499D1*
X-650240D2*
X-631190D1*
X-577850D2*
X-562610D1*
X-509270D2*
X-490220D1*
X-2905760Y-6036310D2*
X-2886710D1*
X-2856230D2*
X-2837180D1*
X-2809068D2*
X-2786225D1*
X-2739107D2*
X-2715260D1*
X-2680970D2*
X-2661920D1*
X-2604770D2*
X-2585720D1*
X-2551415D2*
X-2534605D1*
X-2481408D2*
X-2459278D1*
X-2360930D2*
X-2341880D1*
X-2288540D2*
X-2273300D1*
X-2219960D2*
X-2200910D1*
X-2170430D2*
X-2151380D1*
X-2117075D2*
X-2100265D1*
X-2040875D2*
X-2024065D1*
X-1968500D2*
X-1949450D1*
X-1918970D2*
X-1899920D1*
X-1842770D2*
X-1823720D1*
X-1795608D2*
X-1772765D1*
X-1725647D2*
X-1701800D1*
X-1667510D2*
X-1648460D1*
X-1589868D2*
X-1567738D1*
X-1496060D2*
D3*
X-1477010D2*
D3*
X-1410755D2*
X-1393356D1*
X-1370330D2*
X-1351280D1*
X-1328420D2*
D3*
X-1262165D2*
X-1244766D1*
X-1217915D2*
X-1201105D1*
X-1147908D2*
X-1126845D1*
X-1074340D2*
X-1053423D1*
X-1023620D2*
X-1004570D1*
X-935990D2*
X-913130D1*
X-877398D2*
X-854937D1*
X-795020D2*
D3*
X-774528D2*
X-753465D1*
X-700960D2*
X-680043D1*
X-650240D2*
X-631190D1*
X-577850D2*
X-562610D1*
X-509270D2*
X-490220D1*
X-2905760Y-6040120D2*
X-2886710D1*
X-2856230D2*
X-2837180D1*
X-2807295D2*
X-2777677D1*
X-2749444D2*
X-2715260D1*
X-2680970D2*
X-2661920D1*
X-2604770D2*
X-2585720D1*
X-2551281D2*
X-2532229D1*
X-2479635D2*
X-2455082D1*
X-2391410D2*
X-2387600D1*
X-2360930D2*
X-2341880D1*
X-2288540D2*
X-2273300D1*
X-2219960D2*
X-2200910D1*
X-2170430D2*
X-2151380D1*
X-2116941D2*
X-2097889D1*
X-2040741D2*
X-2021689D1*
X-1968500D2*
X-1949450D1*
X-1918970D2*
X-1899920D1*
X-1842770D2*
X-1823720D1*
X-1793835D2*
X-1764217D1*
X-1735984D2*
X-1701800D1*
X-1667510D2*
X-1648460D1*
X-1588095D2*
X-1563542D1*
X-1503919D2*
X-1496060D1*
X-1477010D2*
X-1469390D1*
X-1414012D2*
X-1393845D1*
X-1370330D2*
X-1351280D1*
X-1328420D2*
X-1320800D1*
X-1265422D2*
X-1245255D1*
X-1217781D2*
X-1198729D1*
X-1146135D2*
X-1123736D1*
X-1078049D2*
X-1055175D1*
X-1023620D2*
X-1004570D1*
X-935990D2*
X-913130D1*
X-875625D2*
X-851066D1*
X-801263D2*
X-795020D1*
X-772755D2*
X-750356D1*
X-704669D2*
X-681795D1*
X-650240D2*
X-631190D1*
X-577850D2*
X-562610D1*
X-509270D2*
X-490220D1*
X-2905760Y-6043930D2*
X-2886710D1*
X-2856230D2*
X-2837180D1*
X-2805017D2*
X-2764947D1*
X-2765122D2*
X-2715260D1*
X-2680970D2*
X-2661920D1*
X-2604770D2*
X-2585720D1*
X-2550781D2*
X-2524833D1*
X-2477357D2*
X-2444275D1*
X-2406671D2*
X-2387600D1*
X-2360930D2*
X-2341880D1*
X-2288540D2*
X-2273300D1*
X-2219960D2*
X-2200910D1*
X-2170430D2*
X-2151380D1*
X-2116441D2*
X-2090493D1*
X-2040241D2*
X-2014293D1*
X-1968500D2*
X-1949450D1*
X-1918970D2*
X-1899920D1*
X-1842770D2*
X-1823720D1*
X-1791557D2*
X-1751487D1*
X-1751662D2*
X-1701800D1*
X-1667510D2*
X-1648460D1*
X-1585817D2*
X-1552735D1*
X-1516742D2*
X-1496060D1*
X-1476995D2*
X-1455530D1*
X-1423066D2*
X-1394903D1*
X-1370330D2*
X-1351280D1*
X-1328405D2*
X-1306940D1*
X-1274476D2*
X-1246313D1*
X-1217281D2*
X-1191333D1*
X-1143857D2*
X-1113842D1*
X-1086772D2*
X-1057148D1*
X-1023620D2*
X-1004570D1*
X-935990D2*
X-913130D1*
X-873347D2*
X-841654D1*
X-811759D2*
X-795020D1*
X-770477D2*
X-740462D1*
X-713392D2*
X-683768D1*
X-650240D2*
X-631190D1*
X-577850D2*
X-562610D1*
X-509270D2*
X-490220D1*
X-2905760Y-6047740D2*
X-2886710D1*
X-2856230D2*
X-2837180D1*
X-2802099D2*
X-2715260D1*
X-2680970D2*
X-2661920D1*
X-2604770D2*
X-2585720D1*
X-2549719D2*
X-2512895D1*
X-2501900D2*
X-2498090D1*
X-2474439D2*
X-2427434D1*
X-2427618D2*
X-2387645D1*
X-2360930D2*
X-2341880D1*
X-2288540D2*
X-2273300D1*
X-2219960D2*
X-2200910D1*
X-2170430D2*
X-2151380D1*
X-2115379D2*
X-2078555D1*
X-2067560D2*
X-2063750D1*
X-2039179D2*
X-2002355D1*
X-1991360D2*
X-1987550D1*
X-1968500D2*
X-1949450D1*
X-1918970D2*
X-1899920D1*
X-1842770D2*
X-1823720D1*
X-1788639D2*
X-1701800D1*
X-1667510D2*
X-1648460D1*
X-1582899D2*
X-1535894D1*
X-1536652D2*
X-1496105D1*
X-1476831D2*
X-1437257D1*
X-1437037D2*
X-1396527D1*
X-1370330D2*
X-1351280D1*
X-1328241D2*
X-1288667D1*
X-1288447D2*
X-1247937D1*
X-1216219D2*
X-1179395D1*
X-1168400D2*
X-1164590D1*
X-1140939D2*
X-1098868D1*
X-1099600D2*
X-1059540D1*
X-1023620D2*
X-1004570D1*
X-935990D2*
X-913130D1*
X-870429D2*
X-827492D1*
X-828282D2*
X-795050D1*
X-767559D2*
X-725488D1*
X-726220D2*
X-686160D1*
X-650240D2*
X-631190D1*
X-577850D2*
X-562610D1*
X-509270D2*
X-490220D1*
X-2905760Y-6051550D2*
X-2886710D1*
X-2856230D2*
X-2837180D1*
X-2798595D2*
X-2715260D1*
X-2680970D2*
X-2661920D1*
X-2604770D2*
X-2585720D1*
X-2548093D2*
X-2498105D1*
X-2470916D2*
X-2388091D1*
X-2360930D2*
X-2341880D1*
X-2288540D2*
X-2273300D1*
X-2219960D2*
X-2200910D1*
X-2170430D2*
X-2151380D1*
X-2113753D2*
X-2063765D1*
X-2037553D2*
X-1987565D1*
X-1968500D2*
X-1949450D1*
X-1918970D2*
X-1899920D1*
X-1842770D2*
X-1823720D1*
X-1785135D2*
X-1701800D1*
X-1667510D2*
X-1648460D1*
X-1579376D2*
X-1496551D1*
X-1476430D2*
X-1398887D1*
X-1370330D2*
X-1351280D1*
X-1327840D2*
X-1250297D1*
X-1214593D2*
X-1164605D1*
X-1137431D2*
X-1062633D1*
X-1023620D2*
X-1004570D1*
X-935990D2*
X-913130D1*
X-866921D2*
X-795362D1*
X-764051D2*
X-689253D1*
X-650240D2*
X-631190D1*
X-577850D2*
X-562610D1*
X-509270D2*
X-490220D1*
X-2905760Y-6055360D2*
X-2886710D1*
X-2856230D2*
X-2837180D1*
X-2794395D2*
X-2742630D1*
X-2730500D2*
X-2715260D1*
X-2680970D2*
X-2661920D1*
X-2604770D2*
X-2585720D1*
X-2545737D2*
X-2498250D1*
X-2466526D2*
X-2389163D1*
X-2360930D2*
X-2341880D1*
X-2288540D2*
X-2273300D1*
X-2219960D2*
X-2200910D1*
X-2170430D2*
X-2151380D1*
X-2111397D2*
X-2063910D1*
X-2035197D2*
X-1987710D1*
X-1968500D2*
X-1949450D1*
X-1918970D2*
X-1899920D1*
X-1842770D2*
X-1823720D1*
X-1780935D2*
X-1729170D1*
X-1717040D2*
X-1701800D1*
X-1667510D2*
X-1648460D1*
X-1574986D2*
X-1497623D1*
X-1474443D2*
X-1402397D1*
X-1370330D2*
X-1351280D1*
X-1325853D2*
X-1253807D1*
X-1212237D2*
X-1164750D1*
X-1133186D2*
X-1066643D1*
X-1023620D2*
X-1004570D1*
X-935990D2*
X-913130D1*
X-862676D2*
X-796121D1*
X-759806D2*
X-693263D1*
X-650240D2*
X-631190D1*
X-577850D2*
X-562610D1*
X-509270D2*
X-490220D1*
X-2905760Y-6059170D2*
X-2886710D1*
X-2856230D2*
X-2837180D1*
X-2789365D2*
X-2747777D1*
X-2730515D2*
X-2715260D1*
X-2680970D2*
X-2661920D1*
X-2604770D2*
X-2585720D1*
X-2542274D2*
X-2498839D1*
X-2460674D2*
X-2394384D1*
X-2360930D2*
X-2341880D1*
X-2288540D2*
X-2273300D1*
X-2219960D2*
X-2200910D1*
X-2170430D2*
X-2151380D1*
X-2107934D2*
X-2064499D1*
X-2031734D2*
X-1988299D1*
X-1968500D2*
X-1949450D1*
X-1918970D2*
X-1899920D1*
X-1842770D2*
X-1823720D1*
X-1775905D2*
X-1734317D1*
X-1717055D2*
X-1701800D1*
X-1667510D2*
X-1648460D1*
X-1569134D2*
X-1502844D1*
X-1469250D2*
X-1407280D1*
X-1370330D2*
X-1351280D1*
X-1320660D2*
X-1258690D1*
X-1208774D2*
X-1165339D1*
X-1127923D2*
X-1071794D1*
X-1023620D2*
X-1004570D1*
X-935990D2*
X-913130D1*
X-857413D2*
X-800267D1*
X-754543D2*
X-698414D1*
X-650240D2*
X-631190D1*
X-577850D2*
X-562610D1*
X-509270D2*
X-490220D1*
X-2905760Y-6062980D2*
X-2886710D1*
X-2856230D2*
X-2837180D1*
X-2783840D2*
X-2753360D1*
X-2730649D2*
X-2715275D1*
X-2680970D2*
X-2661920D1*
X-2604770D2*
X-2585720D1*
X-2537645D2*
X-2500141D1*
X-2453156D2*
X-2401849D1*
X-2360930D2*
X-2341880D1*
X-2288540D2*
X-2273300D1*
X-2219960D2*
X-2200910D1*
X-2170430D2*
X-2151380D1*
X-2103305D2*
X-2065801D1*
X-2027105D2*
X-1989601D1*
X-1968500D2*
X-1949450D1*
X-1918970D2*
X-1899920D1*
X-1842770D2*
X-1823720D1*
X-1770380D2*
X-1739900D1*
X-1717189D2*
X-1701815D1*
X-1667510D2*
X-1648460D1*
X-1561616D2*
X-1510309D1*
X-1462214D2*
X-1413317D1*
X-1370330D2*
X-1351280D1*
X-1313624D2*
X-1264727D1*
X-1204145D2*
X-1166641D1*
X-1121707D2*
X-1077960D1*
X-1023620D2*
X-1004570D1*
X-935990D2*
X-913130D1*
X-851197D2*
X-806565D1*
X-748327D2*
X-704580D1*
X-650240D2*
X-631190D1*
X-577850D2*
X-562610D1*
X-509270D2*
X-490220D1*
X-2731149Y-6066790D2*
X-2715409D1*
X-2532380D2*
X-2501900D1*
X-2444750D2*
X-2410460D1*
X-2098040D2*
X-2067560D1*
X-2021840D2*
X-1991360D1*
X-1717689D2*
X-1701949D1*
X-1553210D2*
X-1518920D1*
X-1454150D2*
X-1419860D1*
X-1305560D2*
X-1271270D1*
X-1198880D2*
X-1168400D1*
X-1115060D2*
X-1084580D1*
X-844550D2*
X-814070D1*
X-741680D2*
X-711200D1*
X-2732211Y-6070600D2*
X-2715894D1*
X-1718751D2*
X-1702434D1*
X-2733837Y-6074410D2*
X-2716822D1*
X-1720377D2*
X-1703362D1*
X-2736316Y-6078220D2*
X-2717947D1*
X-1722856D2*
X-1704487D1*
X-2739723Y-6082030D2*
X-2719246D1*
X-1726263D2*
X-1705786D1*
X-2802890Y-6085840D2*
X-2799080D1*
X-2750264D2*
X-2721147D1*
X-1789430D2*
X-1785620D1*
X-1736804D2*
X-1707687D1*
X-2802890Y-6089650D2*
X-2769553D1*
X-2766958D2*
X-2723832D1*
X-1789430D2*
X-1756093D1*
X-1753498D2*
X-1710372D1*
X-2802830Y-6093460D2*
X-2727117D1*
X-1789370D2*
X-1713657D1*
X-2802652Y-6097270D2*
X-2730974D1*
X-1789192D2*
X-1717514D1*
X-2800866Y-6101080D2*
X-2735864D1*
X-1787406D2*
X-1722404D1*
X-2794928Y-6104890D2*
X-2742242D1*
X-1781468D2*
X-1728782D1*
X-2787650Y-6108700D2*
X-2749550D1*
X-1774190D2*
X-1736090D1*
X-3034063Y630830D2*
X-2946433D1*
X-2893093D2*
X-2874043D1*
X-3034063Y627020D2*
X-2919763D1*
X-2893093D2*
X-2874043D1*
X-3034063Y623210D2*
X-2919763D1*
X-2893093D2*
X-2874043D1*
X-3034063Y619400D2*
X-2919763D1*
X-2893093D2*
X-2874043D1*
X-3034063Y615590D2*
X-2919763D1*
X-2893093D2*
X-2874043D1*
X-3034063Y611780D2*
X-2919763D1*
X-2893093D2*
X-2874043D1*
X-3034063Y581300D2*
X-3030253D1*
X-3034063Y577490D2*
X-3024081D1*
X-3034034Y573680D2*
X-3018083D1*
X-3033751Y569870D2*
X-3012114D1*
X-3033081Y566060D2*
X-3005978D1*
X-3030124Y562250D2*
X-2999676D1*
X-3025917Y558440D2*
X-2993406D1*
X-3020629Y554630D2*
X-2987084D1*
X-3014691Y550820D2*
X-2980691D1*
X-3008564Y547010D2*
X-2974381D1*
X-3002296Y543200D2*
X-2968058D1*
X-2995921Y539390D2*
X-2961807D1*
X-2989603Y535580D2*
X-2956101D1*
X-2983134Y531770D2*
X-2951096D1*
X-2976252Y527960D2*
X-2874043D1*
X-2969034Y524150D2*
X-2874043D1*
X-2961673Y520340D2*
X-2874043D1*
X-2966946Y516530D2*
X-2874043D1*
X-2972512Y512720D2*
X-2874043D1*
X-2978458Y508910D2*
X-2874043D1*
X-2984680Y505100D2*
X-2946288D1*
X-2990919Y501290D2*
X-2953420D1*
X-2997228Y497480D2*
X-2960112D1*
X-3003618Y493670D2*
X-2966621D1*
X-3009927Y489860D2*
X-2973091D1*
X-3016234Y486050D2*
X-2979430D1*
X-3022335Y482240D2*
X-2985778D1*
X-3027394Y478430D2*
X-2992181D1*
X-3031349Y474620D2*
X-2998509D1*
X-3032754Y470810D2*
X-3004966D1*
X-3033509Y467000D2*
X-3011707D1*
X-3033848Y463190D2*
X-3018357D1*
X-3033988Y459380D2*
X-3024496D1*
X-3034063Y455570D2*
X-3030253D1*
X-2889283Y451760D2*
X-2874043D1*
X-2889283Y447950D2*
X-2874043D1*
X-2889283Y444140D2*
X-2874043D1*
X-2889283Y440330D2*
X-2874043D1*
X-2889283Y436520D2*
X-2874043D1*
X-2889283Y432710D2*
X-2874043D1*
X-2889283Y428900D2*
X-2874043D1*
X-2889283Y425090D2*
X-2874043D1*
X-2889283Y421280D2*
X-2874043D1*
X-2889283Y417470D2*
X-2874043D1*
X-2889283Y413660D2*
X-2874043D1*
X-2889283Y409850D2*
X-2874043D1*
X-2889283Y406040D2*
X-2874043D1*
X-2889283Y402230D2*
X-2874043D1*
X-2889283Y398420D2*
X-2874043D1*
X-2889283Y394610D2*
X-2874043D1*
X-2889283Y390800D2*
X-2874043D1*
X-2889283Y386990D2*
X-2874043D1*
X-2889283Y383180D2*
X-2874043D1*
X-3034063Y379370D2*
X-2874043D1*
X-3034063Y375560D2*
X-2874043D1*
X-3034063Y371750D2*
X-2874043D1*
X-3034063Y367940D2*
X-2874043D1*
X-3034063Y364130D2*
X-2874043D1*
X-3034063Y360320D2*
X-2874043D1*
X-3034063Y326030D2*
X-2874043D1*
X-3034063Y322220D2*
X-2874043D1*
X-3034063Y318410D2*
X-2874043D1*
X-3034063Y314600D2*
X-2874073D1*
X-3034063Y310790D2*
X-2874371D1*
X-2909082Y306980D2*
X-2875085D1*
X-2914474Y303170D2*
X-2878595D1*
X-2920818Y299360D2*
X-2883746D1*
X-2927819Y295550D2*
X-2890149D1*
X-2935172Y291740D2*
X-2897238D1*
X-2942685Y287930D2*
X-2904646D1*
X-2950265Y284120D2*
X-2912186D1*
X-2957871Y280310D2*
X-2919763D1*
X-2965486Y276500D2*
X-2927239D1*
X-2973104Y272690D2*
X-2934371D1*
X-2980724Y268880D2*
X-2941077D1*
X-2988343Y265070D2*
X-2947720D1*
X-2995963Y261260D2*
X-2954675D1*
X-3003583Y257450D2*
X-2961942D1*
X-3011174Y253640D2*
X-2969400D1*
X-3018496Y249830D2*
X-2976953D1*
X-3024847Y246020D2*
X-2984548D1*
X-3030090Y242210D2*
X-2992158D1*
X-3032125Y238400D2*
X-2999775D1*
X-3033234Y234590D2*
X-3007394D1*
X-3033738Y230780D2*
X-2874043D1*
X-3033943Y226970D2*
X-2874043D1*
X-3034021Y223160D2*
X-2874043D1*
X-3034049Y219350D2*
X-2874043D1*
X-3034059Y215540D2*
X-2874043D1*
X-3034063Y211730D2*
X-2874043D1*
X-2969293Y185060D2*
X-2935003D1*
X-2982175Y181250D2*
X-2922122D1*
X-2992929Y177440D2*
X-2911368D1*
X-3001575Y173630D2*
X-2902721D1*
X-3008385Y169820D2*
X-2895926D1*
X-3013765Y166010D2*
X-2890666D1*
X-3018176Y162200D2*
X-2971591D1*
X-2932706D2*
X-2886607D1*
X-3021794Y158390D2*
X-2983519D1*
X-2920778D2*
X-2883415D1*
X-3024679Y154580D2*
X-2993056D1*
X-2911255D2*
X-2880609D1*
X-3027056Y150770D2*
X-3000352D1*
X-2904079D2*
X-2878039D1*
X-3029156Y146960D2*
X-3005849D1*
X-2898948D2*
X-2875979D1*
X-3031007Y143150D2*
X-3009994D1*
X-2895349D2*
X-2874363D1*
X-3032461Y139340D2*
X-3013091D1*
X-2892668D2*
X-2872894D1*
X-3033462Y135530D2*
X-3015425D1*
X-2890448D2*
X-2871674D1*
X-3034382Y131720D2*
X-3017089D1*
X-2888553D2*
X-2870912D1*
X-3035487Y127910D2*
X-3018173D1*
X-2887099D2*
X-2870522D1*
X-3036541Y124100D2*
X-3019125D1*
X-2886226D2*
X-2870347D1*
X-3037235Y120290D2*
X-3020226D1*
X-2885790D2*
X-2870276D1*
X-3037599Y116480D2*
X-3021151D1*
X-2885597D2*
X-2870248D1*
X-3037750Y112670D2*
X-3021360D1*
X-2885519D2*
X-2870238D1*
X-3037684Y108860D2*
X-3020812D1*
X-2885504D2*
X-2870235D1*
X-3037224Y105050D2*
X-3019986D1*
X-2885628D2*
X-2870249D1*
X-3036307Y101240D2*
X-3019241D1*
X-2886124D2*
X-2870382D1*
X-3035199Y97430D2*
X-3018279D1*
X-2887185D2*
X-2870868D1*
X-3034035Y93620D2*
X-3016580D1*
X-2888795D2*
X-2871795D1*
X-3032636Y89810D2*
X-3013993D1*
X-2891021D2*
X-2872906D1*
X-3030997Y86000D2*
X-3010765D1*
X-2894047D2*
X-2874071D1*
X-3029204Y82190D2*
X-3007036D1*
X-2898046D2*
X-2875485D1*
X-3027214Y78380D2*
X-3002398D1*
X-2903351D2*
X-2877258D1*
X-3024832Y74570D2*
X-2995813D1*
X-2910237D2*
X-2879537D1*
X-3021885Y70760D2*
X-2986430D1*
X-2918736D2*
X-2882454D1*
X-3018493Y66950D2*
X-2974594D1*
X-2928504D2*
X-2885947D1*
X-3014726Y63140D2*
X-2890074D1*
X-3010330Y59330D2*
X-2895014D1*
X-3004712Y55520D2*
X-2901038D1*
X-2997216Y51710D2*
X-2908571D1*
X-2987646Y47900D2*
X-2917624D1*
X-2976913Y44090D2*
X-2927383D1*
X-2969293Y-43540D2*
X-2935003D1*
X-2982175Y-47350D2*
X-2922122D1*
X-2992929Y-51160D2*
X-2911368D1*
X-3001575Y-54970D2*
X-2902721D1*
X-3008385Y-58780D2*
X-2895926D1*
X-3013765Y-62590D2*
X-2890666D1*
X-3018176Y-66400D2*
X-2971591D1*
X-2932706D2*
X-2886607D1*
X-3021794Y-70210D2*
X-2983519D1*
X-2920778D2*
X-2883415D1*
X-3024679Y-74020D2*
X-2993056D1*
X-2911255D2*
X-2880609D1*
X-3027056Y-77830D2*
X-3000352D1*
X-2904079D2*
X-2878039D1*
X-3029156Y-81640D2*
X-3005849D1*
X-2898948D2*
X-2875979D1*
X-3031007Y-85450D2*
X-3009994D1*
X-2895349D2*
X-2874363D1*
X-3032461Y-89260D2*
X-3013091D1*
X-2892668D2*
X-2872894D1*
X-3033462Y-93070D2*
X-3015425D1*
X-2890448D2*
X-2871674D1*
X-3034382Y-96880D2*
X-3017089D1*
X-2888553D2*
X-2870912D1*
X-3035487Y-100690D2*
X-3018173D1*
X-2887099D2*
X-2870522D1*
X-3036541Y-104500D2*
X-3019125D1*
X-2886226D2*
X-2870347D1*
X-3037235Y-108310D2*
X-3020226D1*
X-2885790D2*
X-2870276D1*
X-3037599Y-112120D2*
X-3021151D1*
X-2885597D2*
X-2870248D1*
X-3037750Y-115930D2*
X-3021360D1*
X-2885519D2*
X-2870238D1*
X-3037684Y-119740D2*
X-3020812D1*
X-2885504D2*
X-2870235D1*
X-3037224Y-123550D2*
X-3019986D1*
X-2885628D2*
X-2870249D1*
X-3036307Y-127360D2*
X-3019241D1*
X-2886124D2*
X-2870382D1*
X-3035199Y-131170D2*
X-3018279D1*
X-2887185D2*
X-2870868D1*
X-3034035Y-134980D2*
X-3016580D1*
X-2888795D2*
X-2871795D1*
X-3032636Y-138790D2*
X-3013993D1*
X-2891021D2*
X-2872906D1*
X-3030997Y-142600D2*
X-3010765D1*
X-2894047D2*
X-2874071D1*
X-3029204Y-146410D2*
X-3007036D1*
X-2898046D2*
X-2875485D1*
X-3027214Y-150220D2*
X-3002398D1*
X-2903351D2*
X-2877258D1*
X-3024832Y-154030D2*
X-2995813D1*
X-2910237D2*
X-2879537D1*
X-3021885Y-157840D2*
X-2986430D1*
X-2918736D2*
X-2882454D1*
X-3018493Y-161650D2*
X-2974594D1*
X-2928504D2*
X-2885947D1*
X-3014726Y-165460D2*
X-2890074D1*
X-3010330Y-169270D2*
X-2895014D1*
X-3004712Y-173080D2*
X-2901038D1*
X-2997216Y-176890D2*
X-2908571D1*
X-2987646Y-180700D2*
X-2917624D1*
X-2976913Y-184510D2*
X-2927383D1*
X-3034063Y-207370D2*
X-3018823D1*
X-2889283D2*
X-2874043D1*
X-3034063Y-211180D2*
X-3018823D1*
X-2889283D2*
X-2874043D1*
X-3034063Y-214990D2*
X-3018823D1*
X-2889283D2*
X-2874043D1*
X-3034063Y-218800D2*
X-3018823D1*
X-2889283D2*
X-2874043D1*
X-3034063Y-222610D2*
X-3018823D1*
X-2889283D2*
X-2874043D1*
X-3034063Y-226420D2*
X-2874043D1*
X-3034063Y-230230D2*
X-2874043D1*
X-3034063Y-234040D2*
X-2874043D1*
X-3034063Y-237850D2*
X-2874043D1*
X-3034063Y-241660D2*
X-2874043D1*
X-3034063Y-245470D2*
X-2874043D1*
X-3034063Y-249280D2*
X-3018823D1*
X-2889283D2*
X-2874043D1*
X-3034063Y-253090D2*
X-3018823D1*
X-2889283D2*
X-2874043D1*
X-3034063Y-256900D2*
X-3018823D1*
X-2889283D2*
X-2874043D1*
X-3034063Y-260710D2*
X-3018823D1*
X-2889283D2*
X-2874043D1*
X-3034063Y-264520D2*
X-3018823D1*
X-2889283D2*
X-2874043D1*
X-2976913Y-355960D2*
X-2927383D1*
X-2991097Y-359770D2*
X-2913345D1*
X-3002985Y-363580D2*
X-2901945D1*
X-3012339Y-367390D2*
X-2893489D1*
X-3019388Y-371200D2*
X-2887298D1*
X-3024451Y-375010D2*
X-2882534D1*
X-3028003Y-378820D2*
X-2982127D1*
X-2920847D2*
X-2878774D1*
X-3030552Y-382630D2*
X-2995780D1*
X-2908597D2*
X-2875851D1*
X-3032415Y-386440D2*
X-3005531D1*
X-2899487D2*
X-2873589D1*
X-3033882Y-390250D2*
X-3012814D1*
X-2892698D2*
X-2871968D1*
X-3035272Y-394060D2*
X-3015923D1*
X-2889625D2*
X-2871027D1*
X-3036456Y-397870D2*
X-3018090D1*
X-2887542D2*
X-2870565D1*
X-3037203Y-401680D2*
X-3019673D1*
X-2886395D2*
X-2870362D1*
X-3037573Y-405490D2*
X-3020861D1*
X-2885866D2*
X-2870281D1*
X-3037612Y-409300D2*
X-3020464D1*
X-2885767D2*
X-2870250D1*
X-3037197Y-413110D2*
X-3019674D1*
X-2886190D2*
X-2870254D1*
X-3036297Y-416920D2*
X-3018507D1*
X-2887366D2*
X-2870384D1*
X-3035181Y-420730D2*
X-3016885D1*
X-2889139D2*
X-2870883D1*
X-3033900Y-424540D2*
X-3012257D1*
X-2893718D2*
X-2871944D1*
X-3032120Y-428350D2*
X-3004551D1*
X-2901113D2*
X-2873555D1*
X-3029787Y-432160D2*
X-2992856D1*
X-2912272D2*
X-2875767D1*
X-3026944Y-435970D2*
X-2977951D1*
X-2926720D2*
X-2878673D1*
X-3023277Y-439780D2*
X-2882321D1*
X-3018410Y-443590D2*
X-2887258D1*
X-3011565Y-447400D2*
X-2894660D1*
X-3001167Y-451210D2*
X-2905834D1*
X-2986458Y-455020D2*
X-2921160D1*
X-2969293Y-458830D2*
X-2938813D1*
X-2900713Y-493120D2*
X-2874043D1*
X-2900713Y-496930D2*
X-2874043D1*
X-2900713Y-500740D2*
X-2874043D1*
X-2900713Y-504550D2*
X-2874043D1*
X-2900713Y-508360D2*
X-2874043D1*
X-2900713Y-512170D2*
X-2874043D1*
X-2900713Y-515980D2*
X-2874043D1*
X-2885473Y-554080D2*
X-2874043D1*
X-2885473Y-557890D2*
X-2874043D1*
X-2885473Y-561700D2*
X-2874043D1*
X-2885473Y-565510D2*
X-2874043D1*
X-2885473Y-569320D2*
X-2874043D1*
X-2885473Y-573130D2*
X-2874043D1*
X-2885473Y-576940D2*
X-2874043D1*
X-2885473Y-580750D2*
X-2874043D1*
X-3034063Y-584560D2*
X-2874043D1*
X-3034019Y-588370D2*
X-2874043D1*
X-3033587Y-592180D2*
X-2874043D1*
X-3032560Y-595990D2*
X-2874043D1*
X-3028313Y-599800D2*
X-2874043D1*
X-3023293Y-603610D2*
X-2874043D1*
X-3018828Y-607420D2*
X-2999773D1*
X-2885473D2*
X-2874043D1*
X-3015518Y-611230D2*
X-2999773D1*
X-2885473D2*
X-2874043D1*
X-3013348Y-615040D2*
X-2999773D1*
X-2885473D2*
X-2874043D1*
X-3012159Y-618850D2*
X-2999773D1*
X-2885473D2*
X-2874043D1*
X-3011594Y-622660D2*
X-2999773D1*
X-2885473D2*
X-2874043D1*
X-3011344Y-626470D2*
X-2999773D1*
X-2885473D2*
X-2874043D1*
X-3011203Y-630280D2*
X-2999773D1*
X-2885473D2*
X-2874043D1*
X-3034063Y-729340D2*
X-3026443D1*
X-3034048Y-733150D2*
X-3015013D1*
X-3033870Y-736960D2*
X-3003583D1*
X-3033423Y-740770D2*
X-2992153D1*
X-3031035Y-744580D2*
X-2980723D1*
X-3024733Y-748390D2*
X-2969308D1*
X-3016326Y-752200D2*
X-2958012D1*
X-3006365Y-756010D2*
X-2947068D1*
X-2995568Y-759820D2*
X-2936550D1*
X-2984389Y-763630D2*
X-2926097D1*
X-2973053Y-767440D2*
X-2915346D1*
X-2961656Y-771250D2*
X-2904448D1*
X-2950238Y-775060D2*
X-2894112D1*
X-2938841Y-778870D2*
X-2885564D1*
X-2927703Y-782680D2*
X-2878808D1*
X-2917451Y-786490D2*
X-2875931D1*
X-2908626Y-790300D2*
X-2874919D1*
X-2900713Y-794110D2*
X-2874430D1*
X-2912143Y-797920D2*
X-2874520D1*
X-2923573Y-801730D2*
X-2875170D1*
X-2935003Y-805540D2*
X-2878546D1*
X-2946433Y-809350D2*
X-2885881D1*
X-2957863Y-813160D2*
X-2894965D1*
X-2969293Y-816970D2*
X-2905282D1*
X-2980723Y-820780D2*
X-2916241D1*
X-2992138Y-824590D2*
X-2927487D1*
X-3003390Y-828400D2*
X-2938849D1*
X-3013888Y-832210D2*
X-2950255D1*
X-3022502Y-836020D2*
X-2961662D1*
X-3029292Y-839830D2*
X-2972956D1*
X-3032173Y-843640D2*
X-2983899D1*
X-3033187Y-847450D2*
X-2994416D1*
X-3033707Y-851260D2*
X-3004859D1*
X-3033937Y-855070D2*
X-3015567D1*
X-3034063Y-858880D2*
X-3026443D1*
X-1256030Y1074420D2*
Y1070610D1*
Y1066800D1*
Y1062990D1*
Y1059180D1*
Y1055370D1*
Y1051560D1*
Y1047750D1*
Y1043940D1*
Y1040130D1*
Y1036320D1*
Y1032510D1*
Y1028700D1*
Y1024890D1*
Y1021080D1*
X-1256045Y1017270D1*
X-1256190Y1013460D1*
X-1256779Y1009650D1*
X-1258081Y1005840D1*
X-1259840Y1002030D1*
X-1233170Y1074420D2*
Y1070610D1*
Y1066800D1*
Y1062990D1*
Y1059180D1*
Y1055370D1*
Y1051560D1*
Y1047750D1*
Y1043940D1*
Y1040130D1*
Y1036320D1*
Y1032510D1*
Y1028700D1*
Y1024890D1*
Y1021080D1*
Y1017270D1*
Y1013460D1*
Y1009650D1*
Y1005840D1*
Y1002030D1*
Y998220D1*
Y994410D1*
Y990600D1*
Y986790D1*
Y982980D1*
Y979170D1*
Y975360D1*
Y971550D1*
Y967740D1*
Y963930D1*
Y960120D1*
Y956310D1*
Y952500D1*
Y948690D1*
Y944880D1*
Y941070D1*
Y937260D1*
Y933450D1*
Y929640D1*
Y925830D1*
Y922020D1*
Y918210D1*
Y914400D1*
Y910590D1*
Y906780D1*
Y902970D1*
Y899160D1*
Y895350D1*
Y891540D1*
Y887730D1*
Y883920D1*
Y880110D1*
Y876300D1*
Y872490D1*
Y868680D1*
Y864870D1*
Y861060D1*
Y857250D1*
Y853440D1*
X-2315210Y1066800D2*
X-2323840Y1062990D1*
X-2330972Y1059180D1*
X-2336612Y1055370D1*
X-2341272Y1051560D1*
X-2345315Y1047750D1*
X-2348769Y1043940D1*
X-2351571Y1040130D1*
X-2353788Y1036320D1*
X-2355408Y1032510D1*
X-2356478Y1028700D1*
X-2357424Y1024890D1*
X-2358523Y1021080D1*
X-2359448Y1017270D1*
X-2359657Y1013460D1*
X-2359109Y1009650D1*
X-2358283Y1005840D1*
X-2357552Y1002030D1*
X-2356725Y998220D1*
X-2355511Y994410D1*
X-2353837Y990600D1*
X-2351601Y986790D1*
X-2348700Y982980D1*
X-2345228Y979170D1*
X-2341275Y975360D1*
X-2337190Y971550D1*
X-2333580Y967740D1*
X-2330450Y963930D1*
X-2336019Y960120D1*
X-2340923Y956310D1*
X-2345272Y952500D1*
X-2349193Y948690D1*
X-2352602Y944880D1*
X-2355389Y941070D1*
X-2357616Y937260D1*
X-2359353Y933450D1*
X-2360773Y929640D1*
X-2362147Y925830D1*
X-2363325Y922020D1*
X-2364071Y918210D1*
X-2364455Y914400D1*
X-2364613Y910590D1*
X-2364549Y906780D1*
X-2364091Y902970D1*
X-2363173Y899160D1*
X-2362066Y895350D1*
X-2360902Y891540D1*
X-2359503Y887730D1*
X-2357864Y883920D1*
X-2356071Y880110D1*
X-2354081Y876300D1*
X-2351684Y872490D1*
X-2348588Y868680D1*
X-2344562Y864870D1*
X-2339252Y861060D1*
X-2332411Y857250D1*
X-2324170Y853440D1*
X-2315210Y849630D1*
X-2277110Y1066800D2*
X-2268480Y1062990D1*
X-2261348Y1059180D1*
X-2255708Y1055370D1*
X-2251048Y1051560D1*
X-2247005Y1047750D1*
X-2243551Y1043940D1*
X-2240749Y1040130D1*
X-2238532Y1036320D1*
X-2236926Y1032510D1*
X-2235991Y1028700D1*
X-2235530Y1024890D1*
X-2235329Y1021080D1*
X-2235247Y1017270D1*
X-2235217Y1013460D1*
X-2235221Y1009650D1*
X-2235351Y1005840D1*
X-2235850Y1002030D1*
X-2236911Y998220D1*
X-2238507Y994410D1*
X-2240584Y990600D1*
X-2242976Y986790D1*
X-2245428Y982980D1*
X-2248194Y979170D1*
X-2251746Y975360D1*
X-2256116Y971550D1*
X-2260881Y967740D1*
X-2265680Y963930D1*
X-2259522Y960120D1*
X-2253674Y956310D1*
X-2248338Y952500D1*
X-2243749Y948690D1*
X-2239986Y944880D1*
X-2237038Y941070D1*
X-2234759Y937260D1*
X-2233115Y933450D1*
X-2232037Y929640D1*
X-2231088Y925830D1*
X-2229972Y922020D1*
X-2228914Y918210D1*
X-2228233Y914400D1*
X-2228003Y910590D1*
X-2228323Y906780D1*
X-2229168Y902970D1*
X-2230133Y899160D1*
X-2230922Y895350D1*
X-2231772Y891540D1*
X-2232994Y887730D1*
X-2234672Y883920D1*
X-2236909Y880110D1*
X-2239795Y876300D1*
X-2243163Y872490D1*
X-2246922Y868680D1*
X-2251300Y864870D1*
X-2256771Y861060D1*
X-2263679Y857250D1*
X-2271946Y853440D1*
X-2280920Y849630D1*
X-2151380Y1066800D2*
X-2160010Y1062990D1*
X-2167142Y1059180D1*
X-2172782Y1055370D1*
X-2177442Y1051560D1*
X-2181485Y1047750D1*
X-2184939Y1043940D1*
X-2187741Y1040130D1*
X-2189973Y1036320D1*
X-2191712Y1032510D1*
X-2193133Y1028700D1*
X-2194506Y1024890D1*
X-2195700Y1021080D1*
X-2196580Y1017270D1*
X-2197449Y1013460D1*
X-2198534Y1009650D1*
X-2199582Y1005840D1*
X-2200273Y1002030D1*
X-2200636Y998220D1*
X-2200801Y994410D1*
X-2200884Y990600D1*
X-2201044Y986790D1*
X-2201539Y982980D1*
X-2202455Y979170D1*
X-2203433Y975360D1*
X-2204098Y971550D1*
X-2204451Y967740D1*
X-2204613Y963930D1*
X-2204680Y960120D1*
X-2204706Y956310D1*
X-2204700Y952500D1*
X-2204570Y948690D1*
X-2204085Y944880D1*
X-2203173Y941070D1*
X-2202196Y937260D1*
X-2201532Y933450D1*
X-2201178Y929640D1*
X-2201017Y925830D1*
X-2200935Y922020D1*
X-2200775Y918210D1*
X-2200281Y914400D1*
X-2199365Y910590D1*
X-2198372Y906780D1*
X-2197573Y902970D1*
X-2196734Y899160D1*
X-2195645Y895350D1*
X-2194467Y891540D1*
X-2193277Y887730D1*
X-2191853Y883920D1*
X-2190077Y880110D1*
X-2187797Y876300D1*
X-2184894Y872490D1*
X-2181520Y868680D1*
X-2177745Y864870D1*
X-2173236Y861060D1*
X-2167334Y857250D1*
X-2159796Y853440D1*
X-2151380Y849630D1*
X-2120900Y1066800D2*
X-2112270Y1062990D1*
X-2105138Y1059180D1*
X-2099513Y1055370D1*
X-2094972Y1051560D1*
X-2091296Y1047750D1*
X-2088388Y1043940D1*
X-2086002Y1040130D1*
X-2083898Y1036320D1*
X-2082032Y1032510D1*
X-2080459Y1028700D1*
X-2079106Y1024890D1*
X-2077759Y1021080D1*
X-2076590Y1017270D1*
X-2075833Y1013460D1*
X-2075316Y1009650D1*
X-2074658Y1005840D1*
X-2073675Y1002030D1*
X-2072671Y998220D1*
X-2071997Y994410D1*
X-2071640Y990600D1*
X-2071477Y986790D1*
X-2071410Y982980D1*
X-2071384Y979170D1*
X-2071375Y975360D1*
X-2071372Y971550D1*
X-2071371Y967740D1*
X-2071370Y963930D1*
Y960120D1*
Y956310D1*
Y952500D1*
Y948690D1*
Y944880D1*
Y941070D1*
Y937260D1*
Y933450D1*
X-2071385Y929640D1*
X-2071519Y925830D1*
X-2072004Y922020D1*
X-2072917Y918210D1*
X-2073894Y914400D1*
X-2074573Y910590D1*
X-2075060Y906780D1*
X-2075708Y902970D1*
X-2076702Y899160D1*
X-2077838Y895350D1*
X-2079013Y891540D1*
X-2080416Y887730D1*
X-2082056Y883920D1*
X-2083849Y880110D1*
X-2085839Y876300D1*
X-2088221Y872490D1*
X-2091183Y868680D1*
X-2094724Y864870D1*
X-2099121Y861060D1*
X-2104975Y857250D1*
X-2112494Y853440D1*
X-2120900Y849630D1*
X-924560Y1066800D2*
X-935552Y1062990D1*
X-944858Y1059180D1*
X-952523Y1055370D1*
X-959008Y1051560D1*
X-964481Y1047750D1*
X-968814Y1043940D1*
X-972184Y1040130D1*
X-975094Y1036320D1*
X-977824Y1032510D1*
X-980266Y1028700D1*
X-982448Y1024890D1*
X-984484Y1021080D1*
X-986439Y1017270D1*
X-988353Y1013460D1*
X-990128Y1009650D1*
X-991553Y1005840D1*
X-992544Y1002030D1*
X-993460Y998220D1*
X-994564Y994410D1*
X-995618Y990600D1*
X-996312Y986790D1*
X-996676Y982980D1*
X-996841Y979170D1*
X-996909Y975360D1*
X-996936Y971550D1*
X-996945Y967740D1*
X-996948Y963930D1*
X-996949Y960120D1*
X-996950Y956310D1*
Y952500D1*
Y948690D1*
Y944880D1*
Y941070D1*
X-996935Y937260D1*
X-996801Y933450D1*
X-996316Y929640D1*
X-995403Y925830D1*
X-994411Y922020D1*
X-993613Y918210D1*
X-992759Y914400D1*
X-991551Y910590D1*
X-990007Y906780D1*
X-988270Y902970D1*
X-986430Y899160D1*
X-984540Y895350D1*
X-982522Y891540D1*
X-980257Y887730D1*
X-977789Y883920D1*
X-975308Y880110D1*
X-972532Y876300D1*
X-968963Y872490D1*
X-964475Y868680D1*
X-959196Y864870D1*
X-952955Y861060D1*
X-945121Y857250D1*
X-935389Y853440D1*
X-924560Y849630D1*
X-886460Y1066800D2*
X-875939Y1062990D1*
X-866728Y1059180D1*
X-859379Y1055370D1*
X-853664Y1051560D1*
X-848965Y1047750D1*
X-844795Y1043940D1*
X-840972Y1040130D1*
X-837593Y1036320D1*
X-834692Y1032510D1*
X-832001Y1028700D1*
X-829472Y1024890D1*
X-827428Y1021080D1*
X-825803Y1017270D1*
X-824201Y1013460D1*
X-822496Y1009650D1*
X-820822Y1005840D1*
X-819455Y1002030D1*
X-818601Y998220D1*
X-818042Y994410D1*
X-817367Y990600D1*
X-816378Y986790D1*
X-815372Y982980D1*
X-814697Y979170D1*
X-814340Y975360D1*
X-814177Y971550D1*
X-814110Y967740D1*
X-814084Y963930D1*
X-814075Y960120D1*
X-814072Y956310D1*
X-814071Y952500D1*
X-814070Y948690D1*
X-814085Y944880D1*
X-814219Y941070D1*
X-814704Y937260D1*
X-815617Y933450D1*
X-816594Y929640D1*
X-817273Y925830D1*
X-817760Y922020D1*
X-818422Y918210D1*
X-819536Y914400D1*
X-821024Y910590D1*
X-822625Y906780D1*
X-824107Y902970D1*
X-825554Y899160D1*
X-827388Y895350D1*
X-829613Y891540D1*
X-831965Y887730D1*
X-834559Y883920D1*
X-837608Y880110D1*
X-841028Y876300D1*
X-844678Y872490D1*
X-848581Y868680D1*
X-853147Y864870D1*
X-859127Y861060D1*
X-866987Y857250D1*
X-876391Y853440D1*
X-886460Y849630D1*
X-2524760Y1062990D2*
Y1059180D1*
Y1055370D1*
Y1051560D1*
Y1047750D1*
Y1043940D1*
X-2387600Y1062990D2*
Y1059180D1*
Y1055370D1*
X-2387615Y1051560D1*
X-2387764Y1047750D1*
X-2388383Y1043940D1*
X-2389796Y1040130D1*
X-2391834Y1036320D1*
X-2394095Y1032510D1*
X-2396526Y1028700D1*
X-2399079Y1024890D1*
X-2401568Y1021080D1*
X-2404092Y1017270D1*
X-2406680Y1013460D1*
X-2409197Y1009650D1*
X-2411843Y1005840D1*
X-2414785Y1002030D1*
X-2417729Y998220D1*
X-2420440Y994410D1*
X-2423069Y990600D1*
X-2425702Y986790D1*
X-2428222Y982980D1*
X-2430756Y979170D1*
X-2433348Y975360D1*
X-2435851Y971550D1*
X-2438379Y967740D1*
X-2440969Y963930D1*
X-2443486Y960120D1*
X-2446133Y956310D1*
X-2449075Y952500D1*
X-2452019Y948690D1*
X-2454730Y944880D1*
X-2457359Y941070D1*
X-2459992Y937260D1*
X-2462512Y933450D1*
X-2465046Y929640D1*
X-2467638Y925830D1*
X-2470141Y922020D1*
X-2472669Y918210D1*
X-2475259Y914400D1*
X-2477776Y910590D1*
X-2480423Y906780D1*
X-2483365Y902970D1*
X-2486309Y899160D1*
X-2489020Y895350D1*
X-2491649Y891540D1*
X-2494282Y887730D1*
X-2496816Y883920D1*
X-2499474Y880110D1*
X-2502492Y876300D1*
X-2505710Y872490D1*
X-1941830Y1062990D2*
Y1059180D1*
Y1055370D1*
Y1051560D1*
Y1047750D1*
Y1043940D1*
Y1040130D1*
Y1036320D1*
Y1032510D1*
Y1028700D1*
Y1024890D1*
Y1021080D1*
Y1017270D1*
Y1013460D1*
Y1009650D1*
Y1005840D1*
Y1002030D1*
Y998220D1*
Y994410D1*
Y990600D1*
Y986790D1*
Y982980D1*
Y979170D1*
Y975360D1*
Y971550D1*
Y967740D1*
Y963930D1*
Y960120D1*
Y956310D1*
Y952500D1*
Y948690D1*
Y944880D1*
Y941070D1*
Y937260D1*
Y933450D1*
Y929640D1*
Y925830D1*
Y922020D1*
Y918210D1*
Y914400D1*
Y910590D1*
Y906780D1*
Y902970D1*
Y899160D1*
Y895350D1*
Y891540D1*
Y887730D1*
Y883920D1*
Y880110D1*
Y876300D1*
Y872490D1*
Y868680D1*
Y864870D1*
Y861060D1*
Y857250D1*
Y853440D1*
X-1850390Y1062990D2*
X-1841760Y1059180D1*
X-1834628Y1055370D1*
X-1829003Y1051560D1*
X-1824462Y1047750D1*
X-1820786Y1043940D1*
X-1817893Y1040130D1*
X-1815640Y1036320D1*
X-1814023Y1032510D1*
X-1813083Y1028700D1*
X-1812621Y1024890D1*
X-1812419Y1021080D1*
X-1812337Y1017270D1*
X-1812322Y1013460D1*
X-1812445Y1009650D1*
X-1812941Y1005840D1*
X-1813986Y1002030D1*
X-1815463Y998220D1*
X-1817189Y994410D1*
X-1819153Y990600D1*
X-1821541Y986790D1*
X-1824630Y982980D1*
X-1828594Y979170D1*
X-1833507Y975360D1*
X-1838960Y971550D1*
X-1833259Y967740D1*
X-1827385Y963930D1*
X-1822000Y960120D1*
X-1817635Y956310D1*
X-1814230Y952500D1*
X-1811315Y948690D1*
X-1808711Y944880D1*
X-1806751Y941070D1*
X-1805480Y937260D1*
X-1804435Y933450D1*
X-1803278Y929640D1*
X-1802203Y925830D1*
X-1801502Y922020D1*
X-1801150Y918210D1*
X-1801118Y914400D1*
X-1801535Y910590D1*
X-1802421Y906780D1*
X-1803404Y902970D1*
X-1804199Y899160D1*
X-1805051Y895350D1*
X-1806274Y891540D1*
X-1807952Y887730D1*
X-1810189Y883920D1*
X-1813075Y880110D1*
X-1816443Y876300D1*
X-1820202Y872490D1*
X-1824595Y868680D1*
X-1830211Y864870D1*
X-1837708Y861060D1*
X-1847278Y857250D1*
X-1858010Y853440D1*
X-1103630Y1062990D2*
Y1059180D1*
Y1055370D1*
Y1051560D1*
Y1047750D1*
Y1043940D1*
Y1040130D1*
X-1076960D1*
Y1036320D1*
Y1032510D1*
Y1028700D1*
Y1024890D1*
Y1021080D1*
Y1017270D1*
Y1013460D1*
Y1009650D1*
Y1005840D1*
Y1002030D1*
Y998220D1*
Y994410D1*
Y990600D1*
Y986790D1*
Y982980D1*
Y979170D1*
Y975360D1*
Y971550D1*
Y967740D1*
Y963930D1*
Y960120D1*
Y956310D1*
Y952500D1*
Y948690D1*
Y944880D1*
Y941070D1*
Y937260D1*
Y933450D1*
Y929640D1*
Y925830D1*
Y922020D1*
Y918210D1*
Y914400D1*
Y910590D1*
Y906780D1*
Y902970D1*
Y899160D1*
Y895350D1*
Y891540D1*
Y887730D1*
Y883920D1*
Y880110D1*
Y876300D1*
Y872490D1*
X-1103630D1*
Y868680D1*
Y864870D1*
Y861060D1*
Y857250D1*
Y853440D1*
X-1023620Y1062990D2*
Y1059180D1*
Y1055370D1*
Y1051560D1*
Y1047750D1*
Y1043940D1*
Y1040130D1*
X-1050290D1*
Y1036320D1*
Y1032510D1*
Y1028700D1*
Y1024890D1*
Y1021080D1*
Y1017270D1*
Y1013460D1*
Y1009650D1*
Y1005840D1*
Y1002030D1*
Y998220D1*
Y994410D1*
Y990600D1*
Y986790D1*
Y982980D1*
Y979170D1*
Y975360D1*
Y971550D1*
Y967740D1*
Y963930D1*
Y960120D1*
Y956310D1*
Y952500D1*
Y948690D1*
Y944880D1*
Y941070D1*
Y937260D1*
Y933450D1*
Y929640D1*
Y925830D1*
Y922020D1*
Y918210D1*
Y914400D1*
Y910590D1*
Y906780D1*
Y902970D1*
Y899160D1*
Y895350D1*
Y891540D1*
Y887730D1*
Y883920D1*
Y880110D1*
Y876300D1*
Y872490D1*
X-1023620D1*
Y868680D1*
Y864870D1*
Y861060D1*
Y857250D1*
Y853440D1*
X-2303780Y1051560D2*
X-2310651Y1047750D1*
X-2316675Y1043940D1*
X-2321627Y1040130D1*
X-2325555Y1036320D1*
X-2328571Y1032510D1*
X-2330877Y1028700D1*
X-2332515Y1024890D1*
X-2333448Y1021080D1*
X-2333779Y1017270D1*
X-2333481Y1013460D1*
X-2332502Y1009650D1*
X-2330921Y1005840D1*
X-2328721Y1002030D1*
X-2325833Y998220D1*
X-2322336Y994410D1*
X-2318093Y990600D1*
X-2312773Y986790D1*
X-2306035Y982980D1*
X-2297282Y979170D1*
X-2286037Y975360D1*
X-2273300Y971550D1*
X-2288540Y1051560D2*
X-2281669Y1047750D1*
X-2275645Y1043940D1*
X-2270708Y1040130D1*
X-2266899Y1036320D1*
X-2264234Y1032510D1*
X-2262356Y1028700D1*
X-2260782Y1024890D1*
X-2259522Y1021080D1*
X-2258761Y1017270D1*
X-2258500Y1013460D1*
X-2258809Y1009650D1*
X-2259664Y1005840D1*
X-2260748Y1002030D1*
X-2261903Y998220D1*
X-2263314Y994410D1*
X-2265086Y990600D1*
X-2267408Y986790D1*
X-2270746Y982980D1*
X-2275871Y979170D1*
X-2283382Y975360D1*
X-2292350Y971550D1*
X-2143760Y1047750D2*
X-2150616Y1043940D1*
X-2156521Y1040130D1*
X-2161106Y1036320D1*
X-2164474Y1032510D1*
X-2166955Y1028700D1*
X-2168794Y1024890D1*
X-2170253Y1021080D1*
X-2171639Y1017270D1*
X-2172823Y1013460D1*
X-2173570Y1009650D1*
X-2173969Y1005840D1*
X-2174276Y1002030D1*
X-2174832Y998220D1*
X-2175772Y994410D1*
X-2176759Y990600D1*
X-2177427Y986790D1*
X-2177781Y982980D1*
X-2177943Y979170D1*
X-2178010Y975360D1*
X-2178036Y971550D1*
X-2178045Y967740D1*
X-2178048Y963930D1*
X-2178049Y960120D1*
X-2178050Y956310D1*
Y952500D1*
Y948690D1*
Y944880D1*
Y941070D1*
Y937260D1*
X-2178035Y933450D1*
X-2177901Y929640D1*
X-2177416Y925830D1*
X-2176503Y922020D1*
X-2175526Y918210D1*
X-2174847Y914400D1*
X-2174360Y910590D1*
X-2173712Y906780D1*
X-2172718Y902970D1*
X-2171582Y899160D1*
X-2170407Y895350D1*
X-2168990Y891540D1*
X-2167201Y887730D1*
X-2164684Y883920D1*
X-2161333Y880110D1*
X-2152117Y876300D1*
X-2138063Y872490D1*
X-2120900Y868680D1*
X-2132330Y1047750D2*
X-2125015Y1043940D1*
X-2118535Y1040130D1*
X-2113510Y1036320D1*
X-2109892Y1032510D1*
X-2107186Y1028700D1*
X-2105057Y1024890D1*
X-2103379Y1021080D1*
X-2101988Y1017270D1*
X-2100626Y1013460D1*
X-2099452Y1009650D1*
X-2098708Y1005840D1*
X-2098325Y1002030D1*
X-2098152Y998220D1*
X-2098082Y994410D1*
X-2098055Y990600D1*
X-2098045Y986790D1*
X-2098027Y982980D1*
X-2097892Y979170D1*
X-2097406Y975360D1*
X-2096493Y971550D1*
X-2095516Y967740D1*
X-2094852Y963930D1*
X-2094513Y960120D1*
X-2094486Y956310D1*
X-2094904Y952500D1*
X-2095791Y948690D1*
X-2096759Y944880D1*
X-2097420Y941070D1*
X-2097772Y937260D1*
X-2097933Y933450D1*
X-2098000Y929640D1*
X-2098026Y925830D1*
X-2098035Y922020D1*
X-2098053Y918210D1*
X-2098188Y914400D1*
X-2098674Y910590D1*
X-2099602Y906780D1*
X-2100713Y902970D1*
X-2101877Y899160D1*
X-2103277Y895350D1*
X-2104931Y891540D1*
X-2106873Y887730D1*
X-2109586Y883920D1*
X-2113226Y880110D1*
X-2123093Y876300D1*
X-2137638Y872490D1*
X-2155190Y868680D1*
X-913130Y1047750D2*
X-923208Y1043940D1*
X-931962Y1040130D1*
X-939223Y1036320D1*
X-945113Y1032510D1*
X-949623Y1028700D1*
X-952953Y1024890D1*
X-955527Y1021080D1*
X-957721Y1017270D1*
X-959736Y1013460D1*
X-961672Y1009650D1*
X-963469Y1005840D1*
X-965016Y1002030D1*
X-966359Y998220D1*
X-967703Y994410D1*
X-968871Y990600D1*
X-969613Y986790D1*
X-969995Y982980D1*
X-970168Y979170D1*
X-970238Y975360D1*
X-970265Y971550D1*
X-970275Y967740D1*
X-970278Y963930D1*
X-970279Y960120D1*
X-970280Y956310D1*
Y952500D1*
Y948690D1*
Y944880D1*
Y941070D1*
X-970265Y937260D1*
X-970131Y933450D1*
X-969646Y929640D1*
X-968718Y925830D1*
X-967607Y922020D1*
X-966443Y918210D1*
X-965043Y914400D1*
X-963404Y910590D1*
X-961611Y906780D1*
X-959636Y902970D1*
X-957387Y899160D1*
X-954911Y895350D1*
X-952313Y891540D1*
X-949156Y887730D1*
X-944759Y883920D1*
X-937927Y880110D1*
X-925845Y876300D1*
X-906442Y872490D1*
X-882650Y868680D1*
X-901700Y1047750D2*
X-891179Y1043940D1*
X-881968Y1040130D1*
X-874619Y1036320D1*
X-868904Y1032510D1*
X-864220Y1028700D1*
X-860169Y1024890D1*
X-856713Y1021080D1*
X-853910Y1017270D1*
X-851677Y1013460D1*
X-849938Y1009650D1*
X-848517Y1005840D1*
X-847144Y1002030D1*
X-845950Y998220D1*
X-845070Y994410D1*
X-844201Y990600D1*
X-843116Y986790D1*
X-842068Y982980D1*
X-841377Y979170D1*
X-841014Y975360D1*
X-840849Y971550D1*
X-840781Y967740D1*
X-840754Y963930D1*
X-840745Y960120D1*
X-840742Y956310D1*
X-840741Y952500D1*
X-840740Y948690D1*
X-840755Y944880D1*
X-840889Y941070D1*
X-841374Y937260D1*
X-842287Y933450D1*
X-843279Y929640D1*
X-844077Y925830D1*
X-844916Y922020D1*
X-846005Y918210D1*
X-847183Y914400D1*
X-848373Y910590D1*
X-849797Y906780D1*
X-851573Y902970D1*
X-853853Y899160D1*
X-856756Y895350D1*
X-860130Y891540D1*
X-863905Y887730D1*
X-868538Y883920D1*
X-875658Y880110D1*
X-888221Y876300D1*
X-908042Y872490D1*
X-932180Y868680D1*
X-2418080Y1043940D2*
X-2418829Y1040130D1*
X-2420396Y1036320D1*
X-2422796Y1032510D1*
X-2425501Y1028700D1*
X-2428116Y1024890D1*
X-2430709Y1021080D1*
X-2433329Y1017270D1*
X-2435844Y1013460D1*
X-2438377Y1009650D1*
X-2440968Y1005840D1*
X-2443471Y1002030D1*
X-2445999Y998220D1*
X-2448589Y994410D1*
X-2451092Y990600D1*
X-2453619Y986790D1*
X-2456209Y982980D1*
X-2458726Y979170D1*
X-2461373Y975360D1*
X-2464315Y971550D1*
X-2467259Y967740D1*
X-2469970Y963930D1*
X-2472599Y960120D1*
X-2475232Y956310D1*
X-2477752Y952500D1*
X-2480286Y948690D1*
X-2482878Y944880D1*
X-2485381Y941070D1*
X-2487909Y937260D1*
X-2490499Y933450D1*
X-2493002Y929640D1*
X-2495529Y925830D1*
X-2498119Y922020D1*
X-2500636Y918210D1*
X-2503283Y914400D1*
X-2506225Y910590D1*
X-2509169Y906780D1*
X-2511880Y902970D1*
X-2514509Y899160D1*
X-2517142Y895350D1*
X-2519662Y891540D1*
X-2522196Y887730D1*
X-2524773Y883920D1*
X-2527142Y880110D1*
X-2529170Y876300D1*
X-2530698Y872490D1*
X-2531605Y868680D1*
X-2532055Y864870D1*
X-2532253Y861060D1*
X-2532336Y857250D1*
X-2532380Y853440D1*
X-1918970Y1043940D2*
Y1040130D1*
Y1036320D1*
Y1032510D1*
Y1028700D1*
Y1024890D1*
Y1021080D1*
Y1017270D1*
Y1013460D1*
Y1009650D1*
Y1005840D1*
Y1002030D1*
Y998220D1*
Y994410D1*
Y990600D1*
Y986790D1*
Y982980D1*
Y979170D1*
Y975360D1*
X-1865630Y1043940D2*
X-1858315Y1040130D1*
X-1851835Y1036320D1*
X-1846825Y1032510D1*
X-1843340Y1028700D1*
X-1840736Y1024890D1*
X-1839823Y1021080D1*
X-1839328Y1017270D1*
X-1839104Y1013460D1*
X-1839028Y1009650D1*
X-1839128Y1005840D1*
X-1839616Y1002030D1*
X-1840673Y998220D1*
X-1842312Y994410D1*
X-1844821Y990600D1*
X-1848965Y986790D1*
X-1855380Y982980D1*
X-1863854Y979170D1*
X-1873250Y975360D1*
X-1732280Y1013460D2*
X-1739740Y1009650D1*
X-1746723Y1005840D1*
X-1752795Y1002030D1*
X-1757876Y998220D1*
X-1762174Y994410D1*
X-1765752Y990600D1*
X-1768623Y986790D1*
X-1770995Y982980D1*
X-1773109Y979170D1*
X-1775093Y975360D1*
X-1777017Y971550D1*
X-1778796Y967740D1*
X-1780208Y963930D1*
X-1781065Y960120D1*
X-1781511Y956310D1*
X-1781836Y952500D1*
X-1782399Y948690D1*
X-1783341Y944880D1*
X-1784328Y941070D1*
X-1784996Y937260D1*
X-1785336Y933450D1*
X-1785364Y929640D1*
X-1784946Y925830D1*
X-1784059Y922020D1*
X-1783091Y918210D1*
X-1782430Y914400D1*
X-1782063Y910590D1*
X-1781768Y906780D1*
X-1781201Y902970D1*
X-1780129Y899160D1*
X-1778642Y895350D1*
X-1776928Y891540D1*
X-1775096Y887730D1*
X-1773208Y883920D1*
X-1771177Y880110D1*
X-1768778Y876300D1*
X-1765825Y872490D1*
X-1762431Y868680D1*
X-1758648Y864870D1*
X-1754137Y861060D1*
X-1748235Y857250D1*
X-1740696Y853440D1*
X-1732280Y849630D1*
X-1697990Y1013460D2*
X-1688771Y1009650D1*
X-1680694Y1005840D1*
X-1674083Y1002030D1*
X-1668875Y998220D1*
X-1664830Y994410D1*
X-1661641Y990600D1*
X-1658821Y986790D1*
X-1656131Y982980D1*
X-1653720Y979170D1*
X-1651678Y975360D1*
X-1650129Y971550D1*
X-1649087Y967740D1*
X-1648151Y963930D1*
X-1647040Y960120D1*
X-1645983Y956310D1*
X-1645288Y952500D1*
X-1644924Y948690D1*
X-1644759Y944880D1*
X-1644691Y941070D1*
X-1644664Y937260D1*
X-1644655Y933450D1*
X-1644652Y929640D1*
X-1644651Y925830D1*
X-1644650Y922020D1*
X-1644665Y918210D1*
X-1644799Y914400D1*
X-1645284Y910590D1*
X-1646197Y906780D1*
X-1647189Y902970D1*
X-1647987Y899160D1*
X-1648841Y895350D1*
X-1650049Y891540D1*
X-1651593Y887730D1*
X-1653345Y883920D1*
X-1655318Y880110D1*
X-1657695Y876300D1*
X-1660655Y872490D1*
X-1664179Y868680D1*
X-1668446Y864870D1*
X-1673870Y861060D1*
X-1680760Y857250D1*
X-1689020Y853440D1*
X-1697990Y849630D1*
X-1587500Y1013460D2*
X-1597596Y1009650D1*
X-1605382Y1005840D1*
X-1608446Y1002030D1*
X-1609482Y998220D1*
X-1610006Y994410D1*
X-1610228Y990600D1*
X-1610315Y986790D1*
X-1610360Y982980D1*
X-1541780Y1013460D2*
X-1532576Y1009650D1*
X-1524633Y1005840D1*
X-1518492Y1002030D1*
X-1514078Y998220D1*
X-1510673Y994410D1*
X-1507855Y990600D1*
X-1505810Y986790D1*
X-1504507Y982980D1*
X-1503451Y979170D1*
X-1502290Y975360D1*
X-1501214Y971550D1*
X-1500512Y967740D1*
X-1500145Y963930D1*
X-1499979Y960120D1*
X-1499911Y956310D1*
X-1499885Y952500D1*
X-1499875Y948690D1*
X-1499872Y944880D1*
X-1499871Y941070D1*
X-1499870Y937260D1*
Y933450D1*
Y929640D1*
Y925830D1*
Y922020D1*
Y918210D1*
Y914400D1*
Y910590D1*
Y906780D1*
Y902970D1*
Y899160D1*
Y895350D1*
Y891540D1*
Y887730D1*
Y883920D1*
Y880110D1*
Y876300D1*
Y872490D1*
Y868680D1*
Y864870D1*
Y861060D1*
Y857250D1*
Y853440D1*
X-1313180Y1013460D2*
X-1320640Y1009650D1*
X-1327623Y1005840D1*
X-1333680Y1002030D1*
X-1338643Y998220D1*
X-1342589Y994410D1*
X-1345740Y990600D1*
X-1348546Y986790D1*
X-1351231Y982980D1*
X-1353641Y979170D1*
X-1355697Y975360D1*
X-1357365Y971550D1*
X-1358758Y967740D1*
X-1360122Y963930D1*
X-1361297Y960120D1*
X-1362041Y956310D1*
X-1362440Y952500D1*
X-1362746Y948690D1*
X-1363302Y944880D1*
X-1364242Y941070D1*
X-1365229Y937260D1*
X-1365882Y933450D1*
X-1366102Y929640D1*
X-1365779Y925830D1*
X-1364933Y922020D1*
X-1363982Y918210D1*
X-1363327Y914400D1*
X-1362962Y910590D1*
X-1362667Y906780D1*
X-1362115Y902970D1*
X-1361162Y899160D1*
X-1360042Y895350D1*
X-1358874Y891540D1*
X-1357473Y887730D1*
X-1355834Y883920D1*
X-1354041Y880110D1*
X-1352051Y876300D1*
X-1349669Y872490D1*
X-1346707Y868680D1*
X-1343181Y864870D1*
X-1338929Y861060D1*
X-1333664Y857250D1*
X-1327448Y853440D1*
X-1320800Y849630D1*
X-1278890Y1013460D2*
X-1270570Y1009650D1*
X-1261613Y1005840D1*
X-1252220Y1002030D1*
X-1461770Y1009650D2*
Y1005840D1*
Y1002030D1*
Y998220D1*
Y994410D1*
Y990600D1*
Y986790D1*
Y982980D1*
Y979170D1*
Y975360D1*
Y971550D1*
Y967740D1*
Y963930D1*
Y960120D1*
Y956310D1*
Y952500D1*
Y948690D1*
Y944880D1*
Y941070D1*
Y937260D1*
Y933450D1*
Y929640D1*
Y925830D1*
Y922020D1*
Y918210D1*
Y914400D1*
Y910590D1*
Y906780D1*
Y902970D1*
Y899160D1*
Y895350D1*
Y891540D1*
Y887730D1*
Y883920D1*
Y880110D1*
Y876300D1*
Y872490D1*
Y868680D1*
Y864870D1*
Y861060D1*
Y857250D1*
Y853440D1*
X-1435100Y1009650D2*
X-1435070Y1005840D1*
X-1434780Y1002030D1*
X-1434088Y998220D1*
X-1431119Y994410D1*
X-1427480Y990600D1*
X-1397000Y1009650D2*
X-1405660Y1005840D1*
X-1413083Y1002030D1*
X-1419905Y998220D1*
X-1427223Y994410D1*
X-1435100Y990600D1*
X-1377950Y1009650D2*
Y1005840D1*
Y1002030D1*
Y998220D1*
Y994410D1*
Y990600D1*
Y986790D1*
X-1396107Y982980D1*
X-1410129Y979170D1*
X-1420288Y975360D1*
X-1428197Y971550D1*
X-1432120Y967740D1*
X-1433674Y963930D1*
X-1434501Y960120D1*
X-1434868Y956310D1*
X-1435015Y952500D1*
X-1435070Y948690D1*
X-1435090Y944880D1*
X-1435097Y941070D1*
X-1435099Y937260D1*
X-1435100Y933450D1*
Y929640D1*
Y925830D1*
Y922020D1*
Y918210D1*
Y914400D1*
Y910590D1*
Y906780D1*
Y902970D1*
Y899160D1*
Y895350D1*
Y891540D1*
Y887730D1*
Y883920D1*
Y880110D1*
Y876300D1*
Y872490D1*
Y868680D1*
Y864870D1*
Y861060D1*
Y857250D1*
Y853440D1*
X-1720850Y994410D2*
X-1728295Y990600D1*
X-1735144Y986790D1*
X-1740731Y982980D1*
X-1744900Y979170D1*
X-1748206Y975360D1*
X-1750985Y971550D1*
X-1753017Y967740D1*
X-1754315Y963930D1*
X-1755370Y960120D1*
X-1756530Y956310D1*
X-1757606Y952500D1*
X-1758308Y948690D1*
X-1758675Y944880D1*
X-1758841Y941070D1*
X-1758909Y937260D1*
X-1758935Y933450D1*
X-1758945Y929640D1*
X-1758948Y925830D1*
X-1758935Y922020D1*
X-1758801Y918210D1*
X-1758316Y914400D1*
X-1757388Y910590D1*
X-1756277Y906780D1*
X-1755113Y902970D1*
X-1753713Y899160D1*
X-1752074Y895350D1*
X-1750266Y891540D1*
X-1748127Y887730D1*
X-1745587Y883920D1*
X-1739642Y880110D1*
X-1729516Y876300D1*
X-1713602Y872490D1*
X-1694180Y868680D1*
X-1705610Y994410D2*
X-1698739Y990600D1*
X-1692701Y986790D1*
X-1687629Y982980D1*
X-1683335Y979170D1*
X-1679757Y975360D1*
X-1676902Y971550D1*
X-1674663Y967740D1*
X-1673036Y963930D1*
X-1671964Y960120D1*
X-1671017Y956310D1*
X-1669902Y952500D1*
X-1668844Y948690D1*
X-1668149Y944880D1*
X-1667784Y941070D1*
X-1667619Y937260D1*
X-1667551Y933450D1*
X-1667524Y929640D1*
X-1667530Y925830D1*
X-1667660Y922020D1*
X-1668145Y918210D1*
X-1669057Y914400D1*
X-1670049Y910590D1*
X-1670847Y906780D1*
X-1671701Y902970D1*
X-1672924Y899160D1*
X-1674602Y895350D1*
X-1676839Y891540D1*
X-1679740Y887730D1*
X-1683346Y883920D1*
X-1688605Y880110D1*
X-1697989Y876300D1*
X-1713322Y872490D1*
X-1732280Y868680D1*
X-1568450Y994410D2*
X-1582289Y990600D1*
X-1594855Y986790D1*
X-1606550Y982980D1*
X-1557020Y994410D2*
X-1547102Y990600D1*
X-1538985Y986790D1*
X-1532465Y982980D1*
X-1529114Y979170D1*
X-1527774Y975360D1*
X-1527060Y971550D1*
X-1526741Y967740D1*
X-1526610Y963930D1*
X-1526540Y960120D1*
X-1548426Y956310D1*
X-1567392Y952500D1*
X-1582238Y948690D1*
X-1593274Y944880D1*
X-1601406Y941070D1*
X-1607340Y937260D1*
X-1611570Y933450D1*
X-1614874Y929640D1*
X-1617645Y925830D1*
X-1619671Y922020D1*
X-1620967Y918210D1*
X-1622021Y914400D1*
X-1623180Y910590D1*
X-1624256Y906780D1*
X-1624943Y902970D1*
X-1625176Y899160D1*
X-1624856Y895350D1*
X-1623997Y891540D1*
X-1622913Y887730D1*
X-1621758Y883920D1*
X-1620361Y880110D1*
X-1618723Y876300D1*
X-1616931Y872490D1*
X-1614926Y868680D1*
X-1612395Y864870D1*
X-1608814Y861060D1*
X-1603905Y857250D1*
X-1597858Y853440D1*
X-1591310Y849630D1*
X-1301750Y994410D2*
X-1308621Y990600D1*
X-1314659Y986790D1*
X-1319731Y982980D1*
X-1324025Y979170D1*
X-1327603Y975360D1*
X-1330458Y971550D1*
X-1332711Y967740D1*
X-1334458Y963930D1*
X-1335882Y960120D1*
X-1337256Y956310D1*
X-1338435Y952500D1*
X-1339181Y948690D1*
X-1339565Y944880D1*
X-1339737Y941070D1*
X-1339808Y937260D1*
X-1339835Y933450D1*
X-1339845Y929640D1*
X-1339848Y925830D1*
X-1339849Y922020D1*
X-1339835Y918210D1*
X-1339701Y914400D1*
X-1339216Y910590D1*
X-1338288Y906780D1*
X-1337177Y902970D1*
X-1336013Y899160D1*
X-1334613Y895350D1*
X-1332959Y891540D1*
X-1331017Y887730D1*
X-1328304Y883920D1*
X-1324664Y880110D1*
X-1314797Y876300D1*
X-1300252Y872490D1*
X-1282700Y868680D1*
X-1286510Y994410D2*
X-1276149Y990600D1*
X-1267575Y986790D1*
X-1260801Y982980D1*
X-1257920Y979170D1*
X-1256906Y975360D1*
X-1256387Y971550D1*
X-1256165Y967740D1*
X-1256078Y963930D1*
X-1256046Y960120D1*
X-1256035Y956310D1*
X-1256032Y952500D1*
X-1256031Y948690D1*
X-1256030Y944880D1*
Y941070D1*
Y937260D1*
Y933450D1*
Y929640D1*
Y925830D1*
Y922020D1*
Y918210D1*
Y914400D1*
Y910590D1*
Y906780D1*
X-1256045Y902970D1*
X-1256194Y899160D1*
X-1256843Y895350D1*
X-1258076Y891540D1*
X-1261451Y887730D1*
X-1266023Y883920D1*
X-1272700Y880110D1*
X-1283675Y876300D1*
X-1300506Y872490D1*
X-1320800Y868680D1*
X-2307590Y960120D2*
X-2314446Y956310D1*
X-2320351Y952500D1*
X-2324936Y948690D1*
X-2328319Y944880D1*
X-2330919Y941070D1*
X-2333110Y937260D1*
X-2334995Y933450D1*
X-2336446Y929640D1*
X-2337317Y925830D1*
X-2337753Y922020D1*
X-2337946Y918210D1*
X-2338024Y914400D1*
X-2338039Y910590D1*
X-2337916Y906780D1*
X-2337419Y902970D1*
X-2336359Y899160D1*
X-2334748Y895350D1*
X-2332537Y891540D1*
X-2329645Y887730D1*
X-2326042Y883920D1*
X-2320784Y880110D1*
X-2311401Y876300D1*
X-2296068Y872490D1*
X-2277110Y868680D1*
X-2319020Y960120D2*
X-2308339Y956310D1*
X-2298491Y952500D1*
X-2289609Y948690D1*
X-2281519Y944880D1*
X-2274281Y941070D1*
X-2268250Y937260D1*
X-2263734Y933450D1*
X-2260700Y929640D1*
X-2258655Y925830D1*
X-2257012Y922020D1*
X-2255727Y918210D1*
X-2254941Y914400D1*
X-2254557Y910590D1*
X-2254514Y906780D1*
X-2254942Y902970D1*
X-2255961Y899160D1*
X-2257428Y895350D1*
X-2259165Y891540D1*
X-2261278Y887730D1*
X-2263805Y883920D1*
X-2269749Y880110D1*
X-2279875Y876300D1*
X-2295788Y872490D1*
X-2315210Y868680D1*
X-1918970Y956310D2*
Y952500D1*
Y948690D1*
Y944880D1*
Y941070D1*
Y937260D1*
Y933450D1*
Y929640D1*
Y925830D1*
Y922020D1*
Y918210D1*
Y914400D1*
Y910590D1*
Y906780D1*
Y902970D1*
Y899160D1*
Y895350D1*
Y891540D1*
Y887730D1*
Y883920D1*
Y880110D1*
Y876300D1*
Y872490D1*
X-1861820Y956310D2*
X-1854360Y952500D1*
X-1847392Y948690D1*
X-1841468Y944880D1*
X-1836992Y941070D1*
X-1833973Y937260D1*
X-1831933Y933450D1*
X-1830292Y929640D1*
X-1829006Y925830D1*
X-1828221Y922020D1*
X-1827823Y918210D1*
X-1827660Y914400D1*
X-1827722Y910590D1*
X-1828194Y906780D1*
X-1829246Y902970D1*
X-1830854Y899160D1*
X-1833079Y895350D1*
X-1836119Y891540D1*
X-1840252Y887730D1*
X-1846040Y883920D1*
X-1853822Y880110D1*
X-1863196Y876300D1*
X-1873250Y872490D1*
X-1518920Y937260D2*
X-1542275Y933450D1*
X-1561343Y929640D1*
X-1574782Y925830D1*
X-1583625Y922020D1*
X-1589600Y918210D1*
X-1593739Y914400D1*
X-1596833Y910590D1*
X-1597913Y906780D1*
X-1598497Y902970D1*
X-1598746Y899160D1*
X-1598719Y895350D1*
X-1598259Y891540D1*
X-1597197Y887730D1*
X-1595338Y883920D1*
X-1592700Y880110D1*
X-1583256Y876300D1*
X-1568146Y872490D1*
X-1549400Y868680D1*
X-1526540Y937260D2*
Y933450D1*
Y929640D1*
Y925830D1*
Y922020D1*
Y918210D1*
Y914400D1*
Y910590D1*
Y906780D1*
X-1526555Y902970D1*
X-1526704Y899160D1*
X-1527338Y895350D1*
X-1528900Y891540D1*
X-1531572Y887730D1*
X-1535499Y883920D1*
X-1541603Y880110D1*
X-1551948Y876300D1*
X-1567993Y872490D1*
X-1587500Y868680D1*
X-2383790Y872490D2*
Y868680D1*
Y864870D1*
Y861060D1*
Y857250D1*
Y853440D1*
X-1530350Y868680D2*
X-1534779Y864870D1*
X-1539824Y861060D1*
X-1545808Y857250D1*
X-1552948Y853440D1*
X-1560830Y849630D1*
X-1526540Y868680D2*
Y864870D1*
Y861060D1*
Y857250D1*
Y853440D1*
X-1259840Y868680D2*
X-1264399Y864870D1*
X-1269790Y861060D1*
X-1276130Y857250D1*
X-1283102Y853440D1*
X-1290320Y849630D1*
X-1256030Y868680D2*
Y864870D1*
Y861060D1*
Y857250D1*
Y853440D1*
X-2905760Y-5895340D2*
Y-5899150D1*
Y-5902960D1*
Y-5906770D1*
Y-5910580D1*
Y-5914390D1*
Y-5918200D1*
Y-5922010D1*
Y-5925820D1*
Y-5929630D1*
Y-5933440D1*
Y-5937250D1*
Y-5941060D1*
Y-5944870D1*
Y-5948680D1*
Y-5952490D1*
Y-5956300D1*
Y-5960110D1*
Y-5963920D1*
Y-5967730D1*
Y-5971540D1*
Y-5975350D1*
Y-5979160D1*
Y-5982970D1*
Y-5986780D1*
Y-5990590D1*
Y-5994400D1*
Y-5998210D1*
Y-6002020D1*
Y-6005830D1*
Y-6009640D1*
Y-6013450D1*
Y-6017260D1*
Y-6021070D1*
Y-6024880D1*
Y-6028690D1*
Y-6032500D1*
Y-6036310D1*
Y-6040120D1*
Y-6043930D1*
Y-6047740D1*
Y-6051550D1*
Y-6055360D1*
Y-6059170D1*
Y-6062980D1*
X-2886710Y-5895340D2*
Y-5899150D1*
Y-5902960D1*
Y-5906770D1*
Y-5910580D1*
Y-5914390D1*
Y-5918200D1*
Y-5922010D1*
Y-5925820D1*
Y-5929630D1*
Y-5933440D1*
Y-5937250D1*
Y-5941060D1*
Y-5944870D1*
Y-5948680D1*
Y-5952490D1*
Y-5956300D1*
Y-5960110D1*
Y-5963920D1*
Y-5967730D1*
Y-5971540D1*
Y-5975350D1*
Y-5979160D1*
Y-5982970D1*
Y-5986780D1*
Y-5990590D1*
Y-5994400D1*
Y-5998210D1*
Y-6002020D1*
Y-6005830D1*
Y-6009640D1*
Y-6013450D1*
Y-6017260D1*
Y-6021070D1*
Y-6024880D1*
Y-6028690D1*
Y-6032500D1*
Y-6036310D1*
Y-6040120D1*
Y-6043930D1*
Y-6047740D1*
Y-6051550D1*
Y-6055360D1*
Y-6059170D1*
Y-6062980D1*
X-2680970Y-5895340D2*
Y-5899150D1*
Y-5902960D1*
Y-5906770D1*
Y-5910580D1*
Y-5914390D1*
Y-5918200D1*
Y-5922010D1*
Y-5925820D1*
Y-5929630D1*
Y-5933440D1*
Y-5937250D1*
Y-5941060D1*
Y-5944870D1*
Y-5948680D1*
Y-5952490D1*
Y-5956300D1*
Y-5960110D1*
Y-5963920D1*
Y-5967730D1*
Y-5971540D1*
Y-5975350D1*
Y-5979160D1*
Y-5982970D1*
Y-5986780D1*
Y-5990590D1*
Y-5994400D1*
Y-5998210D1*
Y-6002020D1*
Y-6005830D1*
Y-6009640D1*
Y-6013450D1*
Y-6017260D1*
Y-6021070D1*
Y-6024880D1*
Y-6028690D1*
Y-6032500D1*
Y-6036310D1*
Y-6040120D1*
Y-6043930D1*
Y-6047740D1*
Y-6051550D1*
Y-6055360D1*
Y-6059170D1*
Y-6062980D1*
X-2661920Y-5895340D2*
Y-5899150D1*
Y-5902960D1*
Y-5906770D1*
Y-5910580D1*
Y-5914390D1*
Y-5918200D1*
Y-5922010D1*
Y-5925820D1*
Y-5929630D1*
Y-5933440D1*
Y-5937250D1*
X-2661905Y-5941060D1*
X-2661760Y-5944870D1*
X-2661171Y-5948680D1*
X-2659869Y-5952490D1*
X-2658110Y-5956300D1*
X-2856230Y-5902960D2*
Y-5906770D1*
Y-5910580D1*
Y-5914390D1*
Y-5918200D1*
Y-5922010D1*
X-2837180Y-5902960D2*
Y-5906770D1*
Y-5910580D1*
Y-5914390D1*
Y-5918200D1*
Y-5922010D1*
X-2170430Y-5902960D2*
Y-5906770D1*
Y-5910580D1*
Y-5914390D1*
Y-5918200D1*
Y-5922010D1*
X-2151380Y-5902960D2*
Y-5906770D1*
Y-5910580D1*
Y-5914390D1*
Y-5918200D1*
Y-5922010D1*
X-1968500Y-5902960D2*
Y-5906770D1*
Y-5910580D1*
Y-5914390D1*
Y-5918200D1*
Y-5922010D1*
X-1949450Y-5902960D2*
Y-5906770D1*
Y-5910580D1*
Y-5914390D1*
Y-5918200D1*
Y-5922010D1*
X-1370330Y-5902960D2*
Y-5906770D1*
Y-5910580D1*
Y-5914390D1*
Y-5918200D1*
Y-5922010D1*
X-1351280Y-5902960D2*
Y-5906770D1*
Y-5910580D1*
Y-5914390D1*
Y-5918200D1*
Y-5922010D1*
X-2551430Y-5910580D2*
Y-5914390D1*
Y-5918200D1*
Y-5922010D1*
Y-5925820D1*
Y-5929630D1*
Y-5933440D1*
Y-5937250D1*
Y-5941060D1*
Y-5944870D1*
X-2566670D1*
Y-5948680D1*
Y-5952490D1*
Y-5956300D1*
Y-5960110D1*
Y-5963920D1*
X-2551430D1*
Y-5967730D1*
Y-5971540D1*
Y-5975350D1*
Y-5979160D1*
Y-5982970D1*
Y-5986780D1*
Y-5990590D1*
Y-5994400D1*
Y-5998210D1*
Y-6002020D1*
Y-6005830D1*
Y-6009640D1*
Y-6013450D1*
Y-6017260D1*
Y-6021070D1*
Y-6024880D1*
Y-6028690D1*
Y-6032500D1*
X-2551415Y-6036310D1*
X-2551281Y-6040120D1*
X-2550781Y-6043930D1*
X-2549719Y-6047740D1*
X-2548093Y-6051550D1*
X-2545737Y-6055360D1*
X-2542274Y-6059170D1*
X-2537645Y-6062980D1*
X-2532380Y-6066790D1*
X-2536190Y-5910580D2*
Y-5914390D1*
Y-5918200D1*
Y-5922010D1*
Y-5925820D1*
Y-5929630D1*
Y-5933440D1*
Y-5937250D1*
Y-5941060D1*
Y-5944870D1*
X-2498090D1*
Y-5948680D1*
Y-5952490D1*
Y-5956300D1*
Y-5960110D1*
Y-5963920D1*
X-2536190D1*
Y-5967730D1*
Y-5971540D1*
Y-5975350D1*
Y-5979160D1*
Y-5982970D1*
Y-5986780D1*
Y-5990590D1*
Y-5994400D1*
Y-5998210D1*
Y-6002020D1*
Y-6005830D1*
Y-6009640D1*
Y-6013450D1*
Y-6017260D1*
Y-6021070D1*
X-2536175Y-6024880D1*
X-2536041Y-6028690D1*
X-2535526Y-6032500D1*
X-2534605Y-6036310D1*
X-2532229Y-6040120D1*
X-2524833Y-6043930D1*
X-2512895Y-6047740D1*
X-2498090Y-6051550D1*
X-2117090Y-5910580D2*
Y-5914390D1*
Y-5918200D1*
Y-5922010D1*
Y-5925820D1*
Y-5929630D1*
Y-5933440D1*
Y-5937250D1*
Y-5941060D1*
Y-5944870D1*
X-2132330D1*
Y-5948680D1*
Y-5952490D1*
Y-5956300D1*
Y-5960110D1*
Y-5963920D1*
X-2117090D1*
Y-5967730D1*
Y-5971540D1*
Y-5975350D1*
Y-5979160D1*
Y-5982970D1*
Y-5986780D1*
Y-5990590D1*
Y-5994400D1*
Y-5998210D1*
Y-6002020D1*
Y-6005830D1*
Y-6009640D1*
Y-6013450D1*
Y-6017260D1*
Y-6021070D1*
Y-6024880D1*
Y-6028690D1*
Y-6032500D1*
X-2117075Y-6036310D1*
X-2116941Y-6040120D1*
X-2116441Y-6043930D1*
X-2115379Y-6047740D1*
X-2113753Y-6051550D1*
X-2111397Y-6055360D1*
X-2107934Y-6059170D1*
X-2103305Y-6062980D1*
X-2098040Y-6066790D1*
X-2101850Y-5910580D2*
Y-5914390D1*
Y-5918200D1*
Y-5922010D1*
Y-5925820D1*
Y-5929630D1*
Y-5933440D1*
Y-5937250D1*
Y-5941060D1*
Y-5944870D1*
X-2063750D1*
Y-5948680D1*
Y-5952490D1*
Y-5956300D1*
Y-5960110D1*
Y-5963920D1*
X-2101850D1*
Y-5967730D1*
Y-5971540D1*
Y-5975350D1*
Y-5979160D1*
Y-5982970D1*
Y-5986780D1*
Y-5990590D1*
Y-5994400D1*
Y-5998210D1*
Y-6002020D1*
Y-6005830D1*
Y-6009640D1*
Y-6013450D1*
Y-6017260D1*
Y-6021070D1*
X-2101835Y-6024880D1*
X-2101701Y-6028690D1*
X-2101186Y-6032500D1*
X-2100265Y-6036310D1*
X-2097889Y-6040120D1*
X-2090493Y-6043930D1*
X-2078555Y-6047740D1*
X-2063750Y-6051550D1*
X-2040890Y-5910580D2*
Y-5914390D1*
Y-5918200D1*
Y-5922010D1*
Y-5925820D1*
Y-5929630D1*
Y-5933440D1*
Y-5937250D1*
Y-5941060D1*
Y-5944870D1*
X-2056130D1*
Y-5948680D1*
Y-5952490D1*
Y-5956300D1*
Y-5960110D1*
Y-5963920D1*
X-2040890D1*
Y-5967730D1*
Y-5971540D1*
Y-5975350D1*
Y-5979160D1*
Y-5982970D1*
Y-5986780D1*
Y-5990590D1*
Y-5994400D1*
Y-5998210D1*
Y-6002020D1*
Y-6005830D1*
Y-6009640D1*
Y-6013450D1*
Y-6017260D1*
Y-6021070D1*
Y-6024880D1*
Y-6028690D1*
Y-6032500D1*
X-2040875Y-6036310D1*
X-2040741Y-6040120D1*
X-2040241Y-6043930D1*
X-2039179Y-6047740D1*
X-2037553Y-6051550D1*
X-2035197Y-6055360D1*
X-2031734Y-6059170D1*
X-2027105Y-6062980D1*
X-2021840Y-6066790D1*
X-2025650Y-5910580D2*
Y-5914390D1*
Y-5918200D1*
Y-5922010D1*
Y-5925820D1*
Y-5929630D1*
Y-5933440D1*
Y-5937250D1*
Y-5941060D1*
Y-5944870D1*
X-1987550D1*
Y-5948680D1*
Y-5952490D1*
Y-5956300D1*
Y-5960110D1*
Y-5963920D1*
X-2025650D1*
Y-5967730D1*
Y-5971540D1*
Y-5975350D1*
Y-5979160D1*
Y-5982970D1*
Y-5986780D1*
Y-5990590D1*
Y-5994400D1*
Y-5998210D1*
Y-6002020D1*
Y-6005830D1*
Y-6009640D1*
Y-6013450D1*
Y-6017260D1*
Y-6021070D1*
X-2025635Y-6024880D1*
X-2025501Y-6028690D1*
X-2024986Y-6032500D1*
X-2024065Y-6036310D1*
X-2021689Y-6040120D1*
X-2014293Y-6043930D1*
X-2002355Y-6047740D1*
X-1987550Y-6051550D1*
X-1217930Y-5910580D2*
Y-5914390D1*
Y-5918200D1*
Y-5922010D1*
Y-5925820D1*
Y-5929630D1*
Y-5933440D1*
Y-5937250D1*
Y-5941060D1*
Y-5944870D1*
X-1233170D1*
Y-5948680D1*
Y-5952490D1*
Y-5956300D1*
Y-5960110D1*
Y-5963920D1*
X-1217930D1*
Y-5967730D1*
Y-5971540D1*
Y-5975350D1*
Y-5979160D1*
Y-5982970D1*
Y-5986780D1*
Y-5990590D1*
Y-5994400D1*
Y-5998210D1*
Y-6002020D1*
Y-6005830D1*
Y-6009640D1*
Y-6013450D1*
Y-6017260D1*
Y-6021070D1*
Y-6024880D1*
Y-6028690D1*
Y-6032500D1*
X-1217915Y-6036310D1*
X-1217781Y-6040120D1*
X-1217281Y-6043930D1*
X-1216219Y-6047740D1*
X-1214593Y-6051550D1*
X-1212237Y-6055360D1*
X-1208774Y-6059170D1*
X-1204145Y-6062980D1*
X-1198880Y-6066790D1*
X-1202690Y-5910580D2*
Y-5914390D1*
Y-5918200D1*
Y-5922010D1*
Y-5925820D1*
Y-5929630D1*
Y-5933440D1*
Y-5937250D1*
Y-5941060D1*
Y-5944870D1*
X-1164590D1*
Y-5948680D1*
Y-5952490D1*
Y-5956300D1*
Y-5960110D1*
Y-5963920D1*
X-1202690D1*
Y-5967730D1*
Y-5971540D1*
Y-5975350D1*
Y-5979160D1*
Y-5982970D1*
Y-5986780D1*
Y-5990590D1*
Y-5994400D1*
Y-5998210D1*
Y-6002020D1*
Y-6005830D1*
Y-6009640D1*
Y-6013450D1*
Y-6017260D1*
Y-6021070D1*
X-1202675Y-6024880D1*
X-1202541Y-6028690D1*
X-1202026Y-6032500D1*
X-1201105Y-6036310D1*
X-1198729Y-6040120D1*
X-1191333Y-6043930D1*
X-1179395Y-6047740D1*
X-1164590Y-6051550D1*
X-2776220Y-5941060D2*
X-2783091Y-5944870D1*
X-2789115Y-5948680D1*
X-2794067Y-5952490D1*
X-2797995Y-5956300D1*
X-2801026Y-5960110D1*
X-2803465Y-5963920D1*
X-2805590Y-5967730D1*
X-2807464Y-5971540D1*
X-2809040Y-5975350D1*
X-2810393Y-5979160D1*
X-2811741Y-5982970D1*
X-2812910Y-5986780D1*
X-2813653Y-5990590D1*
X-2814035Y-5994400D1*
X-2814208Y-5998210D1*
X-2814278Y-6002020D1*
X-2814305Y-6005830D1*
X-2814315Y-6009640D1*
X-2814303Y-6013450D1*
X-2814171Y-6017260D1*
X-2813685Y-6021070D1*
X-2812758Y-6024880D1*
X-2811647Y-6028690D1*
X-2810482Y-6032500D1*
X-2809068Y-6036310D1*
X-2807295Y-6040120D1*
X-2805017Y-6043930D1*
X-2802099Y-6047740D1*
X-2798595Y-6051550D1*
X-2794395Y-6055360D1*
X-2789365Y-6059170D1*
X-2783840Y-6062980D1*
X-2749550Y-5941060D2*
X-2736334Y-5944870D1*
X-2722880Y-5948680D1*
X-2635250Y-5941060D2*
X-2642278Y-5944870D1*
X-2648922Y-5948680D1*
X-2655398Y-5952490D1*
X-2661920Y-5956300D1*
X-2612390Y-5941060D2*
X-2606821Y-5944870D1*
X-2601932Y-5948680D1*
X-2597717Y-5952490D1*
X-2594296Y-5956300D1*
X-2591918Y-5960110D1*
X-2590460Y-5963920D1*
X-2589340Y-5967730D1*
X-2588154Y-5971540D1*
X-2587069Y-5975350D1*
X-2586364Y-5979160D1*
X-2585996Y-5982970D1*
X-2585829Y-5986780D1*
X-2585761Y-5990590D1*
X-2585735Y-5994400D1*
X-2585725Y-5998210D1*
X-2585722Y-6002020D1*
X-2585721Y-6005830D1*
X-2585720Y-6009640D1*
Y-6013450D1*
Y-6017260D1*
Y-6021070D1*
Y-6024880D1*
Y-6028690D1*
Y-6032500D1*
Y-6036310D1*
Y-6040120D1*
Y-6043930D1*
Y-6047740D1*
Y-6051550D1*
Y-6055360D1*
Y-6059170D1*
Y-6062980D1*
X-2444750Y-5941060D2*
X-2453380Y-5944870D1*
X-2460498Y-5948680D1*
X-2466003Y-5952490D1*
X-2470177Y-5956300D1*
X-2473308Y-5960110D1*
X-2475785Y-5963920D1*
X-2477923Y-5967730D1*
X-2479802Y-5971540D1*
X-2481379Y-5975350D1*
X-2482733Y-5979160D1*
X-2484081Y-5982970D1*
X-2485250Y-5986780D1*
X-2485992Y-5990590D1*
X-2486375Y-5994400D1*
X-2486548Y-5998210D1*
X-2486618Y-6002020D1*
X-2486645Y-6005830D1*
X-2486655Y-6009640D1*
X-2486643Y-6013450D1*
X-2486511Y-6017260D1*
X-2486025Y-6021070D1*
X-2485098Y-6024880D1*
X-2483987Y-6028690D1*
X-2482822Y-6032500D1*
X-2481408Y-6036310D1*
X-2479635Y-6040120D1*
X-2477357Y-6043930D1*
X-2474439Y-6047740D1*
X-2470916Y-6051550D1*
X-2466526Y-6055360D1*
X-2460674Y-6059170D1*
X-2453156Y-6062980D1*
X-2444750Y-6066790D1*
X-2418080Y-5941060D2*
X-2410753Y-5944870D1*
X-2404769Y-5948680D1*
X-2399985Y-5952490D1*
X-2396185Y-5956300D1*
X-2393237Y-5960110D1*
X-2390963Y-5963920D1*
X-2389322Y-5967730D1*
X-2388246Y-5971540D1*
X-2387297Y-5975350D1*
X-2386182Y-5979160D1*
X-2385124Y-5982970D1*
X-2384429Y-5986780D1*
X-2384064Y-5990590D1*
X-2383899Y-5994400D1*
X-2383831Y-5998210D1*
X-2383804Y-6002020D1*
X-2383790Y-6005830D1*
X-2319020Y-5941060D2*
X-2324745Y-5944870D1*
X-2330245Y-5948680D1*
X-2335940Y-5952490D1*
X-2341880Y-5956300D1*
X-2296160Y-5941060D2*
X-2290576Y-5944870D1*
X-2285527Y-5948680D1*
X-2280573Y-5952490D1*
X-2275206Y-5956300D1*
X-2269490Y-5960110D1*
X-2246630Y-5941060D2*
X-2253516Y-5944870D1*
X-2259700Y-5948680D1*
X-2265378Y-5952490D1*
X-2271139Y-5956300D1*
X-2277110Y-5960110D1*
X-2223770Y-5941060D2*
X-2218346Y-5944870D1*
X-2213945Y-5948680D1*
X-2210644Y-5952490D1*
X-2208199Y-5956300D1*
X-2206487Y-5960110D1*
X-2205382Y-5963920D1*
X-2204423Y-5967730D1*
X-2203304Y-5971540D1*
X-2202244Y-5975350D1*
X-2201549Y-5979160D1*
X-2201184Y-5982970D1*
X-2201019Y-5986780D1*
X-2200951Y-5990590D1*
X-2200924Y-5994400D1*
X-2200915Y-5998210D1*
X-2200912Y-6002020D1*
X-2200911Y-6005830D1*
X-2200910Y-6009640D1*
Y-6013450D1*
Y-6017260D1*
Y-6021070D1*
Y-6024880D1*
Y-6028690D1*
Y-6032500D1*
Y-6036310D1*
Y-6040120D1*
Y-6043930D1*
Y-6047740D1*
Y-6051550D1*
Y-6055360D1*
Y-6059170D1*
Y-6062980D1*
X-1873250Y-5941060D2*
X-1880278Y-5944870D1*
X-1886922Y-5948680D1*
X-1893398Y-5952490D1*
X-1899920Y-5956300D1*
X-1850390Y-5941060D2*
X-1844821Y-5944870D1*
X-1839932Y-5948680D1*
X-1835717Y-5952490D1*
X-1832296Y-5956300D1*
X-1829918Y-5960110D1*
X-1828460Y-5963920D1*
X-1827340Y-5967730D1*
X-1826154Y-5971540D1*
X-1825069Y-5975350D1*
X-1824364Y-5979160D1*
X-1823996Y-5982970D1*
X-1823829Y-5986780D1*
X-1823761Y-5990590D1*
X-1823735Y-5994400D1*
X-1823725Y-5998210D1*
X-1823722Y-6002020D1*
X-1823721Y-6005830D1*
X-1823720Y-6009640D1*
Y-6013450D1*
Y-6017260D1*
Y-6021070D1*
Y-6024880D1*
Y-6028690D1*
Y-6032500D1*
Y-6036310D1*
Y-6040120D1*
Y-6043930D1*
Y-6047740D1*
Y-6051550D1*
Y-6055360D1*
Y-6059170D1*
Y-6062980D1*
X-1762760Y-5941060D2*
X-1769631Y-5944870D1*
X-1775655Y-5948680D1*
X-1780607Y-5952490D1*
X-1784535Y-5956300D1*
X-1787566Y-5960110D1*
X-1790005Y-5963920D1*
X-1792130Y-5967730D1*
X-1794004Y-5971540D1*
X-1795580Y-5975350D1*
X-1796933Y-5979160D1*
X-1798281Y-5982970D1*
X-1799450Y-5986780D1*
X-1800193Y-5990590D1*
X-1800575Y-5994400D1*
X-1800748Y-5998210D1*
X-1800818Y-6002020D1*
X-1800845Y-6005830D1*
X-1800855Y-6009640D1*
X-1800843Y-6013450D1*
X-1800711Y-6017260D1*
X-1800225Y-6021070D1*
X-1799298Y-6024880D1*
X-1798187Y-6028690D1*
X-1797022Y-6032500D1*
X-1795608Y-6036310D1*
X-1793835Y-6040120D1*
X-1791557Y-6043930D1*
X-1788639Y-6047740D1*
X-1785135Y-6051550D1*
X-1780935Y-6055360D1*
X-1775905Y-6059170D1*
X-1770380Y-6062980D1*
X-1736090Y-5941060D2*
X-1722874Y-5944870D1*
X-1709420Y-5948680D1*
X-1553210Y-5941060D2*
X-1561840Y-5944870D1*
X-1568958Y-5948680D1*
X-1574463Y-5952490D1*
X-1578637Y-5956300D1*
X-1581768Y-5960110D1*
X-1584245Y-5963920D1*
X-1586383Y-5967730D1*
X-1588262Y-5971540D1*
X-1589839Y-5975350D1*
X-1591193Y-5979160D1*
X-1592541Y-5982970D1*
X-1593710Y-5986780D1*
X-1594452Y-5990590D1*
X-1594835Y-5994400D1*
X-1595008Y-5998210D1*
X-1595078Y-6002020D1*
X-1595105Y-6005830D1*
X-1595115Y-6009640D1*
X-1595103Y-6013450D1*
X-1594971Y-6017260D1*
X-1594485Y-6021070D1*
X-1593558Y-6024880D1*
X-1592447Y-6028690D1*
X-1591282Y-6032500D1*
X-1589868Y-6036310D1*
X-1588095Y-6040120D1*
X-1585817Y-6043930D1*
X-1582899Y-6047740D1*
X-1579376Y-6051550D1*
X-1574986Y-6055360D1*
X-1569134Y-6059170D1*
X-1561616Y-6062980D1*
X-1553210Y-6066790D1*
X-1526540Y-5941060D2*
X-1519213Y-5944870D1*
X-1513229Y-5948680D1*
X-1508445Y-5952490D1*
X-1504645Y-5956300D1*
X-1501697Y-5960110D1*
X-1499423Y-5963920D1*
X-1497782Y-5967730D1*
X-1496706Y-5971540D1*
X-1495757Y-5975350D1*
X-1494642Y-5979160D1*
X-1493584Y-5982970D1*
X-1492889Y-5986780D1*
X-1492524Y-5990590D1*
X-1492359Y-5994400D1*
X-1492291Y-5998210D1*
X-1492264Y-6002020D1*
X-1492250Y-6005830D1*
X-1446530Y-5941060D2*
X-1453857Y-5944870D1*
X-1459841Y-5948680D1*
X-1464610Y-5952490D1*
X-1468291Y-5956300D1*
X-1470887Y-5960110D1*
X-1472734Y-5963920D1*
X-1474296Y-5967730D1*
X-1475536Y-5971540D1*
X-1476176Y-5975350D1*
X-1476085Y-5979160D1*
X-1475334Y-5982970D1*
X-1474280Y-5986780D1*
X-1472994Y-5990590D1*
X-1470955Y-5994400D1*
X-1467609Y-5998210D1*
X-1462510Y-6002020D1*
X-1455180Y-6005830D1*
X-1445514Y-6009640D1*
X-1434703Y-6013450D1*
X-1425055Y-6017260D1*
X-1418052Y-6021070D1*
X-1412887Y-6024880D1*
X-1410446Y-6028690D1*
X-1409719Y-6032500D1*
X-1410755Y-6036310D1*
X-1414012Y-6040120D1*
X-1423066Y-6043930D1*
X-1437037Y-6047740D1*
X-1454150Y-6051550D1*
X-1416050Y-5941060D2*
X-1408169Y-5944870D1*
X-1401715Y-5948680D1*
X-1398874Y-5952490D1*
X-1397867Y-5956300D1*
X-1397330Y-5960110D1*
X-1397000Y-5963920D1*
X-1297940Y-5941060D2*
X-1305267Y-5944870D1*
X-1311251Y-5948680D1*
X-1316020Y-5952490D1*
X-1319701Y-5956300D1*
X-1322297Y-5960110D1*
X-1324144Y-5963920D1*
X-1325706Y-5967730D1*
X-1326946Y-5971540D1*
X-1327586Y-5975350D1*
X-1327495Y-5979160D1*
X-1326744Y-5982970D1*
X-1325690Y-5986780D1*
X-1324404Y-5990590D1*
X-1322365Y-5994400D1*
X-1319019Y-5998210D1*
X-1313920Y-6002020D1*
X-1306590Y-6005830D1*
X-1296924Y-6009640D1*
X-1286113Y-6013450D1*
X-1276465Y-6017260D1*
X-1269462Y-6021070D1*
X-1264297Y-6024880D1*
X-1261856Y-6028690D1*
X-1261129Y-6032500D1*
X-1262165Y-6036310D1*
X-1265422Y-6040120D1*
X-1274476Y-6043930D1*
X-1288447Y-6047740D1*
X-1305560Y-6051550D1*
X-1267460Y-5941060D2*
X-1259579Y-5944870D1*
X-1253125Y-5948680D1*
X-1250284Y-5952490D1*
X-1249280Y-5956300D1*
X-1248764Y-5960110D1*
X-1248536Y-5963920D1*
X-1248410Y-5967730D1*
X-1115060Y-5941060D2*
X-1121931Y-5944870D1*
X-1127969Y-5948680D1*
X-1133041Y-5952490D1*
X-1137335Y-5956300D1*
X-1140913Y-5960110D1*
X-1143768Y-5963920D1*
X-1146021Y-5967730D1*
X-1147768Y-5971540D1*
X-1149192Y-5975350D1*
X-1150566Y-5979160D1*
X-1151745Y-5982970D1*
X-1152491Y-5986780D1*
X-1152875Y-5990590D1*
X-1153047Y-5994400D1*
X-1153118Y-5998210D1*
X-1153145Y-6002020D1*
X-1153155Y-6005830D1*
X-1153158Y-6009640D1*
X-1153145Y-6013450D1*
X-1153011Y-6017260D1*
X-1152526Y-6021070D1*
X-1151598Y-6024880D1*
X-1150487Y-6028690D1*
X-1149323Y-6032500D1*
X-1147908Y-6036310D1*
X-1146135Y-6040120D1*
X-1143857Y-6043930D1*
X-1140939Y-6047740D1*
X-1137431Y-6051550D1*
X-1133186Y-6055360D1*
X-1127923Y-6059170D1*
X-1121707Y-6062980D1*
X-1115060Y-6066790D1*
X-1084580Y-5941060D2*
X-1077709Y-5944870D1*
X-1071685Y-5948680D1*
X-1066733Y-5952490D1*
X-1062805Y-5956300D1*
X-1059774Y-5960110D1*
X-1057335Y-5963920D1*
X-1055210Y-5967730D1*
X-1053351Y-5971540D1*
X-1051894Y-5975350D1*
X-1050892Y-5979160D1*
X-1049972Y-5982970D1*
X-1048867Y-5986780D1*
X-1047812Y-5990590D1*
X-1047118Y-5994400D1*
X-1046754Y-5998210D1*
X-1046589Y-6002020D1*
X-1046535Y-6005830D1*
X-1046643Y-6009640D1*
X-1047119Y-6013450D1*
X-1048029Y-6017260D1*
X-1049019Y-6021070D1*
X-1049817Y-6024880D1*
X-1050671Y-6028690D1*
X-1051879Y-6032500D1*
X-1053423Y-6036310D1*
X-1055175Y-6040120D1*
X-1057148Y-6043930D1*
X-1059540Y-6047740D1*
X-1062633Y-6051550D1*
X-1066643Y-6055360D1*
X-1071794Y-6059170D1*
X-1077960Y-6062980D1*
X-1084580Y-6066790D1*
X-840740Y-5941060D2*
X-849370Y-5944870D1*
X-856502Y-5948680D1*
X-862127Y-5952490D1*
X-866668Y-5956300D1*
X-870344Y-5960110D1*
X-873237Y-5963920D1*
X-875504Y-5967730D1*
X-877256Y-5971540D1*
X-878681Y-5975350D1*
X-880056Y-5979160D1*
X-881235Y-5982970D1*
X-881981Y-5986780D1*
X-882365Y-5990590D1*
X-882537Y-5994400D1*
X-882608Y-5998210D1*
X-882635Y-6002020D1*
X-882645Y-6005830D1*
X-882648Y-6009640D1*
X-882635Y-6013450D1*
X-882501Y-6017260D1*
X-882016Y-6021070D1*
X-881088Y-6024880D1*
X-879977Y-6028690D1*
X-878813Y-6032500D1*
X-877398Y-6036310D1*
X-875625Y-6040120D1*
X-873347Y-6043930D1*
X-870429Y-6047740D1*
X-866921Y-6051550D1*
X-862676Y-6055360D1*
X-857413Y-6059170D1*
X-851197Y-6062980D1*
X-844550Y-6066790D1*
X-814070Y-5941060D2*
X-806189Y-5944870D1*
X-799735Y-5948680D1*
X-796894Y-5952490D1*
X-795890Y-5956300D1*
X-795374Y-5960110D1*
X-795146Y-5963920D1*
X-795020Y-5967730D1*
X-741680Y-5941060D2*
X-748551Y-5944870D1*
X-754589Y-5948680D1*
X-759661Y-5952490D1*
X-763955Y-5956300D1*
X-767533Y-5960110D1*
X-770388Y-5963920D1*
X-772641Y-5967730D1*
X-774388Y-5971540D1*
X-775812Y-5975350D1*
X-777186Y-5979160D1*
X-778365Y-5982970D1*
X-779111Y-5986780D1*
X-779495Y-5990590D1*
X-779667Y-5994400D1*
X-779738Y-5998210D1*
X-779765Y-6002020D1*
X-779775Y-6005830D1*
X-779778Y-6009640D1*
X-779765Y-6013450D1*
X-779631Y-6017260D1*
X-779146Y-6021070D1*
X-778218Y-6024880D1*
X-777107Y-6028690D1*
X-775943Y-6032500D1*
X-774528Y-6036310D1*
X-772755Y-6040120D1*
X-770477Y-6043930D1*
X-767559Y-6047740D1*
X-764051Y-6051550D1*
X-759806Y-6055360D1*
X-754543Y-6059170D1*
X-748327Y-6062980D1*
X-741680Y-6066790D1*
X-711200Y-5941060D2*
X-704329Y-5944870D1*
X-698305Y-5948680D1*
X-693353Y-5952490D1*
X-689425Y-5956300D1*
X-686394Y-5960110D1*
X-683955Y-5963920D1*
X-681830Y-5967730D1*
X-679971Y-5971540D1*
X-678514Y-5975350D1*
X-677512Y-5979160D1*
X-676592Y-5982970D1*
X-675487Y-5986780D1*
X-674432Y-5990590D1*
X-673738Y-5994400D1*
X-673374Y-5998210D1*
X-673209Y-6002020D1*
X-673155Y-6005830D1*
X-673263Y-6009640D1*
X-673739Y-6013450D1*
X-674649Y-6017260D1*
X-675639Y-6021070D1*
X-676437Y-6024880D1*
X-677291Y-6028690D1*
X-678499Y-6032500D1*
X-680043Y-6036310D1*
X-681795Y-6040120D1*
X-683768Y-6043930D1*
X-686160Y-6047740D1*
X-689253Y-6051550D1*
X-693263Y-6055360D1*
X-698414Y-6059170D1*
X-704580Y-6062980D1*
X-711200Y-6066790D1*
X-608330Y-5941060D2*
X-614055Y-5944870D1*
X-619555Y-5948680D1*
X-625250Y-5952490D1*
X-631190Y-5956300D1*
X-585470Y-5941060D2*
X-579886Y-5944870D1*
X-574837Y-5948680D1*
X-569883Y-5952490D1*
X-564516Y-5956300D1*
X-558800Y-5960110D1*
X-535940Y-5941060D2*
X-542826Y-5944870D1*
X-549010Y-5948680D1*
X-554688Y-5952490D1*
X-560449Y-5956300D1*
X-566420Y-5960110D1*
X-513080Y-5941060D2*
X-507656Y-5944870D1*
X-503255Y-5948680D1*
X-499954Y-5952490D1*
X-497509Y-5956300D1*
X-495797Y-5960110D1*
X-494692Y-5963920D1*
X-493733Y-5967730D1*
X-492614Y-5971540D1*
X-491554Y-5975350D1*
X-490859Y-5979160D1*
X-490494Y-5982970D1*
X-490329Y-5986780D1*
X-490261Y-5990590D1*
X-490234Y-5994400D1*
X-490225Y-5998210D1*
X-490222Y-6002020D1*
X-490221Y-6005830D1*
X-490220Y-6009640D1*
Y-6013450D1*
Y-6017260D1*
Y-6021070D1*
Y-6024880D1*
Y-6028690D1*
Y-6032500D1*
Y-6036310D1*
Y-6040120D1*
Y-6043930D1*
Y-6047740D1*
Y-6051550D1*
Y-6055360D1*
Y-6059170D1*
Y-6062980D1*
X-2856230Y-5944870D2*
Y-5948680D1*
Y-5952490D1*
Y-5956300D1*
Y-5960110D1*
Y-5963920D1*
Y-5967730D1*
Y-5971540D1*
Y-5975350D1*
Y-5979160D1*
Y-5982970D1*
Y-5986780D1*
Y-5990590D1*
Y-5994400D1*
Y-5998210D1*
Y-6002020D1*
Y-6005830D1*
Y-6009640D1*
Y-6013450D1*
Y-6017260D1*
Y-6021070D1*
Y-6024880D1*
Y-6028690D1*
Y-6032500D1*
Y-6036310D1*
Y-6040120D1*
Y-6043930D1*
Y-6047740D1*
Y-6051550D1*
Y-6055360D1*
Y-6059170D1*
Y-6062980D1*
X-2837180Y-5944870D2*
Y-5948680D1*
Y-5952490D1*
Y-5956300D1*
Y-5960110D1*
Y-5963920D1*
Y-5967730D1*
Y-5971540D1*
Y-5975350D1*
Y-5979160D1*
Y-5982970D1*
Y-5986780D1*
Y-5990590D1*
Y-5994400D1*
Y-5998210D1*
Y-6002020D1*
Y-6005830D1*
Y-6009640D1*
Y-6013450D1*
Y-6017260D1*
Y-6021070D1*
Y-6024880D1*
Y-6028690D1*
Y-6032500D1*
Y-6036310D1*
Y-6040120D1*
Y-6043930D1*
Y-6047740D1*
Y-6051550D1*
Y-6055360D1*
Y-6059170D1*
Y-6062980D1*
X-2730500Y-5944870D2*
X-2734310Y-5948680D1*
X-2715260Y-5944870D2*
Y-5948680D1*
Y-5952490D1*
Y-5956300D1*
Y-5960110D1*
Y-5963920D1*
Y-5967730D1*
Y-5971540D1*
Y-5975350D1*
Y-5979160D1*
Y-5982970D1*
Y-5986780D1*
Y-5990590D1*
Y-5994400D1*
Y-5998210D1*
Y-6002020D1*
Y-6005830D1*
Y-6009640D1*
Y-6013450D1*
Y-6017260D1*
Y-6021070D1*
Y-6024880D1*
Y-6028690D1*
Y-6032500D1*
Y-6036310D1*
Y-6040120D1*
Y-6043930D1*
Y-6047740D1*
Y-6051550D1*
Y-6055360D1*
Y-6059170D1*
X-2715275Y-6062980D1*
X-2715409Y-6066790D1*
X-2715894Y-6070600D1*
X-2716822Y-6074410D1*
X-2717947Y-6078220D1*
X-2719246Y-6082030D1*
X-2721147Y-6085840D1*
X-2723832Y-6089650D1*
X-2727117Y-6093460D1*
X-2730974Y-6097270D1*
X-2735864Y-6101080D1*
X-2742242Y-6104890D1*
X-2749550Y-6108700D1*
X-2360930Y-5944870D2*
Y-5948680D1*
Y-5952490D1*
Y-5956300D1*
Y-5960110D1*
Y-5963920D1*
Y-5967730D1*
Y-5971540D1*
Y-5975350D1*
Y-5979160D1*
Y-5982970D1*
Y-5986780D1*
Y-5990590D1*
Y-5994400D1*
Y-5998210D1*
Y-6002020D1*
Y-6005830D1*
Y-6009640D1*
Y-6013450D1*
Y-6017260D1*
Y-6021070D1*
Y-6024880D1*
Y-6028690D1*
Y-6032500D1*
Y-6036310D1*
Y-6040120D1*
Y-6043930D1*
Y-6047740D1*
Y-6051550D1*
Y-6055360D1*
Y-6059170D1*
Y-6062980D1*
X-2341880Y-5944870D2*
X-2341180Y-5948680D1*
X-2339843Y-5952490D1*
X-2338070Y-5956300D1*
X-2170430Y-5944870D2*
Y-5948680D1*
Y-5952490D1*
Y-5956300D1*
Y-5960110D1*
Y-5963920D1*
Y-5967730D1*
Y-5971540D1*
Y-5975350D1*
Y-5979160D1*
Y-5982970D1*
Y-5986780D1*
Y-5990590D1*
Y-5994400D1*
Y-5998210D1*
Y-6002020D1*
Y-6005830D1*
Y-6009640D1*
Y-6013450D1*
Y-6017260D1*
Y-6021070D1*
Y-6024880D1*
Y-6028690D1*
Y-6032500D1*
Y-6036310D1*
Y-6040120D1*
Y-6043930D1*
Y-6047740D1*
Y-6051550D1*
Y-6055360D1*
Y-6059170D1*
Y-6062980D1*
X-2151380Y-5944870D2*
Y-5948680D1*
Y-5952490D1*
Y-5956300D1*
Y-5960110D1*
Y-5963920D1*
Y-5967730D1*
Y-5971540D1*
Y-5975350D1*
Y-5979160D1*
Y-5982970D1*
Y-5986780D1*
Y-5990590D1*
Y-5994400D1*
Y-5998210D1*
Y-6002020D1*
Y-6005830D1*
Y-6009640D1*
Y-6013450D1*
Y-6017260D1*
Y-6021070D1*
Y-6024880D1*
Y-6028690D1*
Y-6032500D1*
Y-6036310D1*
Y-6040120D1*
Y-6043930D1*
Y-6047740D1*
Y-6051550D1*
Y-6055360D1*
Y-6059170D1*
Y-6062980D1*
X-1968500Y-5944870D2*
Y-5948680D1*
Y-5952490D1*
Y-5956300D1*
Y-5960110D1*
Y-5963920D1*
Y-5967730D1*
Y-5971540D1*
Y-5975350D1*
Y-5979160D1*
Y-5982970D1*
Y-5986780D1*
Y-5990590D1*
Y-5994400D1*
Y-5998210D1*
Y-6002020D1*
Y-6005830D1*
Y-6009640D1*
Y-6013450D1*
Y-6017260D1*
Y-6021070D1*
Y-6024880D1*
Y-6028690D1*
Y-6032500D1*
Y-6036310D1*
Y-6040120D1*
Y-6043930D1*
Y-6047740D1*
Y-6051550D1*
Y-6055360D1*
Y-6059170D1*
Y-6062980D1*
X-1949450Y-5944870D2*
Y-5948680D1*
Y-5952490D1*
Y-5956300D1*
Y-5960110D1*
Y-5963920D1*
Y-5967730D1*
Y-5971540D1*
Y-5975350D1*
Y-5979160D1*
Y-5982970D1*
Y-5986780D1*
Y-5990590D1*
Y-5994400D1*
Y-5998210D1*
Y-6002020D1*
Y-6005830D1*
Y-6009640D1*
Y-6013450D1*
Y-6017260D1*
Y-6021070D1*
Y-6024880D1*
Y-6028690D1*
Y-6032500D1*
Y-6036310D1*
Y-6040120D1*
Y-6043930D1*
Y-6047740D1*
Y-6051550D1*
Y-6055360D1*
Y-6059170D1*
Y-6062980D1*
X-1918970Y-5944870D2*
Y-5948680D1*
Y-5952490D1*
Y-5956300D1*
Y-5960110D1*
Y-5963920D1*
Y-5967730D1*
Y-5971540D1*
Y-5975350D1*
Y-5979160D1*
Y-5982970D1*
Y-5986780D1*
Y-5990590D1*
Y-5994400D1*
Y-5998210D1*
Y-6002020D1*
Y-6005830D1*
Y-6009640D1*
Y-6013450D1*
Y-6017260D1*
Y-6021070D1*
Y-6024880D1*
Y-6028690D1*
Y-6032500D1*
Y-6036310D1*
Y-6040120D1*
Y-6043930D1*
Y-6047740D1*
Y-6051550D1*
Y-6055360D1*
Y-6059170D1*
Y-6062980D1*
X-1899920Y-5944870D2*
X-1899220Y-5948680D1*
X-1897883Y-5952490D1*
X-1896110Y-5956300D1*
X-1717040Y-5944870D2*
X-1720850Y-5948680D1*
X-1701800Y-5944870D2*
Y-5948680D1*
Y-5952490D1*
Y-5956300D1*
Y-5960110D1*
Y-5963920D1*
Y-5967730D1*
Y-5971540D1*
Y-5975350D1*
Y-5979160D1*
Y-5982970D1*
Y-5986780D1*
Y-5990590D1*
Y-5994400D1*
Y-5998210D1*
Y-6002020D1*
Y-6005830D1*
Y-6009640D1*
Y-6013450D1*
Y-6017260D1*
Y-6021070D1*
Y-6024880D1*
Y-6028690D1*
Y-6032500D1*
Y-6036310D1*
Y-6040120D1*
Y-6043930D1*
Y-6047740D1*
Y-6051550D1*
Y-6055360D1*
Y-6059170D1*
X-1701815Y-6062980D1*
X-1701949Y-6066790D1*
X-1702434Y-6070600D1*
X-1703362Y-6074410D1*
X-1704487Y-6078220D1*
X-1705786Y-6082030D1*
X-1707687Y-6085840D1*
X-1710372Y-6089650D1*
X-1713657Y-6093460D1*
X-1717514Y-6097270D1*
X-1722404Y-6101080D1*
X-1728782Y-6104890D1*
X-1736090Y-6108700D1*
X-1667510Y-5944870D2*
Y-5948680D1*
Y-5952490D1*
Y-5956300D1*
Y-5960110D1*
Y-5963920D1*
Y-5967730D1*
Y-5971540D1*
Y-5975350D1*
Y-5979160D1*
Y-5982970D1*
Y-5986780D1*
Y-5990590D1*
Y-5994400D1*
Y-5998210D1*
Y-6002020D1*
Y-6005830D1*
Y-6009640D1*
Y-6013450D1*
Y-6017260D1*
Y-6021070D1*
Y-6024880D1*
Y-6028690D1*
Y-6032500D1*
Y-6036310D1*
Y-6040120D1*
Y-6043930D1*
Y-6047740D1*
Y-6051550D1*
Y-6055360D1*
Y-6059170D1*
Y-6062980D1*
X-1648460Y-5944870D2*
X-1648304Y-5948680D1*
X-1647712Y-5952490D1*
X-1646409Y-5956300D1*
X-1644650Y-5960110D1*
X-1621790Y-5944870D2*
X-1628818Y-5948680D1*
X-1635462Y-5952490D1*
X-1641938Y-5956300D1*
X-1648460Y-5960110D1*
X-1606550Y-5944870D2*
Y-5948680D1*
Y-5952490D1*
Y-5956300D1*
Y-5960110D1*
Y-5963920D1*
X-1621030Y-5967730D1*
X-1632241Y-5971540D1*
X-1641025Y-5975350D1*
X-1645285Y-5979160D1*
X-1646946Y-5982970D1*
X-1647826Y-5986780D1*
X-1648215Y-5990590D1*
X-1648371Y-5994400D1*
X-1648429Y-5998210D1*
X-1648449Y-6002020D1*
X-1648457Y-6005830D1*
X-1648459Y-6009640D1*
X-1648460Y-6013450D1*
Y-6017260D1*
Y-6021070D1*
Y-6024880D1*
Y-6028690D1*
Y-6032500D1*
Y-6036310D1*
Y-6040120D1*
Y-6043930D1*
Y-6047740D1*
Y-6051550D1*
Y-6055360D1*
Y-6059170D1*
Y-6062980D1*
X-1370330Y-5944870D2*
Y-5948680D1*
Y-5952490D1*
Y-5956300D1*
Y-5960110D1*
Y-5963920D1*
Y-5967730D1*
Y-5971540D1*
Y-5975350D1*
Y-5979160D1*
Y-5982970D1*
Y-5986780D1*
Y-5990590D1*
Y-5994400D1*
Y-5998210D1*
Y-6002020D1*
Y-6005830D1*
Y-6009640D1*
Y-6013450D1*
Y-6017260D1*
Y-6021070D1*
Y-6024880D1*
Y-6028690D1*
Y-6032500D1*
Y-6036310D1*
Y-6040120D1*
Y-6043930D1*
Y-6047740D1*
Y-6051550D1*
Y-6055360D1*
Y-6059170D1*
Y-6062980D1*
X-1351280Y-5944870D2*
Y-5948680D1*
Y-5952490D1*
Y-5956300D1*
Y-5960110D1*
Y-5963920D1*
Y-5967730D1*
Y-5971540D1*
Y-5975350D1*
Y-5979160D1*
Y-5982970D1*
Y-5986780D1*
Y-5990590D1*
Y-5994400D1*
Y-5998210D1*
Y-6002020D1*
Y-6005830D1*
Y-6009640D1*
Y-6013450D1*
Y-6017260D1*
Y-6021070D1*
Y-6024880D1*
Y-6028690D1*
Y-6032500D1*
Y-6036310D1*
Y-6040120D1*
Y-6043930D1*
Y-6047740D1*
Y-6051550D1*
Y-6055360D1*
Y-6059170D1*
Y-6062980D1*
X-1023620Y-5944870D2*
Y-5948680D1*
Y-5952490D1*
Y-5956300D1*
Y-5960110D1*
Y-5963920D1*
Y-5967730D1*
Y-5971540D1*
Y-5975350D1*
Y-5979160D1*
Y-5982970D1*
Y-5986780D1*
Y-5990590D1*
Y-5994400D1*
Y-5998210D1*
Y-6002020D1*
Y-6005830D1*
Y-6009640D1*
Y-6013450D1*
Y-6017260D1*
Y-6021070D1*
Y-6024880D1*
Y-6028690D1*
Y-6032500D1*
Y-6036310D1*
Y-6040120D1*
Y-6043930D1*
Y-6047740D1*
Y-6051550D1*
Y-6055360D1*
Y-6059170D1*
Y-6062980D1*
X-1004570Y-5944870D2*
X-1004414Y-5948680D1*
X-1003822Y-5952490D1*
X-1002519Y-5956300D1*
X-1000760Y-5960110D1*
X-977900Y-5944870D2*
X-984928Y-5948680D1*
X-991572Y-5952490D1*
X-998048Y-5956300D1*
X-1004570Y-5960110D1*
X-962660Y-5944870D2*
Y-5948680D1*
Y-5952490D1*
Y-5956300D1*
Y-5960110D1*
Y-5963920D1*
X-977140Y-5967730D1*
X-988351Y-5971540D1*
X-997135Y-5975350D1*
X-1001395Y-5979160D1*
X-1003056Y-5982970D1*
X-1003936Y-5986780D1*
X-1004325Y-5990590D1*
X-1004481Y-5994400D1*
X-1004539Y-5998210D1*
X-1004559Y-6002020D1*
X-1004567Y-6005830D1*
X-1004569Y-6009640D1*
X-1004570Y-6013450D1*
Y-6017260D1*
Y-6021070D1*
Y-6024880D1*
Y-6028690D1*
Y-6032500D1*
Y-6036310D1*
Y-6040120D1*
Y-6043930D1*
Y-6047740D1*
Y-6051550D1*
Y-6055360D1*
Y-6059170D1*
Y-6062980D1*
X-650240Y-5944870D2*
Y-5948680D1*
Y-5952490D1*
Y-5956300D1*
Y-5960110D1*
Y-5963920D1*
Y-5967730D1*
Y-5971540D1*
Y-5975350D1*
Y-5979160D1*
Y-5982970D1*
Y-5986780D1*
Y-5990590D1*
Y-5994400D1*
Y-5998210D1*
Y-6002020D1*
Y-6005830D1*
Y-6009640D1*
Y-6013450D1*
Y-6017260D1*
Y-6021070D1*
Y-6024880D1*
Y-6028690D1*
Y-6032500D1*
Y-6036310D1*
Y-6040120D1*
Y-6043930D1*
Y-6047740D1*
Y-6051550D1*
Y-6055360D1*
Y-6059170D1*
Y-6062980D1*
X-631190Y-5944870D2*
X-630490Y-5948680D1*
X-629153Y-5952490D1*
X-627380Y-5956300D1*
X-2764790D2*
X-2771661Y-5960110D1*
X-2777685Y-5963920D1*
X-2782637Y-5967730D1*
X-2786565Y-5971540D1*
X-2789581Y-5975350D1*
X-2791887Y-5979160D1*
X-2793525Y-5982970D1*
X-2794472Y-5986780D1*
X-2794937Y-5990590D1*
X-2795141Y-5994400D1*
X-2795222Y-5998210D1*
X-2795253Y-6002020D1*
X-2795264Y-6005830D1*
X-2795268Y-6009640D1*
X-2795255Y-6013450D1*
X-2795121Y-6017260D1*
X-2794621Y-6021070D1*
X-2793559Y-6024880D1*
X-2791933Y-6028690D1*
X-2789499Y-6032500D1*
X-2786225Y-6036310D1*
X-2777677Y-6040120D1*
X-2764947Y-6043930D1*
X-2749550Y-6047740D1*
X-2757170Y-5956300D2*
X-2747398Y-5960110D1*
X-2739768Y-5963920D1*
X-2734081Y-5967730D1*
X-2732212Y-5971540D1*
X-2731219Y-5975350D1*
X-2730778Y-5979160D1*
X-2730601Y-5982970D1*
X-2730535Y-5986780D1*
X-2730512Y-5990590D1*
X-2730504Y-5994400D1*
X-2730501Y-5998210D1*
X-2730500Y-6002020D1*
Y-6005830D1*
Y-6009640D1*
Y-6013450D1*
Y-6017260D1*
X-2730515Y-6021070D1*
X-2730679Y-6024880D1*
X-2731080Y-6028690D1*
X-2733067Y-6032500D1*
X-2739107Y-6036310D1*
X-2749444Y-6040120D1*
X-2765122Y-6043930D1*
X-2783840Y-6047740D1*
X-2627630Y-5956300D2*
X-2637693Y-5960110D1*
X-2646299Y-5963920D1*
X-2652939Y-5967730D1*
X-2658157Y-5971540D1*
X-2660088Y-5975350D1*
X-2661138Y-5979160D1*
X-2661613Y-5982970D1*
X-2661807Y-5986780D1*
X-2661880Y-5990590D1*
X-2661906Y-5994400D1*
X-2661915Y-5998210D1*
X-2661919Y-6002020D1*
X-2661920Y-6005830D1*
Y-6009640D1*
Y-6013450D1*
Y-6017260D1*
Y-6021070D1*
Y-6024880D1*
Y-6028690D1*
Y-6032500D1*
Y-6036310D1*
Y-6040120D1*
Y-6043930D1*
Y-6047740D1*
Y-6051550D1*
Y-6055360D1*
Y-6059170D1*
Y-6062980D1*
X-2620010Y-5956300D2*
X-2616215Y-5960110D1*
X-2612554Y-5963920D1*
X-2609378Y-5967730D1*
X-2607115Y-5971540D1*
X-2605829Y-5975350D1*
X-2605207Y-5979160D1*
X-2604938Y-5982970D1*
X-2604832Y-5986780D1*
X-2604792Y-5990590D1*
X-2604777Y-5994400D1*
X-2604772Y-5998210D1*
X-2604771Y-6002020D1*
X-2604770Y-6005830D1*
Y-6009640D1*
Y-6013450D1*
Y-6017260D1*
Y-6021070D1*
Y-6024880D1*
Y-6028690D1*
Y-6032500D1*
Y-6036310D1*
Y-6040120D1*
Y-6043930D1*
Y-6047740D1*
Y-6051550D1*
Y-6055360D1*
Y-6059170D1*
Y-6062980D1*
X-2440940Y-5956300D2*
X-2447796Y-5960110D1*
X-2453701Y-5963920D1*
X-2458286Y-5967730D1*
X-2461654Y-5971540D1*
X-2464120Y-5975350D1*
X-2465825Y-5979160D1*
X-2466798Y-5982970D1*
X-2467273Y-5986780D1*
X-2467488Y-5990590D1*
X-2467610Y-5994400D1*
X-2425700Y-5956300D2*
X-2418974Y-5960110D1*
X-2413439Y-5963920D1*
X-2409415Y-5967730D1*
X-2406598Y-5971540D1*
X-2404731Y-5975350D1*
X-2403692Y-5979160D1*
X-2403192Y-5982970D1*
X-2402976Y-5986780D1*
X-2402887Y-5990590D1*
X-2402840Y-5994400D1*
X-2315210Y-5956300D2*
X-2322211Y-5960110D1*
X-2328589Y-5963920D1*
X-2333954Y-5967730D1*
X-2338411Y-5971540D1*
X-2340181Y-5975350D1*
X-2341150Y-5979160D1*
X-2341592Y-5982970D1*
X-2341773Y-5986780D1*
X-2341842Y-5990590D1*
X-2341867Y-5994400D1*
X-2341876Y-5998210D1*
X-2341879Y-6002020D1*
X-2341880Y-6005830D1*
Y-6009640D1*
Y-6013450D1*
Y-6017260D1*
Y-6021070D1*
Y-6024880D1*
Y-6028690D1*
Y-6032500D1*
Y-6036310D1*
Y-6040120D1*
Y-6043930D1*
Y-6047740D1*
Y-6051550D1*
Y-6055360D1*
Y-6059170D1*
Y-6062980D1*
X-2303780Y-5956300D2*
X-2300130Y-5960110D1*
X-2296957Y-5963920D1*
X-2294680Y-5967730D1*
X-2293260Y-5971540D1*
X-2292153Y-5975350D1*
X-2290972Y-5979160D1*
X-2289888Y-5982970D1*
X-2289183Y-5986780D1*
X-2288816Y-5990590D1*
X-2288649Y-5994400D1*
X-2288581Y-5998210D1*
X-2288555Y-6002020D1*
X-2288545Y-6005830D1*
X-2288542Y-6009640D1*
X-2288541Y-6013450D1*
X-2288540Y-6017260D1*
Y-6021070D1*
Y-6024880D1*
Y-6028690D1*
Y-6032500D1*
Y-6036310D1*
Y-6040120D1*
Y-6043930D1*
Y-6047740D1*
Y-6051550D1*
Y-6055360D1*
Y-6059170D1*
Y-6062980D1*
X-2246630Y-5956300D2*
X-2253501Y-5960110D1*
X-2259525Y-5963920D1*
X-2264462Y-5967730D1*
X-2268256Y-5971540D1*
X-2271212Y-5975350D1*
X-2272286Y-5979160D1*
X-2272868Y-5982970D1*
X-2273131Y-5986780D1*
X-2273238Y-5990590D1*
X-2273278Y-5994400D1*
X-2273293Y-5998210D1*
X-2273298Y-6002020D1*
X-2273299Y-6005830D1*
X-2273300Y-6009640D1*
Y-6013450D1*
Y-6017260D1*
Y-6021070D1*
Y-6024880D1*
Y-6028690D1*
Y-6032500D1*
Y-6036310D1*
Y-6040120D1*
Y-6043930D1*
Y-6047740D1*
Y-6051550D1*
Y-6055360D1*
Y-6059170D1*
Y-6062980D1*
X-2239010Y-5956300D2*
X-2232742Y-5960110D1*
X-2227798Y-5963920D1*
X-2224333Y-5967730D1*
X-2221736Y-5971540D1*
X-2220823Y-5975350D1*
X-2220328Y-5979160D1*
X-2220104Y-5982970D1*
X-2220013Y-5986780D1*
X-2219979Y-5990590D1*
X-2219966Y-5994400D1*
X-2219962Y-5998210D1*
X-2219961Y-6002020D1*
X-2219960Y-6005830D1*
Y-6009640D1*
Y-6013450D1*
Y-6017260D1*
Y-6021070D1*
Y-6024880D1*
Y-6028690D1*
Y-6032500D1*
Y-6036310D1*
Y-6040120D1*
Y-6043930D1*
Y-6047740D1*
Y-6051550D1*
Y-6055360D1*
Y-6059170D1*
Y-6062980D1*
X-1865630Y-5956300D2*
X-1875693Y-5960110D1*
X-1884299Y-5963920D1*
X-1890939Y-5967730D1*
X-1896157Y-5971540D1*
X-1898088Y-5975350D1*
X-1899138Y-5979160D1*
X-1899613Y-5982970D1*
X-1899807Y-5986780D1*
X-1899880Y-5990590D1*
X-1899906Y-5994400D1*
X-1899915Y-5998210D1*
X-1899919Y-6002020D1*
X-1899920Y-6005830D1*
Y-6009640D1*
Y-6013450D1*
Y-6017260D1*
Y-6021070D1*
Y-6024880D1*
Y-6028690D1*
Y-6032500D1*
Y-6036310D1*
Y-6040120D1*
Y-6043930D1*
Y-6047740D1*
Y-6051550D1*
Y-6055360D1*
Y-6059170D1*
Y-6062980D1*
X-1858010Y-5956300D2*
X-1854215Y-5960110D1*
X-1850554Y-5963920D1*
X-1847378Y-5967730D1*
X-1845115Y-5971540D1*
X-1843829Y-5975350D1*
X-1843207Y-5979160D1*
X-1842938Y-5982970D1*
X-1842832Y-5986780D1*
X-1842792Y-5990590D1*
X-1842777Y-5994400D1*
X-1842772Y-5998210D1*
X-1842771Y-6002020D1*
X-1842770Y-6005830D1*
Y-6009640D1*
Y-6013450D1*
Y-6017260D1*
Y-6021070D1*
Y-6024880D1*
Y-6028690D1*
Y-6032500D1*
Y-6036310D1*
Y-6040120D1*
Y-6043930D1*
Y-6047740D1*
Y-6051550D1*
Y-6055360D1*
Y-6059170D1*
Y-6062980D1*
X-1751330Y-5956300D2*
X-1758201Y-5960110D1*
X-1764225Y-5963920D1*
X-1769177Y-5967730D1*
X-1773105Y-5971540D1*
X-1776121Y-5975350D1*
X-1778427Y-5979160D1*
X-1780065Y-5982970D1*
X-1781012Y-5986780D1*
X-1781477Y-5990590D1*
X-1781681Y-5994400D1*
X-1781762Y-5998210D1*
X-1781793Y-6002020D1*
X-1781804Y-6005830D1*
X-1781808Y-6009640D1*
X-1781795Y-6013450D1*
X-1781661Y-6017260D1*
X-1781161Y-6021070D1*
X-1780099Y-6024880D1*
X-1778473Y-6028690D1*
X-1776039Y-6032500D1*
X-1772765Y-6036310D1*
X-1764217Y-6040120D1*
X-1751487Y-6043930D1*
X-1736090Y-6047740D1*
X-1743710Y-5956300D2*
X-1733938Y-5960110D1*
X-1726308Y-5963920D1*
X-1720621Y-5967730D1*
X-1718752Y-5971540D1*
X-1717759Y-5975350D1*
X-1717318Y-5979160D1*
X-1717141Y-5982970D1*
X-1717075Y-5986780D1*
X-1717052Y-5990590D1*
X-1717044Y-5994400D1*
X-1717041Y-5998210D1*
X-1717040Y-6002020D1*
Y-6005830D1*
Y-6009640D1*
Y-6013450D1*
Y-6017260D1*
X-1717055Y-6021070D1*
X-1717219Y-6024880D1*
X-1717620Y-6028690D1*
X-1719607Y-6032500D1*
X-1725647Y-6036310D1*
X-1735984Y-6040120D1*
X-1751662Y-6043930D1*
X-1770380Y-6047740D1*
X-1549400Y-5956300D2*
X-1556256Y-5960110D1*
X-1562161Y-5963920D1*
X-1566746Y-5967730D1*
X-1570114Y-5971540D1*
X-1572580Y-5975350D1*
X-1574285Y-5979160D1*
X-1575258Y-5982970D1*
X-1575733Y-5986780D1*
X-1575948Y-5990590D1*
X-1576070Y-5994400D1*
X-1534160Y-5956300D2*
X-1527434Y-5960110D1*
X-1521899Y-5963920D1*
X-1517875Y-5967730D1*
X-1515058Y-5971540D1*
X-1513191Y-5975350D1*
X-1512152Y-5979160D1*
X-1511652Y-5982970D1*
X-1511436Y-5986780D1*
X-1511347Y-5990590D1*
X-1511300Y-5994400D1*
X-1438910Y-5956300D2*
X-1445621Y-5960110D1*
X-1451022Y-5963920D1*
X-1455176Y-5967730D1*
X-1456605Y-5971540D1*
X-1457215Y-5975350D1*
X-1457244Y-5979160D1*
X-1455289Y-5982970D1*
X-1449357Y-5986780D1*
X-1440583Y-5990590D1*
X-1429703Y-5994400D1*
X-1418904Y-5998210D1*
X-1410098Y-6002020D1*
X-1403861Y-6005830D1*
X-1399700Y-6009640D1*
X-1396893Y-6013450D1*
X-1395052Y-6017260D1*
X-1394029Y-6021070D1*
X-1393537Y-6024880D1*
X-1393324Y-6028690D1*
X-1393254Y-6032500D1*
X-1393356Y-6036310D1*
X-1393845Y-6040120D1*
X-1394903Y-6043930D1*
X-1396527Y-6047740D1*
X-1398887Y-6051550D1*
X-1402397Y-6055360D1*
X-1407280Y-6059170D1*
X-1413317Y-6062980D1*
X-1419860Y-6066790D1*
X-1427480Y-5956300D2*
X-1416050Y-5960110D1*
X-1404620Y-5963920D1*
X-1290320Y-5956300D2*
X-1297031Y-5960110D1*
X-1302432Y-5963920D1*
X-1306586Y-5967730D1*
X-1308015Y-5971540D1*
X-1308625Y-5975350D1*
X-1308654Y-5979160D1*
X-1306699Y-5982970D1*
X-1300767Y-5986780D1*
X-1291993Y-5990590D1*
X-1281113Y-5994400D1*
X-1270314Y-5998210D1*
X-1261508Y-6002020D1*
X-1255271Y-6005830D1*
X-1251110Y-6009640D1*
X-1248303Y-6013450D1*
X-1246462Y-6017260D1*
X-1245439Y-6021070D1*
X-1244947Y-6024880D1*
X-1244734Y-6028690D1*
X-1244664Y-6032500D1*
X-1244766Y-6036310D1*
X-1245255Y-6040120D1*
X-1246313Y-6043930D1*
X-1247937Y-6047740D1*
X-1250297Y-6051550D1*
X-1253807Y-6055360D1*
X-1258690Y-6059170D1*
X-1264727Y-6062980D1*
X-1271270Y-6066790D1*
X-1278890Y-5956300D2*
X-1268160Y-5960110D1*
X-1258067Y-5963920D1*
X-1248410Y-5967730D1*
X-1107440Y-5956300D2*
X-1114166Y-5960110D1*
X-1119701Y-5963920D1*
X-1123740Y-5967730D1*
X-1126691Y-5971540D1*
X-1129043Y-5975350D1*
X-1130995Y-5979160D1*
X-1132472Y-5982970D1*
X-1133352Y-5986780D1*
X-1133792Y-5990590D1*
X-1133986Y-5994400D1*
X-1134064Y-5998210D1*
X-1134094Y-6002020D1*
X-1134104Y-6005830D1*
X-1134108Y-6009640D1*
X-1134095Y-6013450D1*
X-1133961Y-6017260D1*
X-1133461Y-6021070D1*
X-1132414Y-6024880D1*
X-1130937Y-6028690D1*
X-1129181Y-6032500D1*
X-1126845Y-6036310D1*
X-1123736Y-6040120D1*
X-1113842Y-6043930D1*
X-1098868Y-6047740D1*
X-1080770Y-6051550D1*
X-1096010Y-5956300D2*
X-1089139Y-5960110D1*
X-1083115Y-5963920D1*
X-1078178Y-5967730D1*
X-1074369Y-5971540D1*
X-1071704Y-5975350D1*
X-1069826Y-5979160D1*
X-1068252Y-5982970D1*
X-1066992Y-5986780D1*
X-1066216Y-5990590D1*
X-1065821Y-5994400D1*
X-1065644Y-5998210D1*
X-1065573Y-6002020D1*
X-1065545Y-6005830D1*
X-1065550Y-6009640D1*
X-1065681Y-6013450D1*
X-1066165Y-6017260D1*
X-1067092Y-6021070D1*
X-1068218Y-6024880D1*
X-1069516Y-6028690D1*
X-1071431Y-6032500D1*
X-1074340Y-6036310D1*
X-1078049Y-6040120D1*
X-1086772Y-6043930D1*
X-1099600Y-6047740D1*
X-1115060Y-6051550D1*
X-833120Y-5956300D2*
X-839991Y-5960110D1*
X-846015Y-5963920D1*
X-850967Y-5967730D1*
X-854895Y-5971540D1*
X-857911Y-5975350D1*
X-860217Y-5979160D1*
X-861855Y-5982970D1*
X-862802Y-5986780D1*
X-863267Y-5990590D1*
X-863471Y-5994400D1*
X-863552Y-5998210D1*
X-863583Y-6002020D1*
X-863594Y-6005830D1*
X-863598Y-6009640D1*
X-863585Y-6013450D1*
X-863451Y-6017260D1*
X-862951Y-6021070D1*
X-861889Y-6024880D1*
X-860278Y-6028690D1*
X-858052Y-6032500D1*
X-854937Y-6036310D1*
X-851066Y-6040120D1*
X-841654Y-6043930D1*
X-827492Y-6047740D1*
X-810260Y-6051550D1*
X-821690Y-5956300D2*
X-814070Y-5960110D1*
X-806450Y-5963920D1*
X-798830Y-5967730D1*
X-734060Y-5956300D2*
X-740786Y-5960110D1*
X-746321Y-5963920D1*
X-750360Y-5967730D1*
X-753311Y-5971540D1*
X-755663Y-5975350D1*
X-757615Y-5979160D1*
X-759092Y-5982970D1*
X-759972Y-5986780D1*
X-760412Y-5990590D1*
X-760606Y-5994400D1*
X-760684Y-5998210D1*
X-760714Y-6002020D1*
X-760724Y-6005830D1*
X-760728Y-6009640D1*
X-760715Y-6013450D1*
X-760581Y-6017260D1*
X-760081Y-6021070D1*
X-759034Y-6024880D1*
X-757557Y-6028690D1*
X-755801Y-6032500D1*
X-753465Y-6036310D1*
X-750356Y-6040120D1*
X-740462Y-6043930D1*
X-725488Y-6047740D1*
X-707390Y-6051550D1*
X-722630Y-5956300D2*
X-715759Y-5960110D1*
X-709735Y-5963920D1*
X-704798Y-5967730D1*
X-700989Y-5971540D1*
X-698324Y-5975350D1*
X-696446Y-5979160D1*
X-694872Y-5982970D1*
X-693612Y-5986780D1*
X-692836Y-5990590D1*
X-692441Y-5994400D1*
X-692264Y-5998210D1*
X-692193Y-6002020D1*
X-692165Y-6005830D1*
X-692170Y-6009640D1*
X-692301Y-6013450D1*
X-692785Y-6017260D1*
X-693712Y-6021070D1*
X-694838Y-6024880D1*
X-696136Y-6028690D1*
X-698051Y-6032500D1*
X-700960Y-6036310D1*
X-704669Y-6040120D1*
X-713392Y-6043930D1*
X-726220Y-6047740D1*
X-741680Y-6051550D1*
X-604520Y-5956300D2*
X-611521Y-5960110D1*
X-617899Y-5963920D1*
X-623264Y-5967730D1*
X-627721Y-5971540D1*
X-629491Y-5975350D1*
X-630460Y-5979160D1*
X-630902Y-5982970D1*
X-631083Y-5986780D1*
X-631152Y-5990590D1*
X-631177Y-5994400D1*
X-631186Y-5998210D1*
X-631189Y-6002020D1*
X-631190Y-6005830D1*
Y-6009640D1*
Y-6013450D1*
Y-6017260D1*
Y-6021070D1*
Y-6024880D1*
Y-6028690D1*
Y-6032500D1*
Y-6036310D1*
Y-6040120D1*
Y-6043930D1*
Y-6047740D1*
Y-6051550D1*
Y-6055360D1*
Y-6059170D1*
Y-6062980D1*
X-593090Y-5956300D2*
X-589440Y-5960110D1*
X-586267Y-5963920D1*
X-583990Y-5967730D1*
X-582570Y-5971540D1*
X-581463Y-5975350D1*
X-580282Y-5979160D1*
X-579198Y-5982970D1*
X-578493Y-5986780D1*
X-578126Y-5990590D1*
X-577959Y-5994400D1*
X-577891Y-5998210D1*
X-577865Y-6002020D1*
X-577855Y-6005830D1*
X-577852Y-6009640D1*
X-577851Y-6013450D1*
X-577850Y-6017260D1*
Y-6021070D1*
Y-6024880D1*
Y-6028690D1*
Y-6032500D1*
Y-6036310D1*
Y-6040120D1*
Y-6043930D1*
Y-6047740D1*
Y-6051550D1*
Y-6055360D1*
Y-6059170D1*
Y-6062980D1*
X-535940Y-5956300D2*
X-542811Y-5960110D1*
X-548835Y-5963920D1*
X-553772Y-5967730D1*
X-557566Y-5971540D1*
X-560522Y-5975350D1*
X-561596Y-5979160D1*
X-562178Y-5982970D1*
X-562441Y-5986780D1*
X-562548Y-5990590D1*
X-562588Y-5994400D1*
X-562603Y-5998210D1*
X-562608Y-6002020D1*
X-562609Y-6005830D1*
X-562610Y-6009640D1*
Y-6013450D1*
Y-6017260D1*
Y-6021070D1*
Y-6024880D1*
Y-6028690D1*
Y-6032500D1*
Y-6036310D1*
Y-6040120D1*
Y-6043930D1*
Y-6047740D1*
Y-6051550D1*
Y-6055360D1*
Y-6059170D1*
Y-6062980D1*
X-528320Y-5956300D2*
X-522052Y-5960110D1*
X-517108Y-5963920D1*
X-513643Y-5967730D1*
X-511046Y-5971540D1*
X-510133Y-5975350D1*
X-509638Y-5979160D1*
X-509414Y-5982970D1*
X-509323Y-5986780D1*
X-509289Y-5990590D1*
X-509276Y-5994400D1*
X-509272Y-5998210D1*
X-509271Y-6002020D1*
X-509270Y-6005830D1*
Y-6009640D1*
Y-6013450D1*
Y-6017260D1*
Y-6021070D1*
Y-6024880D1*
Y-6028690D1*
Y-6032500D1*
Y-6036310D1*
Y-6040120D1*
Y-6043930D1*
Y-6047740D1*
Y-6051550D1*
Y-6055360D1*
Y-6059170D1*
Y-6062980D1*
X-2475230Y-6005830D2*
X-2472169Y-6009640D1*
X-2469941Y-6013450D1*
X-2468650Y-6017260D1*
X-2467882Y-6021070D1*
X-2466980Y-6024880D1*
X-2465327Y-6028690D1*
X-2462748Y-6032500D1*
X-2459278Y-6036310D1*
X-2455082Y-6040120D1*
X-2444275Y-6043930D1*
X-2427434Y-6047740D1*
X-2406650Y-6051550D1*
X-1583690Y-6005830D2*
X-1580629Y-6009640D1*
X-1578401Y-6013450D1*
X-1577110Y-6017260D1*
X-1576342Y-6021070D1*
X-1575440Y-6024880D1*
X-1573787Y-6028690D1*
X-1571208Y-6032500D1*
X-1567738Y-6036310D1*
X-1563542Y-6040120D1*
X-1552735Y-6043930D1*
X-1535894Y-6047740D1*
X-1515110Y-6051550D1*
X-1496060Y-6036310D2*
X-1503919Y-6040120D1*
X-1516742Y-6043930D1*
X-1536652Y-6047740D1*
X-1560830Y-6051550D1*
X-1477010Y-6036310D2*
Y-6040120D1*
X-1476995Y-6043930D1*
X-1476831Y-6047740D1*
X-1476430Y-6051550D1*
X-1474443Y-6055360D1*
X-1469250Y-6059170D1*
X-1462214Y-6062980D1*
X-1454150Y-6066790D1*
X-1328420Y-6036310D2*
Y-6040120D1*
X-1328405Y-6043930D1*
X-1328241Y-6047740D1*
X-1327840Y-6051550D1*
X-1325853Y-6055360D1*
X-1320660Y-6059170D1*
X-1313624Y-6062980D1*
X-1305560Y-6066790D1*
X-935990Y-6036310D2*
Y-6040120D1*
Y-6043930D1*
Y-6047740D1*
Y-6051550D1*
Y-6055360D1*
Y-6059170D1*
Y-6062980D1*
X-913130Y-6036310D2*
Y-6040120D1*
Y-6043930D1*
Y-6047740D1*
Y-6051550D1*
Y-6055360D1*
Y-6059170D1*
Y-6062980D1*
X-795020Y-6036310D2*
X-801263Y-6040120D1*
X-811759Y-6043930D1*
X-828282Y-6047740D1*
X-848360Y-6051550D1*
X-2391410Y-6040120D2*
X-2406671Y-6043930D1*
X-2427618Y-6047740D1*
X-2452370Y-6051550D1*
X-2387600Y-6040120D2*
Y-6043930D1*
X-2387645Y-6047740D1*
X-2388091Y-6051550D1*
X-2389163Y-6055360D1*
X-2394384Y-6059170D1*
X-2401849Y-6062980D1*
X-2410460Y-6066790D1*
X-1496060Y-6040120D2*
Y-6043930D1*
X-1496105Y-6047740D1*
X-1496551Y-6051550D1*
X-1497623Y-6055360D1*
X-1502844Y-6059170D1*
X-1510309Y-6062980D1*
X-1518920Y-6066790D1*
X-1469390Y-6040120D2*
X-1455530Y-6043930D1*
X-1437257Y-6047740D1*
X-1416050Y-6051550D1*
X-1320800Y-6040120D2*
X-1306940Y-6043930D1*
X-1288667Y-6047740D1*
X-1267460Y-6051550D1*
X-795020Y-6040120D2*
Y-6043930D1*
X-795050Y-6047740D1*
X-795362Y-6051550D1*
X-796121Y-6055360D1*
X-800267Y-6059170D1*
X-806565Y-6062980D1*
X-814070Y-6066790D1*
X-2501900Y-6047740D2*
X-2505710Y-6051550D1*
X-2498090Y-6047740D2*
X-2498105Y-6051550D1*
X-2498250Y-6055360D1*
X-2498839Y-6059170D1*
X-2500141Y-6062980D1*
X-2501900Y-6066790D1*
X-2067560Y-6047740D2*
X-2071370Y-6051550D1*
X-2063750Y-6047740D2*
X-2063765Y-6051550D1*
X-2063910Y-6055360D1*
X-2064499Y-6059170D1*
X-2065801Y-6062980D1*
X-2067560Y-6066790D1*
X-1991360Y-6047740D2*
X-1995170Y-6051550D1*
X-1987550Y-6047740D2*
X-1987565Y-6051550D1*
X-1987710Y-6055360D1*
X-1988299Y-6059170D1*
X-1989601Y-6062980D1*
X-1991360Y-6066790D1*
X-1168400Y-6047740D2*
X-1172210Y-6051550D1*
X-1164590Y-6047740D2*
X-1164605Y-6051550D1*
X-1164750Y-6055360D1*
X-1165339Y-6059170D1*
X-1166641Y-6062980D1*
X-1168400Y-6066790D1*
X-2738120Y-6051550D2*
X-2742630Y-6055360D1*
X-2747777Y-6059170D1*
X-2753360Y-6062980D1*
X-2730500Y-6051550D2*
Y-6055360D1*
X-2730515Y-6059170D1*
X-2730649Y-6062980D1*
X-2731149Y-6066790D1*
X-2732211Y-6070600D1*
X-2733837Y-6074410D1*
X-2736316Y-6078220D1*
X-2739723Y-6082030D1*
X-2750264Y-6085840D1*
X-2766958Y-6089650D1*
X-2787650Y-6093460D1*
X-1724660Y-6051550D2*
X-1729170Y-6055360D1*
X-1734317Y-6059170D1*
X-1739900Y-6062980D1*
X-1717040Y-6051550D2*
Y-6055360D1*
X-1717055Y-6059170D1*
X-1717189Y-6062980D1*
X-1717689Y-6066790D1*
X-1718751Y-6070600D1*
X-1720377Y-6074410D1*
X-1722856Y-6078220D1*
X-1726263Y-6082030D1*
X-1736804Y-6085840D1*
X-1753498Y-6089650D1*
X-1774190Y-6093460D1*
X-2802890Y-6085840D2*
Y-6089650D1*
X-2802830Y-6093460D1*
X-2802652Y-6097270D1*
X-2800866Y-6101080D1*
X-2794928Y-6104890D1*
X-2787650Y-6108700D1*
X-2799080Y-6085840D2*
X-2769553Y-6089650D1*
X-2738120Y-6093460D1*
X-1789430Y-6085840D2*
Y-6089650D1*
X-1789370Y-6093460D1*
X-1789192Y-6097270D1*
X-1787406Y-6101080D1*
X-1781468Y-6104890D1*
X-1774190Y-6108700D1*
X-1785620Y-6085840D2*
X-1756093Y-6089650D1*
X-1724660Y-6093460D1*
X-3034063Y630830D2*
Y627020D1*
Y623210D1*
Y619400D1*
Y615590D1*
Y611780D1*
X-2946433Y630830D2*
X-2919763Y627020D1*
Y623210D1*
Y619400D1*
Y615590D1*
Y611780D1*
X-2893093Y630830D2*
Y627020D1*
Y623210D1*
Y619400D1*
Y615590D1*
Y611780D1*
X-2874043Y630830D2*
Y627020D1*
Y623210D1*
Y619400D1*
Y615590D1*
Y611780D1*
X-3034063Y581300D2*
Y577490D1*
X-3034034Y573680D1*
X-3033751Y569870D1*
X-3033081Y566060D1*
X-3030124Y562250D1*
X-3025917Y558440D1*
X-3020629Y554630D1*
X-3014691Y550820D1*
X-3008564Y547010D1*
X-3002296Y543200D1*
X-2995921Y539390D1*
X-2989603Y535580D1*
X-2983134Y531770D1*
X-2976252Y527960D1*
X-2969034Y524150D1*
X-2961673Y520340D1*
X-2966946Y516530D1*
X-2972512Y512720D1*
X-2978458Y508910D1*
X-2984680Y505100D1*
X-2990919Y501290D1*
X-2997228Y497480D1*
X-3003618Y493670D1*
X-3009927Y489860D1*
X-3016234Y486050D1*
X-3022335Y482240D1*
X-3027394Y478430D1*
X-3031349Y474620D1*
X-3032754Y470810D1*
X-3033509Y467000D1*
X-3033848Y463190D1*
X-3033988Y459380D1*
X-3034063Y455570D1*
X-3030253Y581300D2*
X-3024081Y577490D1*
X-3018083Y573680D1*
X-3012114Y569870D1*
X-3005978Y566060D1*
X-2999676Y562250D1*
X-2993406Y558440D1*
X-2987084Y554630D1*
X-2980691Y550820D1*
X-2974381Y547010D1*
X-2968058Y543200D1*
X-2961807Y539390D1*
X-2956101Y535580D1*
X-2951096Y531770D1*
X-2946433Y527960D1*
X-2874043D2*
Y524150D1*
Y520340D1*
Y516530D1*
Y512720D1*
Y508910D1*
X-2938813D2*
X-2946288Y505100D1*
X-2953420Y501290D1*
X-2960112Y497480D1*
X-2966621Y493670D1*
X-2973091Y489860D1*
X-2979430Y486050D1*
X-2985778Y482240D1*
X-2992181Y478430D1*
X-2998509Y474620D1*
X-3004966Y470810D1*
X-3011707Y467000D1*
X-3018357Y463190D1*
X-3024496Y459380D1*
X-3030253Y455570D1*
X-2889283Y451760D2*
Y447950D1*
Y444140D1*
Y440330D1*
Y436520D1*
Y432710D1*
Y428900D1*
Y425090D1*
Y421280D1*
Y417470D1*
Y413660D1*
Y409850D1*
Y406040D1*
Y402230D1*
Y398420D1*
Y394610D1*
Y390800D1*
Y386990D1*
Y383180D1*
Y379370D1*
X-2874043Y451760D2*
Y447950D1*
Y444140D1*
Y440330D1*
Y436520D1*
Y432710D1*
Y428900D1*
Y425090D1*
Y421280D1*
Y417470D1*
Y413660D1*
Y409850D1*
Y406040D1*
Y402230D1*
Y398420D1*
Y394610D1*
Y390800D1*
Y386990D1*
Y383180D1*
Y379370D1*
Y375560D1*
Y371750D1*
Y367940D1*
Y364130D1*
Y360320D1*
X-3034063Y379370D2*
Y375560D1*
Y371750D1*
Y367940D1*
Y364130D1*
Y360320D1*
Y326030D2*
Y322220D1*
Y318410D1*
Y314600D1*
Y310790D1*
X-2874043Y326030D2*
Y322220D1*
Y318410D1*
X-2874073Y314600D1*
X-2874371Y310790D1*
X-2875085Y306980D1*
X-2878595Y303170D1*
X-2883746Y299360D1*
X-2890149Y295550D1*
X-2897238Y291740D1*
X-2904646Y287930D1*
X-2912186Y284120D1*
X-2919763Y280310D1*
X-2927239Y276500D1*
X-2934371Y272690D1*
X-2941077Y268880D1*
X-2947720Y265070D1*
X-2954675Y261260D1*
X-2961942Y257450D1*
X-2969400Y253640D1*
X-2976953Y249830D1*
X-2984548Y246020D1*
X-2992158Y242210D1*
X-2999775Y238400D1*
X-3007394Y234590D1*
X-3015013Y230780D1*
X-2904523Y310790D2*
X-2909082Y306980D1*
X-2914474Y303170D1*
X-2920818Y299360D1*
X-2927819Y295550D1*
X-2935172Y291740D1*
X-2942685Y287930D1*
X-2950265Y284120D1*
X-2957871Y280310D1*
X-2965486Y276500D1*
X-2973104Y272690D1*
X-2980724Y268880D1*
X-2988343Y265070D1*
X-2995963Y261260D1*
X-3003583Y257450D1*
X-3011174Y253640D1*
X-3018496Y249830D1*
X-3024847Y246020D1*
X-3030090Y242210D1*
X-3032125Y238400D1*
X-3033234Y234590D1*
X-3033738Y230780D1*
X-3033943Y226970D1*
X-3034021Y223160D1*
X-3034049Y219350D1*
X-3034059Y215540D1*
X-3034063Y211730D1*
X-2874043Y230780D2*
Y226970D1*
Y223160D1*
Y219350D1*
Y215540D1*
Y211730D1*
X-2969293Y185060D2*
X-2982175Y181250D1*
X-2992929Y177440D1*
X-3001575Y173630D1*
X-3008385Y169820D1*
X-3013765Y166010D1*
X-3018176Y162200D1*
X-3021794Y158390D1*
X-3024679Y154580D1*
X-3027056Y150770D1*
X-3029156Y146960D1*
X-3031007Y143150D1*
X-3032461Y139340D1*
X-3033462Y135530D1*
X-3034382Y131720D1*
X-3035487Y127910D1*
X-3036541Y124100D1*
X-3037235Y120290D1*
X-3037599Y116480D1*
X-3037750Y112670D1*
X-3037684Y108860D1*
X-3037224Y105050D1*
X-3036307Y101240D1*
X-3035199Y97430D1*
X-3034035Y93620D1*
X-3032636Y89810D1*
X-3030997Y86000D1*
X-3029204Y82190D1*
X-3027214Y78380D1*
X-3024832Y74570D1*
X-3021885Y70760D1*
X-3018493Y66950D1*
X-3014726Y63140D1*
X-3010330Y59330D1*
X-3004712Y55520D1*
X-2997216Y51710D1*
X-2987646Y47900D1*
X-2976913Y44090D1*
X-2935003Y185060D2*
X-2922122Y181250D1*
X-2911368Y177440D1*
X-2902721Y173630D1*
X-2895926Y169820D1*
X-2890666Y166010D1*
X-2886607Y162200D1*
X-2883415Y158390D1*
X-2880609Y154580D1*
X-2878039Y150770D1*
X-2875979Y146960D1*
X-2874363Y143150D1*
X-2872894Y139340D1*
X-2871674Y135530D1*
X-2870912Y131720D1*
X-2870522Y127910D1*
X-2870347Y124100D1*
X-2870276Y120290D1*
X-2870248Y116480D1*
X-2870238Y112670D1*
X-2870235Y108860D1*
X-2870249Y105050D1*
X-2870382Y101240D1*
X-2870868Y97430D1*
X-2871795Y93620D1*
X-2872906Y89810D1*
X-2874071Y86000D1*
X-2875485Y82190D1*
X-2877258Y78380D1*
X-2879537Y74570D1*
X-2882454Y70760D1*
X-2885947Y66950D1*
X-2890074Y63140D1*
X-2895014Y59330D1*
X-2901038Y55520D1*
X-2908571Y51710D1*
X-2917624Y47900D1*
X-2927383Y44090D1*
X-2957863Y166010D2*
X-2971591Y162200D1*
X-2983519Y158390D1*
X-2993056Y154580D1*
X-3000352Y150770D1*
X-3005849Y146960D1*
X-3009994Y143150D1*
X-3013091Y139340D1*
X-3015425Y135530D1*
X-3017089Y131720D1*
X-3018173Y127910D1*
X-3019125Y124100D1*
X-3020226Y120290D1*
X-3021151Y116480D1*
X-3021360Y112670D1*
X-3020812Y108860D1*
X-3019986Y105050D1*
X-3019241Y101240D1*
X-3018279Y97430D1*
X-3016580Y93620D1*
X-3013993Y89810D1*
X-3010765Y86000D1*
X-3007036Y82190D1*
X-3002398Y78380D1*
X-2995813Y74570D1*
X-2986430Y70760D1*
X-2974594Y66950D1*
X-2961673Y63140D1*
X-2946433Y166010D2*
X-2932706Y162200D1*
X-2920778Y158390D1*
X-2911255Y154580D1*
X-2904079Y150770D1*
X-2898948Y146960D1*
X-2895349Y143150D1*
X-2892668Y139340D1*
X-2890448Y135530D1*
X-2888553Y131720D1*
X-2887099Y127910D1*
X-2886226Y124100D1*
X-2885790Y120290D1*
X-2885597Y116480D1*
X-2885519Y112670D1*
X-2885504Y108860D1*
X-2885628Y105050D1*
X-2886124Y101240D1*
X-2887185Y97430D1*
X-2888795Y93620D1*
X-2891021Y89810D1*
X-2894047Y86000D1*
X-2898046Y82190D1*
X-2903351Y78380D1*
X-2910237Y74570D1*
X-2918736Y70760D1*
X-2928504Y66950D1*
X-2938813Y63140D1*
X-2969293Y-43540D2*
X-2982175Y-47350D1*
X-2992929Y-51160D1*
X-3001575Y-54970D1*
X-3008385Y-58780D1*
X-3013765Y-62590D1*
X-3018176Y-66400D1*
X-3021794Y-70210D1*
X-3024679Y-74020D1*
X-3027056Y-77830D1*
X-3029156Y-81640D1*
X-3031007Y-85450D1*
X-3032461Y-89260D1*
X-3033462Y-93070D1*
X-3034382Y-96880D1*
X-3035487Y-100690D1*
X-3036541Y-104500D1*
X-3037235Y-108310D1*
X-3037599Y-112120D1*
X-3037750Y-115930D1*
X-3037684Y-119740D1*
X-3037224Y-123550D1*
X-3036307Y-127360D1*
X-3035199Y-131170D1*
X-3034035Y-134980D1*
X-3032636Y-138790D1*
X-3030997Y-142600D1*
X-3029204Y-146410D1*
X-3027214Y-150220D1*
X-3024832Y-154030D1*
X-3021885Y-157840D1*
X-3018493Y-161650D1*
X-3014726Y-165460D1*
X-3010330Y-169270D1*
X-3004712Y-173080D1*
X-2997216Y-176890D1*
X-2987646Y-180700D1*
X-2976913Y-184510D1*
X-2935003Y-43540D2*
X-2922122Y-47350D1*
X-2911368Y-51160D1*
X-2902721Y-54970D1*
X-2895926Y-58780D1*
X-2890666Y-62590D1*
X-2886607Y-66400D1*
X-2883415Y-70210D1*
X-2880609Y-74020D1*
X-2878039Y-77830D1*
X-2875979Y-81640D1*
X-2874363Y-85450D1*
X-2872894Y-89260D1*
X-2871674Y-93070D1*
X-2870912Y-96880D1*
X-2870522Y-100690D1*
X-2870347Y-104500D1*
X-2870276Y-108310D1*
X-2870248Y-112120D1*
X-2870238Y-115930D1*
X-2870235Y-119740D1*
X-2870249Y-123550D1*
X-2870382Y-127360D1*
X-2870868Y-131170D1*
X-2871795Y-134980D1*
X-2872906Y-138790D1*
X-2874071Y-142600D1*
X-2875485Y-146410D1*
X-2877258Y-150220D1*
X-2879537Y-154030D1*
X-2882454Y-157840D1*
X-2885947Y-161650D1*
X-2890074Y-165460D1*
X-2895014Y-169270D1*
X-2901038Y-173080D1*
X-2908571Y-176890D1*
X-2917624Y-180700D1*
X-2927383Y-184510D1*
X-2957863Y-62590D2*
X-2971591Y-66400D1*
X-2983519Y-70210D1*
X-2993056Y-74020D1*
X-3000352Y-77830D1*
X-3005849Y-81640D1*
X-3009994Y-85450D1*
X-3013091Y-89260D1*
X-3015425Y-93070D1*
X-3017089Y-96880D1*
X-3018173Y-100690D1*
X-3019125Y-104500D1*
X-3020226Y-108310D1*
X-3021151Y-112120D1*
X-3021360Y-115930D1*
X-3020812Y-119740D1*
X-3019986Y-123550D1*
X-3019241Y-127360D1*
X-3018279Y-131170D1*
X-3016580Y-134980D1*
X-3013993Y-138790D1*
X-3010765Y-142600D1*
X-3007036Y-146410D1*
X-3002398Y-150220D1*
X-2995813Y-154030D1*
X-2986430Y-157840D1*
X-2974594Y-161650D1*
X-2961673Y-165460D1*
X-2946433Y-62590D2*
X-2932706Y-66400D1*
X-2920778Y-70210D1*
X-2911255Y-74020D1*
X-2904079Y-77830D1*
X-2898948Y-81640D1*
X-2895349Y-85450D1*
X-2892668Y-89260D1*
X-2890448Y-93070D1*
X-2888553Y-96880D1*
X-2887099Y-100690D1*
X-2886226Y-104500D1*
X-2885790Y-108310D1*
X-2885597Y-112120D1*
X-2885519Y-115930D1*
X-2885504Y-119740D1*
X-2885628Y-123550D1*
X-2886124Y-127360D1*
X-2887185Y-131170D1*
X-2888795Y-134980D1*
X-2891021Y-138790D1*
X-2894047Y-142600D1*
X-2898046Y-146410D1*
X-2903351Y-150220D1*
X-2910237Y-154030D1*
X-2918736Y-157840D1*
X-2928504Y-161650D1*
X-2938813Y-165460D1*
X-3034063Y-207370D2*
Y-211180D1*
Y-214990D1*
Y-218800D1*
Y-222610D1*
Y-226420D1*
Y-230230D1*
Y-234040D1*
Y-237850D1*
Y-241660D1*
Y-245470D1*
Y-249280D1*
Y-253090D1*
Y-256900D1*
Y-260710D1*
Y-264520D1*
X-3018823Y-207370D2*
Y-211180D1*
Y-214990D1*
Y-218800D1*
Y-222610D1*
Y-226420D1*
X-2889283Y-207370D2*
Y-211180D1*
Y-214990D1*
Y-218800D1*
Y-222610D1*
Y-226420D1*
X-2874043Y-207370D2*
Y-211180D1*
Y-214990D1*
Y-218800D1*
Y-222610D1*
Y-226420D1*
Y-230230D1*
Y-234040D1*
Y-237850D1*
Y-241660D1*
Y-245470D1*
Y-249280D1*
Y-253090D1*
Y-256900D1*
Y-260710D1*
Y-264520D1*
X-3018823Y-245470D2*
Y-249280D1*
Y-253090D1*
Y-256900D1*
Y-260710D1*
Y-264520D1*
X-2889283Y-245470D2*
Y-249280D1*
Y-253090D1*
Y-256900D1*
Y-260710D1*
Y-264520D1*
X-2976913Y-355960D2*
X-2991097Y-359770D1*
X-3002985Y-363580D1*
X-3012339Y-367390D1*
X-3019388Y-371200D1*
X-3024451Y-375010D1*
X-3028003Y-378820D1*
X-3030552Y-382630D1*
X-3032415Y-386440D1*
X-3033882Y-390250D1*
X-3035272Y-394060D1*
X-3036456Y-397870D1*
X-3037203Y-401680D1*
X-3037573Y-405490D1*
X-3037612Y-409300D1*
X-3037197Y-413110D1*
X-3036297Y-416920D1*
X-3035181Y-420730D1*
X-3033900Y-424540D1*
X-3032120Y-428350D1*
X-3029787Y-432160D1*
X-3026944Y-435970D1*
X-3023277Y-439780D1*
X-3018410Y-443590D1*
X-3011565Y-447400D1*
X-3001167Y-451210D1*
X-2986458Y-455020D1*
X-2969293Y-458830D1*
X-2927383Y-355960D2*
X-2913345Y-359770D1*
X-2901945Y-363580D1*
X-2893489Y-367390D1*
X-2887298Y-371200D1*
X-2882534Y-375010D1*
X-2878774Y-378820D1*
X-2875851Y-382630D1*
X-2873589Y-386440D1*
X-2871968Y-390250D1*
X-2871027Y-394060D1*
X-2870565Y-397870D1*
X-2870362Y-401680D1*
X-2870281Y-405490D1*
X-2870250Y-409300D1*
X-2870254Y-413110D1*
X-2870384Y-416920D1*
X-2870883Y-420730D1*
X-2871944Y-424540D1*
X-2873555Y-428350D1*
X-2875767Y-432160D1*
X-2878673Y-435970D1*
X-2882321Y-439780D1*
X-2887258Y-443590D1*
X-2894660Y-447400D1*
X-2905834Y-451210D1*
X-2921160Y-455020D1*
X-2938813Y-458830D1*
X-2965483Y-375010D2*
X-2982127Y-378820D1*
X-2995780Y-382630D1*
X-3005531Y-386440D1*
X-3012814Y-390250D1*
X-3015923Y-394060D1*
X-3018090Y-397870D1*
X-3019673Y-401680D1*
X-3020861Y-405490D1*
X-3020464Y-409300D1*
X-3019674Y-413110D1*
X-3018507Y-416920D1*
X-3016885Y-420730D1*
X-3012257Y-424540D1*
X-3004551Y-428350D1*
X-2992856Y-432160D1*
X-2977951Y-435970D1*
X-2961673Y-439780D1*
X-2935003Y-375010D2*
X-2920847Y-378820D1*
X-2908597Y-382630D1*
X-2899487Y-386440D1*
X-2892698Y-390250D1*
X-2889625Y-394060D1*
X-2887542Y-397870D1*
X-2886395Y-401680D1*
X-2885866Y-405490D1*
X-2885767Y-409300D1*
X-2886190Y-413110D1*
X-2887366Y-416920D1*
X-2889139Y-420730D1*
X-2893718Y-424540D1*
X-2901113Y-428350D1*
X-2912272Y-432160D1*
X-2926720Y-435970D1*
X-2942623Y-439780D1*
X-2900713Y-493120D2*
Y-496930D1*
Y-500740D1*
Y-504550D1*
Y-508360D1*
Y-512170D1*
Y-515980D1*
X-2874043Y-493120D2*
Y-496930D1*
Y-500740D1*
Y-504550D1*
Y-508360D1*
Y-512170D1*
Y-515980D1*
X-2885473Y-554080D2*
Y-557890D1*
Y-561700D1*
Y-565510D1*
Y-569320D1*
Y-573130D1*
Y-576940D1*
Y-580750D1*
Y-584560D1*
X-2874043Y-554080D2*
Y-557890D1*
Y-561700D1*
Y-565510D1*
Y-569320D1*
Y-573130D1*
Y-576940D1*
Y-580750D1*
Y-584560D1*
Y-588370D1*
Y-592180D1*
Y-595990D1*
Y-599800D1*
Y-603610D1*
Y-607420D1*
Y-611230D1*
Y-615040D1*
Y-618850D1*
Y-622660D1*
Y-626470D1*
Y-630280D1*
X-3034063Y-584560D2*
X-3034019Y-588370D1*
X-3033587Y-592180D1*
X-3032560Y-595990D1*
X-3028313Y-599800D1*
X-3023293Y-603610D1*
X-3018828Y-607420D1*
X-3015518Y-611230D1*
X-3013348Y-615040D1*
X-3012159Y-618850D1*
X-3011594Y-622660D1*
X-3011344Y-626470D1*
X-3011203Y-630280D1*
X-2999773Y-603610D2*
Y-607420D1*
Y-611230D1*
Y-615040D1*
Y-618850D1*
Y-622660D1*
Y-626470D1*
Y-630280D1*
X-2885473Y-603610D2*
Y-607420D1*
Y-611230D1*
Y-615040D1*
Y-618850D1*
Y-622660D1*
Y-626470D1*
Y-630280D1*
X-3034063Y-729340D2*
X-3034048Y-733150D1*
X-3033870Y-736960D1*
X-3033423Y-740770D1*
X-3031035Y-744580D1*
X-3024733Y-748390D1*
X-3016326Y-752200D1*
X-3006365Y-756010D1*
X-2995568Y-759820D1*
X-2984389Y-763630D1*
X-2973053Y-767440D1*
X-2961656Y-771250D1*
X-2950238Y-775060D1*
X-2938841Y-778870D1*
X-2927703Y-782680D1*
X-2917451Y-786490D1*
X-2908626Y-790300D1*
X-2900713Y-794110D1*
X-2912143Y-797920D1*
X-2923573Y-801730D1*
X-2935003Y-805540D1*
X-2946433Y-809350D1*
X-2957863Y-813160D1*
X-2969293Y-816970D1*
X-2980723Y-820780D1*
X-2992138Y-824590D1*
X-3003390Y-828400D1*
X-3013888Y-832210D1*
X-3022502Y-836020D1*
X-3029292Y-839830D1*
X-3032173Y-843640D1*
X-3033187Y-847450D1*
X-3033707Y-851260D1*
X-3033937Y-855070D1*
X-3034063Y-858880D1*
X-3026443Y-729340D2*
X-3015013Y-733150D1*
X-3003583Y-736960D1*
X-2992153Y-740770D1*
X-2980723Y-744580D1*
X-2969308Y-748390D1*
X-2958012Y-752200D1*
X-2947068Y-756010D1*
X-2936550Y-759820D1*
X-2926097Y-763630D1*
X-2915346Y-767440D1*
X-2904448Y-771250D1*
X-2894112Y-775060D1*
X-2885564Y-778870D1*
X-2878808Y-782680D1*
X-2875931Y-786490D1*
X-2874919Y-790300D1*
X-2874430Y-794110D1*
X-2874520Y-797920D1*
X-2875170Y-801730D1*
X-2878546Y-805540D1*
X-2885881Y-809350D1*
X-2894965Y-813160D1*
X-2905282Y-816970D1*
X-2916241Y-820780D1*
X-2927487Y-824590D1*
X-2938849Y-828400D1*
X-2950255Y-832210D1*
X-2961662Y-836020D1*
X-2972956Y-839830D1*
X-2983899Y-843640D1*
X-2994416Y-847450D1*
X-3004859Y-851260D1*
X-3015567Y-855070D1*
X-3026443Y-858880D1*
X-585376Y-5200013D2*
D47*
Y-5327623D1*
X-542840D1*
X-524590Y-5321446D1*
X-512376Y-5309373D1*
X-506340Y-5297160D1*
X-500303Y-5279050D1*
Y-5248586D1*
X-506340Y-5230336D1*
X-512376Y-5218263D1*
X-524590Y-5206050D1*
X-542840Y-5200013D1*
X-585376D1*
X-461087Y-5224440D2*
X-448874Y-5218263D1*
X-430624Y-5200154D1*
Y-5327623D1*
X-612681Y-4438013D2*
Y-4565623D1*
X-570144D1*
X-551894Y-4559446D1*
X-539681Y-4547373D1*
X-533644Y-4535160D1*
X-527608Y-4517050D1*
Y-4486586D1*
X-533644Y-4468336D1*
X-539681Y-4456263D1*
X-551894Y-4444050D1*
X-570144Y-4438013D1*
X-612681D1*
X-482215Y-4468477D2*
Y-4462440D1*
X-476179Y-4450227D1*
X-470142Y-4444190D1*
X-457929Y-4438154D1*
X-433642D1*
X-421569Y-4444190D1*
X-415533Y-4450227D1*
X-409356Y-4462440D1*
Y-4474513D1*
X-415533Y-4486727D1*
X-427606Y-4504836D1*
X-488392Y-4565623D1*
X-403319D1*
X-612681Y-3549013D2*
Y-3676623D1*
X-570144D1*
X-551894Y-3670446D1*
X-539681Y-3658373D1*
X-533644Y-3646160D1*
X-527608Y-3628050D1*
Y-3597586D1*
X-533644Y-3579336D1*
X-539681Y-3567263D1*
X-551894Y-3555050D1*
X-570144Y-3549013D1*
X-612681D1*
X-476179Y-3549154D2*
X-409496D1*
X-445856Y-3597727D1*
X-427606D1*
X-415533Y-3603763D1*
X-409496Y-3609800D1*
X-403319Y-3628050D1*
Y-3640123D1*
X-409496Y-3658373D1*
X-421569Y-3670586D1*
X-439819Y-3676623D1*
X-458069D1*
X-476179Y-3670586D1*
X-482215Y-3664410D1*
X-488392Y-3652336D1*
X-615699Y-2660013D2*
Y-2787623D1*
X-573163D1*
X-554913Y-2781446D1*
X-542699Y-2769373D1*
X-536663Y-2757160D1*
X-530626Y-2739050D1*
Y-2708586D1*
X-536663Y-2690336D1*
X-542699Y-2678263D1*
X-554913Y-2666050D1*
X-573163Y-2660013D1*
X-615699D1*
X-430624Y-2787623D2*
Y-2660154D1*
X-491410Y-2745086D1*
X-400301D1*
X-612681Y-1771013D2*
Y-1898623D1*
X-570144D1*
X-551894Y-1892446D1*
X-539681Y-1880373D1*
X-533644Y-1868160D1*
X-527608Y-1850050D1*
Y-1819586D1*
X-533644Y-1801336D1*
X-539681Y-1789263D1*
X-551894Y-1777050D1*
X-570144Y-1771013D1*
X-612681D1*
X-415533Y-1771154D2*
X-476179D1*
X-482215Y-1825763D1*
X-476179Y-1819727D1*
X-457929Y-1813550D1*
X-439819D1*
X-421569Y-1819727D1*
X-409356Y-1831800D1*
X-403319Y-1850050D1*
Y-1862123D1*
X-409356Y-1880373D1*
X-421569Y-1892586D1*
X-439819Y-1898623D1*
X-457929D1*
X-476179Y-1892586D1*
X-482215Y-1886410D1*
X-488392Y-1874336D1*
X-609592Y-882013D2*
Y-1009623D1*
X-567056D1*
X-548806Y-1003446D1*
X-536592Y-991373D1*
X-530556Y-979160D1*
X-524519Y-961050D1*
Y-930586D1*
X-530556Y-912336D1*
X-536592Y-900263D1*
X-548806Y-888050D1*
X-567056Y-882013D1*
X-609592D1*
X-412444Y-900263D2*
X-418481Y-888190D1*
X-436731Y-882154D1*
X-448804D1*
X-467054Y-888190D1*
X-479267Y-906440D1*
X-485304Y-936763D1*
Y-967086D1*
X-479267Y-991373D1*
X-467054Y-1003586D1*
X-448804Y-1009623D1*
X-442767D1*
X-424658Y-1003586D1*
X-412444Y-991373D1*
X-406408Y-973123D1*
Y-967086D1*
X-412444Y-948836D1*
X-424658Y-936763D1*
X-442767Y-930727D1*
X-448804D1*
X-467054Y-936763D1*
X-479267Y-948836D1*
X-485304Y-967086D1*
X-612681Y6987D2*
Y-120623D1*
X-570144D1*
X-551894Y-114446D1*
X-539681Y-102373D1*
X-533644Y-90160D1*
X-527608Y-72050D1*
Y-41586D1*
X-533644Y-23336D1*
X-539681Y-11263D1*
X-551894Y950D1*
X-570144Y6987D1*
X-612681D1*
X-464106Y-120623D2*
X-403319Y6846D1*
X-488392D1*
X-612611Y895987D2*
Y768377D1*
X-570074D1*
X-551824Y774554D1*
X-539611Y786627D1*
X-533574Y798840D1*
X-527538Y816950D1*
Y847414D1*
X-533574Y865664D1*
X-539611Y877737D1*
X-551824Y889950D1*
X-570074Y895987D1*
X-612611D1*
X-457999Y895846D2*
X-476109Y889810D1*
X-482285Y877737D1*
Y865523D1*
X-476109Y853450D1*
X-464035Y847273D1*
X-439749Y841237D1*
X-421499Y835200D1*
X-409426Y822987D1*
X-403389Y810914D1*
Y792664D1*
X-409426Y780590D1*
X-415462Y774414D1*
X-433712Y768377D1*
X-457999D1*
X-476109Y774414D1*
X-482285Y780590D1*
X-488322Y792664D1*
Y810914D1*
X-482285Y822987D1*
X-470072Y835200D1*
X-451962Y841237D1*
X-427676Y847273D1*
X-415462Y853450D1*
X-409426Y865523D1*
Y877737D1*
X-415462Y889810D1*
X-433712Y895846D1*
X-457999D1*
X-1901200Y-1855376D2*
Y-1800766D1*
X-1907377Y-1782516D1*
X-1913413Y-1776339D1*
X-1925486Y-1770303D1*
X-1937700D1*
X-1949773Y-1776339D1*
X-1955950Y-1782516D1*
X-1961987Y-1800766D1*
Y-1855376D1*
X-1834377D1*
X-1901200Y-1812839D2*
X-1834377Y-1770303D1*
X-1937560Y-1731087D2*
X-1943736Y-1718874D1*
X-1961846Y-1700624D1*
X-1834377D1*
X-2538200Y-231681D2*
Y-177071D1*
X-2544377Y-158821D1*
X-2550413Y-152644D1*
X-2562486Y-146608D1*
X-2574700D1*
X-2586773Y-152644D1*
X-2592950Y-158821D1*
X-2598987Y-177071D1*
Y-231681D1*
X-2471377D1*
X-2538200Y-189144D2*
X-2471377Y-146608D1*
X-2568523Y-101215D2*
X-2574560D1*
X-2586773Y-95178D1*
X-2592810Y-89142D1*
X-2598846Y-76929D1*
Y-52642D1*
X-2592810Y-40569D1*
X-2586773Y-34532D1*
X-2574560Y-28355D1*
X-2562486Y-28356D1*
X-2550273Y-34532D1*
X-2532163Y-46606D1*
X-2471377Y-107392D1*
Y-22319D1*
X-1393200Y-1882681D2*
Y-1828071D1*
X-1399377Y-1809821D1*
X-1405413Y-1803644D1*
X-1417486Y-1797608D1*
X-1429700D1*
X-1441773Y-1803644D1*
X-1447950Y-1809821D1*
X-1453987Y-1828071D1*
Y-1882681D1*
X-1326377D1*
X-1393200Y-1840144D2*
X-1326377Y-1797608D1*
X-1453846Y-1746178D2*
Y-1679496D1*
X-1405273Y-1715855D1*
Y-1697606D1*
X-1399236Y-1685532D1*
X-1393200Y-1679496D1*
X-1374950Y-1673319D1*
X-1362877D1*
X-1344627Y-1679496D1*
X-1332413Y-1691569D1*
X-1326377Y-1709819D1*
Y-1728069D1*
X-1332413Y-1746179D1*
X-1338590Y-1752215D1*
X-1350663Y-1758392D1*
X190697Y-5266263D2*
X178624Y-5254050D1*
X160374Y-5248013D1*
X136087D1*
X117837Y-5254050D1*
X105624Y-5266263D1*
Y-5278336D1*
X111801Y-5290550D1*
X117837Y-5296586D1*
X129910Y-5302623D1*
X166410Y-5314836D1*
X178624Y-5320873D1*
X184660Y-5327050D1*
X190697Y-5339123D1*
Y-5357373D1*
X178624Y-5369446D1*
X160374Y-5375623D1*
X136087D1*
X117837Y-5369446D1*
X105624Y-5357373D1*
X229913Y-5272440D2*
X242126Y-5266263D1*
X260376Y-5248154D1*
Y-5375623D1*
X163392Y-4377263D2*
X151319Y-4365050D1*
X133069Y-4359013D1*
X108783D1*
X90533Y-4365050D1*
X78319Y-4377263D1*
Y-4389336D1*
X84496Y-4401550D1*
X90533Y-4407586D1*
X102606Y-4413623D1*
X139106Y-4425836D1*
X151319Y-4431873D1*
X157356Y-4438050D1*
X163392Y-4450123D1*
Y-4468373D1*
X151319Y-4480446D1*
X133069Y-4486623D1*
X108783D1*
X90533Y-4480446D1*
X78319Y-4468373D1*
X208785Y-4389477D2*
Y-4383440D1*
X214821Y-4371227D1*
X220858Y-4365190D1*
X233071Y-4359154D1*
X257358D1*
X269431Y-4365190D1*
X275467Y-4371227D1*
X281644Y-4383440D1*
Y-4395513D1*
X275467Y-4407727D1*
X263394Y-4425836D1*
X202608Y-4486623D1*
X287681D1*
X163392Y-3488263D2*
X151319Y-3476050D1*
X133069Y-3470013D1*
X108783D1*
X90533Y-3476050D1*
X78319Y-3488263D1*
Y-3500336D1*
X84496Y-3512550D1*
X90533Y-3518586D1*
X102606Y-3524623D1*
X139106Y-3536836D1*
X151319Y-3542873D1*
X157356Y-3549050D1*
X163392Y-3561123D1*
Y-3579373D1*
X151319Y-3591446D1*
X133069Y-3597623D1*
X108783D1*
X90533Y-3591446D1*
X78319Y-3579373D1*
X214821Y-3470154D2*
X281504D1*
X245144Y-3518727D1*
X263394D1*
X275467Y-3524763D1*
X281504Y-3530800D1*
X287681Y-3549050D1*
Y-3561123D1*
X281504Y-3579373D1*
X269431Y-3591586D1*
X251181Y-3597623D1*
X232931D1*
X214821Y-3591586D1*
X208785Y-3585410D1*
X202608Y-3573336D1*
X160374Y-2599263D2*
X148301Y-2587050D1*
X130051Y-2581013D1*
X105764D1*
X87514Y-2587050D1*
X75301Y-2599263D1*
Y-2611336D1*
X81478Y-2623550D1*
X87514Y-2629586D1*
X99587Y-2635623D1*
X136087Y-2647836D1*
X148301Y-2653873D1*
X154337Y-2660050D1*
X160374Y-2672123D1*
Y-2690373D1*
X148301Y-2702446D1*
X130051Y-2708623D1*
X105764D1*
X87514Y-2702446D1*
X75301Y-2690373D1*
X260376Y-2708623D2*
Y-2581154D1*
X199590Y-2666086D1*
X290699D1*
X163392Y-1710263D2*
X151319Y-1698050D1*
X133069Y-1692013D1*
X108783D1*
X90533Y-1698050D1*
X78319Y-1710263D1*
Y-1722336D1*
X84496Y-1734550D1*
X90533Y-1740586D1*
X102606Y-1746623D1*
X139106Y-1758836D1*
X151319Y-1764873D1*
X157356Y-1771050D1*
X163392Y-1783123D1*
Y-1801373D1*
X151319Y-1813446D1*
X133069Y-1819623D1*
X108783D1*
X90533Y-1813446D1*
X78319Y-1801373D1*
X275467Y-1692154D2*
X214821D1*
X208785Y-1746763D1*
X214821Y-1740727D1*
X233071Y-1734550D1*
X251181D1*
X269431Y-1740727D1*
X281644Y-1752800D1*
X287681Y-1771050D1*
Y-1783123D1*
X281644Y-1801373D1*
X269431Y-1813586D1*
X251181Y-1819623D1*
X233071D1*
X214821Y-1813586D1*
X208785Y-1807410D1*
X202608Y-1795336D1*
X166481Y-821263D2*
X154408Y-809050D1*
X136158Y-803013D1*
X111871D1*
X93621Y-809050D1*
X81408Y-821263D1*
Y-833336D1*
X87584Y-845550D1*
X93621Y-851586D1*
X105694Y-857623D1*
X142194Y-869836D1*
X154408Y-875873D1*
X160444Y-882050D1*
X166481Y-894123D1*
Y-912373D1*
X154408Y-924446D1*
X136158Y-930623D1*
X111871D1*
X93621Y-924446D1*
X81408Y-912373D1*
X278556Y-821263D2*
X272519Y-809190D1*
X254269Y-803154D1*
X242196D1*
X223946Y-809190D1*
X211733Y-827440D1*
X205696Y-857763D1*
Y-888086D1*
X211733Y-912373D1*
X223946Y-924586D1*
X242196Y-930623D1*
X248233D1*
X266342Y-924586D1*
X278556Y-912373D1*
X284592Y-894123D1*
Y-888086D1*
X278556Y-869836D1*
X266342Y-857763D1*
X248233Y-851727D1*
X242196D1*
X223946Y-857763D1*
X211733Y-869836D1*
X205696Y-888086D1*
X163392Y67737D2*
X151319Y79950D1*
X133069Y85987D1*
X108783D1*
X90533Y79950D1*
X78319Y67737D1*
Y55664D1*
X84496Y43450D1*
X90533Y37414D1*
X102606Y31377D1*
X139106Y19164D1*
X151319Y13127D1*
X157356Y6950D1*
X163392Y-5123D1*
Y-23373D1*
X151319Y-35446D1*
X133069Y-41623D1*
X108783D1*
X90533Y-35446D1*
X78319Y-23373D1*
X226894Y-41623D2*
X287681Y85846D1*
X202608D1*
X163462Y956737D2*
X151389Y968950D1*
X133139Y974987D1*
X108853D1*
X90603Y968950D1*
X78389Y956737D1*
Y944664D1*
X84566Y932450D1*
X90603Y926414D1*
X102676Y920377D1*
X139176Y908164D1*
X151389Y902127D1*
X157426Y895950D1*
X163462Y883877D1*
Y865627D1*
X151389Y853554D1*
X133139Y847377D1*
X108853D1*
X90603Y853554D1*
X78389Y865627D1*
X233001Y974846D2*
X214891Y968810D1*
X208715Y956737D1*
Y944523D1*
X214891Y932450D1*
X226965Y926273D1*
X251251Y920237D1*
X269501Y914200D1*
X281574Y901987D1*
X287611Y889914D1*
Y871664D1*
X281574Y859590D1*
X275538Y853414D1*
X257288Y847377D1*
X233001D1*
X214891Y853414D1*
X208715Y859590D1*
X202678Y871664D1*
Y889914D1*
X208715Y901987D1*
X220928Y914200D1*
X239038Y920237D1*
X263324Y926273D1*
X275538Y932450D1*
X281574Y944523D1*
Y956737D1*
X275538Y968810D1*
X257288Y974846D1*
X233001D1*
X-2617376Y-739013D2*
Y-830123D1*
X-2611340Y-848373D1*
X-2599126Y-860446D1*
X-2580876Y-866623D1*
X-2568803D1*
X-2550553Y-860446D1*
X-2538340Y-848373D1*
X-2532303Y-830123D1*
Y-739013D1*
X-2493087Y-763440D2*
X-2480874Y-757263D1*
X-2462624Y-739154D1*
Y-866623D1*
X-2644681Y-2959013D2*
Y-3050123D1*
X-2638644Y-3068373D1*
X-2626431Y-3080446D1*
X-2608181Y-3086623D1*
X-2596108D1*
X-2577858Y-3080446D1*
X-2565644Y-3068373D1*
X-2559608Y-3050123D1*
Y-2959013D1*
X-2514215Y-2989477D2*
Y-2983440D1*
X-2508179Y-2971227D1*
X-2502142Y-2965190D1*
X-2489929Y-2959154D1*
X-2465642D1*
X-2453569Y-2965190D1*
X-2447533Y-2971227D1*
X-2441356Y-2983440D1*
Y-2995513D1*
X-2447533Y-3007727D1*
X-2459606Y-3025836D1*
X-2520392Y-3086623D1*
X-2435319D1*
X-3533681Y591987D2*
Y500877D1*
X-3527644Y482627D1*
X-3515431Y470554D1*
X-3497181Y464377D1*
X-3485108D1*
X-3466858Y470554D1*
X-3454644Y482627D1*
X-3448608Y500877D1*
Y591987D1*
X-3397179Y591846D2*
X-3330496D1*
X-3366856Y543273D1*
X-3348606D1*
X-3336533Y537237D1*
X-3330496Y531200D1*
X-3324319Y512950D1*
Y500877D1*
X-3330496Y482627D1*
X-3342569Y470414D1*
X-3360819Y464377D1*
X-3379069D1*
X-3397179Y470414D1*
X-3403215Y476590D1*
X-3409392Y488664D1*
X-1631699Y-2959013D2*
Y-3050123D1*
X-1625663Y-3068373D1*
X-1613449Y-3080446D1*
X-1595199Y-3086623D1*
X-1583126D1*
X-1564876Y-3080446D1*
X-1552663Y-3068373D1*
X-1546626Y-3050123D1*
Y-2959013D1*
X-1446624Y-3086623D2*
Y-2959154D1*
X-1507410Y-3044086D1*
X-1416301D1*
M02*
